%TF.GenerationSoftware,KiCad,Pcbnew,9.0.3-9.0.3-0~ubuntu24.04.1*%
%TF.CreationDate,2025-08-16T22:58:57+09:00*%
%TF.ProjectId,kp25tk,6b703235-746b-42e6-9b69-6361645f7063,0.0.8*%
%TF.SameCoordinates,Original*%
%TF.FileFunction,Other,User*%
%FSLAX46Y46*%
G04 Gerber Fmt 4.6, Leading zero omitted, Abs format (unit mm)*
G04 Created by KiCad (PCBNEW 9.0.3-9.0.3-0~ubuntu24.04.1) date 2025-08-16 22:58:57*
%MOMM*%
%LPD*%
G01*
G04 APERTURE LIST*
%ADD10C,0.050000*%
G04 APERTURE END LIST*
D10*
%TO.C,D21*%
X71115000Y-122250000D02*
X71115000Y-124750000D01*
X71115000Y-124750000D02*
X80835000Y-124750000D01*
X80835000Y-122250000D02*
X71115000Y-122250000D01*
X80835000Y-124750000D02*
X80835000Y-122250000D01*
%TO.C,R1*%
X82155000Y-80500000D02*
X82155000Y-83500000D01*
X82155000Y-83500000D02*
X94415000Y-83500000D01*
X94415000Y-80500000D02*
X82155000Y-80500000D01*
X94415000Y-83500000D02*
X94415000Y-80500000D01*
%TO.C,SW18*%
X126225000Y-107305000D02*
X139425000Y-107305000D01*
X126225000Y-120505000D02*
X126225000Y-107305000D01*
X139425000Y-107305000D02*
X139425000Y-120505000D01*
X139425000Y-120505000D02*
X126225000Y-120505000D01*
%TO.C,SW22*%
X88125000Y-88255000D02*
X101325000Y-88255000D01*
X88125000Y-101455000D02*
X88125000Y-88255000D01*
X101325000Y-88255000D02*
X101325000Y-101455000D01*
X101325000Y-101455000D02*
X88125000Y-101455000D01*
%TO.C,SW11*%
X107175000Y-126355000D02*
X120375000Y-126355000D01*
X107175000Y-139555000D02*
X107175000Y-126355000D01*
X120375000Y-126355000D02*
X120375000Y-139555000D01*
X120375000Y-139555000D02*
X107175000Y-139555000D01*
%TO.C,D19*%
X109115000Y-141250000D02*
X109115000Y-143750000D01*
X109115000Y-143750000D02*
X118835000Y-143750000D01*
X118835000Y-141250000D02*
X109115000Y-141250000D01*
X118835000Y-143750000D02*
X118835000Y-141250000D01*
%TO.C,SW21*%
X126225000Y-164455000D02*
X139425000Y-164455000D01*
X126225000Y-177655000D02*
X126225000Y-164455000D01*
X139425000Y-164455000D02*
X139425000Y-177655000D01*
X139425000Y-177655000D02*
X126225000Y-177655000D01*
%TO.C,R5*%
X59075000Y-71000000D02*
X59075000Y-74000000D01*
X59075000Y-74000000D02*
X71335000Y-74000000D01*
X71335000Y-71000000D02*
X59075000Y-71000000D01*
X71335000Y-74000000D02*
X71335000Y-71000000D01*
%TO.C,SW3*%
X107175000Y-164455000D02*
X120375000Y-164455000D01*
X107175000Y-177655000D02*
X107175000Y-164455000D01*
X120375000Y-164455000D02*
X120375000Y-177655000D01*
X120375000Y-177655000D02*
X107175000Y-177655000D01*
%TO.C,D2*%
X108235000Y-70750000D02*
X108235000Y-73250000D01*
X108235000Y-73250000D02*
X117955000Y-73250000D01*
X117955000Y-70750000D02*
X108235000Y-70750000D01*
X117955000Y-73250000D02*
X117955000Y-70750000D01*
%TO.C,SW5*%
X69075000Y-145405000D02*
X82275000Y-145405000D01*
X69075000Y-158605000D02*
X69075000Y-145405000D01*
X82275000Y-145405000D02*
X82275000Y-158605000D01*
X82275000Y-158605000D02*
X69075000Y-158605000D01*
%TO.C,U1*%
X73985000Y-63900000D02*
X73985000Y-73700000D01*
X73985000Y-73700000D02*
X92335000Y-73700000D01*
X92335000Y-63900000D02*
X73985000Y-63900000D01*
X92335000Y-73700000D02*
X92335000Y-63900000D01*
%TO.C,D10*%
X90115000Y-179305000D02*
X90115000Y-181805000D01*
X90115000Y-181805000D02*
X99835000Y-181805000D01*
X99835000Y-179305000D02*
X90115000Y-179305000D01*
X99835000Y-181805000D02*
X99835000Y-179305000D01*
%TO.C,D15*%
X109115000Y-160305000D02*
X109115000Y-162805000D01*
X109115000Y-162805000D02*
X118835000Y-162805000D01*
X118835000Y-160305000D02*
X109115000Y-160305000D01*
X118835000Y-162805000D02*
X118835000Y-160305000D01*
%TO.C,D29*%
X128115000Y-179305000D02*
X128115000Y-181805000D01*
X128115000Y-181805000D02*
X137835000Y-181805000D01*
X137835000Y-179305000D02*
X128115000Y-179305000D01*
X137835000Y-181805000D02*
X137835000Y-179305000D01*
%TO.C,SW23*%
X107175000Y-88255000D02*
X120375000Y-88255000D01*
X107175000Y-101455000D02*
X107175000Y-88255000D01*
X120375000Y-88255000D02*
X120375000Y-101455000D01*
X120375000Y-101455000D02*
X107175000Y-101455000D01*
%TO.C,D20*%
X52115000Y-122305000D02*
X52115000Y-124805000D01*
X52115000Y-124805000D02*
X61835000Y-124805000D01*
X61835000Y-122305000D02*
X52115000Y-122305000D01*
X61835000Y-124805000D02*
X61835000Y-122305000D01*
%TO.C,SW8*%
X50025000Y-126355000D02*
X63225000Y-126355000D01*
X50025000Y-139555000D02*
X50025000Y-126355000D01*
X63225000Y-126355000D02*
X63225000Y-139555000D01*
X63225000Y-139555000D02*
X50025000Y-139555000D01*
%TO.C,D27*%
X128115000Y-160305000D02*
X128115000Y-162805000D01*
X128115000Y-162805000D02*
X137835000Y-162805000D01*
X137835000Y-160305000D02*
X128115000Y-160305000D01*
X137835000Y-162805000D02*
X137835000Y-160305000D01*
%TO.C,D16*%
X52115000Y-141305000D02*
X52115000Y-143805000D01*
X52115000Y-143805000D02*
X61835000Y-143805000D01*
X61835000Y-141305000D02*
X52115000Y-141305000D01*
X61835000Y-143805000D02*
X61835000Y-141305000D01*
%TO.C,SW27*%
X47135000Y-67100000D02*
X47135000Y-80300000D01*
X47135000Y-80300000D02*
X54435000Y-80300000D01*
X54435000Y-67100000D02*
X47135000Y-67100000D01*
X54435000Y-80300000D02*
X54435000Y-67100000D01*
%TO.C,J3*%
X87385000Y-47885000D02*
X87385000Y-54035000D01*
X87385000Y-54035000D02*
X90985000Y-54035000D01*
X90985000Y-47885000D02*
X87385000Y-47885000D01*
X90985000Y-54035000D02*
X90985000Y-47885000D01*
%TO.C,SW19*%
X126225000Y-145405000D02*
X139425000Y-145405000D01*
X126225000Y-158605000D02*
X126225000Y-145405000D01*
X139425000Y-145405000D02*
X139425000Y-158605000D01*
X139425000Y-158605000D02*
X126225000Y-158605000D01*
%TO.C,D3*%
X56695000Y-76250000D02*
X56695000Y-78750000D01*
X56695000Y-78750000D02*
X66415000Y-78750000D01*
X66415000Y-76250000D02*
X56695000Y-76250000D01*
X66415000Y-78750000D02*
X66415000Y-76250000D01*
%TO.C,D5*%
X48095000Y-61250000D02*
X48095000Y-65750000D01*
X48095000Y-65750000D02*
X52945000Y-65750000D01*
X52945000Y-61250000D02*
X48095000Y-61250000D01*
X52945000Y-65750000D02*
X52945000Y-61250000D01*
%TO.C,C1*%
X97830000Y-77750000D02*
G75*
G02*
X92330000Y-77750000I-2750000J0D01*
G01*
X92330000Y-77750000D02*
G75*
G02*
X97830000Y-77750000I2750000J0D01*
G01*
%TO.C,D17*%
X71115000Y-141305000D02*
X71115000Y-143805000D01*
X71115000Y-143805000D02*
X80835000Y-143805000D01*
X80835000Y-141305000D02*
X71115000Y-141305000D01*
X80835000Y-143805000D02*
X80835000Y-141305000D01*
%TO.C,J7*%
X135485000Y-57425000D02*
X135485000Y-63575000D01*
X135485000Y-63575000D02*
X139085000Y-63575000D01*
X139085000Y-57425000D02*
X135485000Y-57425000D01*
X139085000Y-63575000D02*
X139085000Y-57425000D01*
%TO.C,D9*%
X70865000Y-179250000D02*
X70865000Y-181750000D01*
X70865000Y-181750000D02*
X80585000Y-181750000D01*
X80585000Y-179250000D02*
X70865000Y-179250000D01*
X80585000Y-181750000D02*
X80585000Y-179250000D01*
%TO.C,SW12*%
X50025000Y-107305000D02*
X63225000Y-107305000D01*
X50025000Y-120505000D02*
X50025000Y-107305000D01*
X63225000Y-107305000D02*
X63225000Y-120505000D01*
X63225000Y-120505000D02*
X50025000Y-120505000D01*
%TO.C,D24*%
X71115000Y-103305000D02*
X71115000Y-105805000D01*
X71115000Y-105805000D02*
X80835000Y-105805000D01*
X80835000Y-103305000D02*
X71115000Y-103305000D01*
X80835000Y-105805000D02*
X80835000Y-103305000D01*
%TO.C,SW24*%
X126225000Y-88255000D02*
X139425000Y-88255000D01*
X126225000Y-101455000D02*
X126225000Y-88255000D01*
X139425000Y-88255000D02*
X139425000Y-101455000D01*
X139425000Y-101455000D02*
X126225000Y-101455000D01*
%TO.C,C3*%
X72115000Y-77750000D02*
G75*
G02*
X66615000Y-77750000I-2750000J0D01*
G01*
X66615000Y-77750000D02*
G75*
G02*
X72115000Y-77750000I2750000J0D01*
G01*
%TO.C,J8*%
X135485000Y-47725000D02*
X135485000Y-53875000D01*
X135485000Y-53875000D02*
X139085000Y-53875000D01*
X139085000Y-47725000D02*
X135485000Y-47725000D01*
X139085000Y-53875000D02*
X139085000Y-47725000D01*
%TO.C,J4*%
X92475000Y-59955000D02*
X92475000Y-63555000D01*
X92475000Y-63555000D02*
X101125000Y-63555000D01*
X101125000Y-59955000D02*
X92475000Y-59955000D01*
X101125000Y-63555000D02*
X101125000Y-59955000D01*
%TO.C,C5*%
X105535000Y-73044888D02*
G75*
G02*
X100035000Y-73044888I-2750000J0D01*
G01*
X100035000Y-73044888D02*
G75*
G02*
X105535000Y-73044888I2750000J0D01*
G01*
%TO.C,D26*%
X128115000Y-122305000D02*
X128115000Y-124805000D01*
X128115000Y-124805000D02*
X137835000Y-124805000D01*
X137835000Y-122305000D02*
X128115000Y-122305000D01*
X137835000Y-124805000D02*
X137835000Y-122305000D01*
%TO.C,SW25*%
X127525000Y-68750000D02*
X127525000Y-79250000D01*
X127525000Y-68750000D02*
X141545000Y-68750000D01*
X141545000Y-79250000D02*
X127525000Y-79250000D01*
X141545000Y-79250000D02*
X141545000Y-68750000D01*
%TO.C,R3*%
X56655000Y-80500000D02*
X56655000Y-83500000D01*
X56655000Y-83500000D02*
X68915000Y-83500000D01*
X68915000Y-80500000D02*
X56655000Y-80500000D01*
X68915000Y-83500000D02*
X68915000Y-80500000D01*
%TO.C,D14*%
X90115000Y-160250000D02*
X90115000Y-162750000D01*
X90115000Y-162750000D02*
X99835000Y-162750000D01*
X99835000Y-160250000D02*
X90115000Y-160250000D01*
X99835000Y-162750000D02*
X99835000Y-160250000D01*
%TO.C,SW15*%
X107175000Y-107305000D02*
X120375000Y-107305000D01*
X107175000Y-120505000D02*
X107175000Y-107305000D01*
X120375000Y-107305000D02*
X120375000Y-120505000D01*
X120375000Y-120505000D02*
X107175000Y-120505000D01*
%TO.C,D30*%
X90115000Y-103305000D02*
X90115000Y-105805000D01*
X90115000Y-105805000D02*
X99835000Y-105805000D01*
X99835000Y-103305000D02*
X90115000Y-103305000D01*
X99835000Y-105805000D02*
X99835000Y-103305000D01*
%TO.C,SW20*%
X126225000Y-126355000D02*
X139425000Y-126355000D01*
X126225000Y-139555000D02*
X126225000Y-126355000D01*
X139425000Y-126355000D02*
X139425000Y-139555000D01*
X139425000Y-139555000D02*
X126225000Y-139555000D01*
%TO.C,SW0*%
X50025000Y-164455000D02*
X63225000Y-164455000D01*
X50025000Y-177655000D02*
X50025000Y-164455000D01*
X63225000Y-164455000D02*
X63225000Y-177655000D01*
X63225000Y-177655000D02*
X50025000Y-177655000D01*
%TO.C,D22*%
X90115000Y-122250000D02*
X90115000Y-124750000D01*
X90115000Y-124750000D02*
X99835000Y-124750000D01*
X99835000Y-122250000D02*
X90115000Y-122250000D01*
X99835000Y-124750000D02*
X99835000Y-122250000D01*
%TO.C,RN1*%
X99735000Y-80350000D02*
X99735000Y-83650000D01*
X99735000Y-83650000D02*
X123485000Y-83650000D01*
X123485000Y-80350000D02*
X99735000Y-80350000D01*
X123485000Y-83650000D02*
X123485000Y-80350000D01*
%TO.C,SW14*%
X88125000Y-107305000D02*
X101325000Y-107305000D01*
X88125000Y-120505000D02*
X88125000Y-107305000D01*
X101325000Y-107305000D02*
X101325000Y-120505000D01*
X101325000Y-120505000D02*
X88125000Y-120505000D01*
%TO.C,J2*%
X95945000Y-47660000D02*
X95945000Y-53810000D01*
X95945000Y-53810000D02*
X129995000Y-53810000D01*
X129995000Y-47660000D02*
X95945000Y-47660000D01*
X129995000Y-53810000D02*
X129995000Y-47660000D01*
%TO.C,D18*%
X90115000Y-141305000D02*
X90115000Y-143805000D01*
X90115000Y-143805000D02*
X99835000Y-143805000D01*
X99835000Y-141305000D02*
X90115000Y-141305000D01*
X99835000Y-143805000D02*
X99835000Y-141305000D01*
%TO.C,SW10*%
X88125000Y-126355000D02*
X101325000Y-126355000D01*
X88125000Y-139555000D02*
X88125000Y-126355000D01*
X101325000Y-126355000D02*
X101325000Y-139555000D01*
X101325000Y-139555000D02*
X88125000Y-139555000D01*
%TO.C,SW13*%
X69075000Y-107305000D02*
X82275000Y-107305000D01*
X69075000Y-120505000D02*
X69075000Y-107305000D01*
X82275000Y-107305000D02*
X82275000Y-120505000D01*
X82275000Y-120505000D02*
X69075000Y-120505000D01*
%TO.C,D25*%
X52115000Y-103305000D02*
X52115000Y-105805000D01*
X52115000Y-105805000D02*
X61835000Y-105805000D01*
X61835000Y-103305000D02*
X52115000Y-103305000D01*
X61835000Y-105805000D02*
X61835000Y-103305000D01*
%TO.C,J1*%
X50835000Y-47860000D02*
X50835000Y-54010000D01*
X50835000Y-54010000D02*
X84885000Y-54010000D01*
X84885000Y-47860000D02*
X50835000Y-47860000D01*
X84885000Y-54010000D02*
X84885000Y-47860000D01*
%TO.C,SW9*%
X69075000Y-126355000D02*
X82275000Y-126355000D01*
X69075000Y-139555000D02*
X69075000Y-126355000D01*
X82275000Y-126355000D02*
X82275000Y-139555000D01*
X82275000Y-139555000D02*
X69075000Y-139555000D01*
%TO.C,R2*%
X108235000Y-75000000D02*
X108235000Y-78000000D01*
X108235000Y-78000000D02*
X120495000Y-78000000D01*
X120495000Y-75000000D02*
X108235000Y-75000000D01*
X120495000Y-78000000D02*
X120495000Y-75000000D01*
%TO.C,R4*%
X59075000Y-67500000D02*
X59075000Y-70500000D01*
X59075000Y-70500000D02*
X71335000Y-70500000D01*
X71335000Y-67500000D02*
X59075000Y-67500000D01*
X71335000Y-70500000D02*
X71335000Y-67500000D01*
%TO.C,D1*%
X82220000Y-76195000D02*
X82220000Y-78695000D01*
X82220000Y-78695000D02*
X91940000Y-78695000D01*
X91940000Y-76195000D02*
X82220000Y-76195000D01*
X91940000Y-78695000D02*
X91940000Y-76195000D01*
%TO.C,J5*%
X103235000Y-59950000D02*
X103235000Y-63550000D01*
X103235000Y-63550000D02*
X124585000Y-63550000D01*
X124585000Y-59950000D02*
X103235000Y-59950000D01*
X124585000Y-63550000D02*
X124585000Y-59950000D01*
%TO.C,SW2*%
X88125000Y-164455000D02*
X101325000Y-164455000D01*
X88125000Y-177655000D02*
X88125000Y-164455000D01*
X101325000Y-164455000D02*
X101325000Y-177655000D01*
X101325000Y-177655000D02*
X88125000Y-177655000D01*
%TO.C,C2*%
X123829888Y-72250000D02*
G75*
G02*
X118329888Y-72250000I-2750000J0D01*
G01*
X118329888Y-72250000D02*
G75*
G02*
X123829888Y-72250000I2750000J0D01*
G01*
%TO.C,SW17*%
X50025000Y-88255000D02*
X63225000Y-88255000D01*
X50025000Y-101455000D02*
X50025000Y-88255000D01*
X63225000Y-88255000D02*
X63225000Y-101455000D01*
X63225000Y-101455000D02*
X50025000Y-101455000D01*
%TO.C,D8*%
X52115000Y-179250000D02*
X52115000Y-181750000D01*
X52115000Y-181750000D02*
X61835000Y-181750000D01*
X61835000Y-179250000D02*
X52115000Y-179250000D01*
X61835000Y-181750000D02*
X61835000Y-179250000D01*
%TO.C,D11*%
X109115000Y-179305000D02*
X109115000Y-181805000D01*
X109115000Y-181805000D02*
X118835000Y-181805000D01*
X118835000Y-179305000D02*
X109115000Y-179305000D01*
X118835000Y-181805000D02*
X118835000Y-179305000D01*
%TO.C,D23*%
X109115000Y-122305000D02*
X109115000Y-124805000D01*
X109115000Y-124805000D02*
X118835000Y-124805000D01*
X118835000Y-122305000D02*
X109115000Y-122305000D01*
X118835000Y-124805000D02*
X118835000Y-122305000D01*
%TO.C,SW16*%
X69075000Y-88255000D02*
X82275000Y-88255000D01*
X69075000Y-101455000D02*
X69075000Y-88255000D01*
X82275000Y-88255000D02*
X82275000Y-101455000D01*
X82275000Y-101455000D02*
X69075000Y-101455000D01*
%TO.C,D4*%
X59595000Y-61250000D02*
X59595000Y-65750000D01*
X59595000Y-65750000D02*
X64445000Y-65750000D01*
X64445000Y-61250000D02*
X59595000Y-61250000D01*
X64445000Y-65750000D02*
X64445000Y-61250000D01*
%TO.C,D28*%
X128115000Y-141305000D02*
X128115000Y-143805000D01*
X128115000Y-143805000D02*
X137835000Y-143805000D01*
X137835000Y-141305000D02*
X128115000Y-141305000D01*
X137835000Y-143805000D02*
X137835000Y-141305000D01*
%TO.C,C4*%
X74485000Y-74500000D02*
X74485000Y-77500000D01*
X74485000Y-77500000D02*
X81585000Y-77500000D01*
X81585000Y-74500000D02*
X74485000Y-74500000D01*
X81585000Y-77500000D02*
X81585000Y-74500000D01*
%TO.C,D12*%
X52115000Y-160250000D02*
X52115000Y-162750000D01*
X52115000Y-162750000D02*
X61835000Y-162750000D01*
X61835000Y-160250000D02*
X52115000Y-160250000D01*
X61835000Y-162750000D02*
X61835000Y-160250000D01*
%TO.C,SW6*%
X88125000Y-145405000D02*
X101325000Y-145405000D01*
X88125000Y-158605000D02*
X88125000Y-145405000D01*
X101325000Y-145405000D02*
X101325000Y-158605000D01*
X101325000Y-158605000D02*
X88125000Y-158605000D01*
%TO.C,SW4*%
X50025000Y-145405000D02*
X63225000Y-145405000D01*
X50025000Y-158605000D02*
X50025000Y-145405000D01*
X63225000Y-145405000D02*
X63225000Y-158605000D01*
X63225000Y-158605000D02*
X50025000Y-158605000D01*
%TO.C,D13*%
X70925000Y-160305000D02*
X70925000Y-162805000D01*
X70925000Y-162805000D02*
X80645000Y-162805000D01*
X80645000Y-160305000D02*
X70925000Y-160305000D01*
X80645000Y-162805000D02*
X80645000Y-160305000D01*
%TO.C,SW7*%
X107175000Y-145405000D02*
X120375000Y-145405000D01*
X107175000Y-158605000D02*
X107175000Y-145405000D01*
X120375000Y-145405000D02*
X120375000Y-158605000D01*
X120375000Y-158605000D02*
X107175000Y-158605000D01*
%TO.C,D31*%
X109115000Y-103250000D02*
X109115000Y-105750000D01*
X109115000Y-105750000D02*
X118835000Y-105750000D01*
X118835000Y-103250000D02*
X109115000Y-103250000D01*
X118835000Y-105750000D02*
X118835000Y-103250000D01*
%TO.C,J6*%
X126910000Y-59950000D02*
X126910000Y-63550000D01*
X126910000Y-63550000D02*
X133060000Y-63550000D01*
X133060000Y-59950000D02*
X126910000Y-59950000D01*
X133060000Y-63550000D02*
X133060000Y-59950000D01*
%TO.C,SW1*%
X69075000Y-164455000D02*
X82275000Y-164455000D01*
X69075000Y-177655000D02*
X69075000Y-164455000D01*
X82275000Y-164455000D02*
X82275000Y-177655000D01*
X82275000Y-177655000D02*
X69075000Y-177655000D01*
%TD*%
M02*
