%TF.GenerationSoftware,KiCad,Pcbnew,9.0.2+1*%
%TF.CreationDate,2025-08-15T04:00:08+09:00*%
%TF.ProjectId,kp25tk,6b703235-746b-42e6-9b69-6361645f7063,0.0.8*%
%TF.SameCoordinates,Original*%
%TF.FileFunction,OtherDrawing,Comment*%
%FSLAX46Y46*%
G04 Gerber Fmt 4.6, Leading zero omitted, Abs format (unit mm)*
G04 Created by KiCad (PCBNEW 9.0.2+1) date 2025-08-15 04:00:08*
%MOMM*%
%LPD*%
G01*
G04 APERTURE LIST*
%ADD10C,0.150000*%
G04 APERTURE END LIST*
D10*
%TO.C,SW18*%
X123300000Y-104380000D02*
X142350000Y-104380000D01*
X123300000Y-123430000D02*
X123300000Y-104380000D01*
X142350000Y-104380000D02*
X142350000Y-123430000D01*
X142350000Y-123430000D02*
X123300000Y-123430000D01*
%TO.C,SW22*%
X85200000Y-85330000D02*
X104250000Y-85330000D01*
X85200000Y-104380000D02*
X85200000Y-85330000D01*
X104250000Y-85330000D02*
X104250000Y-104380000D01*
X104250000Y-104380000D02*
X85200000Y-104380000D01*
%TO.C,SW11*%
X104250000Y-123430000D02*
X123300000Y-123430000D01*
X104250000Y-142480000D02*
X104250000Y-123430000D01*
X123300000Y-123430000D02*
X123300000Y-142480000D01*
X123300000Y-142480000D02*
X104250000Y-142480000D01*
%TO.C,SW21*%
X123300000Y-161530000D02*
X142350000Y-161530000D01*
X123300000Y-180580000D02*
X123300000Y-161530000D01*
X142350000Y-161530000D02*
X142350000Y-180580000D01*
X142350000Y-180580000D02*
X123300000Y-180580000D01*
%TO.C,SW3*%
X104250000Y-161530000D02*
X123300000Y-161530000D01*
X104250000Y-180580000D02*
X104250000Y-161530000D01*
X123300000Y-161530000D02*
X123300000Y-180580000D01*
X123300000Y-180580000D02*
X104250000Y-180580000D01*
%TO.C,SW5*%
X66150000Y-142480000D02*
X85200000Y-142480000D01*
X66150000Y-161530000D02*
X66150000Y-142480000D01*
X85200000Y-142480000D02*
X85200000Y-161530000D01*
X85200000Y-161530000D02*
X66150000Y-161530000D01*
%TO.C,SW23*%
X104250000Y-85330000D02*
X123300000Y-85330000D01*
X104250000Y-104380000D02*
X104250000Y-85330000D01*
X123300000Y-85330000D02*
X123300000Y-104380000D01*
X123300000Y-104380000D02*
X104250000Y-104380000D01*
%TO.C,SW8*%
X47100000Y-123430000D02*
X66150000Y-123430000D01*
X47100000Y-142480000D02*
X47100000Y-123430000D01*
X66150000Y-123430000D02*
X66150000Y-142480000D01*
X66150000Y-142480000D02*
X47100000Y-142480000D01*
%TO.C,SW19*%
X123300000Y-142480000D02*
X142350000Y-142480000D01*
X123300000Y-161530000D02*
X123300000Y-142480000D01*
X142350000Y-142480000D02*
X142350000Y-161530000D01*
X142350000Y-161530000D02*
X123300000Y-161530000D01*
%TO.C,SW12*%
X47100000Y-104380000D02*
X66150000Y-104380000D01*
X47100000Y-123430000D02*
X47100000Y-104380000D01*
X66150000Y-104380000D02*
X66150000Y-123430000D01*
X66150000Y-123430000D02*
X47100000Y-123430000D01*
%TO.C,SW24*%
X123300000Y-85330000D02*
X142350000Y-85330000D01*
X123300000Y-104380000D02*
X123300000Y-85330000D01*
X142350000Y-85330000D02*
X142350000Y-104380000D01*
X142350000Y-104380000D02*
X123300000Y-104380000D01*
%TO.C,SW15*%
X104250000Y-104380000D02*
X123300000Y-104380000D01*
X104250000Y-123430000D02*
X104250000Y-104380000D01*
X123300000Y-104380000D02*
X123300000Y-123430000D01*
X123300000Y-123430000D02*
X104250000Y-123430000D01*
%TO.C,SW20*%
X123300000Y-123430000D02*
X142350000Y-123430000D01*
X123300000Y-142480000D02*
X123300000Y-123430000D01*
X142350000Y-123430000D02*
X142350000Y-142480000D01*
X142350000Y-142480000D02*
X123300000Y-142480000D01*
%TO.C,SW0*%
X47100000Y-161530000D02*
X66150000Y-161530000D01*
X47100000Y-180580000D02*
X47100000Y-161530000D01*
X66150000Y-161530000D02*
X66150000Y-180580000D01*
X66150000Y-180580000D02*
X47100000Y-180580000D01*
%TO.C,SW14*%
X85200000Y-104380000D02*
X104250000Y-104380000D01*
X85200000Y-123430000D02*
X85200000Y-104380000D01*
X104250000Y-104380000D02*
X104250000Y-123430000D01*
X104250000Y-123430000D02*
X85200000Y-123430000D01*
%TO.C,SW10*%
X85200000Y-123430000D02*
X104250000Y-123430000D01*
X85200000Y-142480000D02*
X85200000Y-123430000D01*
X104250000Y-123430000D02*
X104250000Y-142480000D01*
X104250000Y-142480000D02*
X85200000Y-142480000D01*
%TO.C,SW13*%
X66150000Y-104380000D02*
X85200000Y-104380000D01*
X66150000Y-123430000D02*
X66150000Y-104380000D01*
X85200000Y-104380000D02*
X85200000Y-123430000D01*
X85200000Y-123430000D02*
X66150000Y-123430000D01*
%TO.C,SW9*%
X66150000Y-123430000D02*
X85200000Y-123430000D01*
X66150000Y-142480000D02*
X66150000Y-123430000D01*
X85200000Y-123430000D02*
X85200000Y-142480000D01*
X85200000Y-142480000D02*
X66150000Y-142480000D01*
%TO.C,SW2*%
X85200000Y-161530000D02*
X104250000Y-161530000D01*
X85200000Y-180580000D02*
X85200000Y-161530000D01*
X104250000Y-161530000D02*
X104250000Y-180580000D01*
X104250000Y-180580000D02*
X85200000Y-180580000D01*
%TO.C,SW17*%
X47100000Y-85330000D02*
X66150000Y-85330000D01*
X47100000Y-104380000D02*
X47100000Y-85330000D01*
X66150000Y-85330000D02*
X66150000Y-104380000D01*
X66150000Y-104380000D02*
X47100000Y-104380000D01*
%TO.C,SW16*%
X66150000Y-85330000D02*
X85200000Y-85330000D01*
X66150000Y-104380000D02*
X66150000Y-85330000D01*
X85200000Y-85330000D02*
X85200000Y-104380000D01*
X85200000Y-104380000D02*
X66150000Y-104380000D01*
%TO.C,SW6*%
X85200000Y-142480000D02*
X104250000Y-142480000D01*
X85200000Y-161530000D02*
X85200000Y-142480000D01*
X104250000Y-142480000D02*
X104250000Y-161530000D01*
X104250000Y-161530000D02*
X85200000Y-161530000D01*
%TO.C,SW4*%
X47100000Y-142480000D02*
X66150000Y-142480000D01*
X47100000Y-161530000D02*
X47100000Y-142480000D01*
X66150000Y-142480000D02*
X66150000Y-161530000D01*
X66150000Y-161530000D02*
X47100000Y-161530000D01*
%TO.C,SW7*%
X104250000Y-142480000D02*
X123300000Y-142480000D01*
X104250000Y-161530000D02*
X104250000Y-142480000D01*
X123300000Y-142480000D02*
X123300000Y-161530000D01*
X123300000Y-161530000D02*
X104250000Y-161530000D01*
%TO.C,SW1*%
X66150000Y-161530000D02*
X85200000Y-161530000D01*
X66150000Y-180580000D02*
X66150000Y-161530000D01*
X85200000Y-161530000D02*
X85200000Y-180580000D01*
X85200000Y-180580000D02*
X66150000Y-180580000D01*
%TD*%
M02*
