M48
; DRILL file {KiCad 9.0.2+1} date 2025-08-17T00:06:29+0900
; FORMAT={-:-/ absolute / metric / decimal}
; #@! TF.CreationDate,2025-08-17T00:06:29+09:00
; #@! TF.GenerationSoftware,Kicad,Pcbnew,9.0.2+1
; #@! TF.FileFunction,MixedPlating,1,2
FMAT,2
METRIC
; #@! TA.AperFunction,Plated,PTH,ViaDrill
T1C0.400
; #@! TA.AperFunction,Plated,PTH,ComponentDrill
T2C0.800
; #@! TA.AperFunction,Plated,PTH,ComponentDrill
T3C0.900
; #@! TA.AperFunction,Plated,PTH,ComponentDrill
T4C1.000
; #@! TA.AperFunction,Plated,PTH,ComponentDrill
T5C1.300
; #@! TA.AperFunction,Plated,PTH,ComponentDrill
T6C1.500
; #@! TA.AperFunction,NonPlated,NPTH,ComponentDrill
T7C1.700
; #@! TA.AperFunction,NonPlated,NPTH,ComponentDrill
T8C4.000
%
G90
G05
T1
X50.785Y-96.5
X51.335Y-133.45
X51.485Y-127.2
X51.685Y-55.1
X52.085Y-47.2
X54.635Y-61.5
X55.785Y-59.0
X57.785Y-55.0
X60.285Y-90.75
X61.935Y-58.9
X67.035Y-100.5
X68.635Y-62.275
X69.085Y-55.95
X71.035Y-62.975
X71.535Y-58.45
X73.535Y-63.75
X77.123Y-62.225
X77.535Y-67.5
X77.673Y-54.612
X81.16Y-57.575
X81.192Y-55.995
X82.276Y-56.275
X83.285Y-67.5
X83.456Y-56.429
X84.738Y-56.203
X86.296Y-56.725
X87.285Y-55.525
X88.264Y-56.697
X89.6Y-58.875
X90.235Y-55.525
X90.285Y-82.0
X90.535Y-67.25
X91.235Y-55.525
X92.053Y-48.025
X93.141Y-49.131
X93.785Y-54.625
X94.272Y-48.987
X94.985Y-53.25
X95.66Y-83.125
X95.943Y-59.675
X96.035Y-71.5
X96.99Y-53.975
X98.125Y-66.39
X98.685Y-73.2
X100.035Y-59.5
X100.535Y-65.2
X102.785Y-78.25
X103.785Y-54.25
X105.285Y-55.725
X106.535Y-77.0
X107.835Y-115.4
X108.285Y-88.5
X110.535Y-88.5
X112.035Y-72.0
X112.035Y-77.25
X114.535Y-72.0
X115.285Y-56.0
X116.285Y-129.25
X117.535Y-91.0
X118.16Y-56.625
X118.785Y-79.5
X123.785Y-128.75
X124.535Y-68.5
X137.035Y-74.0
T2
X53.165Y-104.555
X53.165Y-123.555
X53.165Y-142.555
X57.705Y-82.0
X57.745Y-77.5
X60.125Y-69.0
X60.125Y-72.5
X60.785Y-104.555
X60.785Y-123.555
X60.785Y-142.555
X65.365Y-77.5
X67.865Y-82.0
X68.365Y-77.75
X70.285Y-69.0
X70.285Y-72.5
X70.365Y-77.75
X72.165Y-104.555
X72.165Y-123.5
X72.165Y-142.555
X75.535Y-76.0
X75.545Y-65.0
X75.545Y-72.62
X78.085Y-65.0
X78.085Y-72.62
X79.785Y-104.555
X79.785Y-123.5
X79.785Y-142.555
X80.535Y-76.0
X80.625Y-65.0
X80.625Y-72.62
X83.165Y-65.0
X83.165Y-72.62
X83.205Y-82.0
X83.27Y-77.445
X85.705Y-65.0
X85.705Y-72.62
X88.245Y-65.0
X88.245Y-72.62
X90.785Y-65.0
X90.785Y-72.62
X90.89Y-77.445
X91.165Y-104.555
X91.165Y-123.5
X91.165Y-142.555
X93.365Y-82.0
X94.08Y-77.75
X96.08Y-77.75
X98.785Y-104.555
X98.785Y-123.5
X98.785Y-142.555
X101.465Y-82.0
X102.785Y-72.045
X102.785Y-74.045
X104.005Y-82.0
X106.545Y-82.0
X109.085Y-82.0
X109.285Y-72.0
X109.285Y-76.5
X110.165Y-104.5
X110.165Y-123.555
X110.165Y-142.5
X111.625Y-82.0
X114.165Y-82.0
X116.705Y-82.0
X116.905Y-72.0
X117.785Y-104.5
X117.785Y-123.555
X117.785Y-142.5
X119.245Y-82.0
X119.445Y-76.5
X120.08Y-72.25
X121.785Y-82.0
X122.08Y-72.25
X129.165Y-123.555
X129.165Y-142.555
X136.785Y-123.555
X136.785Y-142.555
T3
X49.245Y-63.5
X51.785Y-63.5
X60.745Y-63.5
X63.285Y-63.5
T4
X52.605Y-49.66
X52.605Y-52.2
X55.145Y-49.66
X55.145Y-52.2
X57.685Y-49.66
X57.685Y-52.2
X60.225Y-49.66
X60.225Y-52.2
X62.765Y-49.66
X62.765Y-52.2
X65.305Y-49.66
X65.305Y-52.2
X67.845Y-49.66
X67.845Y-52.2
X70.385Y-49.66
X70.385Y-52.2
X72.925Y-49.66
X72.925Y-52.2
X75.465Y-49.66
X75.465Y-52.2
X78.005Y-49.66
X78.005Y-52.2
X80.545Y-49.66
X80.545Y-52.2
X83.085Y-49.66
X83.085Y-52.2
X89.185Y-49.695
X89.185Y-52.235
X94.245Y-61.755
X96.785Y-61.755
X97.715Y-49.46
X97.715Y-52.0
X99.325Y-61.755
X100.255Y-49.46
X100.255Y-52.0
X102.795Y-49.46
X102.795Y-52.0
X105.005Y-61.75
X105.335Y-49.46
X105.335Y-52.0
X107.545Y-61.75
X107.875Y-49.46
X107.875Y-52.0
X110.085Y-61.75
X110.415Y-49.46
X110.415Y-52.0
X112.625Y-61.75
X112.955Y-49.46
X112.955Y-52.0
X115.165Y-61.75
X115.495Y-49.46
X115.495Y-52.0
X117.705Y-61.75
X118.035Y-49.46
X118.035Y-52.0
X120.245Y-61.75
X120.575Y-49.46
X120.575Y-52.0
X122.785Y-61.75
X123.115Y-49.46
X123.115Y-52.0
X125.655Y-49.46
X125.655Y-52.0
X128.195Y-49.46
X128.195Y-52.0
X128.72Y-61.75
X131.26Y-61.75
X137.285Y-49.525
X137.285Y-52.065
X137.285Y-59.225
X137.285Y-61.765
T5
X129.295Y-71.5
X129.295Y-76.5
X139.795Y-71.5
X139.795Y-76.5
T6
X51.545Y-92.315
X51.545Y-111.365
X51.545Y-130.415
X54.085Y-98.665
X54.085Y-117.715
X54.085Y-136.765
X70.595Y-92.315
X70.595Y-111.365
X70.595Y-130.415
X73.135Y-98.665
X73.135Y-117.715
X73.135Y-136.765
X89.645Y-92.315
X89.645Y-111.365
X89.645Y-130.415
X92.185Y-98.665
X92.185Y-117.715
X92.185Y-136.765
X108.695Y-92.315
X108.695Y-111.365
X108.695Y-130.415
X111.235Y-98.665
X111.235Y-117.715
X111.235Y-136.765
X127.745Y-92.315
X127.745Y-111.365
X127.745Y-130.415
X130.285Y-98.665
X130.285Y-117.715
X130.285Y-136.765
T7
X56.625Y-89.775
X56.625Y-99.935
X56.625Y-108.825
X56.625Y-118.985
X56.625Y-127.875
X56.625Y-138.035
X75.675Y-89.775
X75.675Y-99.935
X75.675Y-108.825
X75.675Y-118.985
X75.675Y-127.875
X75.675Y-138.035
X94.725Y-89.775
X94.725Y-99.935
X94.725Y-108.825
X94.725Y-118.985
X94.725Y-127.875
X94.725Y-138.035
X113.775Y-89.775
X113.775Y-99.935
X113.775Y-108.825
X113.775Y-118.985
X113.775Y-127.875
X113.775Y-138.035
X132.825Y-89.775
X132.825Y-99.935
X132.825Y-108.825
X132.825Y-118.985
X132.825Y-127.875
X132.825Y-138.035
T8
X56.625Y-94.855
X56.625Y-113.905
X56.625Y-132.955
X75.675Y-94.855
X75.675Y-113.905
X75.675Y-132.955
X94.725Y-94.855
X94.725Y-113.905
X94.725Y-132.955
X113.775Y-94.855
X113.775Y-113.905
X113.775Y-132.955
X132.825Y-94.855
X132.825Y-113.905
X132.825Y-132.955
T3
X51.085Y-68.9G85X50.485Y-68.9
G05
X51.085Y-73.7G85X50.485Y-73.7
G05
X51.085Y-78.5G85X50.485Y-78.5
G05
M30
