%TF.GenerationSoftware,KiCad,Pcbnew,9.0.2+1*%
%TF.CreationDate,2025-08-16T22:17:17+09:00*%
%TF.ProjectId,kp25tk,6b703235-746b-42e6-9b69-6361645f7063,0.0.8*%
%TF.SameCoordinates,Original*%
%TF.FileFunction,AssemblyDrawing,Top*%
%FSLAX46Y46*%
G04 Gerber Fmt 4.6, Leading zero omitted, Abs format (unit mm)*
G04 Created by KiCad (PCBNEW 9.0.2+1) date 2025-08-16 22:17:17*
%MOMM*%
%LPD*%
G01*
G04 APERTURE LIST*
%ADD10C,0.150000*%
%ADD11C,0.120000*%
%ADD12C,0.100000*%
%ADD13C,0.127000*%
%ADD14C,0.200000*%
G04 APERTURE END LIST*
D10*
X74760714Y-121834819D02*
X74760714Y-120834819D01*
X74760714Y-120834819D02*
X74998809Y-120834819D01*
X74998809Y-120834819D02*
X75141666Y-120882438D01*
X75141666Y-120882438D02*
X75236904Y-120977676D01*
X75236904Y-120977676D02*
X75284523Y-121072914D01*
X75284523Y-121072914D02*
X75332142Y-121263390D01*
X75332142Y-121263390D02*
X75332142Y-121406247D01*
X75332142Y-121406247D02*
X75284523Y-121596723D01*
X75284523Y-121596723D02*
X75236904Y-121691961D01*
X75236904Y-121691961D02*
X75141666Y-121787200D01*
X75141666Y-121787200D02*
X74998809Y-121834819D01*
X74998809Y-121834819D02*
X74760714Y-121834819D01*
X75713095Y-120930057D02*
X75760714Y-120882438D01*
X75760714Y-120882438D02*
X75855952Y-120834819D01*
X75855952Y-120834819D02*
X76094047Y-120834819D01*
X76094047Y-120834819D02*
X76189285Y-120882438D01*
X76189285Y-120882438D02*
X76236904Y-120930057D01*
X76236904Y-120930057D02*
X76284523Y-121025295D01*
X76284523Y-121025295D02*
X76284523Y-121120533D01*
X76284523Y-121120533D02*
X76236904Y-121263390D01*
X76236904Y-121263390D02*
X75665476Y-121834819D01*
X75665476Y-121834819D02*
X76284523Y-121834819D01*
X77236904Y-121834819D02*
X76665476Y-121834819D01*
X76951190Y-121834819D02*
X76951190Y-120834819D01*
X76951190Y-120834819D02*
X76855952Y-120977676D01*
X76855952Y-120977676D02*
X76760714Y-121072914D01*
X76760714Y-121072914D02*
X76665476Y-121120533D01*
X73832142Y-126074819D02*
X73260714Y-126074819D01*
X73546428Y-126074819D02*
X73546428Y-125074819D01*
X73546428Y-125074819D02*
X73451190Y-125217676D01*
X73451190Y-125217676D02*
X73355952Y-125312914D01*
X73355952Y-125312914D02*
X73260714Y-125360533D01*
X74260714Y-126074819D02*
X74260714Y-125074819D01*
X74260714Y-125074819D02*
X74832142Y-126074819D01*
X74832142Y-126074819D02*
X74832142Y-125074819D01*
X75784523Y-125074819D02*
X75308333Y-125074819D01*
X75308333Y-125074819D02*
X75260714Y-125551009D01*
X75260714Y-125551009D02*
X75308333Y-125503390D01*
X75308333Y-125503390D02*
X75403571Y-125455771D01*
X75403571Y-125455771D02*
X75641666Y-125455771D01*
X75641666Y-125455771D02*
X75736904Y-125503390D01*
X75736904Y-125503390D02*
X75784523Y-125551009D01*
X75784523Y-125551009D02*
X75832142Y-125646247D01*
X75832142Y-125646247D02*
X75832142Y-125884342D01*
X75832142Y-125884342D02*
X75784523Y-125979580D01*
X75784523Y-125979580D02*
X75736904Y-126027200D01*
X75736904Y-126027200D02*
X75641666Y-126074819D01*
X75641666Y-126074819D02*
X75403571Y-126074819D01*
X75403571Y-126074819D02*
X75308333Y-126027200D01*
X75308333Y-126027200D02*
X75260714Y-125979580D01*
X76403571Y-125503390D02*
X76308333Y-125455771D01*
X76308333Y-125455771D02*
X76260714Y-125408152D01*
X76260714Y-125408152D02*
X76213095Y-125312914D01*
X76213095Y-125312914D02*
X76213095Y-125265295D01*
X76213095Y-125265295D02*
X76260714Y-125170057D01*
X76260714Y-125170057D02*
X76308333Y-125122438D01*
X76308333Y-125122438D02*
X76403571Y-125074819D01*
X76403571Y-125074819D02*
X76594047Y-125074819D01*
X76594047Y-125074819D02*
X76689285Y-125122438D01*
X76689285Y-125122438D02*
X76736904Y-125170057D01*
X76736904Y-125170057D02*
X76784523Y-125265295D01*
X76784523Y-125265295D02*
X76784523Y-125312914D01*
X76784523Y-125312914D02*
X76736904Y-125408152D01*
X76736904Y-125408152D02*
X76689285Y-125455771D01*
X76689285Y-125455771D02*
X76594047Y-125503390D01*
X76594047Y-125503390D02*
X76403571Y-125503390D01*
X76403571Y-125503390D02*
X76308333Y-125551009D01*
X76308333Y-125551009D02*
X76260714Y-125598628D01*
X76260714Y-125598628D02*
X76213095Y-125693866D01*
X76213095Y-125693866D02*
X76213095Y-125884342D01*
X76213095Y-125884342D02*
X76260714Y-125979580D01*
X76260714Y-125979580D02*
X76308333Y-126027200D01*
X76308333Y-126027200D02*
X76403571Y-126074819D01*
X76403571Y-126074819D02*
X76594047Y-126074819D01*
X76594047Y-126074819D02*
X76689285Y-126027200D01*
X76689285Y-126027200D02*
X76736904Y-125979580D01*
X76736904Y-125979580D02*
X76784523Y-125884342D01*
X76784523Y-125884342D02*
X76784523Y-125693866D01*
X76784523Y-125693866D02*
X76736904Y-125598628D01*
X76736904Y-125598628D02*
X76689285Y-125551009D01*
X76689285Y-125551009D02*
X76594047Y-125503390D01*
X77736904Y-126074819D02*
X77165476Y-126074819D01*
X77451190Y-126074819D02*
X77451190Y-125074819D01*
X77451190Y-125074819D02*
X77355952Y-125217676D01*
X77355952Y-125217676D02*
X77260714Y-125312914D01*
X77260714Y-125312914D02*
X77165476Y-125360533D01*
X78213095Y-126074819D02*
X78403571Y-126074819D01*
X78403571Y-126074819D02*
X78498809Y-126027200D01*
X78498809Y-126027200D02*
X78546428Y-125979580D01*
X78546428Y-125979580D02*
X78641666Y-125836723D01*
X78641666Y-125836723D02*
X78689285Y-125646247D01*
X78689285Y-125646247D02*
X78689285Y-125265295D01*
X78689285Y-125265295D02*
X78641666Y-125170057D01*
X78641666Y-125170057D02*
X78594047Y-125122438D01*
X78594047Y-125122438D02*
X78498809Y-125074819D01*
X78498809Y-125074819D02*
X78308333Y-125074819D01*
X78308333Y-125074819D02*
X78213095Y-125122438D01*
X78213095Y-125122438D02*
X78165476Y-125170057D01*
X78165476Y-125170057D02*
X78117857Y-125265295D01*
X78117857Y-125265295D02*
X78117857Y-125503390D01*
X78117857Y-125503390D02*
X78165476Y-125598628D01*
X78165476Y-125598628D02*
X78213095Y-125646247D01*
X78213095Y-125646247D02*
X78308333Y-125693866D01*
X78308333Y-125693866D02*
X78498809Y-125693866D01*
X78498809Y-125693866D02*
X78594047Y-125646247D01*
X78594047Y-125646247D02*
X78641666Y-125598628D01*
X78641666Y-125598628D02*
X78689285Y-125503390D01*
X111380238Y-114359819D02*
X111380238Y-113359819D01*
X111951666Y-114359819D02*
X111523095Y-113788390D01*
X111951666Y-113359819D02*
X111380238Y-113931247D01*
X112761190Y-114312200D02*
X112665952Y-114359819D01*
X112665952Y-114359819D02*
X112475476Y-114359819D01*
X112475476Y-114359819D02*
X112380238Y-114312200D01*
X112380238Y-114312200D02*
X112332619Y-114216961D01*
X112332619Y-114216961D02*
X112332619Y-113836009D01*
X112332619Y-113836009D02*
X112380238Y-113740771D01*
X112380238Y-113740771D02*
X112475476Y-113693152D01*
X112475476Y-113693152D02*
X112665952Y-113693152D01*
X112665952Y-113693152D02*
X112761190Y-113740771D01*
X112761190Y-113740771D02*
X112808809Y-113836009D01*
X112808809Y-113836009D02*
X112808809Y-113931247D01*
X112808809Y-113931247D02*
X112332619Y-114026485D01*
X113142143Y-113693152D02*
X113380238Y-114359819D01*
X113618333Y-113693152D02*
X113380238Y-114359819D01*
X113380238Y-114359819D02*
X113285000Y-114597914D01*
X113285000Y-114597914D02*
X113237381Y-114645533D01*
X113237381Y-114645533D02*
X113142143Y-114693152D01*
X114427857Y-114312200D02*
X114332619Y-114359819D01*
X114332619Y-114359819D02*
X114142143Y-114359819D01*
X114142143Y-114359819D02*
X114046905Y-114312200D01*
X114046905Y-114312200D02*
X113999286Y-114264580D01*
X113999286Y-114264580D02*
X113951667Y-114169342D01*
X113951667Y-114169342D02*
X113951667Y-113883628D01*
X113951667Y-113883628D02*
X113999286Y-113788390D01*
X113999286Y-113788390D02*
X114046905Y-113740771D01*
X114046905Y-113740771D02*
X114142143Y-113693152D01*
X114142143Y-113693152D02*
X114332619Y-113693152D01*
X114332619Y-113693152D02*
X114427857Y-113740771D01*
X115285000Y-114359819D02*
X115285000Y-113836009D01*
X115285000Y-113836009D02*
X115237381Y-113740771D01*
X115237381Y-113740771D02*
X115142143Y-113693152D01*
X115142143Y-113693152D02*
X114951667Y-113693152D01*
X114951667Y-113693152D02*
X114856429Y-113740771D01*
X115285000Y-114312200D02*
X115189762Y-114359819D01*
X115189762Y-114359819D02*
X114951667Y-114359819D01*
X114951667Y-114359819D02*
X114856429Y-114312200D01*
X114856429Y-114312200D02*
X114808810Y-114216961D01*
X114808810Y-114216961D02*
X114808810Y-114121723D01*
X114808810Y-114121723D02*
X114856429Y-114026485D01*
X114856429Y-114026485D02*
X114951667Y-113978866D01*
X114951667Y-113978866D02*
X115189762Y-113978866D01*
X115189762Y-113978866D02*
X115285000Y-113931247D01*
X115761191Y-113693152D02*
X115761191Y-114693152D01*
X115761191Y-113740771D02*
X115856429Y-113693152D01*
X115856429Y-113693152D02*
X116046905Y-113693152D01*
X116046905Y-113693152D02*
X116142143Y-113740771D01*
X116142143Y-113740771D02*
X116189762Y-113788390D01*
X116189762Y-113788390D02*
X116237381Y-113883628D01*
X116237381Y-113883628D02*
X116237381Y-114169342D01*
X116237381Y-114169342D02*
X116189762Y-114264580D01*
X116189762Y-114264580D02*
X116142143Y-114312200D01*
X116142143Y-114312200D02*
X116046905Y-114359819D01*
X116046905Y-114359819D02*
X115856429Y-114359819D01*
X115856429Y-114359819D02*
X115761191Y-114312200D01*
X73380238Y-133409819D02*
X73380238Y-132409819D01*
X73951666Y-133409819D02*
X73523095Y-132838390D01*
X73951666Y-132409819D02*
X73380238Y-132981247D01*
X74761190Y-133362200D02*
X74665952Y-133409819D01*
X74665952Y-133409819D02*
X74475476Y-133409819D01*
X74475476Y-133409819D02*
X74380238Y-133362200D01*
X74380238Y-133362200D02*
X74332619Y-133266961D01*
X74332619Y-133266961D02*
X74332619Y-132886009D01*
X74332619Y-132886009D02*
X74380238Y-132790771D01*
X74380238Y-132790771D02*
X74475476Y-132743152D01*
X74475476Y-132743152D02*
X74665952Y-132743152D01*
X74665952Y-132743152D02*
X74761190Y-132790771D01*
X74761190Y-132790771D02*
X74808809Y-132886009D01*
X74808809Y-132886009D02*
X74808809Y-132981247D01*
X74808809Y-132981247D02*
X74332619Y-133076485D01*
X75142143Y-132743152D02*
X75380238Y-133409819D01*
X75618333Y-132743152D02*
X75380238Y-133409819D01*
X75380238Y-133409819D02*
X75285000Y-133647914D01*
X75285000Y-133647914D02*
X75237381Y-133695533D01*
X75237381Y-133695533D02*
X75142143Y-133743152D01*
X76427857Y-133362200D02*
X76332619Y-133409819D01*
X76332619Y-133409819D02*
X76142143Y-133409819D01*
X76142143Y-133409819D02*
X76046905Y-133362200D01*
X76046905Y-133362200D02*
X75999286Y-133314580D01*
X75999286Y-133314580D02*
X75951667Y-133219342D01*
X75951667Y-133219342D02*
X75951667Y-132933628D01*
X75951667Y-132933628D02*
X75999286Y-132838390D01*
X75999286Y-132838390D02*
X76046905Y-132790771D01*
X76046905Y-132790771D02*
X76142143Y-132743152D01*
X76142143Y-132743152D02*
X76332619Y-132743152D01*
X76332619Y-132743152D02*
X76427857Y-132790771D01*
X77285000Y-133409819D02*
X77285000Y-132886009D01*
X77285000Y-132886009D02*
X77237381Y-132790771D01*
X77237381Y-132790771D02*
X77142143Y-132743152D01*
X77142143Y-132743152D02*
X76951667Y-132743152D01*
X76951667Y-132743152D02*
X76856429Y-132790771D01*
X77285000Y-133362200D02*
X77189762Y-133409819D01*
X77189762Y-133409819D02*
X76951667Y-133409819D01*
X76951667Y-133409819D02*
X76856429Y-133362200D01*
X76856429Y-133362200D02*
X76808810Y-133266961D01*
X76808810Y-133266961D02*
X76808810Y-133171723D01*
X76808810Y-133171723D02*
X76856429Y-133076485D01*
X76856429Y-133076485D02*
X76951667Y-133028866D01*
X76951667Y-133028866D02*
X77189762Y-133028866D01*
X77189762Y-133028866D02*
X77285000Y-132981247D01*
X77761191Y-132743152D02*
X77761191Y-133743152D01*
X77761191Y-132790771D02*
X77856429Y-132743152D01*
X77856429Y-132743152D02*
X78046905Y-132743152D01*
X78046905Y-132743152D02*
X78142143Y-132790771D01*
X78142143Y-132790771D02*
X78189762Y-132838390D01*
X78189762Y-132838390D02*
X78237381Y-132933628D01*
X78237381Y-132933628D02*
X78237381Y-133219342D01*
X78237381Y-133219342D02*
X78189762Y-133314580D01*
X78189762Y-133314580D02*
X78142143Y-133362200D01*
X78142143Y-133362200D02*
X78046905Y-133409819D01*
X78046905Y-133409819D02*
X77856429Y-133409819D01*
X77856429Y-133409819D02*
X77761191Y-133362200D01*
X112760714Y-140834819D02*
X112760714Y-139834819D01*
X112760714Y-139834819D02*
X112998809Y-139834819D01*
X112998809Y-139834819D02*
X113141666Y-139882438D01*
X113141666Y-139882438D02*
X113236904Y-139977676D01*
X113236904Y-139977676D02*
X113284523Y-140072914D01*
X113284523Y-140072914D02*
X113332142Y-140263390D01*
X113332142Y-140263390D02*
X113332142Y-140406247D01*
X113332142Y-140406247D02*
X113284523Y-140596723D01*
X113284523Y-140596723D02*
X113236904Y-140691961D01*
X113236904Y-140691961D02*
X113141666Y-140787200D01*
X113141666Y-140787200D02*
X112998809Y-140834819D01*
X112998809Y-140834819D02*
X112760714Y-140834819D01*
X114284523Y-140834819D02*
X113713095Y-140834819D01*
X113998809Y-140834819D02*
X113998809Y-139834819D01*
X113998809Y-139834819D02*
X113903571Y-139977676D01*
X113903571Y-139977676D02*
X113808333Y-140072914D01*
X113808333Y-140072914D02*
X113713095Y-140120533D01*
X114760714Y-140834819D02*
X114951190Y-140834819D01*
X114951190Y-140834819D02*
X115046428Y-140787200D01*
X115046428Y-140787200D02*
X115094047Y-140739580D01*
X115094047Y-140739580D02*
X115189285Y-140596723D01*
X115189285Y-140596723D02*
X115236904Y-140406247D01*
X115236904Y-140406247D02*
X115236904Y-140025295D01*
X115236904Y-140025295D02*
X115189285Y-139930057D01*
X115189285Y-139930057D02*
X115141666Y-139882438D01*
X115141666Y-139882438D02*
X115046428Y-139834819D01*
X115046428Y-139834819D02*
X114855952Y-139834819D01*
X114855952Y-139834819D02*
X114760714Y-139882438D01*
X114760714Y-139882438D02*
X114713095Y-139930057D01*
X114713095Y-139930057D02*
X114665476Y-140025295D01*
X114665476Y-140025295D02*
X114665476Y-140263390D01*
X114665476Y-140263390D02*
X114713095Y-140358628D01*
X114713095Y-140358628D02*
X114760714Y-140406247D01*
X114760714Y-140406247D02*
X114855952Y-140453866D01*
X114855952Y-140453866D02*
X115046428Y-140453866D01*
X115046428Y-140453866D02*
X115141666Y-140406247D01*
X115141666Y-140406247D02*
X115189285Y-140358628D01*
X115189285Y-140358628D02*
X115236904Y-140263390D01*
X111832142Y-145074819D02*
X111260714Y-145074819D01*
X111546428Y-145074819D02*
X111546428Y-144074819D01*
X111546428Y-144074819D02*
X111451190Y-144217676D01*
X111451190Y-144217676D02*
X111355952Y-144312914D01*
X111355952Y-144312914D02*
X111260714Y-144360533D01*
X112260714Y-145074819D02*
X112260714Y-144074819D01*
X112260714Y-144074819D02*
X112832142Y-145074819D01*
X112832142Y-145074819D02*
X112832142Y-144074819D01*
X113784523Y-144074819D02*
X113308333Y-144074819D01*
X113308333Y-144074819D02*
X113260714Y-144551009D01*
X113260714Y-144551009D02*
X113308333Y-144503390D01*
X113308333Y-144503390D02*
X113403571Y-144455771D01*
X113403571Y-144455771D02*
X113641666Y-144455771D01*
X113641666Y-144455771D02*
X113736904Y-144503390D01*
X113736904Y-144503390D02*
X113784523Y-144551009D01*
X113784523Y-144551009D02*
X113832142Y-144646247D01*
X113832142Y-144646247D02*
X113832142Y-144884342D01*
X113832142Y-144884342D02*
X113784523Y-144979580D01*
X113784523Y-144979580D02*
X113736904Y-145027200D01*
X113736904Y-145027200D02*
X113641666Y-145074819D01*
X113641666Y-145074819D02*
X113403571Y-145074819D01*
X113403571Y-145074819D02*
X113308333Y-145027200D01*
X113308333Y-145027200D02*
X113260714Y-144979580D01*
X114403571Y-144503390D02*
X114308333Y-144455771D01*
X114308333Y-144455771D02*
X114260714Y-144408152D01*
X114260714Y-144408152D02*
X114213095Y-144312914D01*
X114213095Y-144312914D02*
X114213095Y-144265295D01*
X114213095Y-144265295D02*
X114260714Y-144170057D01*
X114260714Y-144170057D02*
X114308333Y-144122438D01*
X114308333Y-144122438D02*
X114403571Y-144074819D01*
X114403571Y-144074819D02*
X114594047Y-144074819D01*
X114594047Y-144074819D02*
X114689285Y-144122438D01*
X114689285Y-144122438D02*
X114736904Y-144170057D01*
X114736904Y-144170057D02*
X114784523Y-144265295D01*
X114784523Y-144265295D02*
X114784523Y-144312914D01*
X114784523Y-144312914D02*
X114736904Y-144408152D01*
X114736904Y-144408152D02*
X114689285Y-144455771D01*
X114689285Y-144455771D02*
X114594047Y-144503390D01*
X114594047Y-144503390D02*
X114403571Y-144503390D01*
X114403571Y-144503390D02*
X114308333Y-144551009D01*
X114308333Y-144551009D02*
X114260714Y-144598628D01*
X114260714Y-144598628D02*
X114213095Y-144693866D01*
X114213095Y-144693866D02*
X114213095Y-144884342D01*
X114213095Y-144884342D02*
X114260714Y-144979580D01*
X114260714Y-144979580D02*
X114308333Y-145027200D01*
X114308333Y-145027200D02*
X114403571Y-145074819D01*
X114403571Y-145074819D02*
X114594047Y-145074819D01*
X114594047Y-145074819D02*
X114689285Y-145027200D01*
X114689285Y-145027200D02*
X114736904Y-144979580D01*
X114736904Y-144979580D02*
X114784523Y-144884342D01*
X114784523Y-144884342D02*
X114784523Y-144693866D01*
X114784523Y-144693866D02*
X114736904Y-144598628D01*
X114736904Y-144598628D02*
X114689285Y-144551009D01*
X114689285Y-144551009D02*
X114594047Y-144503390D01*
X115736904Y-145074819D02*
X115165476Y-145074819D01*
X115451190Y-145074819D02*
X115451190Y-144074819D01*
X115451190Y-144074819D02*
X115355952Y-144217676D01*
X115355952Y-144217676D02*
X115260714Y-144312914D01*
X115260714Y-144312914D02*
X115165476Y-144360533D01*
X116213095Y-145074819D02*
X116403571Y-145074819D01*
X116403571Y-145074819D02*
X116498809Y-145027200D01*
X116498809Y-145027200D02*
X116546428Y-144979580D01*
X116546428Y-144979580D02*
X116641666Y-144836723D01*
X116641666Y-144836723D02*
X116689285Y-144646247D01*
X116689285Y-144646247D02*
X116689285Y-144265295D01*
X116689285Y-144265295D02*
X116641666Y-144170057D01*
X116641666Y-144170057D02*
X116594047Y-144122438D01*
X116594047Y-144122438D02*
X116498809Y-144074819D01*
X116498809Y-144074819D02*
X116308333Y-144074819D01*
X116308333Y-144074819D02*
X116213095Y-144122438D01*
X116213095Y-144122438D02*
X116165476Y-144170057D01*
X116165476Y-144170057D02*
X116117857Y-144265295D01*
X116117857Y-144265295D02*
X116117857Y-144503390D01*
X116117857Y-144503390D02*
X116165476Y-144598628D01*
X116165476Y-144598628D02*
X116213095Y-144646247D01*
X116213095Y-144646247D02*
X116308333Y-144693866D01*
X116308333Y-144693866D02*
X116498809Y-144693866D01*
X116498809Y-144693866D02*
X116594047Y-144646247D01*
X116594047Y-144646247D02*
X116641666Y-144598628D01*
X116641666Y-144598628D02*
X116689285Y-144503390D01*
D11*
X113303571Y-142863855D02*
X113303571Y-142063855D01*
X113303571Y-142063855D02*
X113494047Y-142063855D01*
X113494047Y-142063855D02*
X113608333Y-142101950D01*
X113608333Y-142101950D02*
X113684523Y-142178140D01*
X113684523Y-142178140D02*
X113722618Y-142254331D01*
X113722618Y-142254331D02*
X113760714Y-142406712D01*
X113760714Y-142406712D02*
X113760714Y-142520998D01*
X113760714Y-142520998D02*
X113722618Y-142673379D01*
X113722618Y-142673379D02*
X113684523Y-142749569D01*
X113684523Y-142749569D02*
X113608333Y-142825760D01*
X113608333Y-142825760D02*
X113494047Y-142863855D01*
X113494047Y-142863855D02*
X113303571Y-142863855D01*
X114522618Y-142863855D02*
X114065475Y-142863855D01*
X114294047Y-142863855D02*
X114294047Y-142063855D01*
X114294047Y-142063855D02*
X114217856Y-142178140D01*
X114217856Y-142178140D02*
X114141666Y-142254331D01*
X114141666Y-142254331D02*
X114065475Y-142292426D01*
X114903571Y-142863855D02*
X115055952Y-142863855D01*
X115055952Y-142863855D02*
X115132142Y-142825760D01*
X115132142Y-142825760D02*
X115170238Y-142787664D01*
X115170238Y-142787664D02*
X115246428Y-142673379D01*
X115246428Y-142673379D02*
X115284523Y-142520998D01*
X115284523Y-142520998D02*
X115284523Y-142216236D01*
X115284523Y-142216236D02*
X115246428Y-142140045D01*
X115246428Y-142140045D02*
X115208333Y-142101950D01*
X115208333Y-142101950D02*
X115132142Y-142063855D01*
X115132142Y-142063855D02*
X114979761Y-142063855D01*
X114979761Y-142063855D02*
X114903571Y-142101950D01*
X114903571Y-142101950D02*
X114865476Y-142140045D01*
X114865476Y-142140045D02*
X114827380Y-142216236D01*
X114827380Y-142216236D02*
X114827380Y-142406712D01*
X114827380Y-142406712D02*
X114865476Y-142482902D01*
X114865476Y-142482902D02*
X114903571Y-142520998D01*
X114903571Y-142520998D02*
X114979761Y-142559093D01*
X114979761Y-142559093D02*
X115132142Y-142559093D01*
X115132142Y-142559093D02*
X115208333Y-142520998D01*
X115208333Y-142520998D02*
X115246428Y-142482902D01*
X115246428Y-142482902D02*
X115284523Y-142406712D01*
D10*
X110952142Y-68954819D02*
X110380714Y-68954819D01*
X110666428Y-68954819D02*
X110666428Y-67954819D01*
X110666428Y-67954819D02*
X110571190Y-68097676D01*
X110571190Y-68097676D02*
X110475952Y-68192914D01*
X110475952Y-68192914D02*
X110380714Y-68240533D01*
X111380714Y-68954819D02*
X111380714Y-67954819D01*
X111380714Y-67954819D02*
X111952142Y-68954819D01*
X111952142Y-68954819D02*
X111952142Y-67954819D01*
X112904523Y-67954819D02*
X112428333Y-67954819D01*
X112428333Y-67954819D02*
X112380714Y-68431009D01*
X112380714Y-68431009D02*
X112428333Y-68383390D01*
X112428333Y-68383390D02*
X112523571Y-68335771D01*
X112523571Y-68335771D02*
X112761666Y-68335771D01*
X112761666Y-68335771D02*
X112856904Y-68383390D01*
X112856904Y-68383390D02*
X112904523Y-68431009D01*
X112904523Y-68431009D02*
X112952142Y-68526247D01*
X112952142Y-68526247D02*
X112952142Y-68764342D01*
X112952142Y-68764342D02*
X112904523Y-68859580D01*
X112904523Y-68859580D02*
X112856904Y-68907200D01*
X112856904Y-68907200D02*
X112761666Y-68954819D01*
X112761666Y-68954819D02*
X112523571Y-68954819D01*
X112523571Y-68954819D02*
X112428333Y-68907200D01*
X112428333Y-68907200D02*
X112380714Y-68859580D01*
X113523571Y-68383390D02*
X113428333Y-68335771D01*
X113428333Y-68335771D02*
X113380714Y-68288152D01*
X113380714Y-68288152D02*
X113333095Y-68192914D01*
X113333095Y-68192914D02*
X113333095Y-68145295D01*
X113333095Y-68145295D02*
X113380714Y-68050057D01*
X113380714Y-68050057D02*
X113428333Y-68002438D01*
X113428333Y-68002438D02*
X113523571Y-67954819D01*
X113523571Y-67954819D02*
X113714047Y-67954819D01*
X113714047Y-67954819D02*
X113809285Y-68002438D01*
X113809285Y-68002438D02*
X113856904Y-68050057D01*
X113856904Y-68050057D02*
X113904523Y-68145295D01*
X113904523Y-68145295D02*
X113904523Y-68192914D01*
X113904523Y-68192914D02*
X113856904Y-68288152D01*
X113856904Y-68288152D02*
X113809285Y-68335771D01*
X113809285Y-68335771D02*
X113714047Y-68383390D01*
X113714047Y-68383390D02*
X113523571Y-68383390D01*
X113523571Y-68383390D02*
X113428333Y-68431009D01*
X113428333Y-68431009D02*
X113380714Y-68478628D01*
X113380714Y-68478628D02*
X113333095Y-68573866D01*
X113333095Y-68573866D02*
X113333095Y-68764342D01*
X113333095Y-68764342D02*
X113380714Y-68859580D01*
X113380714Y-68859580D02*
X113428333Y-68907200D01*
X113428333Y-68907200D02*
X113523571Y-68954819D01*
X113523571Y-68954819D02*
X113714047Y-68954819D01*
X113714047Y-68954819D02*
X113809285Y-68907200D01*
X113809285Y-68907200D02*
X113856904Y-68859580D01*
X113856904Y-68859580D02*
X113904523Y-68764342D01*
X113904523Y-68764342D02*
X113904523Y-68573866D01*
X113904523Y-68573866D02*
X113856904Y-68478628D01*
X113856904Y-68478628D02*
X113809285Y-68431009D01*
X113809285Y-68431009D02*
X113714047Y-68383390D01*
X114856904Y-68954819D02*
X114285476Y-68954819D01*
X114571190Y-68954819D02*
X114571190Y-67954819D01*
X114571190Y-67954819D02*
X114475952Y-68097676D01*
X114475952Y-68097676D02*
X114380714Y-68192914D01*
X114380714Y-68192914D02*
X114285476Y-68240533D01*
X115333095Y-68954819D02*
X115523571Y-68954819D01*
X115523571Y-68954819D02*
X115618809Y-68907200D01*
X115618809Y-68907200D02*
X115666428Y-68859580D01*
X115666428Y-68859580D02*
X115761666Y-68716723D01*
X115761666Y-68716723D02*
X115809285Y-68526247D01*
X115809285Y-68526247D02*
X115809285Y-68145295D01*
X115809285Y-68145295D02*
X115761666Y-68050057D01*
X115761666Y-68050057D02*
X115714047Y-68002438D01*
X115714047Y-68002438D02*
X115618809Y-67954819D01*
X115618809Y-67954819D02*
X115428333Y-67954819D01*
X115428333Y-67954819D02*
X115333095Y-68002438D01*
X115333095Y-68002438D02*
X115285476Y-68050057D01*
X115285476Y-68050057D02*
X115237857Y-68145295D01*
X115237857Y-68145295D02*
X115237857Y-68383390D01*
X115237857Y-68383390D02*
X115285476Y-68478628D01*
X115285476Y-68478628D02*
X115333095Y-68526247D01*
X115333095Y-68526247D02*
X115428333Y-68573866D01*
X115428333Y-68573866D02*
X115618809Y-68573866D01*
X115618809Y-68573866D02*
X115714047Y-68526247D01*
X115714047Y-68526247D02*
X115761666Y-68478628D01*
X115761666Y-68478628D02*
X115809285Y-68383390D01*
X92380238Y-95309819D02*
X92380238Y-94309819D01*
X92951666Y-95309819D02*
X92523095Y-94738390D01*
X92951666Y-94309819D02*
X92380238Y-94881247D01*
X93761190Y-95262200D02*
X93665952Y-95309819D01*
X93665952Y-95309819D02*
X93475476Y-95309819D01*
X93475476Y-95309819D02*
X93380238Y-95262200D01*
X93380238Y-95262200D02*
X93332619Y-95166961D01*
X93332619Y-95166961D02*
X93332619Y-94786009D01*
X93332619Y-94786009D02*
X93380238Y-94690771D01*
X93380238Y-94690771D02*
X93475476Y-94643152D01*
X93475476Y-94643152D02*
X93665952Y-94643152D01*
X93665952Y-94643152D02*
X93761190Y-94690771D01*
X93761190Y-94690771D02*
X93808809Y-94786009D01*
X93808809Y-94786009D02*
X93808809Y-94881247D01*
X93808809Y-94881247D02*
X93332619Y-94976485D01*
X94142143Y-94643152D02*
X94380238Y-95309819D01*
X94618333Y-94643152D02*
X94380238Y-95309819D01*
X94380238Y-95309819D02*
X94285000Y-95547914D01*
X94285000Y-95547914D02*
X94237381Y-95595533D01*
X94237381Y-95595533D02*
X94142143Y-95643152D01*
X95427857Y-95262200D02*
X95332619Y-95309819D01*
X95332619Y-95309819D02*
X95142143Y-95309819D01*
X95142143Y-95309819D02*
X95046905Y-95262200D01*
X95046905Y-95262200D02*
X94999286Y-95214580D01*
X94999286Y-95214580D02*
X94951667Y-95119342D01*
X94951667Y-95119342D02*
X94951667Y-94833628D01*
X94951667Y-94833628D02*
X94999286Y-94738390D01*
X94999286Y-94738390D02*
X95046905Y-94690771D01*
X95046905Y-94690771D02*
X95142143Y-94643152D01*
X95142143Y-94643152D02*
X95332619Y-94643152D01*
X95332619Y-94643152D02*
X95427857Y-94690771D01*
X96285000Y-95309819D02*
X96285000Y-94786009D01*
X96285000Y-94786009D02*
X96237381Y-94690771D01*
X96237381Y-94690771D02*
X96142143Y-94643152D01*
X96142143Y-94643152D02*
X95951667Y-94643152D01*
X95951667Y-94643152D02*
X95856429Y-94690771D01*
X96285000Y-95262200D02*
X96189762Y-95309819D01*
X96189762Y-95309819D02*
X95951667Y-95309819D01*
X95951667Y-95309819D02*
X95856429Y-95262200D01*
X95856429Y-95262200D02*
X95808810Y-95166961D01*
X95808810Y-95166961D02*
X95808810Y-95071723D01*
X95808810Y-95071723D02*
X95856429Y-94976485D01*
X95856429Y-94976485D02*
X95951667Y-94928866D01*
X95951667Y-94928866D02*
X96189762Y-94928866D01*
X96189762Y-94928866D02*
X96285000Y-94881247D01*
X96761191Y-94643152D02*
X96761191Y-95643152D01*
X96761191Y-94690771D02*
X96856429Y-94643152D01*
X96856429Y-94643152D02*
X97046905Y-94643152D01*
X97046905Y-94643152D02*
X97142143Y-94690771D01*
X97142143Y-94690771D02*
X97189762Y-94738390D01*
X97189762Y-94738390D02*
X97237381Y-94833628D01*
X97237381Y-94833628D02*
X97237381Y-95119342D01*
X97237381Y-95119342D02*
X97189762Y-95214580D01*
X97189762Y-95214580D02*
X97142143Y-95262200D01*
X97142143Y-95262200D02*
X97046905Y-95309819D01*
X97046905Y-95309819D02*
X96856429Y-95309819D01*
X96856429Y-95309819D02*
X96761191Y-95262200D01*
X55760714Y-121889819D02*
X55760714Y-120889819D01*
X55760714Y-120889819D02*
X55998809Y-120889819D01*
X55998809Y-120889819D02*
X56141666Y-120937438D01*
X56141666Y-120937438D02*
X56236904Y-121032676D01*
X56236904Y-121032676D02*
X56284523Y-121127914D01*
X56284523Y-121127914D02*
X56332142Y-121318390D01*
X56332142Y-121318390D02*
X56332142Y-121461247D01*
X56332142Y-121461247D02*
X56284523Y-121651723D01*
X56284523Y-121651723D02*
X56236904Y-121746961D01*
X56236904Y-121746961D02*
X56141666Y-121842200D01*
X56141666Y-121842200D02*
X55998809Y-121889819D01*
X55998809Y-121889819D02*
X55760714Y-121889819D01*
X56713095Y-120985057D02*
X56760714Y-120937438D01*
X56760714Y-120937438D02*
X56855952Y-120889819D01*
X56855952Y-120889819D02*
X57094047Y-120889819D01*
X57094047Y-120889819D02*
X57189285Y-120937438D01*
X57189285Y-120937438D02*
X57236904Y-120985057D01*
X57236904Y-120985057D02*
X57284523Y-121080295D01*
X57284523Y-121080295D02*
X57284523Y-121175533D01*
X57284523Y-121175533D02*
X57236904Y-121318390D01*
X57236904Y-121318390D02*
X56665476Y-121889819D01*
X56665476Y-121889819D02*
X57284523Y-121889819D01*
X57903571Y-120889819D02*
X57998809Y-120889819D01*
X57998809Y-120889819D02*
X58094047Y-120937438D01*
X58094047Y-120937438D02*
X58141666Y-120985057D01*
X58141666Y-120985057D02*
X58189285Y-121080295D01*
X58189285Y-121080295D02*
X58236904Y-121270771D01*
X58236904Y-121270771D02*
X58236904Y-121508866D01*
X58236904Y-121508866D02*
X58189285Y-121699342D01*
X58189285Y-121699342D02*
X58141666Y-121794580D01*
X58141666Y-121794580D02*
X58094047Y-121842200D01*
X58094047Y-121842200D02*
X57998809Y-121889819D01*
X57998809Y-121889819D02*
X57903571Y-121889819D01*
X57903571Y-121889819D02*
X57808333Y-121842200D01*
X57808333Y-121842200D02*
X57760714Y-121794580D01*
X57760714Y-121794580D02*
X57713095Y-121699342D01*
X57713095Y-121699342D02*
X57665476Y-121508866D01*
X57665476Y-121508866D02*
X57665476Y-121270771D01*
X57665476Y-121270771D02*
X57713095Y-121080295D01*
X57713095Y-121080295D02*
X57760714Y-120985057D01*
X57760714Y-120985057D02*
X57808333Y-120937438D01*
X57808333Y-120937438D02*
X57903571Y-120889819D01*
X54832142Y-126129819D02*
X54260714Y-126129819D01*
X54546428Y-126129819D02*
X54546428Y-125129819D01*
X54546428Y-125129819D02*
X54451190Y-125272676D01*
X54451190Y-125272676D02*
X54355952Y-125367914D01*
X54355952Y-125367914D02*
X54260714Y-125415533D01*
X55260714Y-126129819D02*
X55260714Y-125129819D01*
X55260714Y-125129819D02*
X55832142Y-126129819D01*
X55832142Y-126129819D02*
X55832142Y-125129819D01*
X56784523Y-125129819D02*
X56308333Y-125129819D01*
X56308333Y-125129819D02*
X56260714Y-125606009D01*
X56260714Y-125606009D02*
X56308333Y-125558390D01*
X56308333Y-125558390D02*
X56403571Y-125510771D01*
X56403571Y-125510771D02*
X56641666Y-125510771D01*
X56641666Y-125510771D02*
X56736904Y-125558390D01*
X56736904Y-125558390D02*
X56784523Y-125606009D01*
X56784523Y-125606009D02*
X56832142Y-125701247D01*
X56832142Y-125701247D02*
X56832142Y-125939342D01*
X56832142Y-125939342D02*
X56784523Y-126034580D01*
X56784523Y-126034580D02*
X56736904Y-126082200D01*
X56736904Y-126082200D02*
X56641666Y-126129819D01*
X56641666Y-126129819D02*
X56403571Y-126129819D01*
X56403571Y-126129819D02*
X56308333Y-126082200D01*
X56308333Y-126082200D02*
X56260714Y-126034580D01*
X57403571Y-125558390D02*
X57308333Y-125510771D01*
X57308333Y-125510771D02*
X57260714Y-125463152D01*
X57260714Y-125463152D02*
X57213095Y-125367914D01*
X57213095Y-125367914D02*
X57213095Y-125320295D01*
X57213095Y-125320295D02*
X57260714Y-125225057D01*
X57260714Y-125225057D02*
X57308333Y-125177438D01*
X57308333Y-125177438D02*
X57403571Y-125129819D01*
X57403571Y-125129819D02*
X57594047Y-125129819D01*
X57594047Y-125129819D02*
X57689285Y-125177438D01*
X57689285Y-125177438D02*
X57736904Y-125225057D01*
X57736904Y-125225057D02*
X57784523Y-125320295D01*
X57784523Y-125320295D02*
X57784523Y-125367914D01*
X57784523Y-125367914D02*
X57736904Y-125463152D01*
X57736904Y-125463152D02*
X57689285Y-125510771D01*
X57689285Y-125510771D02*
X57594047Y-125558390D01*
X57594047Y-125558390D02*
X57403571Y-125558390D01*
X57403571Y-125558390D02*
X57308333Y-125606009D01*
X57308333Y-125606009D02*
X57260714Y-125653628D01*
X57260714Y-125653628D02*
X57213095Y-125748866D01*
X57213095Y-125748866D02*
X57213095Y-125939342D01*
X57213095Y-125939342D02*
X57260714Y-126034580D01*
X57260714Y-126034580D02*
X57308333Y-126082200D01*
X57308333Y-126082200D02*
X57403571Y-126129819D01*
X57403571Y-126129819D02*
X57594047Y-126129819D01*
X57594047Y-126129819D02*
X57689285Y-126082200D01*
X57689285Y-126082200D02*
X57736904Y-126034580D01*
X57736904Y-126034580D02*
X57784523Y-125939342D01*
X57784523Y-125939342D02*
X57784523Y-125748866D01*
X57784523Y-125748866D02*
X57736904Y-125653628D01*
X57736904Y-125653628D02*
X57689285Y-125606009D01*
X57689285Y-125606009D02*
X57594047Y-125558390D01*
X58736904Y-126129819D02*
X58165476Y-126129819D01*
X58451190Y-126129819D02*
X58451190Y-125129819D01*
X58451190Y-125129819D02*
X58355952Y-125272676D01*
X58355952Y-125272676D02*
X58260714Y-125367914D01*
X58260714Y-125367914D02*
X58165476Y-125415533D01*
X59213095Y-126129819D02*
X59403571Y-126129819D01*
X59403571Y-126129819D02*
X59498809Y-126082200D01*
X59498809Y-126082200D02*
X59546428Y-126034580D01*
X59546428Y-126034580D02*
X59641666Y-125891723D01*
X59641666Y-125891723D02*
X59689285Y-125701247D01*
X59689285Y-125701247D02*
X59689285Y-125320295D01*
X59689285Y-125320295D02*
X59641666Y-125225057D01*
X59641666Y-125225057D02*
X59594047Y-125177438D01*
X59594047Y-125177438D02*
X59498809Y-125129819D01*
X59498809Y-125129819D02*
X59308333Y-125129819D01*
X59308333Y-125129819D02*
X59213095Y-125177438D01*
X59213095Y-125177438D02*
X59165476Y-125225057D01*
X59165476Y-125225057D02*
X59117857Y-125320295D01*
X59117857Y-125320295D02*
X59117857Y-125558390D01*
X59117857Y-125558390D02*
X59165476Y-125653628D01*
X59165476Y-125653628D02*
X59213095Y-125701247D01*
X59213095Y-125701247D02*
X59308333Y-125748866D01*
X59308333Y-125748866D02*
X59498809Y-125748866D01*
X59498809Y-125748866D02*
X59594047Y-125701247D01*
X59594047Y-125701247D02*
X59641666Y-125653628D01*
X59641666Y-125653628D02*
X59689285Y-125558390D01*
X55760714Y-140889819D02*
X55760714Y-139889819D01*
X55760714Y-139889819D02*
X55998809Y-139889819D01*
X55998809Y-139889819D02*
X56141666Y-139937438D01*
X56141666Y-139937438D02*
X56236904Y-140032676D01*
X56236904Y-140032676D02*
X56284523Y-140127914D01*
X56284523Y-140127914D02*
X56332142Y-140318390D01*
X56332142Y-140318390D02*
X56332142Y-140461247D01*
X56332142Y-140461247D02*
X56284523Y-140651723D01*
X56284523Y-140651723D02*
X56236904Y-140746961D01*
X56236904Y-140746961D02*
X56141666Y-140842200D01*
X56141666Y-140842200D02*
X55998809Y-140889819D01*
X55998809Y-140889819D02*
X55760714Y-140889819D01*
X57284523Y-140889819D02*
X56713095Y-140889819D01*
X56998809Y-140889819D02*
X56998809Y-139889819D01*
X56998809Y-139889819D02*
X56903571Y-140032676D01*
X56903571Y-140032676D02*
X56808333Y-140127914D01*
X56808333Y-140127914D02*
X56713095Y-140175533D01*
X58141666Y-139889819D02*
X57951190Y-139889819D01*
X57951190Y-139889819D02*
X57855952Y-139937438D01*
X57855952Y-139937438D02*
X57808333Y-139985057D01*
X57808333Y-139985057D02*
X57713095Y-140127914D01*
X57713095Y-140127914D02*
X57665476Y-140318390D01*
X57665476Y-140318390D02*
X57665476Y-140699342D01*
X57665476Y-140699342D02*
X57713095Y-140794580D01*
X57713095Y-140794580D02*
X57760714Y-140842200D01*
X57760714Y-140842200D02*
X57855952Y-140889819D01*
X57855952Y-140889819D02*
X58046428Y-140889819D01*
X58046428Y-140889819D02*
X58141666Y-140842200D01*
X58141666Y-140842200D02*
X58189285Y-140794580D01*
X58189285Y-140794580D02*
X58236904Y-140699342D01*
X58236904Y-140699342D02*
X58236904Y-140461247D01*
X58236904Y-140461247D02*
X58189285Y-140366009D01*
X58189285Y-140366009D02*
X58141666Y-140318390D01*
X58141666Y-140318390D02*
X58046428Y-140270771D01*
X58046428Y-140270771D02*
X57855952Y-140270771D01*
X57855952Y-140270771D02*
X57760714Y-140318390D01*
X57760714Y-140318390D02*
X57713095Y-140366009D01*
X57713095Y-140366009D02*
X57665476Y-140461247D01*
X54832142Y-145129819D02*
X54260714Y-145129819D01*
X54546428Y-145129819D02*
X54546428Y-144129819D01*
X54546428Y-144129819D02*
X54451190Y-144272676D01*
X54451190Y-144272676D02*
X54355952Y-144367914D01*
X54355952Y-144367914D02*
X54260714Y-144415533D01*
X55260714Y-145129819D02*
X55260714Y-144129819D01*
X55260714Y-144129819D02*
X55832142Y-145129819D01*
X55832142Y-145129819D02*
X55832142Y-144129819D01*
X56784523Y-144129819D02*
X56308333Y-144129819D01*
X56308333Y-144129819D02*
X56260714Y-144606009D01*
X56260714Y-144606009D02*
X56308333Y-144558390D01*
X56308333Y-144558390D02*
X56403571Y-144510771D01*
X56403571Y-144510771D02*
X56641666Y-144510771D01*
X56641666Y-144510771D02*
X56736904Y-144558390D01*
X56736904Y-144558390D02*
X56784523Y-144606009D01*
X56784523Y-144606009D02*
X56832142Y-144701247D01*
X56832142Y-144701247D02*
X56832142Y-144939342D01*
X56832142Y-144939342D02*
X56784523Y-145034580D01*
X56784523Y-145034580D02*
X56736904Y-145082200D01*
X56736904Y-145082200D02*
X56641666Y-145129819D01*
X56641666Y-145129819D02*
X56403571Y-145129819D01*
X56403571Y-145129819D02*
X56308333Y-145082200D01*
X56308333Y-145082200D02*
X56260714Y-145034580D01*
X57403571Y-144558390D02*
X57308333Y-144510771D01*
X57308333Y-144510771D02*
X57260714Y-144463152D01*
X57260714Y-144463152D02*
X57213095Y-144367914D01*
X57213095Y-144367914D02*
X57213095Y-144320295D01*
X57213095Y-144320295D02*
X57260714Y-144225057D01*
X57260714Y-144225057D02*
X57308333Y-144177438D01*
X57308333Y-144177438D02*
X57403571Y-144129819D01*
X57403571Y-144129819D02*
X57594047Y-144129819D01*
X57594047Y-144129819D02*
X57689285Y-144177438D01*
X57689285Y-144177438D02*
X57736904Y-144225057D01*
X57736904Y-144225057D02*
X57784523Y-144320295D01*
X57784523Y-144320295D02*
X57784523Y-144367914D01*
X57784523Y-144367914D02*
X57736904Y-144463152D01*
X57736904Y-144463152D02*
X57689285Y-144510771D01*
X57689285Y-144510771D02*
X57594047Y-144558390D01*
X57594047Y-144558390D02*
X57403571Y-144558390D01*
X57403571Y-144558390D02*
X57308333Y-144606009D01*
X57308333Y-144606009D02*
X57260714Y-144653628D01*
X57260714Y-144653628D02*
X57213095Y-144748866D01*
X57213095Y-144748866D02*
X57213095Y-144939342D01*
X57213095Y-144939342D02*
X57260714Y-145034580D01*
X57260714Y-145034580D02*
X57308333Y-145082200D01*
X57308333Y-145082200D02*
X57403571Y-145129819D01*
X57403571Y-145129819D02*
X57594047Y-145129819D01*
X57594047Y-145129819D02*
X57689285Y-145082200D01*
X57689285Y-145082200D02*
X57736904Y-145034580D01*
X57736904Y-145034580D02*
X57784523Y-144939342D01*
X57784523Y-144939342D02*
X57784523Y-144748866D01*
X57784523Y-144748866D02*
X57736904Y-144653628D01*
X57736904Y-144653628D02*
X57689285Y-144606009D01*
X57689285Y-144606009D02*
X57594047Y-144558390D01*
X58736904Y-145129819D02*
X58165476Y-145129819D01*
X58451190Y-145129819D02*
X58451190Y-144129819D01*
X58451190Y-144129819D02*
X58355952Y-144272676D01*
X58355952Y-144272676D02*
X58260714Y-144367914D01*
X58260714Y-144367914D02*
X58165476Y-144415533D01*
X59213095Y-145129819D02*
X59403571Y-145129819D01*
X59403571Y-145129819D02*
X59498809Y-145082200D01*
X59498809Y-145082200D02*
X59546428Y-145034580D01*
X59546428Y-145034580D02*
X59641666Y-144891723D01*
X59641666Y-144891723D02*
X59689285Y-144701247D01*
X59689285Y-144701247D02*
X59689285Y-144320295D01*
X59689285Y-144320295D02*
X59641666Y-144225057D01*
X59641666Y-144225057D02*
X59594047Y-144177438D01*
X59594047Y-144177438D02*
X59498809Y-144129819D01*
X59498809Y-144129819D02*
X59308333Y-144129819D01*
X59308333Y-144129819D02*
X59213095Y-144177438D01*
X59213095Y-144177438D02*
X59165476Y-144225057D01*
X59165476Y-144225057D02*
X59117857Y-144320295D01*
X59117857Y-144320295D02*
X59117857Y-144558390D01*
X59117857Y-144558390D02*
X59165476Y-144653628D01*
X59165476Y-144653628D02*
X59213095Y-144701247D01*
X59213095Y-144701247D02*
X59308333Y-144748866D01*
X59308333Y-144748866D02*
X59498809Y-144748866D01*
X59498809Y-144748866D02*
X59594047Y-144701247D01*
X59594047Y-144701247D02*
X59641666Y-144653628D01*
X59641666Y-144653628D02*
X59689285Y-144558390D01*
X59412142Y-74454819D02*
X58840714Y-74454819D01*
X59126428Y-74454819D02*
X59126428Y-73454819D01*
X59126428Y-73454819D02*
X59031190Y-73597676D01*
X59031190Y-73597676D02*
X58935952Y-73692914D01*
X58935952Y-73692914D02*
X58840714Y-73740533D01*
X59840714Y-74454819D02*
X59840714Y-73454819D01*
X59840714Y-73454819D02*
X60412142Y-74454819D01*
X60412142Y-74454819D02*
X60412142Y-73454819D01*
X61364523Y-73454819D02*
X60888333Y-73454819D01*
X60888333Y-73454819D02*
X60840714Y-73931009D01*
X60840714Y-73931009D02*
X60888333Y-73883390D01*
X60888333Y-73883390D02*
X60983571Y-73835771D01*
X60983571Y-73835771D02*
X61221666Y-73835771D01*
X61221666Y-73835771D02*
X61316904Y-73883390D01*
X61316904Y-73883390D02*
X61364523Y-73931009D01*
X61364523Y-73931009D02*
X61412142Y-74026247D01*
X61412142Y-74026247D02*
X61412142Y-74264342D01*
X61412142Y-74264342D02*
X61364523Y-74359580D01*
X61364523Y-74359580D02*
X61316904Y-74407200D01*
X61316904Y-74407200D02*
X61221666Y-74454819D01*
X61221666Y-74454819D02*
X60983571Y-74454819D01*
X60983571Y-74454819D02*
X60888333Y-74407200D01*
X60888333Y-74407200D02*
X60840714Y-74359580D01*
X61983571Y-73883390D02*
X61888333Y-73835771D01*
X61888333Y-73835771D02*
X61840714Y-73788152D01*
X61840714Y-73788152D02*
X61793095Y-73692914D01*
X61793095Y-73692914D02*
X61793095Y-73645295D01*
X61793095Y-73645295D02*
X61840714Y-73550057D01*
X61840714Y-73550057D02*
X61888333Y-73502438D01*
X61888333Y-73502438D02*
X61983571Y-73454819D01*
X61983571Y-73454819D02*
X62174047Y-73454819D01*
X62174047Y-73454819D02*
X62269285Y-73502438D01*
X62269285Y-73502438D02*
X62316904Y-73550057D01*
X62316904Y-73550057D02*
X62364523Y-73645295D01*
X62364523Y-73645295D02*
X62364523Y-73692914D01*
X62364523Y-73692914D02*
X62316904Y-73788152D01*
X62316904Y-73788152D02*
X62269285Y-73835771D01*
X62269285Y-73835771D02*
X62174047Y-73883390D01*
X62174047Y-73883390D02*
X61983571Y-73883390D01*
X61983571Y-73883390D02*
X61888333Y-73931009D01*
X61888333Y-73931009D02*
X61840714Y-73978628D01*
X61840714Y-73978628D02*
X61793095Y-74073866D01*
X61793095Y-74073866D02*
X61793095Y-74264342D01*
X61793095Y-74264342D02*
X61840714Y-74359580D01*
X61840714Y-74359580D02*
X61888333Y-74407200D01*
X61888333Y-74407200D02*
X61983571Y-74454819D01*
X61983571Y-74454819D02*
X62174047Y-74454819D01*
X62174047Y-74454819D02*
X62269285Y-74407200D01*
X62269285Y-74407200D02*
X62316904Y-74359580D01*
X62316904Y-74359580D02*
X62364523Y-74264342D01*
X62364523Y-74264342D02*
X62364523Y-74073866D01*
X62364523Y-74073866D02*
X62316904Y-73978628D01*
X62316904Y-73978628D02*
X62269285Y-73931009D01*
X62269285Y-73931009D02*
X62174047Y-73883390D01*
X63316904Y-74454819D02*
X62745476Y-74454819D01*
X63031190Y-74454819D02*
X63031190Y-73454819D01*
X63031190Y-73454819D02*
X62935952Y-73597676D01*
X62935952Y-73597676D02*
X62840714Y-73692914D01*
X62840714Y-73692914D02*
X62745476Y-73740533D01*
X63793095Y-74454819D02*
X63983571Y-74454819D01*
X63983571Y-74454819D02*
X64078809Y-74407200D01*
X64078809Y-74407200D02*
X64126428Y-74359580D01*
X64126428Y-74359580D02*
X64221666Y-74216723D01*
X64221666Y-74216723D02*
X64269285Y-74026247D01*
X64269285Y-74026247D02*
X64269285Y-73645295D01*
X64269285Y-73645295D02*
X64221666Y-73550057D01*
X64221666Y-73550057D02*
X64174047Y-73502438D01*
X64174047Y-73502438D02*
X64078809Y-73454819D01*
X64078809Y-73454819D02*
X63888333Y-73454819D01*
X63888333Y-73454819D02*
X63793095Y-73502438D01*
X63793095Y-73502438D02*
X63745476Y-73550057D01*
X63745476Y-73550057D02*
X63697857Y-73645295D01*
X63697857Y-73645295D02*
X63697857Y-73883390D01*
X63697857Y-73883390D02*
X63745476Y-73978628D01*
X63745476Y-73978628D02*
X63793095Y-74026247D01*
X63793095Y-74026247D02*
X63888333Y-74073866D01*
X63888333Y-74073866D02*
X64078809Y-74073866D01*
X64078809Y-74073866D02*
X64174047Y-74026247D01*
X64174047Y-74026247D02*
X64221666Y-73978628D01*
X64221666Y-73978628D02*
X64269285Y-73883390D01*
X94913333Y-78109580D02*
X94865714Y-78157200D01*
X94865714Y-78157200D02*
X94722857Y-78204819D01*
X94722857Y-78204819D02*
X94627619Y-78204819D01*
X94627619Y-78204819D02*
X94484762Y-78157200D01*
X94484762Y-78157200D02*
X94389524Y-78061961D01*
X94389524Y-78061961D02*
X94341905Y-77966723D01*
X94341905Y-77966723D02*
X94294286Y-77776247D01*
X94294286Y-77776247D02*
X94294286Y-77633390D01*
X94294286Y-77633390D02*
X94341905Y-77442914D01*
X94341905Y-77442914D02*
X94389524Y-77347676D01*
X94389524Y-77347676D02*
X94484762Y-77252438D01*
X94484762Y-77252438D02*
X94627619Y-77204819D01*
X94627619Y-77204819D02*
X94722857Y-77204819D01*
X94722857Y-77204819D02*
X94865714Y-77252438D01*
X94865714Y-77252438D02*
X94913333Y-77300057D01*
X95865714Y-78204819D02*
X95294286Y-78204819D01*
X95580000Y-78204819D02*
X95580000Y-77204819D01*
X95580000Y-77204819D02*
X95484762Y-77347676D01*
X95484762Y-77347676D02*
X95389524Y-77442914D01*
X95389524Y-77442914D02*
X95294286Y-77490533D01*
X74760714Y-140954819D02*
X74760714Y-139954819D01*
X74760714Y-139954819D02*
X74998809Y-139954819D01*
X74998809Y-139954819D02*
X75141666Y-140002438D01*
X75141666Y-140002438D02*
X75236904Y-140097676D01*
X75236904Y-140097676D02*
X75284523Y-140192914D01*
X75284523Y-140192914D02*
X75332142Y-140383390D01*
X75332142Y-140383390D02*
X75332142Y-140526247D01*
X75332142Y-140526247D02*
X75284523Y-140716723D01*
X75284523Y-140716723D02*
X75236904Y-140811961D01*
X75236904Y-140811961D02*
X75141666Y-140907200D01*
X75141666Y-140907200D02*
X74998809Y-140954819D01*
X74998809Y-140954819D02*
X74760714Y-140954819D01*
X76284523Y-140954819D02*
X75713095Y-140954819D01*
X75998809Y-140954819D02*
X75998809Y-139954819D01*
X75998809Y-139954819D02*
X75903571Y-140097676D01*
X75903571Y-140097676D02*
X75808333Y-140192914D01*
X75808333Y-140192914D02*
X75713095Y-140240533D01*
X76617857Y-139954819D02*
X77284523Y-139954819D01*
X77284523Y-139954819D02*
X76855952Y-140954819D01*
X73832142Y-145129819D02*
X73260714Y-145129819D01*
X73546428Y-145129819D02*
X73546428Y-144129819D01*
X73546428Y-144129819D02*
X73451190Y-144272676D01*
X73451190Y-144272676D02*
X73355952Y-144367914D01*
X73355952Y-144367914D02*
X73260714Y-144415533D01*
X74260714Y-145129819D02*
X74260714Y-144129819D01*
X74260714Y-144129819D02*
X74832142Y-145129819D01*
X74832142Y-145129819D02*
X74832142Y-144129819D01*
X75784523Y-144129819D02*
X75308333Y-144129819D01*
X75308333Y-144129819D02*
X75260714Y-144606009D01*
X75260714Y-144606009D02*
X75308333Y-144558390D01*
X75308333Y-144558390D02*
X75403571Y-144510771D01*
X75403571Y-144510771D02*
X75641666Y-144510771D01*
X75641666Y-144510771D02*
X75736904Y-144558390D01*
X75736904Y-144558390D02*
X75784523Y-144606009D01*
X75784523Y-144606009D02*
X75832142Y-144701247D01*
X75832142Y-144701247D02*
X75832142Y-144939342D01*
X75832142Y-144939342D02*
X75784523Y-145034580D01*
X75784523Y-145034580D02*
X75736904Y-145082200D01*
X75736904Y-145082200D02*
X75641666Y-145129819D01*
X75641666Y-145129819D02*
X75403571Y-145129819D01*
X75403571Y-145129819D02*
X75308333Y-145082200D01*
X75308333Y-145082200D02*
X75260714Y-145034580D01*
X76403571Y-144558390D02*
X76308333Y-144510771D01*
X76308333Y-144510771D02*
X76260714Y-144463152D01*
X76260714Y-144463152D02*
X76213095Y-144367914D01*
X76213095Y-144367914D02*
X76213095Y-144320295D01*
X76213095Y-144320295D02*
X76260714Y-144225057D01*
X76260714Y-144225057D02*
X76308333Y-144177438D01*
X76308333Y-144177438D02*
X76403571Y-144129819D01*
X76403571Y-144129819D02*
X76594047Y-144129819D01*
X76594047Y-144129819D02*
X76689285Y-144177438D01*
X76689285Y-144177438D02*
X76736904Y-144225057D01*
X76736904Y-144225057D02*
X76784523Y-144320295D01*
X76784523Y-144320295D02*
X76784523Y-144367914D01*
X76784523Y-144367914D02*
X76736904Y-144463152D01*
X76736904Y-144463152D02*
X76689285Y-144510771D01*
X76689285Y-144510771D02*
X76594047Y-144558390D01*
X76594047Y-144558390D02*
X76403571Y-144558390D01*
X76403571Y-144558390D02*
X76308333Y-144606009D01*
X76308333Y-144606009D02*
X76260714Y-144653628D01*
X76260714Y-144653628D02*
X76213095Y-144748866D01*
X76213095Y-144748866D02*
X76213095Y-144939342D01*
X76213095Y-144939342D02*
X76260714Y-145034580D01*
X76260714Y-145034580D02*
X76308333Y-145082200D01*
X76308333Y-145082200D02*
X76403571Y-145129819D01*
X76403571Y-145129819D02*
X76594047Y-145129819D01*
X76594047Y-145129819D02*
X76689285Y-145082200D01*
X76689285Y-145082200D02*
X76736904Y-145034580D01*
X76736904Y-145034580D02*
X76784523Y-144939342D01*
X76784523Y-144939342D02*
X76784523Y-144748866D01*
X76784523Y-144748866D02*
X76736904Y-144653628D01*
X76736904Y-144653628D02*
X76689285Y-144606009D01*
X76689285Y-144606009D02*
X76594047Y-144558390D01*
X77736904Y-145129819D02*
X77165476Y-145129819D01*
X77451190Y-145129819D02*
X77451190Y-144129819D01*
X77451190Y-144129819D02*
X77355952Y-144272676D01*
X77355952Y-144272676D02*
X77260714Y-144367914D01*
X77260714Y-144367914D02*
X77165476Y-144415533D01*
X78213095Y-145129819D02*
X78403571Y-145129819D01*
X78403571Y-145129819D02*
X78498809Y-145082200D01*
X78498809Y-145082200D02*
X78546428Y-145034580D01*
X78546428Y-145034580D02*
X78641666Y-144891723D01*
X78641666Y-144891723D02*
X78689285Y-144701247D01*
X78689285Y-144701247D02*
X78689285Y-144320295D01*
X78689285Y-144320295D02*
X78641666Y-144225057D01*
X78641666Y-144225057D02*
X78594047Y-144177438D01*
X78594047Y-144177438D02*
X78498809Y-144129819D01*
X78498809Y-144129819D02*
X78308333Y-144129819D01*
X78308333Y-144129819D02*
X78213095Y-144177438D01*
X78213095Y-144177438D02*
X78165476Y-144225057D01*
X78165476Y-144225057D02*
X78117857Y-144320295D01*
X78117857Y-144320295D02*
X78117857Y-144558390D01*
X78117857Y-144558390D02*
X78165476Y-144653628D01*
X78165476Y-144653628D02*
X78213095Y-144701247D01*
X78213095Y-144701247D02*
X78308333Y-144748866D01*
X78308333Y-144748866D02*
X78498809Y-144748866D01*
X78498809Y-144748866D02*
X78594047Y-144701247D01*
X78594047Y-144701247D02*
X78641666Y-144653628D01*
X78641666Y-144653628D02*
X78689285Y-144558390D01*
X74760714Y-102889819D02*
X74760714Y-101889819D01*
X74760714Y-101889819D02*
X74998809Y-101889819D01*
X74998809Y-101889819D02*
X75141666Y-101937438D01*
X75141666Y-101937438D02*
X75236904Y-102032676D01*
X75236904Y-102032676D02*
X75284523Y-102127914D01*
X75284523Y-102127914D02*
X75332142Y-102318390D01*
X75332142Y-102318390D02*
X75332142Y-102461247D01*
X75332142Y-102461247D02*
X75284523Y-102651723D01*
X75284523Y-102651723D02*
X75236904Y-102746961D01*
X75236904Y-102746961D02*
X75141666Y-102842200D01*
X75141666Y-102842200D02*
X74998809Y-102889819D01*
X74998809Y-102889819D02*
X74760714Y-102889819D01*
X75713095Y-101985057D02*
X75760714Y-101937438D01*
X75760714Y-101937438D02*
X75855952Y-101889819D01*
X75855952Y-101889819D02*
X76094047Y-101889819D01*
X76094047Y-101889819D02*
X76189285Y-101937438D01*
X76189285Y-101937438D02*
X76236904Y-101985057D01*
X76236904Y-101985057D02*
X76284523Y-102080295D01*
X76284523Y-102080295D02*
X76284523Y-102175533D01*
X76284523Y-102175533D02*
X76236904Y-102318390D01*
X76236904Y-102318390D02*
X75665476Y-102889819D01*
X75665476Y-102889819D02*
X76284523Y-102889819D01*
X77141666Y-102223152D02*
X77141666Y-102889819D01*
X76903571Y-101842200D02*
X76665476Y-102556485D01*
X76665476Y-102556485D02*
X77284523Y-102556485D01*
X73832142Y-107129819D02*
X73260714Y-107129819D01*
X73546428Y-107129819D02*
X73546428Y-106129819D01*
X73546428Y-106129819D02*
X73451190Y-106272676D01*
X73451190Y-106272676D02*
X73355952Y-106367914D01*
X73355952Y-106367914D02*
X73260714Y-106415533D01*
X74260714Y-107129819D02*
X74260714Y-106129819D01*
X74260714Y-106129819D02*
X74832142Y-107129819D01*
X74832142Y-107129819D02*
X74832142Y-106129819D01*
X75784523Y-106129819D02*
X75308333Y-106129819D01*
X75308333Y-106129819D02*
X75260714Y-106606009D01*
X75260714Y-106606009D02*
X75308333Y-106558390D01*
X75308333Y-106558390D02*
X75403571Y-106510771D01*
X75403571Y-106510771D02*
X75641666Y-106510771D01*
X75641666Y-106510771D02*
X75736904Y-106558390D01*
X75736904Y-106558390D02*
X75784523Y-106606009D01*
X75784523Y-106606009D02*
X75832142Y-106701247D01*
X75832142Y-106701247D02*
X75832142Y-106939342D01*
X75832142Y-106939342D02*
X75784523Y-107034580D01*
X75784523Y-107034580D02*
X75736904Y-107082200D01*
X75736904Y-107082200D02*
X75641666Y-107129819D01*
X75641666Y-107129819D02*
X75403571Y-107129819D01*
X75403571Y-107129819D02*
X75308333Y-107082200D01*
X75308333Y-107082200D02*
X75260714Y-107034580D01*
X76403571Y-106558390D02*
X76308333Y-106510771D01*
X76308333Y-106510771D02*
X76260714Y-106463152D01*
X76260714Y-106463152D02*
X76213095Y-106367914D01*
X76213095Y-106367914D02*
X76213095Y-106320295D01*
X76213095Y-106320295D02*
X76260714Y-106225057D01*
X76260714Y-106225057D02*
X76308333Y-106177438D01*
X76308333Y-106177438D02*
X76403571Y-106129819D01*
X76403571Y-106129819D02*
X76594047Y-106129819D01*
X76594047Y-106129819D02*
X76689285Y-106177438D01*
X76689285Y-106177438D02*
X76736904Y-106225057D01*
X76736904Y-106225057D02*
X76784523Y-106320295D01*
X76784523Y-106320295D02*
X76784523Y-106367914D01*
X76784523Y-106367914D02*
X76736904Y-106463152D01*
X76736904Y-106463152D02*
X76689285Y-106510771D01*
X76689285Y-106510771D02*
X76594047Y-106558390D01*
X76594047Y-106558390D02*
X76403571Y-106558390D01*
X76403571Y-106558390D02*
X76308333Y-106606009D01*
X76308333Y-106606009D02*
X76260714Y-106653628D01*
X76260714Y-106653628D02*
X76213095Y-106748866D01*
X76213095Y-106748866D02*
X76213095Y-106939342D01*
X76213095Y-106939342D02*
X76260714Y-107034580D01*
X76260714Y-107034580D02*
X76308333Y-107082200D01*
X76308333Y-107082200D02*
X76403571Y-107129819D01*
X76403571Y-107129819D02*
X76594047Y-107129819D01*
X76594047Y-107129819D02*
X76689285Y-107082200D01*
X76689285Y-107082200D02*
X76736904Y-107034580D01*
X76736904Y-107034580D02*
X76784523Y-106939342D01*
X76784523Y-106939342D02*
X76784523Y-106748866D01*
X76784523Y-106748866D02*
X76736904Y-106653628D01*
X76736904Y-106653628D02*
X76689285Y-106606009D01*
X76689285Y-106606009D02*
X76594047Y-106558390D01*
X77736904Y-107129819D02*
X77165476Y-107129819D01*
X77451190Y-107129819D02*
X77451190Y-106129819D01*
X77451190Y-106129819D02*
X77355952Y-106272676D01*
X77355952Y-106272676D02*
X77260714Y-106367914D01*
X77260714Y-106367914D02*
X77165476Y-106415533D01*
X78213095Y-107129819D02*
X78403571Y-107129819D01*
X78403571Y-107129819D02*
X78498809Y-107082200D01*
X78498809Y-107082200D02*
X78546428Y-107034580D01*
X78546428Y-107034580D02*
X78641666Y-106891723D01*
X78641666Y-106891723D02*
X78689285Y-106701247D01*
X78689285Y-106701247D02*
X78689285Y-106320295D01*
X78689285Y-106320295D02*
X78641666Y-106225057D01*
X78641666Y-106225057D02*
X78594047Y-106177438D01*
X78594047Y-106177438D02*
X78498809Y-106129819D01*
X78498809Y-106129819D02*
X78308333Y-106129819D01*
X78308333Y-106129819D02*
X78213095Y-106177438D01*
X78213095Y-106177438D02*
X78165476Y-106225057D01*
X78165476Y-106225057D02*
X78117857Y-106320295D01*
X78117857Y-106320295D02*
X78117857Y-106558390D01*
X78117857Y-106558390D02*
X78165476Y-106653628D01*
X78165476Y-106653628D02*
X78213095Y-106701247D01*
X78213095Y-106701247D02*
X78308333Y-106748866D01*
X78308333Y-106748866D02*
X78498809Y-106748866D01*
X78498809Y-106748866D02*
X78594047Y-106701247D01*
X78594047Y-106701247D02*
X78641666Y-106653628D01*
X78641666Y-106653628D02*
X78689285Y-106558390D01*
X103144580Y-73211554D02*
X103192200Y-73259173D01*
X103192200Y-73259173D02*
X103239819Y-73402030D01*
X103239819Y-73402030D02*
X103239819Y-73497268D01*
X103239819Y-73497268D02*
X103192200Y-73640125D01*
X103192200Y-73640125D02*
X103096961Y-73735363D01*
X103096961Y-73735363D02*
X103001723Y-73782982D01*
X103001723Y-73782982D02*
X102811247Y-73830601D01*
X102811247Y-73830601D02*
X102668390Y-73830601D01*
X102668390Y-73830601D02*
X102477914Y-73782982D01*
X102477914Y-73782982D02*
X102382676Y-73735363D01*
X102382676Y-73735363D02*
X102287438Y-73640125D01*
X102287438Y-73640125D02*
X102239819Y-73497268D01*
X102239819Y-73497268D02*
X102239819Y-73402030D01*
X102239819Y-73402030D02*
X102287438Y-73259173D01*
X102287438Y-73259173D02*
X102335057Y-73211554D01*
X102239819Y-72306792D02*
X102239819Y-72782982D01*
X102239819Y-72782982D02*
X102716009Y-72830601D01*
X102716009Y-72830601D02*
X102668390Y-72782982D01*
X102668390Y-72782982D02*
X102620771Y-72687744D01*
X102620771Y-72687744D02*
X102620771Y-72449649D01*
X102620771Y-72449649D02*
X102668390Y-72354411D01*
X102668390Y-72354411D02*
X102716009Y-72306792D01*
X102716009Y-72306792D02*
X102811247Y-72259173D01*
X102811247Y-72259173D02*
X103049342Y-72259173D01*
X103049342Y-72259173D02*
X103144580Y-72306792D01*
X103144580Y-72306792D02*
X103192200Y-72354411D01*
X103192200Y-72354411D02*
X103239819Y-72449649D01*
X103239819Y-72449649D02*
X103239819Y-72687744D01*
X103239819Y-72687744D02*
X103192200Y-72782982D01*
X103192200Y-72782982D02*
X103144580Y-72830601D01*
X131760714Y-121889819D02*
X131760714Y-120889819D01*
X131760714Y-120889819D02*
X131998809Y-120889819D01*
X131998809Y-120889819D02*
X132141666Y-120937438D01*
X132141666Y-120937438D02*
X132236904Y-121032676D01*
X132236904Y-121032676D02*
X132284523Y-121127914D01*
X132284523Y-121127914D02*
X132332142Y-121318390D01*
X132332142Y-121318390D02*
X132332142Y-121461247D01*
X132332142Y-121461247D02*
X132284523Y-121651723D01*
X132284523Y-121651723D02*
X132236904Y-121746961D01*
X132236904Y-121746961D02*
X132141666Y-121842200D01*
X132141666Y-121842200D02*
X131998809Y-121889819D01*
X131998809Y-121889819D02*
X131760714Y-121889819D01*
X132713095Y-120985057D02*
X132760714Y-120937438D01*
X132760714Y-120937438D02*
X132855952Y-120889819D01*
X132855952Y-120889819D02*
X133094047Y-120889819D01*
X133094047Y-120889819D02*
X133189285Y-120937438D01*
X133189285Y-120937438D02*
X133236904Y-120985057D01*
X133236904Y-120985057D02*
X133284523Y-121080295D01*
X133284523Y-121080295D02*
X133284523Y-121175533D01*
X133284523Y-121175533D02*
X133236904Y-121318390D01*
X133236904Y-121318390D02*
X132665476Y-121889819D01*
X132665476Y-121889819D02*
X133284523Y-121889819D01*
X134141666Y-120889819D02*
X133951190Y-120889819D01*
X133951190Y-120889819D02*
X133855952Y-120937438D01*
X133855952Y-120937438D02*
X133808333Y-120985057D01*
X133808333Y-120985057D02*
X133713095Y-121127914D01*
X133713095Y-121127914D02*
X133665476Y-121318390D01*
X133665476Y-121318390D02*
X133665476Y-121699342D01*
X133665476Y-121699342D02*
X133713095Y-121794580D01*
X133713095Y-121794580D02*
X133760714Y-121842200D01*
X133760714Y-121842200D02*
X133855952Y-121889819D01*
X133855952Y-121889819D02*
X134046428Y-121889819D01*
X134046428Y-121889819D02*
X134141666Y-121842200D01*
X134141666Y-121842200D02*
X134189285Y-121794580D01*
X134189285Y-121794580D02*
X134236904Y-121699342D01*
X134236904Y-121699342D02*
X134236904Y-121461247D01*
X134236904Y-121461247D02*
X134189285Y-121366009D01*
X134189285Y-121366009D02*
X134141666Y-121318390D01*
X134141666Y-121318390D02*
X134046428Y-121270771D01*
X134046428Y-121270771D02*
X133855952Y-121270771D01*
X133855952Y-121270771D02*
X133760714Y-121318390D01*
X133760714Y-121318390D02*
X133713095Y-121366009D01*
X133713095Y-121366009D02*
X133665476Y-121461247D01*
X130832142Y-126129819D02*
X130260714Y-126129819D01*
X130546428Y-126129819D02*
X130546428Y-125129819D01*
X130546428Y-125129819D02*
X130451190Y-125272676D01*
X130451190Y-125272676D02*
X130355952Y-125367914D01*
X130355952Y-125367914D02*
X130260714Y-125415533D01*
X131260714Y-126129819D02*
X131260714Y-125129819D01*
X131260714Y-125129819D02*
X131832142Y-126129819D01*
X131832142Y-126129819D02*
X131832142Y-125129819D01*
X132784523Y-125129819D02*
X132308333Y-125129819D01*
X132308333Y-125129819D02*
X132260714Y-125606009D01*
X132260714Y-125606009D02*
X132308333Y-125558390D01*
X132308333Y-125558390D02*
X132403571Y-125510771D01*
X132403571Y-125510771D02*
X132641666Y-125510771D01*
X132641666Y-125510771D02*
X132736904Y-125558390D01*
X132736904Y-125558390D02*
X132784523Y-125606009D01*
X132784523Y-125606009D02*
X132832142Y-125701247D01*
X132832142Y-125701247D02*
X132832142Y-125939342D01*
X132832142Y-125939342D02*
X132784523Y-126034580D01*
X132784523Y-126034580D02*
X132736904Y-126082200D01*
X132736904Y-126082200D02*
X132641666Y-126129819D01*
X132641666Y-126129819D02*
X132403571Y-126129819D01*
X132403571Y-126129819D02*
X132308333Y-126082200D01*
X132308333Y-126082200D02*
X132260714Y-126034580D01*
X133403571Y-125558390D02*
X133308333Y-125510771D01*
X133308333Y-125510771D02*
X133260714Y-125463152D01*
X133260714Y-125463152D02*
X133213095Y-125367914D01*
X133213095Y-125367914D02*
X133213095Y-125320295D01*
X133213095Y-125320295D02*
X133260714Y-125225057D01*
X133260714Y-125225057D02*
X133308333Y-125177438D01*
X133308333Y-125177438D02*
X133403571Y-125129819D01*
X133403571Y-125129819D02*
X133594047Y-125129819D01*
X133594047Y-125129819D02*
X133689285Y-125177438D01*
X133689285Y-125177438D02*
X133736904Y-125225057D01*
X133736904Y-125225057D02*
X133784523Y-125320295D01*
X133784523Y-125320295D02*
X133784523Y-125367914D01*
X133784523Y-125367914D02*
X133736904Y-125463152D01*
X133736904Y-125463152D02*
X133689285Y-125510771D01*
X133689285Y-125510771D02*
X133594047Y-125558390D01*
X133594047Y-125558390D02*
X133403571Y-125558390D01*
X133403571Y-125558390D02*
X133308333Y-125606009D01*
X133308333Y-125606009D02*
X133260714Y-125653628D01*
X133260714Y-125653628D02*
X133213095Y-125748866D01*
X133213095Y-125748866D02*
X133213095Y-125939342D01*
X133213095Y-125939342D02*
X133260714Y-126034580D01*
X133260714Y-126034580D02*
X133308333Y-126082200D01*
X133308333Y-126082200D02*
X133403571Y-126129819D01*
X133403571Y-126129819D02*
X133594047Y-126129819D01*
X133594047Y-126129819D02*
X133689285Y-126082200D01*
X133689285Y-126082200D02*
X133736904Y-126034580D01*
X133736904Y-126034580D02*
X133784523Y-125939342D01*
X133784523Y-125939342D02*
X133784523Y-125748866D01*
X133784523Y-125748866D02*
X133736904Y-125653628D01*
X133736904Y-125653628D02*
X133689285Y-125606009D01*
X133689285Y-125606009D02*
X133594047Y-125558390D01*
X134736904Y-126129819D02*
X134165476Y-126129819D01*
X134451190Y-126129819D02*
X134451190Y-125129819D01*
X134451190Y-125129819D02*
X134355952Y-125272676D01*
X134355952Y-125272676D02*
X134260714Y-125367914D01*
X134260714Y-125367914D02*
X134165476Y-125415533D01*
X135213095Y-126129819D02*
X135403571Y-126129819D01*
X135403571Y-126129819D02*
X135498809Y-126082200D01*
X135498809Y-126082200D02*
X135546428Y-126034580D01*
X135546428Y-126034580D02*
X135641666Y-125891723D01*
X135641666Y-125891723D02*
X135689285Y-125701247D01*
X135689285Y-125701247D02*
X135689285Y-125320295D01*
X135689285Y-125320295D02*
X135641666Y-125225057D01*
X135641666Y-125225057D02*
X135594047Y-125177438D01*
X135594047Y-125177438D02*
X135498809Y-125129819D01*
X135498809Y-125129819D02*
X135308333Y-125129819D01*
X135308333Y-125129819D02*
X135213095Y-125177438D01*
X135213095Y-125177438D02*
X135165476Y-125225057D01*
X135165476Y-125225057D02*
X135117857Y-125320295D01*
X135117857Y-125320295D02*
X135117857Y-125558390D01*
X135117857Y-125558390D02*
X135165476Y-125653628D01*
X135165476Y-125653628D02*
X135213095Y-125701247D01*
X135213095Y-125701247D02*
X135308333Y-125748866D01*
X135308333Y-125748866D02*
X135498809Y-125748866D01*
X135498809Y-125748866D02*
X135594047Y-125701247D01*
X135594047Y-125701247D02*
X135641666Y-125653628D01*
X135641666Y-125653628D02*
X135689285Y-125558390D01*
X132485476Y-74407200D02*
X132628333Y-74454819D01*
X132628333Y-74454819D02*
X132866428Y-74454819D01*
X132866428Y-74454819D02*
X132961666Y-74407200D01*
X132961666Y-74407200D02*
X133009285Y-74359580D01*
X133009285Y-74359580D02*
X133056904Y-74264342D01*
X133056904Y-74264342D02*
X133056904Y-74169104D01*
X133056904Y-74169104D02*
X133009285Y-74073866D01*
X133009285Y-74073866D02*
X132961666Y-74026247D01*
X132961666Y-74026247D02*
X132866428Y-73978628D01*
X132866428Y-73978628D02*
X132675952Y-73931009D01*
X132675952Y-73931009D02*
X132580714Y-73883390D01*
X132580714Y-73883390D02*
X132533095Y-73835771D01*
X132533095Y-73835771D02*
X132485476Y-73740533D01*
X132485476Y-73740533D02*
X132485476Y-73645295D01*
X132485476Y-73645295D02*
X132533095Y-73550057D01*
X132533095Y-73550057D02*
X132580714Y-73502438D01*
X132580714Y-73502438D02*
X132675952Y-73454819D01*
X132675952Y-73454819D02*
X132914047Y-73454819D01*
X132914047Y-73454819D02*
X133056904Y-73502438D01*
X133390238Y-73454819D02*
X133628333Y-74454819D01*
X133628333Y-74454819D02*
X133818809Y-73740533D01*
X133818809Y-73740533D02*
X134009285Y-74454819D01*
X134009285Y-74454819D02*
X134247381Y-73454819D01*
X134580714Y-73550057D02*
X134628333Y-73502438D01*
X134628333Y-73502438D02*
X134723571Y-73454819D01*
X134723571Y-73454819D02*
X134961666Y-73454819D01*
X134961666Y-73454819D02*
X135056904Y-73502438D01*
X135056904Y-73502438D02*
X135104523Y-73550057D01*
X135104523Y-73550057D02*
X135152142Y-73645295D01*
X135152142Y-73645295D02*
X135152142Y-73740533D01*
X135152142Y-73740533D02*
X135104523Y-73883390D01*
X135104523Y-73883390D02*
X134533095Y-74454819D01*
X134533095Y-74454819D02*
X135152142Y-74454819D01*
X136056904Y-73454819D02*
X135580714Y-73454819D01*
X135580714Y-73454819D02*
X135533095Y-73931009D01*
X135533095Y-73931009D02*
X135580714Y-73883390D01*
X135580714Y-73883390D02*
X135675952Y-73835771D01*
X135675952Y-73835771D02*
X135914047Y-73835771D01*
X135914047Y-73835771D02*
X136009285Y-73883390D01*
X136009285Y-73883390D02*
X136056904Y-73931009D01*
X136056904Y-73931009D02*
X136104523Y-74026247D01*
X136104523Y-74026247D02*
X136104523Y-74264342D01*
X136104523Y-74264342D02*
X136056904Y-74359580D01*
X136056904Y-74359580D02*
X136009285Y-74407200D01*
X136009285Y-74407200D02*
X135914047Y-74454819D01*
X135914047Y-74454819D02*
X135675952Y-74454819D01*
X135675952Y-74454819D02*
X135580714Y-74407200D01*
X135580714Y-74407200D02*
X135533095Y-74359580D01*
X93760714Y-102889819D02*
X93760714Y-101889819D01*
X93760714Y-101889819D02*
X93998809Y-101889819D01*
X93998809Y-101889819D02*
X94141666Y-101937438D01*
X94141666Y-101937438D02*
X94236904Y-102032676D01*
X94236904Y-102032676D02*
X94284523Y-102127914D01*
X94284523Y-102127914D02*
X94332142Y-102318390D01*
X94332142Y-102318390D02*
X94332142Y-102461247D01*
X94332142Y-102461247D02*
X94284523Y-102651723D01*
X94284523Y-102651723D02*
X94236904Y-102746961D01*
X94236904Y-102746961D02*
X94141666Y-102842200D01*
X94141666Y-102842200D02*
X93998809Y-102889819D01*
X93998809Y-102889819D02*
X93760714Y-102889819D01*
X94665476Y-101889819D02*
X95284523Y-101889819D01*
X95284523Y-101889819D02*
X94951190Y-102270771D01*
X94951190Y-102270771D02*
X95094047Y-102270771D01*
X95094047Y-102270771D02*
X95189285Y-102318390D01*
X95189285Y-102318390D02*
X95236904Y-102366009D01*
X95236904Y-102366009D02*
X95284523Y-102461247D01*
X95284523Y-102461247D02*
X95284523Y-102699342D01*
X95284523Y-102699342D02*
X95236904Y-102794580D01*
X95236904Y-102794580D02*
X95189285Y-102842200D01*
X95189285Y-102842200D02*
X95094047Y-102889819D01*
X95094047Y-102889819D02*
X94808333Y-102889819D01*
X94808333Y-102889819D02*
X94713095Y-102842200D01*
X94713095Y-102842200D02*
X94665476Y-102794580D01*
X95903571Y-101889819D02*
X95998809Y-101889819D01*
X95998809Y-101889819D02*
X96094047Y-101937438D01*
X96094047Y-101937438D02*
X96141666Y-101985057D01*
X96141666Y-101985057D02*
X96189285Y-102080295D01*
X96189285Y-102080295D02*
X96236904Y-102270771D01*
X96236904Y-102270771D02*
X96236904Y-102508866D01*
X96236904Y-102508866D02*
X96189285Y-102699342D01*
X96189285Y-102699342D02*
X96141666Y-102794580D01*
X96141666Y-102794580D02*
X96094047Y-102842200D01*
X96094047Y-102842200D02*
X95998809Y-102889819D01*
X95998809Y-102889819D02*
X95903571Y-102889819D01*
X95903571Y-102889819D02*
X95808333Y-102842200D01*
X95808333Y-102842200D02*
X95760714Y-102794580D01*
X95760714Y-102794580D02*
X95713095Y-102699342D01*
X95713095Y-102699342D02*
X95665476Y-102508866D01*
X95665476Y-102508866D02*
X95665476Y-102270771D01*
X95665476Y-102270771D02*
X95713095Y-102080295D01*
X95713095Y-102080295D02*
X95760714Y-101985057D01*
X95760714Y-101985057D02*
X95808333Y-101937438D01*
X95808333Y-101937438D02*
X95903571Y-101889819D01*
X92832142Y-107129819D02*
X92260714Y-107129819D01*
X92546428Y-107129819D02*
X92546428Y-106129819D01*
X92546428Y-106129819D02*
X92451190Y-106272676D01*
X92451190Y-106272676D02*
X92355952Y-106367914D01*
X92355952Y-106367914D02*
X92260714Y-106415533D01*
X93260714Y-107129819D02*
X93260714Y-106129819D01*
X93260714Y-106129819D02*
X93832142Y-107129819D01*
X93832142Y-107129819D02*
X93832142Y-106129819D01*
X94784523Y-106129819D02*
X94308333Y-106129819D01*
X94308333Y-106129819D02*
X94260714Y-106606009D01*
X94260714Y-106606009D02*
X94308333Y-106558390D01*
X94308333Y-106558390D02*
X94403571Y-106510771D01*
X94403571Y-106510771D02*
X94641666Y-106510771D01*
X94641666Y-106510771D02*
X94736904Y-106558390D01*
X94736904Y-106558390D02*
X94784523Y-106606009D01*
X94784523Y-106606009D02*
X94832142Y-106701247D01*
X94832142Y-106701247D02*
X94832142Y-106939342D01*
X94832142Y-106939342D02*
X94784523Y-107034580D01*
X94784523Y-107034580D02*
X94736904Y-107082200D01*
X94736904Y-107082200D02*
X94641666Y-107129819D01*
X94641666Y-107129819D02*
X94403571Y-107129819D01*
X94403571Y-107129819D02*
X94308333Y-107082200D01*
X94308333Y-107082200D02*
X94260714Y-107034580D01*
X95403571Y-106558390D02*
X95308333Y-106510771D01*
X95308333Y-106510771D02*
X95260714Y-106463152D01*
X95260714Y-106463152D02*
X95213095Y-106367914D01*
X95213095Y-106367914D02*
X95213095Y-106320295D01*
X95213095Y-106320295D02*
X95260714Y-106225057D01*
X95260714Y-106225057D02*
X95308333Y-106177438D01*
X95308333Y-106177438D02*
X95403571Y-106129819D01*
X95403571Y-106129819D02*
X95594047Y-106129819D01*
X95594047Y-106129819D02*
X95689285Y-106177438D01*
X95689285Y-106177438D02*
X95736904Y-106225057D01*
X95736904Y-106225057D02*
X95784523Y-106320295D01*
X95784523Y-106320295D02*
X95784523Y-106367914D01*
X95784523Y-106367914D02*
X95736904Y-106463152D01*
X95736904Y-106463152D02*
X95689285Y-106510771D01*
X95689285Y-106510771D02*
X95594047Y-106558390D01*
X95594047Y-106558390D02*
X95403571Y-106558390D01*
X95403571Y-106558390D02*
X95308333Y-106606009D01*
X95308333Y-106606009D02*
X95260714Y-106653628D01*
X95260714Y-106653628D02*
X95213095Y-106748866D01*
X95213095Y-106748866D02*
X95213095Y-106939342D01*
X95213095Y-106939342D02*
X95260714Y-107034580D01*
X95260714Y-107034580D02*
X95308333Y-107082200D01*
X95308333Y-107082200D02*
X95403571Y-107129819D01*
X95403571Y-107129819D02*
X95594047Y-107129819D01*
X95594047Y-107129819D02*
X95689285Y-107082200D01*
X95689285Y-107082200D02*
X95736904Y-107034580D01*
X95736904Y-107034580D02*
X95784523Y-106939342D01*
X95784523Y-106939342D02*
X95784523Y-106748866D01*
X95784523Y-106748866D02*
X95736904Y-106653628D01*
X95736904Y-106653628D02*
X95689285Y-106606009D01*
X95689285Y-106606009D02*
X95594047Y-106558390D01*
X96736904Y-107129819D02*
X96165476Y-107129819D01*
X96451190Y-107129819D02*
X96451190Y-106129819D01*
X96451190Y-106129819D02*
X96355952Y-106272676D01*
X96355952Y-106272676D02*
X96260714Y-106367914D01*
X96260714Y-106367914D02*
X96165476Y-106415533D01*
X97213095Y-107129819D02*
X97403571Y-107129819D01*
X97403571Y-107129819D02*
X97498809Y-107082200D01*
X97498809Y-107082200D02*
X97546428Y-107034580D01*
X97546428Y-107034580D02*
X97641666Y-106891723D01*
X97641666Y-106891723D02*
X97689285Y-106701247D01*
X97689285Y-106701247D02*
X97689285Y-106320295D01*
X97689285Y-106320295D02*
X97641666Y-106225057D01*
X97641666Y-106225057D02*
X97594047Y-106177438D01*
X97594047Y-106177438D02*
X97498809Y-106129819D01*
X97498809Y-106129819D02*
X97308333Y-106129819D01*
X97308333Y-106129819D02*
X97213095Y-106177438D01*
X97213095Y-106177438D02*
X97165476Y-106225057D01*
X97165476Y-106225057D02*
X97117857Y-106320295D01*
X97117857Y-106320295D02*
X97117857Y-106558390D01*
X97117857Y-106558390D02*
X97165476Y-106653628D01*
X97165476Y-106653628D02*
X97213095Y-106701247D01*
X97213095Y-106701247D02*
X97308333Y-106748866D01*
X97308333Y-106748866D02*
X97498809Y-106748866D01*
X97498809Y-106748866D02*
X97594047Y-106701247D01*
X97594047Y-106701247D02*
X97641666Y-106653628D01*
X97641666Y-106653628D02*
X97689285Y-106558390D01*
X93760714Y-121834819D02*
X93760714Y-120834819D01*
X93760714Y-120834819D02*
X93998809Y-120834819D01*
X93998809Y-120834819D02*
X94141666Y-120882438D01*
X94141666Y-120882438D02*
X94236904Y-120977676D01*
X94236904Y-120977676D02*
X94284523Y-121072914D01*
X94284523Y-121072914D02*
X94332142Y-121263390D01*
X94332142Y-121263390D02*
X94332142Y-121406247D01*
X94332142Y-121406247D02*
X94284523Y-121596723D01*
X94284523Y-121596723D02*
X94236904Y-121691961D01*
X94236904Y-121691961D02*
X94141666Y-121787200D01*
X94141666Y-121787200D02*
X93998809Y-121834819D01*
X93998809Y-121834819D02*
X93760714Y-121834819D01*
X94713095Y-120930057D02*
X94760714Y-120882438D01*
X94760714Y-120882438D02*
X94855952Y-120834819D01*
X94855952Y-120834819D02*
X95094047Y-120834819D01*
X95094047Y-120834819D02*
X95189285Y-120882438D01*
X95189285Y-120882438D02*
X95236904Y-120930057D01*
X95236904Y-120930057D02*
X95284523Y-121025295D01*
X95284523Y-121025295D02*
X95284523Y-121120533D01*
X95284523Y-121120533D02*
X95236904Y-121263390D01*
X95236904Y-121263390D02*
X94665476Y-121834819D01*
X94665476Y-121834819D02*
X95284523Y-121834819D01*
X95665476Y-120930057D02*
X95713095Y-120882438D01*
X95713095Y-120882438D02*
X95808333Y-120834819D01*
X95808333Y-120834819D02*
X96046428Y-120834819D01*
X96046428Y-120834819D02*
X96141666Y-120882438D01*
X96141666Y-120882438D02*
X96189285Y-120930057D01*
X96189285Y-120930057D02*
X96236904Y-121025295D01*
X96236904Y-121025295D02*
X96236904Y-121120533D01*
X96236904Y-121120533D02*
X96189285Y-121263390D01*
X96189285Y-121263390D02*
X95617857Y-121834819D01*
X95617857Y-121834819D02*
X96236904Y-121834819D01*
X92832142Y-126074819D02*
X92260714Y-126074819D01*
X92546428Y-126074819D02*
X92546428Y-125074819D01*
X92546428Y-125074819D02*
X92451190Y-125217676D01*
X92451190Y-125217676D02*
X92355952Y-125312914D01*
X92355952Y-125312914D02*
X92260714Y-125360533D01*
X93260714Y-126074819D02*
X93260714Y-125074819D01*
X93260714Y-125074819D02*
X93832142Y-126074819D01*
X93832142Y-126074819D02*
X93832142Y-125074819D01*
X94784523Y-125074819D02*
X94308333Y-125074819D01*
X94308333Y-125074819D02*
X94260714Y-125551009D01*
X94260714Y-125551009D02*
X94308333Y-125503390D01*
X94308333Y-125503390D02*
X94403571Y-125455771D01*
X94403571Y-125455771D02*
X94641666Y-125455771D01*
X94641666Y-125455771D02*
X94736904Y-125503390D01*
X94736904Y-125503390D02*
X94784523Y-125551009D01*
X94784523Y-125551009D02*
X94832142Y-125646247D01*
X94832142Y-125646247D02*
X94832142Y-125884342D01*
X94832142Y-125884342D02*
X94784523Y-125979580D01*
X94784523Y-125979580D02*
X94736904Y-126027200D01*
X94736904Y-126027200D02*
X94641666Y-126074819D01*
X94641666Y-126074819D02*
X94403571Y-126074819D01*
X94403571Y-126074819D02*
X94308333Y-126027200D01*
X94308333Y-126027200D02*
X94260714Y-125979580D01*
X95403571Y-125503390D02*
X95308333Y-125455771D01*
X95308333Y-125455771D02*
X95260714Y-125408152D01*
X95260714Y-125408152D02*
X95213095Y-125312914D01*
X95213095Y-125312914D02*
X95213095Y-125265295D01*
X95213095Y-125265295D02*
X95260714Y-125170057D01*
X95260714Y-125170057D02*
X95308333Y-125122438D01*
X95308333Y-125122438D02*
X95403571Y-125074819D01*
X95403571Y-125074819D02*
X95594047Y-125074819D01*
X95594047Y-125074819D02*
X95689285Y-125122438D01*
X95689285Y-125122438D02*
X95736904Y-125170057D01*
X95736904Y-125170057D02*
X95784523Y-125265295D01*
X95784523Y-125265295D02*
X95784523Y-125312914D01*
X95784523Y-125312914D02*
X95736904Y-125408152D01*
X95736904Y-125408152D02*
X95689285Y-125455771D01*
X95689285Y-125455771D02*
X95594047Y-125503390D01*
X95594047Y-125503390D02*
X95403571Y-125503390D01*
X95403571Y-125503390D02*
X95308333Y-125551009D01*
X95308333Y-125551009D02*
X95260714Y-125598628D01*
X95260714Y-125598628D02*
X95213095Y-125693866D01*
X95213095Y-125693866D02*
X95213095Y-125884342D01*
X95213095Y-125884342D02*
X95260714Y-125979580D01*
X95260714Y-125979580D02*
X95308333Y-126027200D01*
X95308333Y-126027200D02*
X95403571Y-126074819D01*
X95403571Y-126074819D02*
X95594047Y-126074819D01*
X95594047Y-126074819D02*
X95689285Y-126027200D01*
X95689285Y-126027200D02*
X95736904Y-125979580D01*
X95736904Y-125979580D02*
X95784523Y-125884342D01*
X95784523Y-125884342D02*
X95784523Y-125693866D01*
X95784523Y-125693866D02*
X95736904Y-125598628D01*
X95736904Y-125598628D02*
X95689285Y-125551009D01*
X95689285Y-125551009D02*
X95594047Y-125503390D01*
X96736904Y-126074819D02*
X96165476Y-126074819D01*
X96451190Y-126074819D02*
X96451190Y-125074819D01*
X96451190Y-125074819D02*
X96355952Y-125217676D01*
X96355952Y-125217676D02*
X96260714Y-125312914D01*
X96260714Y-125312914D02*
X96165476Y-125360533D01*
X97213095Y-126074819D02*
X97403571Y-126074819D01*
X97403571Y-126074819D02*
X97498809Y-126027200D01*
X97498809Y-126027200D02*
X97546428Y-125979580D01*
X97546428Y-125979580D02*
X97641666Y-125836723D01*
X97641666Y-125836723D02*
X97689285Y-125646247D01*
X97689285Y-125646247D02*
X97689285Y-125265295D01*
X97689285Y-125265295D02*
X97641666Y-125170057D01*
X97641666Y-125170057D02*
X97594047Y-125122438D01*
X97594047Y-125122438D02*
X97498809Y-125074819D01*
X97498809Y-125074819D02*
X97308333Y-125074819D01*
X97308333Y-125074819D02*
X97213095Y-125122438D01*
X97213095Y-125122438D02*
X97165476Y-125170057D01*
X97165476Y-125170057D02*
X97117857Y-125265295D01*
X97117857Y-125265295D02*
X97117857Y-125503390D01*
X97117857Y-125503390D02*
X97165476Y-125598628D01*
X97165476Y-125598628D02*
X97213095Y-125646247D01*
X97213095Y-125646247D02*
X97308333Y-125693866D01*
X97308333Y-125693866D02*
X97498809Y-125693866D01*
X97498809Y-125693866D02*
X97594047Y-125646247D01*
X97594047Y-125646247D02*
X97641666Y-125598628D01*
X97641666Y-125598628D02*
X97689285Y-125503390D01*
X54380238Y-114359819D02*
X54380238Y-113359819D01*
X54951666Y-114359819D02*
X54523095Y-113788390D01*
X54951666Y-113359819D02*
X54380238Y-113931247D01*
X55761190Y-114312200D02*
X55665952Y-114359819D01*
X55665952Y-114359819D02*
X55475476Y-114359819D01*
X55475476Y-114359819D02*
X55380238Y-114312200D01*
X55380238Y-114312200D02*
X55332619Y-114216961D01*
X55332619Y-114216961D02*
X55332619Y-113836009D01*
X55332619Y-113836009D02*
X55380238Y-113740771D01*
X55380238Y-113740771D02*
X55475476Y-113693152D01*
X55475476Y-113693152D02*
X55665952Y-113693152D01*
X55665952Y-113693152D02*
X55761190Y-113740771D01*
X55761190Y-113740771D02*
X55808809Y-113836009D01*
X55808809Y-113836009D02*
X55808809Y-113931247D01*
X55808809Y-113931247D02*
X55332619Y-114026485D01*
X56142143Y-113693152D02*
X56380238Y-114359819D01*
X56618333Y-113693152D02*
X56380238Y-114359819D01*
X56380238Y-114359819D02*
X56285000Y-114597914D01*
X56285000Y-114597914D02*
X56237381Y-114645533D01*
X56237381Y-114645533D02*
X56142143Y-114693152D01*
X57427857Y-114312200D02*
X57332619Y-114359819D01*
X57332619Y-114359819D02*
X57142143Y-114359819D01*
X57142143Y-114359819D02*
X57046905Y-114312200D01*
X57046905Y-114312200D02*
X56999286Y-114264580D01*
X56999286Y-114264580D02*
X56951667Y-114169342D01*
X56951667Y-114169342D02*
X56951667Y-113883628D01*
X56951667Y-113883628D02*
X56999286Y-113788390D01*
X56999286Y-113788390D02*
X57046905Y-113740771D01*
X57046905Y-113740771D02*
X57142143Y-113693152D01*
X57142143Y-113693152D02*
X57332619Y-113693152D01*
X57332619Y-113693152D02*
X57427857Y-113740771D01*
X58285000Y-114359819D02*
X58285000Y-113836009D01*
X58285000Y-113836009D02*
X58237381Y-113740771D01*
X58237381Y-113740771D02*
X58142143Y-113693152D01*
X58142143Y-113693152D02*
X57951667Y-113693152D01*
X57951667Y-113693152D02*
X57856429Y-113740771D01*
X58285000Y-114312200D02*
X58189762Y-114359819D01*
X58189762Y-114359819D02*
X57951667Y-114359819D01*
X57951667Y-114359819D02*
X57856429Y-114312200D01*
X57856429Y-114312200D02*
X57808810Y-114216961D01*
X57808810Y-114216961D02*
X57808810Y-114121723D01*
X57808810Y-114121723D02*
X57856429Y-114026485D01*
X57856429Y-114026485D02*
X57951667Y-113978866D01*
X57951667Y-113978866D02*
X58189762Y-113978866D01*
X58189762Y-113978866D02*
X58285000Y-113931247D01*
X58761191Y-113693152D02*
X58761191Y-114693152D01*
X58761191Y-113740771D02*
X58856429Y-113693152D01*
X58856429Y-113693152D02*
X59046905Y-113693152D01*
X59046905Y-113693152D02*
X59142143Y-113740771D01*
X59142143Y-113740771D02*
X59189762Y-113788390D01*
X59189762Y-113788390D02*
X59237381Y-113883628D01*
X59237381Y-113883628D02*
X59237381Y-114169342D01*
X59237381Y-114169342D02*
X59189762Y-114264580D01*
X59189762Y-114264580D02*
X59142143Y-114312200D01*
X59142143Y-114312200D02*
X59046905Y-114359819D01*
X59046905Y-114359819D02*
X58856429Y-114359819D01*
X58856429Y-114359819D02*
X58761191Y-114312200D01*
X93760714Y-140889819D02*
X93760714Y-139889819D01*
X93760714Y-139889819D02*
X93998809Y-139889819D01*
X93998809Y-139889819D02*
X94141666Y-139937438D01*
X94141666Y-139937438D02*
X94236904Y-140032676D01*
X94236904Y-140032676D02*
X94284523Y-140127914D01*
X94284523Y-140127914D02*
X94332142Y-140318390D01*
X94332142Y-140318390D02*
X94332142Y-140461247D01*
X94332142Y-140461247D02*
X94284523Y-140651723D01*
X94284523Y-140651723D02*
X94236904Y-140746961D01*
X94236904Y-140746961D02*
X94141666Y-140842200D01*
X94141666Y-140842200D02*
X93998809Y-140889819D01*
X93998809Y-140889819D02*
X93760714Y-140889819D01*
X95284523Y-140889819D02*
X94713095Y-140889819D01*
X94998809Y-140889819D02*
X94998809Y-139889819D01*
X94998809Y-139889819D02*
X94903571Y-140032676D01*
X94903571Y-140032676D02*
X94808333Y-140127914D01*
X94808333Y-140127914D02*
X94713095Y-140175533D01*
X95855952Y-140318390D02*
X95760714Y-140270771D01*
X95760714Y-140270771D02*
X95713095Y-140223152D01*
X95713095Y-140223152D02*
X95665476Y-140127914D01*
X95665476Y-140127914D02*
X95665476Y-140080295D01*
X95665476Y-140080295D02*
X95713095Y-139985057D01*
X95713095Y-139985057D02*
X95760714Y-139937438D01*
X95760714Y-139937438D02*
X95855952Y-139889819D01*
X95855952Y-139889819D02*
X96046428Y-139889819D01*
X96046428Y-139889819D02*
X96141666Y-139937438D01*
X96141666Y-139937438D02*
X96189285Y-139985057D01*
X96189285Y-139985057D02*
X96236904Y-140080295D01*
X96236904Y-140080295D02*
X96236904Y-140127914D01*
X96236904Y-140127914D02*
X96189285Y-140223152D01*
X96189285Y-140223152D02*
X96141666Y-140270771D01*
X96141666Y-140270771D02*
X96046428Y-140318390D01*
X96046428Y-140318390D02*
X95855952Y-140318390D01*
X95855952Y-140318390D02*
X95760714Y-140366009D01*
X95760714Y-140366009D02*
X95713095Y-140413628D01*
X95713095Y-140413628D02*
X95665476Y-140508866D01*
X95665476Y-140508866D02*
X95665476Y-140699342D01*
X95665476Y-140699342D02*
X95713095Y-140794580D01*
X95713095Y-140794580D02*
X95760714Y-140842200D01*
X95760714Y-140842200D02*
X95855952Y-140889819D01*
X95855952Y-140889819D02*
X96046428Y-140889819D01*
X96046428Y-140889819D02*
X96141666Y-140842200D01*
X96141666Y-140842200D02*
X96189285Y-140794580D01*
X96189285Y-140794580D02*
X96236904Y-140699342D01*
X96236904Y-140699342D02*
X96236904Y-140508866D01*
X96236904Y-140508866D02*
X96189285Y-140413628D01*
X96189285Y-140413628D02*
X96141666Y-140366009D01*
X96141666Y-140366009D02*
X96046428Y-140318390D01*
X92832142Y-145129819D02*
X92260714Y-145129819D01*
X92546428Y-145129819D02*
X92546428Y-144129819D01*
X92546428Y-144129819D02*
X92451190Y-144272676D01*
X92451190Y-144272676D02*
X92355952Y-144367914D01*
X92355952Y-144367914D02*
X92260714Y-144415533D01*
X93260714Y-145129819D02*
X93260714Y-144129819D01*
X93260714Y-144129819D02*
X93832142Y-145129819D01*
X93832142Y-145129819D02*
X93832142Y-144129819D01*
X94784523Y-144129819D02*
X94308333Y-144129819D01*
X94308333Y-144129819D02*
X94260714Y-144606009D01*
X94260714Y-144606009D02*
X94308333Y-144558390D01*
X94308333Y-144558390D02*
X94403571Y-144510771D01*
X94403571Y-144510771D02*
X94641666Y-144510771D01*
X94641666Y-144510771D02*
X94736904Y-144558390D01*
X94736904Y-144558390D02*
X94784523Y-144606009D01*
X94784523Y-144606009D02*
X94832142Y-144701247D01*
X94832142Y-144701247D02*
X94832142Y-144939342D01*
X94832142Y-144939342D02*
X94784523Y-145034580D01*
X94784523Y-145034580D02*
X94736904Y-145082200D01*
X94736904Y-145082200D02*
X94641666Y-145129819D01*
X94641666Y-145129819D02*
X94403571Y-145129819D01*
X94403571Y-145129819D02*
X94308333Y-145082200D01*
X94308333Y-145082200D02*
X94260714Y-145034580D01*
X95403571Y-144558390D02*
X95308333Y-144510771D01*
X95308333Y-144510771D02*
X95260714Y-144463152D01*
X95260714Y-144463152D02*
X95213095Y-144367914D01*
X95213095Y-144367914D02*
X95213095Y-144320295D01*
X95213095Y-144320295D02*
X95260714Y-144225057D01*
X95260714Y-144225057D02*
X95308333Y-144177438D01*
X95308333Y-144177438D02*
X95403571Y-144129819D01*
X95403571Y-144129819D02*
X95594047Y-144129819D01*
X95594047Y-144129819D02*
X95689285Y-144177438D01*
X95689285Y-144177438D02*
X95736904Y-144225057D01*
X95736904Y-144225057D02*
X95784523Y-144320295D01*
X95784523Y-144320295D02*
X95784523Y-144367914D01*
X95784523Y-144367914D02*
X95736904Y-144463152D01*
X95736904Y-144463152D02*
X95689285Y-144510771D01*
X95689285Y-144510771D02*
X95594047Y-144558390D01*
X95594047Y-144558390D02*
X95403571Y-144558390D01*
X95403571Y-144558390D02*
X95308333Y-144606009D01*
X95308333Y-144606009D02*
X95260714Y-144653628D01*
X95260714Y-144653628D02*
X95213095Y-144748866D01*
X95213095Y-144748866D02*
X95213095Y-144939342D01*
X95213095Y-144939342D02*
X95260714Y-145034580D01*
X95260714Y-145034580D02*
X95308333Y-145082200D01*
X95308333Y-145082200D02*
X95403571Y-145129819D01*
X95403571Y-145129819D02*
X95594047Y-145129819D01*
X95594047Y-145129819D02*
X95689285Y-145082200D01*
X95689285Y-145082200D02*
X95736904Y-145034580D01*
X95736904Y-145034580D02*
X95784523Y-144939342D01*
X95784523Y-144939342D02*
X95784523Y-144748866D01*
X95784523Y-144748866D02*
X95736904Y-144653628D01*
X95736904Y-144653628D02*
X95689285Y-144606009D01*
X95689285Y-144606009D02*
X95594047Y-144558390D01*
X96736904Y-145129819D02*
X96165476Y-145129819D01*
X96451190Y-145129819D02*
X96451190Y-144129819D01*
X96451190Y-144129819D02*
X96355952Y-144272676D01*
X96355952Y-144272676D02*
X96260714Y-144367914D01*
X96260714Y-144367914D02*
X96165476Y-144415533D01*
X97213095Y-145129819D02*
X97403571Y-145129819D01*
X97403571Y-145129819D02*
X97498809Y-145082200D01*
X97498809Y-145082200D02*
X97546428Y-145034580D01*
X97546428Y-145034580D02*
X97641666Y-144891723D01*
X97641666Y-144891723D02*
X97689285Y-144701247D01*
X97689285Y-144701247D02*
X97689285Y-144320295D01*
X97689285Y-144320295D02*
X97641666Y-144225057D01*
X97641666Y-144225057D02*
X97594047Y-144177438D01*
X97594047Y-144177438D02*
X97498809Y-144129819D01*
X97498809Y-144129819D02*
X97308333Y-144129819D01*
X97308333Y-144129819D02*
X97213095Y-144177438D01*
X97213095Y-144177438D02*
X97165476Y-144225057D01*
X97165476Y-144225057D02*
X97117857Y-144320295D01*
X97117857Y-144320295D02*
X97117857Y-144558390D01*
X97117857Y-144558390D02*
X97165476Y-144653628D01*
X97165476Y-144653628D02*
X97213095Y-144701247D01*
X97213095Y-144701247D02*
X97308333Y-144748866D01*
X97308333Y-144748866D02*
X97498809Y-144748866D01*
X97498809Y-144748866D02*
X97594047Y-144701247D01*
X97594047Y-144701247D02*
X97641666Y-144653628D01*
X97641666Y-144653628D02*
X97689285Y-144558390D01*
X55760714Y-102889819D02*
X55760714Y-101889819D01*
X55760714Y-101889819D02*
X55998809Y-101889819D01*
X55998809Y-101889819D02*
X56141666Y-101937438D01*
X56141666Y-101937438D02*
X56236904Y-102032676D01*
X56236904Y-102032676D02*
X56284523Y-102127914D01*
X56284523Y-102127914D02*
X56332142Y-102318390D01*
X56332142Y-102318390D02*
X56332142Y-102461247D01*
X56332142Y-102461247D02*
X56284523Y-102651723D01*
X56284523Y-102651723D02*
X56236904Y-102746961D01*
X56236904Y-102746961D02*
X56141666Y-102842200D01*
X56141666Y-102842200D02*
X55998809Y-102889819D01*
X55998809Y-102889819D02*
X55760714Y-102889819D01*
X56713095Y-101985057D02*
X56760714Y-101937438D01*
X56760714Y-101937438D02*
X56855952Y-101889819D01*
X56855952Y-101889819D02*
X57094047Y-101889819D01*
X57094047Y-101889819D02*
X57189285Y-101937438D01*
X57189285Y-101937438D02*
X57236904Y-101985057D01*
X57236904Y-101985057D02*
X57284523Y-102080295D01*
X57284523Y-102080295D02*
X57284523Y-102175533D01*
X57284523Y-102175533D02*
X57236904Y-102318390D01*
X57236904Y-102318390D02*
X56665476Y-102889819D01*
X56665476Y-102889819D02*
X57284523Y-102889819D01*
X58189285Y-101889819D02*
X57713095Y-101889819D01*
X57713095Y-101889819D02*
X57665476Y-102366009D01*
X57665476Y-102366009D02*
X57713095Y-102318390D01*
X57713095Y-102318390D02*
X57808333Y-102270771D01*
X57808333Y-102270771D02*
X58046428Y-102270771D01*
X58046428Y-102270771D02*
X58141666Y-102318390D01*
X58141666Y-102318390D02*
X58189285Y-102366009D01*
X58189285Y-102366009D02*
X58236904Y-102461247D01*
X58236904Y-102461247D02*
X58236904Y-102699342D01*
X58236904Y-102699342D02*
X58189285Y-102794580D01*
X58189285Y-102794580D02*
X58141666Y-102842200D01*
X58141666Y-102842200D02*
X58046428Y-102889819D01*
X58046428Y-102889819D02*
X57808333Y-102889819D01*
X57808333Y-102889819D02*
X57713095Y-102842200D01*
X57713095Y-102842200D02*
X57665476Y-102794580D01*
X54832142Y-107129819D02*
X54260714Y-107129819D01*
X54546428Y-107129819D02*
X54546428Y-106129819D01*
X54546428Y-106129819D02*
X54451190Y-106272676D01*
X54451190Y-106272676D02*
X54355952Y-106367914D01*
X54355952Y-106367914D02*
X54260714Y-106415533D01*
X55260714Y-107129819D02*
X55260714Y-106129819D01*
X55260714Y-106129819D02*
X55832142Y-107129819D01*
X55832142Y-107129819D02*
X55832142Y-106129819D01*
X56784523Y-106129819D02*
X56308333Y-106129819D01*
X56308333Y-106129819D02*
X56260714Y-106606009D01*
X56260714Y-106606009D02*
X56308333Y-106558390D01*
X56308333Y-106558390D02*
X56403571Y-106510771D01*
X56403571Y-106510771D02*
X56641666Y-106510771D01*
X56641666Y-106510771D02*
X56736904Y-106558390D01*
X56736904Y-106558390D02*
X56784523Y-106606009D01*
X56784523Y-106606009D02*
X56832142Y-106701247D01*
X56832142Y-106701247D02*
X56832142Y-106939342D01*
X56832142Y-106939342D02*
X56784523Y-107034580D01*
X56784523Y-107034580D02*
X56736904Y-107082200D01*
X56736904Y-107082200D02*
X56641666Y-107129819D01*
X56641666Y-107129819D02*
X56403571Y-107129819D01*
X56403571Y-107129819D02*
X56308333Y-107082200D01*
X56308333Y-107082200D02*
X56260714Y-107034580D01*
X57403571Y-106558390D02*
X57308333Y-106510771D01*
X57308333Y-106510771D02*
X57260714Y-106463152D01*
X57260714Y-106463152D02*
X57213095Y-106367914D01*
X57213095Y-106367914D02*
X57213095Y-106320295D01*
X57213095Y-106320295D02*
X57260714Y-106225057D01*
X57260714Y-106225057D02*
X57308333Y-106177438D01*
X57308333Y-106177438D02*
X57403571Y-106129819D01*
X57403571Y-106129819D02*
X57594047Y-106129819D01*
X57594047Y-106129819D02*
X57689285Y-106177438D01*
X57689285Y-106177438D02*
X57736904Y-106225057D01*
X57736904Y-106225057D02*
X57784523Y-106320295D01*
X57784523Y-106320295D02*
X57784523Y-106367914D01*
X57784523Y-106367914D02*
X57736904Y-106463152D01*
X57736904Y-106463152D02*
X57689285Y-106510771D01*
X57689285Y-106510771D02*
X57594047Y-106558390D01*
X57594047Y-106558390D02*
X57403571Y-106558390D01*
X57403571Y-106558390D02*
X57308333Y-106606009D01*
X57308333Y-106606009D02*
X57260714Y-106653628D01*
X57260714Y-106653628D02*
X57213095Y-106748866D01*
X57213095Y-106748866D02*
X57213095Y-106939342D01*
X57213095Y-106939342D02*
X57260714Y-107034580D01*
X57260714Y-107034580D02*
X57308333Y-107082200D01*
X57308333Y-107082200D02*
X57403571Y-107129819D01*
X57403571Y-107129819D02*
X57594047Y-107129819D01*
X57594047Y-107129819D02*
X57689285Y-107082200D01*
X57689285Y-107082200D02*
X57736904Y-107034580D01*
X57736904Y-107034580D02*
X57784523Y-106939342D01*
X57784523Y-106939342D02*
X57784523Y-106748866D01*
X57784523Y-106748866D02*
X57736904Y-106653628D01*
X57736904Y-106653628D02*
X57689285Y-106606009D01*
X57689285Y-106606009D02*
X57594047Y-106558390D01*
X58736904Y-107129819D02*
X58165476Y-107129819D01*
X58451190Y-107129819D02*
X58451190Y-106129819D01*
X58451190Y-106129819D02*
X58355952Y-106272676D01*
X58355952Y-106272676D02*
X58260714Y-106367914D01*
X58260714Y-106367914D02*
X58165476Y-106415533D01*
X59213095Y-107129819D02*
X59403571Y-107129819D01*
X59403571Y-107129819D02*
X59498809Y-107082200D01*
X59498809Y-107082200D02*
X59546428Y-107034580D01*
X59546428Y-107034580D02*
X59641666Y-106891723D01*
X59641666Y-106891723D02*
X59689285Y-106701247D01*
X59689285Y-106701247D02*
X59689285Y-106320295D01*
X59689285Y-106320295D02*
X59641666Y-106225057D01*
X59641666Y-106225057D02*
X59594047Y-106177438D01*
X59594047Y-106177438D02*
X59498809Y-106129819D01*
X59498809Y-106129819D02*
X59308333Y-106129819D01*
X59308333Y-106129819D02*
X59213095Y-106177438D01*
X59213095Y-106177438D02*
X59165476Y-106225057D01*
X59165476Y-106225057D02*
X59117857Y-106320295D01*
X59117857Y-106320295D02*
X59117857Y-106558390D01*
X59117857Y-106558390D02*
X59165476Y-106653628D01*
X59165476Y-106653628D02*
X59213095Y-106701247D01*
X59213095Y-106701247D02*
X59308333Y-106748866D01*
X59308333Y-106748866D02*
X59498809Y-106748866D01*
X59498809Y-106748866D02*
X59594047Y-106701247D01*
X59594047Y-106701247D02*
X59641666Y-106653628D01*
X59641666Y-106653628D02*
X59689285Y-106558390D01*
X130380238Y-95454819D02*
X130380238Y-94454819D01*
X130951666Y-95454819D02*
X130523095Y-94883390D01*
X130951666Y-94454819D02*
X130380238Y-95026247D01*
X131761190Y-95407200D02*
X131665952Y-95454819D01*
X131665952Y-95454819D02*
X131475476Y-95454819D01*
X131475476Y-95454819D02*
X131380238Y-95407200D01*
X131380238Y-95407200D02*
X131332619Y-95311961D01*
X131332619Y-95311961D02*
X131332619Y-94931009D01*
X131332619Y-94931009D02*
X131380238Y-94835771D01*
X131380238Y-94835771D02*
X131475476Y-94788152D01*
X131475476Y-94788152D02*
X131665952Y-94788152D01*
X131665952Y-94788152D02*
X131761190Y-94835771D01*
X131761190Y-94835771D02*
X131808809Y-94931009D01*
X131808809Y-94931009D02*
X131808809Y-95026247D01*
X131808809Y-95026247D02*
X131332619Y-95121485D01*
X132142143Y-94788152D02*
X132380238Y-95454819D01*
X132618333Y-94788152D02*
X132380238Y-95454819D01*
X132380238Y-95454819D02*
X132285000Y-95692914D01*
X132285000Y-95692914D02*
X132237381Y-95740533D01*
X132237381Y-95740533D02*
X132142143Y-95788152D01*
X133427857Y-95407200D02*
X133332619Y-95454819D01*
X133332619Y-95454819D02*
X133142143Y-95454819D01*
X133142143Y-95454819D02*
X133046905Y-95407200D01*
X133046905Y-95407200D02*
X132999286Y-95359580D01*
X132999286Y-95359580D02*
X132951667Y-95264342D01*
X132951667Y-95264342D02*
X132951667Y-94978628D01*
X132951667Y-94978628D02*
X132999286Y-94883390D01*
X132999286Y-94883390D02*
X133046905Y-94835771D01*
X133046905Y-94835771D02*
X133142143Y-94788152D01*
X133142143Y-94788152D02*
X133332619Y-94788152D01*
X133332619Y-94788152D02*
X133427857Y-94835771D01*
X134285000Y-95454819D02*
X134285000Y-94931009D01*
X134285000Y-94931009D02*
X134237381Y-94835771D01*
X134237381Y-94835771D02*
X134142143Y-94788152D01*
X134142143Y-94788152D02*
X133951667Y-94788152D01*
X133951667Y-94788152D02*
X133856429Y-94835771D01*
X134285000Y-95407200D02*
X134189762Y-95454819D01*
X134189762Y-95454819D02*
X133951667Y-95454819D01*
X133951667Y-95454819D02*
X133856429Y-95407200D01*
X133856429Y-95407200D02*
X133808810Y-95311961D01*
X133808810Y-95311961D02*
X133808810Y-95216723D01*
X133808810Y-95216723D02*
X133856429Y-95121485D01*
X133856429Y-95121485D02*
X133951667Y-95073866D01*
X133951667Y-95073866D02*
X134189762Y-95073866D01*
X134189762Y-95073866D02*
X134285000Y-95026247D01*
X134761191Y-94788152D02*
X134761191Y-95788152D01*
X134761191Y-94835771D02*
X134856429Y-94788152D01*
X134856429Y-94788152D02*
X135046905Y-94788152D01*
X135046905Y-94788152D02*
X135142143Y-94835771D01*
X135142143Y-94835771D02*
X135189762Y-94883390D01*
X135189762Y-94883390D02*
X135237381Y-94978628D01*
X135237381Y-94978628D02*
X135237381Y-95264342D01*
X135237381Y-95264342D02*
X135189762Y-95359580D01*
X135189762Y-95359580D02*
X135142143Y-95407200D01*
X135142143Y-95407200D02*
X135046905Y-95454819D01*
X135046905Y-95454819D02*
X134856429Y-95454819D01*
X134856429Y-95454819D02*
X134761191Y-95407200D01*
X130380238Y-114454819D02*
X130380238Y-113454819D01*
X130951666Y-114454819D02*
X130523095Y-113883390D01*
X130951666Y-113454819D02*
X130380238Y-114026247D01*
X131761190Y-114407200D02*
X131665952Y-114454819D01*
X131665952Y-114454819D02*
X131475476Y-114454819D01*
X131475476Y-114454819D02*
X131380238Y-114407200D01*
X131380238Y-114407200D02*
X131332619Y-114311961D01*
X131332619Y-114311961D02*
X131332619Y-113931009D01*
X131332619Y-113931009D02*
X131380238Y-113835771D01*
X131380238Y-113835771D02*
X131475476Y-113788152D01*
X131475476Y-113788152D02*
X131665952Y-113788152D01*
X131665952Y-113788152D02*
X131761190Y-113835771D01*
X131761190Y-113835771D02*
X131808809Y-113931009D01*
X131808809Y-113931009D02*
X131808809Y-114026247D01*
X131808809Y-114026247D02*
X131332619Y-114121485D01*
X132142143Y-113788152D02*
X132380238Y-114454819D01*
X132618333Y-113788152D02*
X132380238Y-114454819D01*
X132380238Y-114454819D02*
X132285000Y-114692914D01*
X132285000Y-114692914D02*
X132237381Y-114740533D01*
X132237381Y-114740533D02*
X132142143Y-114788152D01*
X133427857Y-114407200D02*
X133332619Y-114454819D01*
X133332619Y-114454819D02*
X133142143Y-114454819D01*
X133142143Y-114454819D02*
X133046905Y-114407200D01*
X133046905Y-114407200D02*
X132999286Y-114359580D01*
X132999286Y-114359580D02*
X132951667Y-114264342D01*
X132951667Y-114264342D02*
X132951667Y-113978628D01*
X132951667Y-113978628D02*
X132999286Y-113883390D01*
X132999286Y-113883390D02*
X133046905Y-113835771D01*
X133046905Y-113835771D02*
X133142143Y-113788152D01*
X133142143Y-113788152D02*
X133332619Y-113788152D01*
X133332619Y-113788152D02*
X133427857Y-113835771D01*
X134285000Y-114454819D02*
X134285000Y-113931009D01*
X134285000Y-113931009D02*
X134237381Y-113835771D01*
X134237381Y-113835771D02*
X134142143Y-113788152D01*
X134142143Y-113788152D02*
X133951667Y-113788152D01*
X133951667Y-113788152D02*
X133856429Y-113835771D01*
X134285000Y-114407200D02*
X134189762Y-114454819D01*
X134189762Y-114454819D02*
X133951667Y-114454819D01*
X133951667Y-114454819D02*
X133856429Y-114407200D01*
X133856429Y-114407200D02*
X133808810Y-114311961D01*
X133808810Y-114311961D02*
X133808810Y-114216723D01*
X133808810Y-114216723D02*
X133856429Y-114121485D01*
X133856429Y-114121485D02*
X133951667Y-114073866D01*
X133951667Y-114073866D02*
X134189762Y-114073866D01*
X134189762Y-114073866D02*
X134285000Y-114026247D01*
X134761191Y-113788152D02*
X134761191Y-114788152D01*
X134761191Y-113835771D02*
X134856429Y-113788152D01*
X134856429Y-113788152D02*
X135046905Y-113788152D01*
X135046905Y-113788152D02*
X135142143Y-113835771D01*
X135142143Y-113835771D02*
X135189762Y-113883390D01*
X135189762Y-113883390D02*
X135237381Y-113978628D01*
X135237381Y-113978628D02*
X135237381Y-114264342D01*
X135237381Y-114264342D02*
X135189762Y-114359580D01*
X135189762Y-114359580D02*
X135142143Y-114407200D01*
X135142143Y-114407200D02*
X135046905Y-114454819D01*
X135046905Y-114454819D02*
X134856429Y-114454819D01*
X134856429Y-114454819D02*
X134761191Y-114407200D01*
D12*
X94634800Y-135764523D02*
X94682419Y-135621666D01*
X94682419Y-135621666D02*
X94682419Y-135383571D01*
X94682419Y-135383571D02*
X94634800Y-135288333D01*
X94634800Y-135288333D02*
X94587180Y-135240714D01*
X94587180Y-135240714D02*
X94491942Y-135193095D01*
X94491942Y-135193095D02*
X94396704Y-135193095D01*
X94396704Y-135193095D02*
X94301466Y-135240714D01*
X94301466Y-135240714D02*
X94253847Y-135288333D01*
X94253847Y-135288333D02*
X94206228Y-135383571D01*
X94206228Y-135383571D02*
X94158609Y-135574047D01*
X94158609Y-135574047D02*
X94110990Y-135669285D01*
X94110990Y-135669285D02*
X94063371Y-135716904D01*
X94063371Y-135716904D02*
X93968133Y-135764523D01*
X93968133Y-135764523D02*
X93872895Y-135764523D01*
X93872895Y-135764523D02*
X93777657Y-135716904D01*
X93777657Y-135716904D02*
X93730038Y-135669285D01*
X93730038Y-135669285D02*
X93682419Y-135574047D01*
X93682419Y-135574047D02*
X93682419Y-135335952D01*
X93682419Y-135335952D02*
X93730038Y-135193095D01*
X93682419Y-134859761D02*
X94682419Y-134621666D01*
X94682419Y-134621666D02*
X93968133Y-134431190D01*
X93968133Y-134431190D02*
X94682419Y-134240714D01*
X94682419Y-134240714D02*
X93682419Y-134002619D01*
X94682419Y-133621666D02*
X93682419Y-133621666D01*
X94682419Y-133050238D02*
X94110990Y-133478809D01*
X93682419Y-133050238D02*
X94253847Y-133621666D01*
X94587180Y-132050238D02*
X94634800Y-132097857D01*
X94634800Y-132097857D02*
X94682419Y-132240714D01*
X94682419Y-132240714D02*
X94682419Y-132335952D01*
X94682419Y-132335952D02*
X94634800Y-132478809D01*
X94634800Y-132478809D02*
X94539561Y-132574047D01*
X94539561Y-132574047D02*
X94444323Y-132621666D01*
X94444323Y-132621666D02*
X94253847Y-132669285D01*
X94253847Y-132669285D02*
X94110990Y-132669285D01*
X94110990Y-132669285D02*
X93920514Y-132621666D01*
X93920514Y-132621666D02*
X93825276Y-132574047D01*
X93825276Y-132574047D02*
X93730038Y-132478809D01*
X93730038Y-132478809D02*
X93682419Y-132335952D01*
X93682419Y-132335952D02*
X93682419Y-132240714D01*
X93682419Y-132240714D02*
X93730038Y-132097857D01*
X93730038Y-132097857D02*
X93777657Y-132050238D01*
X94682419Y-131097857D02*
X94682419Y-131669285D01*
X94682419Y-131383571D02*
X93682419Y-131383571D01*
X93682419Y-131383571D02*
X93825276Y-131478809D01*
X93825276Y-131478809D02*
X93920514Y-131574047D01*
X93920514Y-131574047D02*
X93968133Y-131669285D01*
X93682419Y-130478809D02*
X93682419Y-130383571D01*
X93682419Y-130383571D02*
X93730038Y-130288333D01*
X93730038Y-130288333D02*
X93777657Y-130240714D01*
X93777657Y-130240714D02*
X93872895Y-130193095D01*
X93872895Y-130193095D02*
X94063371Y-130145476D01*
X94063371Y-130145476D02*
X94301466Y-130145476D01*
X94301466Y-130145476D02*
X94491942Y-130193095D01*
X94491942Y-130193095D02*
X94587180Y-130240714D01*
X94587180Y-130240714D02*
X94634800Y-130288333D01*
X94634800Y-130288333D02*
X94682419Y-130383571D01*
X94682419Y-130383571D02*
X94682419Y-130478809D01*
X94682419Y-130478809D02*
X94634800Y-130574047D01*
X94634800Y-130574047D02*
X94587180Y-130621666D01*
X94587180Y-130621666D02*
X94491942Y-130669285D01*
X94491942Y-130669285D02*
X94301466Y-130716904D01*
X94301466Y-130716904D02*
X94063371Y-130716904D01*
X94063371Y-130716904D02*
X93872895Y-130669285D01*
X93872895Y-130669285D02*
X93777657Y-130621666D01*
X93777657Y-130621666D02*
X93730038Y-130574047D01*
X93730038Y-130574047D02*
X93682419Y-130478809D01*
D10*
X96179819Y-135359761D02*
X95179819Y-135359761D01*
X96179819Y-134788333D02*
X95608390Y-135216904D01*
X95179819Y-134788333D02*
X95751247Y-135359761D01*
X96132200Y-133978809D02*
X96179819Y-134074047D01*
X96179819Y-134074047D02*
X96179819Y-134264523D01*
X96179819Y-134264523D02*
X96132200Y-134359761D01*
X96132200Y-134359761D02*
X96036961Y-134407380D01*
X96036961Y-134407380D02*
X95656009Y-134407380D01*
X95656009Y-134407380D02*
X95560771Y-134359761D01*
X95560771Y-134359761D02*
X95513152Y-134264523D01*
X95513152Y-134264523D02*
X95513152Y-134074047D01*
X95513152Y-134074047D02*
X95560771Y-133978809D01*
X95560771Y-133978809D02*
X95656009Y-133931190D01*
X95656009Y-133931190D02*
X95751247Y-133931190D01*
X95751247Y-133931190D02*
X95846485Y-134407380D01*
X95513152Y-133597856D02*
X96179819Y-133359761D01*
X95513152Y-133121666D02*
X96179819Y-133359761D01*
X96179819Y-133359761D02*
X96417914Y-133454999D01*
X96417914Y-133454999D02*
X96465533Y-133502618D01*
X96465533Y-133502618D02*
X96513152Y-133597856D01*
X96132200Y-132312142D02*
X96179819Y-132407380D01*
X96179819Y-132407380D02*
X96179819Y-132597856D01*
X96179819Y-132597856D02*
X96132200Y-132693094D01*
X96132200Y-132693094D02*
X96084580Y-132740713D01*
X96084580Y-132740713D02*
X95989342Y-132788332D01*
X95989342Y-132788332D02*
X95703628Y-132788332D01*
X95703628Y-132788332D02*
X95608390Y-132740713D01*
X95608390Y-132740713D02*
X95560771Y-132693094D01*
X95560771Y-132693094D02*
X95513152Y-132597856D01*
X95513152Y-132597856D02*
X95513152Y-132407380D01*
X95513152Y-132407380D02*
X95560771Y-132312142D01*
X96179819Y-131454999D02*
X95656009Y-131454999D01*
X95656009Y-131454999D02*
X95560771Y-131502618D01*
X95560771Y-131502618D02*
X95513152Y-131597856D01*
X95513152Y-131597856D02*
X95513152Y-131788332D01*
X95513152Y-131788332D02*
X95560771Y-131883570D01*
X96132200Y-131454999D02*
X96179819Y-131550237D01*
X96179819Y-131550237D02*
X96179819Y-131788332D01*
X96179819Y-131788332D02*
X96132200Y-131883570D01*
X96132200Y-131883570D02*
X96036961Y-131931189D01*
X96036961Y-131931189D02*
X95941723Y-131931189D01*
X95941723Y-131931189D02*
X95846485Y-131883570D01*
X95846485Y-131883570D02*
X95798866Y-131788332D01*
X95798866Y-131788332D02*
X95798866Y-131550237D01*
X95798866Y-131550237D02*
X95751247Y-131454999D01*
X95513152Y-130978808D02*
X96513152Y-130978808D01*
X95560771Y-130978808D02*
X95513152Y-130883570D01*
X95513152Y-130883570D02*
X95513152Y-130693094D01*
X95513152Y-130693094D02*
X95560771Y-130597856D01*
X95560771Y-130597856D02*
X95608390Y-130550237D01*
X95608390Y-130550237D02*
X95703628Y-130502618D01*
X95703628Y-130502618D02*
X95989342Y-130502618D01*
X95989342Y-130502618D02*
X96084580Y-130550237D01*
X96084580Y-130550237D02*
X96132200Y-130597856D01*
X96132200Y-130597856D02*
X96179819Y-130693094D01*
X96179819Y-130693094D02*
X96179819Y-130883570D01*
X96179819Y-130883570D02*
X96132200Y-130978808D01*
X73380238Y-114359819D02*
X73380238Y-113359819D01*
X73951666Y-114359819D02*
X73523095Y-113788390D01*
X73951666Y-113359819D02*
X73380238Y-113931247D01*
X74761190Y-114312200D02*
X74665952Y-114359819D01*
X74665952Y-114359819D02*
X74475476Y-114359819D01*
X74475476Y-114359819D02*
X74380238Y-114312200D01*
X74380238Y-114312200D02*
X74332619Y-114216961D01*
X74332619Y-114216961D02*
X74332619Y-113836009D01*
X74332619Y-113836009D02*
X74380238Y-113740771D01*
X74380238Y-113740771D02*
X74475476Y-113693152D01*
X74475476Y-113693152D02*
X74665952Y-113693152D01*
X74665952Y-113693152D02*
X74761190Y-113740771D01*
X74761190Y-113740771D02*
X74808809Y-113836009D01*
X74808809Y-113836009D02*
X74808809Y-113931247D01*
X74808809Y-113931247D02*
X74332619Y-114026485D01*
X75142143Y-113693152D02*
X75380238Y-114359819D01*
X75618333Y-113693152D02*
X75380238Y-114359819D01*
X75380238Y-114359819D02*
X75285000Y-114597914D01*
X75285000Y-114597914D02*
X75237381Y-114645533D01*
X75237381Y-114645533D02*
X75142143Y-114693152D01*
X76427857Y-114312200D02*
X76332619Y-114359819D01*
X76332619Y-114359819D02*
X76142143Y-114359819D01*
X76142143Y-114359819D02*
X76046905Y-114312200D01*
X76046905Y-114312200D02*
X75999286Y-114264580D01*
X75999286Y-114264580D02*
X75951667Y-114169342D01*
X75951667Y-114169342D02*
X75951667Y-113883628D01*
X75951667Y-113883628D02*
X75999286Y-113788390D01*
X75999286Y-113788390D02*
X76046905Y-113740771D01*
X76046905Y-113740771D02*
X76142143Y-113693152D01*
X76142143Y-113693152D02*
X76332619Y-113693152D01*
X76332619Y-113693152D02*
X76427857Y-113740771D01*
X77285000Y-114359819D02*
X77285000Y-113836009D01*
X77285000Y-113836009D02*
X77237381Y-113740771D01*
X77237381Y-113740771D02*
X77142143Y-113693152D01*
X77142143Y-113693152D02*
X76951667Y-113693152D01*
X76951667Y-113693152D02*
X76856429Y-113740771D01*
X77285000Y-114312200D02*
X77189762Y-114359819D01*
X77189762Y-114359819D02*
X76951667Y-114359819D01*
X76951667Y-114359819D02*
X76856429Y-114312200D01*
X76856429Y-114312200D02*
X76808810Y-114216961D01*
X76808810Y-114216961D02*
X76808810Y-114121723D01*
X76808810Y-114121723D02*
X76856429Y-114026485D01*
X76856429Y-114026485D02*
X76951667Y-113978866D01*
X76951667Y-113978866D02*
X77189762Y-113978866D01*
X77189762Y-113978866D02*
X77285000Y-113931247D01*
X77761191Y-113693152D02*
X77761191Y-114693152D01*
X77761191Y-113740771D02*
X77856429Y-113693152D01*
X77856429Y-113693152D02*
X78046905Y-113693152D01*
X78046905Y-113693152D02*
X78142143Y-113740771D01*
X78142143Y-113740771D02*
X78189762Y-113788390D01*
X78189762Y-113788390D02*
X78237381Y-113883628D01*
X78237381Y-113883628D02*
X78237381Y-114169342D01*
X78237381Y-114169342D02*
X78189762Y-114264580D01*
X78189762Y-114264580D02*
X78142143Y-114312200D01*
X78142143Y-114312200D02*
X78046905Y-114359819D01*
X78046905Y-114359819D02*
X77856429Y-114359819D01*
X77856429Y-114359819D02*
X77761191Y-114312200D01*
X84937142Y-74454819D02*
X84365714Y-74454819D01*
X84651428Y-74454819D02*
X84651428Y-73454819D01*
X84651428Y-73454819D02*
X84556190Y-73597676D01*
X84556190Y-73597676D02*
X84460952Y-73692914D01*
X84460952Y-73692914D02*
X84365714Y-73740533D01*
X85365714Y-74454819D02*
X85365714Y-73454819D01*
X85365714Y-73454819D02*
X85937142Y-74454819D01*
X85937142Y-74454819D02*
X85937142Y-73454819D01*
X86889523Y-73454819D02*
X86413333Y-73454819D01*
X86413333Y-73454819D02*
X86365714Y-73931009D01*
X86365714Y-73931009D02*
X86413333Y-73883390D01*
X86413333Y-73883390D02*
X86508571Y-73835771D01*
X86508571Y-73835771D02*
X86746666Y-73835771D01*
X86746666Y-73835771D02*
X86841904Y-73883390D01*
X86841904Y-73883390D02*
X86889523Y-73931009D01*
X86889523Y-73931009D02*
X86937142Y-74026247D01*
X86937142Y-74026247D02*
X86937142Y-74264342D01*
X86937142Y-74264342D02*
X86889523Y-74359580D01*
X86889523Y-74359580D02*
X86841904Y-74407200D01*
X86841904Y-74407200D02*
X86746666Y-74454819D01*
X86746666Y-74454819D02*
X86508571Y-74454819D01*
X86508571Y-74454819D02*
X86413333Y-74407200D01*
X86413333Y-74407200D02*
X86365714Y-74359580D01*
X87508571Y-73883390D02*
X87413333Y-73835771D01*
X87413333Y-73835771D02*
X87365714Y-73788152D01*
X87365714Y-73788152D02*
X87318095Y-73692914D01*
X87318095Y-73692914D02*
X87318095Y-73645295D01*
X87318095Y-73645295D02*
X87365714Y-73550057D01*
X87365714Y-73550057D02*
X87413333Y-73502438D01*
X87413333Y-73502438D02*
X87508571Y-73454819D01*
X87508571Y-73454819D02*
X87699047Y-73454819D01*
X87699047Y-73454819D02*
X87794285Y-73502438D01*
X87794285Y-73502438D02*
X87841904Y-73550057D01*
X87841904Y-73550057D02*
X87889523Y-73645295D01*
X87889523Y-73645295D02*
X87889523Y-73692914D01*
X87889523Y-73692914D02*
X87841904Y-73788152D01*
X87841904Y-73788152D02*
X87794285Y-73835771D01*
X87794285Y-73835771D02*
X87699047Y-73883390D01*
X87699047Y-73883390D02*
X87508571Y-73883390D01*
X87508571Y-73883390D02*
X87413333Y-73931009D01*
X87413333Y-73931009D02*
X87365714Y-73978628D01*
X87365714Y-73978628D02*
X87318095Y-74073866D01*
X87318095Y-74073866D02*
X87318095Y-74264342D01*
X87318095Y-74264342D02*
X87365714Y-74359580D01*
X87365714Y-74359580D02*
X87413333Y-74407200D01*
X87413333Y-74407200D02*
X87508571Y-74454819D01*
X87508571Y-74454819D02*
X87699047Y-74454819D01*
X87699047Y-74454819D02*
X87794285Y-74407200D01*
X87794285Y-74407200D02*
X87841904Y-74359580D01*
X87841904Y-74359580D02*
X87889523Y-74264342D01*
X87889523Y-74264342D02*
X87889523Y-74073866D01*
X87889523Y-74073866D02*
X87841904Y-73978628D01*
X87841904Y-73978628D02*
X87794285Y-73931009D01*
X87794285Y-73931009D02*
X87699047Y-73883390D01*
X88841904Y-74454819D02*
X88270476Y-74454819D01*
X88556190Y-74454819D02*
X88556190Y-73454819D01*
X88556190Y-73454819D02*
X88460952Y-73597676D01*
X88460952Y-73597676D02*
X88365714Y-73692914D01*
X88365714Y-73692914D02*
X88270476Y-73740533D01*
X89318095Y-74454819D02*
X89508571Y-74454819D01*
X89508571Y-74454819D02*
X89603809Y-74407200D01*
X89603809Y-74407200D02*
X89651428Y-74359580D01*
X89651428Y-74359580D02*
X89746666Y-74216723D01*
X89746666Y-74216723D02*
X89794285Y-74026247D01*
X89794285Y-74026247D02*
X89794285Y-73645295D01*
X89794285Y-73645295D02*
X89746666Y-73550057D01*
X89746666Y-73550057D02*
X89699047Y-73502438D01*
X89699047Y-73502438D02*
X89603809Y-73454819D01*
X89603809Y-73454819D02*
X89413333Y-73454819D01*
X89413333Y-73454819D02*
X89318095Y-73502438D01*
X89318095Y-73502438D02*
X89270476Y-73550057D01*
X89270476Y-73550057D02*
X89222857Y-73645295D01*
X89222857Y-73645295D02*
X89222857Y-73883390D01*
X89222857Y-73883390D02*
X89270476Y-73978628D01*
X89270476Y-73978628D02*
X89318095Y-74026247D01*
X89318095Y-74026247D02*
X89413333Y-74073866D01*
X89413333Y-74073866D02*
X89603809Y-74073866D01*
X89603809Y-74073866D02*
X89699047Y-74026247D01*
X89699047Y-74026247D02*
X89746666Y-73978628D01*
X89746666Y-73978628D02*
X89794285Y-73883390D01*
D12*
X113684800Y-135764523D02*
X113732419Y-135621666D01*
X113732419Y-135621666D02*
X113732419Y-135383571D01*
X113732419Y-135383571D02*
X113684800Y-135288333D01*
X113684800Y-135288333D02*
X113637180Y-135240714D01*
X113637180Y-135240714D02*
X113541942Y-135193095D01*
X113541942Y-135193095D02*
X113446704Y-135193095D01*
X113446704Y-135193095D02*
X113351466Y-135240714D01*
X113351466Y-135240714D02*
X113303847Y-135288333D01*
X113303847Y-135288333D02*
X113256228Y-135383571D01*
X113256228Y-135383571D02*
X113208609Y-135574047D01*
X113208609Y-135574047D02*
X113160990Y-135669285D01*
X113160990Y-135669285D02*
X113113371Y-135716904D01*
X113113371Y-135716904D02*
X113018133Y-135764523D01*
X113018133Y-135764523D02*
X112922895Y-135764523D01*
X112922895Y-135764523D02*
X112827657Y-135716904D01*
X112827657Y-135716904D02*
X112780038Y-135669285D01*
X112780038Y-135669285D02*
X112732419Y-135574047D01*
X112732419Y-135574047D02*
X112732419Y-135335952D01*
X112732419Y-135335952D02*
X112780038Y-135193095D01*
X112732419Y-134859761D02*
X113732419Y-134621666D01*
X113732419Y-134621666D02*
X113018133Y-134431190D01*
X113018133Y-134431190D02*
X113732419Y-134240714D01*
X113732419Y-134240714D02*
X112732419Y-134002619D01*
X113732419Y-133621666D02*
X112732419Y-133621666D01*
X113732419Y-133050238D02*
X113160990Y-133478809D01*
X112732419Y-133050238D02*
X113303847Y-133621666D01*
X113637180Y-132050238D02*
X113684800Y-132097857D01*
X113684800Y-132097857D02*
X113732419Y-132240714D01*
X113732419Y-132240714D02*
X113732419Y-132335952D01*
X113732419Y-132335952D02*
X113684800Y-132478809D01*
X113684800Y-132478809D02*
X113589561Y-132574047D01*
X113589561Y-132574047D02*
X113494323Y-132621666D01*
X113494323Y-132621666D02*
X113303847Y-132669285D01*
X113303847Y-132669285D02*
X113160990Y-132669285D01*
X113160990Y-132669285D02*
X112970514Y-132621666D01*
X112970514Y-132621666D02*
X112875276Y-132574047D01*
X112875276Y-132574047D02*
X112780038Y-132478809D01*
X112780038Y-132478809D02*
X112732419Y-132335952D01*
X112732419Y-132335952D02*
X112732419Y-132240714D01*
X112732419Y-132240714D02*
X112780038Y-132097857D01*
X112780038Y-132097857D02*
X112827657Y-132050238D01*
X113732419Y-131097857D02*
X113732419Y-131669285D01*
X113732419Y-131383571D02*
X112732419Y-131383571D01*
X112732419Y-131383571D02*
X112875276Y-131478809D01*
X112875276Y-131478809D02*
X112970514Y-131574047D01*
X112970514Y-131574047D02*
X113018133Y-131669285D01*
X113732419Y-130145476D02*
X113732419Y-130716904D01*
X113732419Y-130431190D02*
X112732419Y-130431190D01*
X112732419Y-130431190D02*
X112875276Y-130526428D01*
X112875276Y-130526428D02*
X112970514Y-130621666D01*
X112970514Y-130621666D02*
X113018133Y-130716904D01*
D10*
X115229819Y-135359761D02*
X114229819Y-135359761D01*
X115229819Y-134788333D02*
X114658390Y-135216904D01*
X114229819Y-134788333D02*
X114801247Y-135359761D01*
X115182200Y-133978809D02*
X115229819Y-134074047D01*
X115229819Y-134074047D02*
X115229819Y-134264523D01*
X115229819Y-134264523D02*
X115182200Y-134359761D01*
X115182200Y-134359761D02*
X115086961Y-134407380D01*
X115086961Y-134407380D02*
X114706009Y-134407380D01*
X114706009Y-134407380D02*
X114610771Y-134359761D01*
X114610771Y-134359761D02*
X114563152Y-134264523D01*
X114563152Y-134264523D02*
X114563152Y-134074047D01*
X114563152Y-134074047D02*
X114610771Y-133978809D01*
X114610771Y-133978809D02*
X114706009Y-133931190D01*
X114706009Y-133931190D02*
X114801247Y-133931190D01*
X114801247Y-133931190D02*
X114896485Y-134407380D01*
X114563152Y-133597856D02*
X115229819Y-133359761D01*
X114563152Y-133121666D02*
X115229819Y-133359761D01*
X115229819Y-133359761D02*
X115467914Y-133454999D01*
X115467914Y-133454999D02*
X115515533Y-133502618D01*
X115515533Y-133502618D02*
X115563152Y-133597856D01*
X115182200Y-132312142D02*
X115229819Y-132407380D01*
X115229819Y-132407380D02*
X115229819Y-132597856D01*
X115229819Y-132597856D02*
X115182200Y-132693094D01*
X115182200Y-132693094D02*
X115134580Y-132740713D01*
X115134580Y-132740713D02*
X115039342Y-132788332D01*
X115039342Y-132788332D02*
X114753628Y-132788332D01*
X114753628Y-132788332D02*
X114658390Y-132740713D01*
X114658390Y-132740713D02*
X114610771Y-132693094D01*
X114610771Y-132693094D02*
X114563152Y-132597856D01*
X114563152Y-132597856D02*
X114563152Y-132407380D01*
X114563152Y-132407380D02*
X114610771Y-132312142D01*
X115229819Y-131454999D02*
X114706009Y-131454999D01*
X114706009Y-131454999D02*
X114610771Y-131502618D01*
X114610771Y-131502618D02*
X114563152Y-131597856D01*
X114563152Y-131597856D02*
X114563152Y-131788332D01*
X114563152Y-131788332D02*
X114610771Y-131883570D01*
X115182200Y-131454999D02*
X115229819Y-131550237D01*
X115229819Y-131550237D02*
X115229819Y-131788332D01*
X115229819Y-131788332D02*
X115182200Y-131883570D01*
X115182200Y-131883570D02*
X115086961Y-131931189D01*
X115086961Y-131931189D02*
X114991723Y-131931189D01*
X114991723Y-131931189D02*
X114896485Y-131883570D01*
X114896485Y-131883570D02*
X114848866Y-131788332D01*
X114848866Y-131788332D02*
X114848866Y-131550237D01*
X114848866Y-131550237D02*
X114801247Y-131454999D01*
X114563152Y-130978808D02*
X115563152Y-130978808D01*
X114610771Y-130978808D02*
X114563152Y-130883570D01*
X114563152Y-130883570D02*
X114563152Y-130693094D01*
X114563152Y-130693094D02*
X114610771Y-130597856D01*
X114610771Y-130597856D02*
X114658390Y-130550237D01*
X114658390Y-130550237D02*
X114753628Y-130502618D01*
X114753628Y-130502618D02*
X115039342Y-130502618D01*
X115039342Y-130502618D02*
X115134580Y-130550237D01*
X115134580Y-130550237D02*
X115182200Y-130597856D01*
X115182200Y-130597856D02*
X115229819Y-130693094D01*
X115229819Y-130693094D02*
X115229819Y-130883570D01*
X115229819Y-130883570D02*
X115182200Y-130978808D01*
X112760714Y-121889819D02*
X112760714Y-120889819D01*
X112760714Y-120889819D02*
X112998809Y-120889819D01*
X112998809Y-120889819D02*
X113141666Y-120937438D01*
X113141666Y-120937438D02*
X113236904Y-121032676D01*
X113236904Y-121032676D02*
X113284523Y-121127914D01*
X113284523Y-121127914D02*
X113332142Y-121318390D01*
X113332142Y-121318390D02*
X113332142Y-121461247D01*
X113332142Y-121461247D02*
X113284523Y-121651723D01*
X113284523Y-121651723D02*
X113236904Y-121746961D01*
X113236904Y-121746961D02*
X113141666Y-121842200D01*
X113141666Y-121842200D02*
X112998809Y-121889819D01*
X112998809Y-121889819D02*
X112760714Y-121889819D01*
X113713095Y-120985057D02*
X113760714Y-120937438D01*
X113760714Y-120937438D02*
X113855952Y-120889819D01*
X113855952Y-120889819D02*
X114094047Y-120889819D01*
X114094047Y-120889819D02*
X114189285Y-120937438D01*
X114189285Y-120937438D02*
X114236904Y-120985057D01*
X114236904Y-120985057D02*
X114284523Y-121080295D01*
X114284523Y-121080295D02*
X114284523Y-121175533D01*
X114284523Y-121175533D02*
X114236904Y-121318390D01*
X114236904Y-121318390D02*
X113665476Y-121889819D01*
X113665476Y-121889819D02*
X114284523Y-121889819D01*
X114617857Y-120889819D02*
X115236904Y-120889819D01*
X115236904Y-120889819D02*
X114903571Y-121270771D01*
X114903571Y-121270771D02*
X115046428Y-121270771D01*
X115046428Y-121270771D02*
X115141666Y-121318390D01*
X115141666Y-121318390D02*
X115189285Y-121366009D01*
X115189285Y-121366009D02*
X115236904Y-121461247D01*
X115236904Y-121461247D02*
X115236904Y-121699342D01*
X115236904Y-121699342D02*
X115189285Y-121794580D01*
X115189285Y-121794580D02*
X115141666Y-121842200D01*
X115141666Y-121842200D02*
X115046428Y-121889819D01*
X115046428Y-121889819D02*
X114760714Y-121889819D01*
X114760714Y-121889819D02*
X114665476Y-121842200D01*
X114665476Y-121842200D02*
X114617857Y-121794580D01*
X111832142Y-126129819D02*
X111260714Y-126129819D01*
X111546428Y-126129819D02*
X111546428Y-125129819D01*
X111546428Y-125129819D02*
X111451190Y-125272676D01*
X111451190Y-125272676D02*
X111355952Y-125367914D01*
X111355952Y-125367914D02*
X111260714Y-125415533D01*
X112260714Y-126129819D02*
X112260714Y-125129819D01*
X112260714Y-125129819D02*
X112832142Y-126129819D01*
X112832142Y-126129819D02*
X112832142Y-125129819D01*
X113784523Y-125129819D02*
X113308333Y-125129819D01*
X113308333Y-125129819D02*
X113260714Y-125606009D01*
X113260714Y-125606009D02*
X113308333Y-125558390D01*
X113308333Y-125558390D02*
X113403571Y-125510771D01*
X113403571Y-125510771D02*
X113641666Y-125510771D01*
X113641666Y-125510771D02*
X113736904Y-125558390D01*
X113736904Y-125558390D02*
X113784523Y-125606009D01*
X113784523Y-125606009D02*
X113832142Y-125701247D01*
X113832142Y-125701247D02*
X113832142Y-125939342D01*
X113832142Y-125939342D02*
X113784523Y-126034580D01*
X113784523Y-126034580D02*
X113736904Y-126082200D01*
X113736904Y-126082200D02*
X113641666Y-126129819D01*
X113641666Y-126129819D02*
X113403571Y-126129819D01*
X113403571Y-126129819D02*
X113308333Y-126082200D01*
X113308333Y-126082200D02*
X113260714Y-126034580D01*
X114403571Y-125558390D02*
X114308333Y-125510771D01*
X114308333Y-125510771D02*
X114260714Y-125463152D01*
X114260714Y-125463152D02*
X114213095Y-125367914D01*
X114213095Y-125367914D02*
X114213095Y-125320295D01*
X114213095Y-125320295D02*
X114260714Y-125225057D01*
X114260714Y-125225057D02*
X114308333Y-125177438D01*
X114308333Y-125177438D02*
X114403571Y-125129819D01*
X114403571Y-125129819D02*
X114594047Y-125129819D01*
X114594047Y-125129819D02*
X114689285Y-125177438D01*
X114689285Y-125177438D02*
X114736904Y-125225057D01*
X114736904Y-125225057D02*
X114784523Y-125320295D01*
X114784523Y-125320295D02*
X114784523Y-125367914D01*
X114784523Y-125367914D02*
X114736904Y-125463152D01*
X114736904Y-125463152D02*
X114689285Y-125510771D01*
X114689285Y-125510771D02*
X114594047Y-125558390D01*
X114594047Y-125558390D02*
X114403571Y-125558390D01*
X114403571Y-125558390D02*
X114308333Y-125606009D01*
X114308333Y-125606009D02*
X114260714Y-125653628D01*
X114260714Y-125653628D02*
X114213095Y-125748866D01*
X114213095Y-125748866D02*
X114213095Y-125939342D01*
X114213095Y-125939342D02*
X114260714Y-126034580D01*
X114260714Y-126034580D02*
X114308333Y-126082200D01*
X114308333Y-126082200D02*
X114403571Y-126129819D01*
X114403571Y-126129819D02*
X114594047Y-126129819D01*
X114594047Y-126129819D02*
X114689285Y-126082200D01*
X114689285Y-126082200D02*
X114736904Y-126034580D01*
X114736904Y-126034580D02*
X114784523Y-125939342D01*
X114784523Y-125939342D02*
X114784523Y-125748866D01*
X114784523Y-125748866D02*
X114736904Y-125653628D01*
X114736904Y-125653628D02*
X114689285Y-125606009D01*
X114689285Y-125606009D02*
X114594047Y-125558390D01*
X115736904Y-126129819D02*
X115165476Y-126129819D01*
X115451190Y-126129819D02*
X115451190Y-125129819D01*
X115451190Y-125129819D02*
X115355952Y-125272676D01*
X115355952Y-125272676D02*
X115260714Y-125367914D01*
X115260714Y-125367914D02*
X115165476Y-125415533D01*
X116213095Y-126129819D02*
X116403571Y-126129819D01*
X116403571Y-126129819D02*
X116498809Y-126082200D01*
X116498809Y-126082200D02*
X116546428Y-126034580D01*
X116546428Y-126034580D02*
X116641666Y-125891723D01*
X116641666Y-125891723D02*
X116689285Y-125701247D01*
X116689285Y-125701247D02*
X116689285Y-125320295D01*
X116689285Y-125320295D02*
X116641666Y-125225057D01*
X116641666Y-125225057D02*
X116594047Y-125177438D01*
X116594047Y-125177438D02*
X116498809Y-125129819D01*
X116498809Y-125129819D02*
X116308333Y-125129819D01*
X116308333Y-125129819D02*
X116213095Y-125177438D01*
X116213095Y-125177438D02*
X116165476Y-125225057D01*
X116165476Y-125225057D02*
X116117857Y-125320295D01*
X116117857Y-125320295D02*
X116117857Y-125558390D01*
X116117857Y-125558390D02*
X116165476Y-125653628D01*
X116165476Y-125653628D02*
X116213095Y-125701247D01*
X116213095Y-125701247D02*
X116308333Y-125748866D01*
X116308333Y-125748866D02*
X116498809Y-125748866D01*
X116498809Y-125748866D02*
X116594047Y-125701247D01*
X116594047Y-125701247D02*
X116641666Y-125653628D01*
X116641666Y-125653628D02*
X116689285Y-125558390D01*
X73975476Y-87407200D02*
X74118333Y-87454819D01*
X74118333Y-87454819D02*
X74356428Y-87454819D01*
X74356428Y-87454819D02*
X74451666Y-87407200D01*
X74451666Y-87407200D02*
X74499285Y-87359580D01*
X74499285Y-87359580D02*
X74546904Y-87264342D01*
X74546904Y-87264342D02*
X74546904Y-87169104D01*
X74546904Y-87169104D02*
X74499285Y-87073866D01*
X74499285Y-87073866D02*
X74451666Y-87026247D01*
X74451666Y-87026247D02*
X74356428Y-86978628D01*
X74356428Y-86978628D02*
X74165952Y-86931009D01*
X74165952Y-86931009D02*
X74070714Y-86883390D01*
X74070714Y-86883390D02*
X74023095Y-86835771D01*
X74023095Y-86835771D02*
X73975476Y-86740533D01*
X73975476Y-86740533D02*
X73975476Y-86645295D01*
X73975476Y-86645295D02*
X74023095Y-86550057D01*
X74023095Y-86550057D02*
X74070714Y-86502438D01*
X74070714Y-86502438D02*
X74165952Y-86454819D01*
X74165952Y-86454819D02*
X74404047Y-86454819D01*
X74404047Y-86454819D02*
X74546904Y-86502438D01*
X74880238Y-86454819D02*
X75118333Y-87454819D01*
X75118333Y-87454819D02*
X75308809Y-86740533D01*
X75308809Y-86740533D02*
X75499285Y-87454819D01*
X75499285Y-87454819D02*
X75737381Y-86454819D01*
X76642142Y-87454819D02*
X76070714Y-87454819D01*
X76356428Y-87454819D02*
X76356428Y-86454819D01*
X76356428Y-86454819D02*
X76261190Y-86597676D01*
X76261190Y-86597676D02*
X76165952Y-86692914D01*
X76165952Y-86692914D02*
X76070714Y-86740533D01*
X77499285Y-86454819D02*
X77308809Y-86454819D01*
X77308809Y-86454819D02*
X77213571Y-86502438D01*
X77213571Y-86502438D02*
X77165952Y-86550057D01*
X77165952Y-86550057D02*
X77070714Y-86692914D01*
X77070714Y-86692914D02*
X77023095Y-86883390D01*
X77023095Y-86883390D02*
X77023095Y-87264342D01*
X77023095Y-87264342D02*
X77070714Y-87359580D01*
X77070714Y-87359580D02*
X77118333Y-87407200D01*
X77118333Y-87407200D02*
X77213571Y-87454819D01*
X77213571Y-87454819D02*
X77404047Y-87454819D01*
X77404047Y-87454819D02*
X77499285Y-87407200D01*
X77499285Y-87407200D02*
X77546904Y-87359580D01*
X77546904Y-87359580D02*
X77594523Y-87264342D01*
X77594523Y-87264342D02*
X77594523Y-87026247D01*
X77594523Y-87026247D02*
X77546904Y-86931009D01*
X77546904Y-86931009D02*
X77499285Y-86883390D01*
X77499285Y-86883390D02*
X77404047Y-86835771D01*
X77404047Y-86835771D02*
X77213571Y-86835771D01*
X77213571Y-86835771D02*
X77118333Y-86883390D01*
X77118333Y-86883390D02*
X77070714Y-86931009D01*
X77070714Y-86931009D02*
X77023095Y-87026247D01*
D12*
X132734800Y-135764523D02*
X132782419Y-135621666D01*
X132782419Y-135621666D02*
X132782419Y-135383571D01*
X132782419Y-135383571D02*
X132734800Y-135288333D01*
X132734800Y-135288333D02*
X132687180Y-135240714D01*
X132687180Y-135240714D02*
X132591942Y-135193095D01*
X132591942Y-135193095D02*
X132496704Y-135193095D01*
X132496704Y-135193095D02*
X132401466Y-135240714D01*
X132401466Y-135240714D02*
X132353847Y-135288333D01*
X132353847Y-135288333D02*
X132306228Y-135383571D01*
X132306228Y-135383571D02*
X132258609Y-135574047D01*
X132258609Y-135574047D02*
X132210990Y-135669285D01*
X132210990Y-135669285D02*
X132163371Y-135716904D01*
X132163371Y-135716904D02*
X132068133Y-135764523D01*
X132068133Y-135764523D02*
X131972895Y-135764523D01*
X131972895Y-135764523D02*
X131877657Y-135716904D01*
X131877657Y-135716904D02*
X131830038Y-135669285D01*
X131830038Y-135669285D02*
X131782419Y-135574047D01*
X131782419Y-135574047D02*
X131782419Y-135335952D01*
X131782419Y-135335952D02*
X131830038Y-135193095D01*
X131782419Y-134859761D02*
X132782419Y-134621666D01*
X132782419Y-134621666D02*
X132068133Y-134431190D01*
X132068133Y-134431190D02*
X132782419Y-134240714D01*
X132782419Y-134240714D02*
X131782419Y-134002619D01*
X132782419Y-133621666D02*
X131782419Y-133621666D01*
X132782419Y-133050238D02*
X132210990Y-133478809D01*
X131782419Y-133050238D02*
X132353847Y-133621666D01*
X132687180Y-132050238D02*
X132734800Y-132097857D01*
X132734800Y-132097857D02*
X132782419Y-132240714D01*
X132782419Y-132240714D02*
X132782419Y-132335952D01*
X132782419Y-132335952D02*
X132734800Y-132478809D01*
X132734800Y-132478809D02*
X132639561Y-132574047D01*
X132639561Y-132574047D02*
X132544323Y-132621666D01*
X132544323Y-132621666D02*
X132353847Y-132669285D01*
X132353847Y-132669285D02*
X132210990Y-132669285D01*
X132210990Y-132669285D02*
X132020514Y-132621666D01*
X132020514Y-132621666D02*
X131925276Y-132574047D01*
X131925276Y-132574047D02*
X131830038Y-132478809D01*
X131830038Y-132478809D02*
X131782419Y-132335952D01*
X131782419Y-132335952D02*
X131782419Y-132240714D01*
X131782419Y-132240714D02*
X131830038Y-132097857D01*
X131830038Y-132097857D02*
X131877657Y-132050238D01*
X131877657Y-131669285D02*
X131830038Y-131621666D01*
X131830038Y-131621666D02*
X131782419Y-131526428D01*
X131782419Y-131526428D02*
X131782419Y-131288333D01*
X131782419Y-131288333D02*
X131830038Y-131193095D01*
X131830038Y-131193095D02*
X131877657Y-131145476D01*
X131877657Y-131145476D02*
X131972895Y-131097857D01*
X131972895Y-131097857D02*
X132068133Y-131097857D01*
X132068133Y-131097857D02*
X132210990Y-131145476D01*
X132210990Y-131145476D02*
X132782419Y-131716904D01*
X132782419Y-131716904D02*
X132782419Y-131097857D01*
X131782419Y-130478809D02*
X131782419Y-130383571D01*
X131782419Y-130383571D02*
X131830038Y-130288333D01*
X131830038Y-130288333D02*
X131877657Y-130240714D01*
X131877657Y-130240714D02*
X131972895Y-130193095D01*
X131972895Y-130193095D02*
X132163371Y-130145476D01*
X132163371Y-130145476D02*
X132401466Y-130145476D01*
X132401466Y-130145476D02*
X132591942Y-130193095D01*
X132591942Y-130193095D02*
X132687180Y-130240714D01*
X132687180Y-130240714D02*
X132734800Y-130288333D01*
X132734800Y-130288333D02*
X132782419Y-130383571D01*
X132782419Y-130383571D02*
X132782419Y-130478809D01*
X132782419Y-130478809D02*
X132734800Y-130574047D01*
X132734800Y-130574047D02*
X132687180Y-130621666D01*
X132687180Y-130621666D02*
X132591942Y-130669285D01*
X132591942Y-130669285D02*
X132401466Y-130716904D01*
X132401466Y-130716904D02*
X132163371Y-130716904D01*
X132163371Y-130716904D02*
X131972895Y-130669285D01*
X131972895Y-130669285D02*
X131877657Y-130621666D01*
X131877657Y-130621666D02*
X131830038Y-130574047D01*
X131830038Y-130574047D02*
X131782419Y-130478809D01*
D10*
X134279819Y-135359761D02*
X133279819Y-135359761D01*
X134279819Y-134788333D02*
X133708390Y-135216904D01*
X133279819Y-134788333D02*
X133851247Y-135359761D01*
X134232200Y-133978809D02*
X134279819Y-134074047D01*
X134279819Y-134074047D02*
X134279819Y-134264523D01*
X134279819Y-134264523D02*
X134232200Y-134359761D01*
X134232200Y-134359761D02*
X134136961Y-134407380D01*
X134136961Y-134407380D02*
X133756009Y-134407380D01*
X133756009Y-134407380D02*
X133660771Y-134359761D01*
X133660771Y-134359761D02*
X133613152Y-134264523D01*
X133613152Y-134264523D02*
X133613152Y-134074047D01*
X133613152Y-134074047D02*
X133660771Y-133978809D01*
X133660771Y-133978809D02*
X133756009Y-133931190D01*
X133756009Y-133931190D02*
X133851247Y-133931190D01*
X133851247Y-133931190D02*
X133946485Y-134407380D01*
X133613152Y-133597856D02*
X134279819Y-133359761D01*
X133613152Y-133121666D02*
X134279819Y-133359761D01*
X134279819Y-133359761D02*
X134517914Y-133454999D01*
X134517914Y-133454999D02*
X134565533Y-133502618D01*
X134565533Y-133502618D02*
X134613152Y-133597856D01*
X134232200Y-132312142D02*
X134279819Y-132407380D01*
X134279819Y-132407380D02*
X134279819Y-132597856D01*
X134279819Y-132597856D02*
X134232200Y-132693094D01*
X134232200Y-132693094D02*
X134184580Y-132740713D01*
X134184580Y-132740713D02*
X134089342Y-132788332D01*
X134089342Y-132788332D02*
X133803628Y-132788332D01*
X133803628Y-132788332D02*
X133708390Y-132740713D01*
X133708390Y-132740713D02*
X133660771Y-132693094D01*
X133660771Y-132693094D02*
X133613152Y-132597856D01*
X133613152Y-132597856D02*
X133613152Y-132407380D01*
X133613152Y-132407380D02*
X133660771Y-132312142D01*
X134279819Y-131454999D02*
X133756009Y-131454999D01*
X133756009Y-131454999D02*
X133660771Y-131502618D01*
X133660771Y-131502618D02*
X133613152Y-131597856D01*
X133613152Y-131597856D02*
X133613152Y-131788332D01*
X133613152Y-131788332D02*
X133660771Y-131883570D01*
X134232200Y-131454999D02*
X134279819Y-131550237D01*
X134279819Y-131550237D02*
X134279819Y-131788332D01*
X134279819Y-131788332D02*
X134232200Y-131883570D01*
X134232200Y-131883570D02*
X134136961Y-131931189D01*
X134136961Y-131931189D02*
X134041723Y-131931189D01*
X134041723Y-131931189D02*
X133946485Y-131883570D01*
X133946485Y-131883570D02*
X133898866Y-131788332D01*
X133898866Y-131788332D02*
X133898866Y-131550237D01*
X133898866Y-131550237D02*
X133851247Y-131454999D01*
X133613152Y-130978808D02*
X134613152Y-130978808D01*
X133660771Y-130978808D02*
X133613152Y-130883570D01*
X133613152Y-130883570D02*
X133613152Y-130693094D01*
X133613152Y-130693094D02*
X133660771Y-130597856D01*
X133660771Y-130597856D02*
X133708390Y-130550237D01*
X133708390Y-130550237D02*
X133803628Y-130502618D01*
X133803628Y-130502618D02*
X134089342Y-130502618D01*
X134089342Y-130502618D02*
X134184580Y-130550237D01*
X134184580Y-130550237D02*
X134232200Y-130597856D01*
X134232200Y-130597856D02*
X134279819Y-130693094D01*
X134279819Y-130693094D02*
X134279819Y-130883570D01*
X134279819Y-130883570D02*
X134232200Y-130978808D01*
X131760714Y-140889819D02*
X131760714Y-139889819D01*
X131760714Y-139889819D02*
X131998809Y-139889819D01*
X131998809Y-139889819D02*
X132141666Y-139937438D01*
X132141666Y-139937438D02*
X132236904Y-140032676D01*
X132236904Y-140032676D02*
X132284523Y-140127914D01*
X132284523Y-140127914D02*
X132332142Y-140318390D01*
X132332142Y-140318390D02*
X132332142Y-140461247D01*
X132332142Y-140461247D02*
X132284523Y-140651723D01*
X132284523Y-140651723D02*
X132236904Y-140746961D01*
X132236904Y-140746961D02*
X132141666Y-140842200D01*
X132141666Y-140842200D02*
X131998809Y-140889819D01*
X131998809Y-140889819D02*
X131760714Y-140889819D01*
X132713095Y-139985057D02*
X132760714Y-139937438D01*
X132760714Y-139937438D02*
X132855952Y-139889819D01*
X132855952Y-139889819D02*
X133094047Y-139889819D01*
X133094047Y-139889819D02*
X133189285Y-139937438D01*
X133189285Y-139937438D02*
X133236904Y-139985057D01*
X133236904Y-139985057D02*
X133284523Y-140080295D01*
X133284523Y-140080295D02*
X133284523Y-140175533D01*
X133284523Y-140175533D02*
X133236904Y-140318390D01*
X133236904Y-140318390D02*
X132665476Y-140889819D01*
X132665476Y-140889819D02*
X133284523Y-140889819D01*
X133855952Y-140318390D02*
X133760714Y-140270771D01*
X133760714Y-140270771D02*
X133713095Y-140223152D01*
X133713095Y-140223152D02*
X133665476Y-140127914D01*
X133665476Y-140127914D02*
X133665476Y-140080295D01*
X133665476Y-140080295D02*
X133713095Y-139985057D01*
X133713095Y-139985057D02*
X133760714Y-139937438D01*
X133760714Y-139937438D02*
X133855952Y-139889819D01*
X133855952Y-139889819D02*
X134046428Y-139889819D01*
X134046428Y-139889819D02*
X134141666Y-139937438D01*
X134141666Y-139937438D02*
X134189285Y-139985057D01*
X134189285Y-139985057D02*
X134236904Y-140080295D01*
X134236904Y-140080295D02*
X134236904Y-140127914D01*
X134236904Y-140127914D02*
X134189285Y-140223152D01*
X134189285Y-140223152D02*
X134141666Y-140270771D01*
X134141666Y-140270771D02*
X134046428Y-140318390D01*
X134046428Y-140318390D02*
X133855952Y-140318390D01*
X133855952Y-140318390D02*
X133760714Y-140366009D01*
X133760714Y-140366009D02*
X133713095Y-140413628D01*
X133713095Y-140413628D02*
X133665476Y-140508866D01*
X133665476Y-140508866D02*
X133665476Y-140699342D01*
X133665476Y-140699342D02*
X133713095Y-140794580D01*
X133713095Y-140794580D02*
X133760714Y-140842200D01*
X133760714Y-140842200D02*
X133855952Y-140889819D01*
X133855952Y-140889819D02*
X134046428Y-140889819D01*
X134046428Y-140889819D02*
X134141666Y-140842200D01*
X134141666Y-140842200D02*
X134189285Y-140794580D01*
X134189285Y-140794580D02*
X134236904Y-140699342D01*
X134236904Y-140699342D02*
X134236904Y-140508866D01*
X134236904Y-140508866D02*
X134189285Y-140413628D01*
X134189285Y-140413628D02*
X134141666Y-140366009D01*
X134141666Y-140366009D02*
X134046428Y-140318390D01*
X130832142Y-145129819D02*
X130260714Y-145129819D01*
X130546428Y-145129819D02*
X130546428Y-144129819D01*
X130546428Y-144129819D02*
X130451190Y-144272676D01*
X130451190Y-144272676D02*
X130355952Y-144367914D01*
X130355952Y-144367914D02*
X130260714Y-144415533D01*
X131260714Y-145129819D02*
X131260714Y-144129819D01*
X131260714Y-144129819D02*
X131832142Y-145129819D01*
X131832142Y-145129819D02*
X131832142Y-144129819D01*
X132784523Y-144129819D02*
X132308333Y-144129819D01*
X132308333Y-144129819D02*
X132260714Y-144606009D01*
X132260714Y-144606009D02*
X132308333Y-144558390D01*
X132308333Y-144558390D02*
X132403571Y-144510771D01*
X132403571Y-144510771D02*
X132641666Y-144510771D01*
X132641666Y-144510771D02*
X132736904Y-144558390D01*
X132736904Y-144558390D02*
X132784523Y-144606009D01*
X132784523Y-144606009D02*
X132832142Y-144701247D01*
X132832142Y-144701247D02*
X132832142Y-144939342D01*
X132832142Y-144939342D02*
X132784523Y-145034580D01*
X132784523Y-145034580D02*
X132736904Y-145082200D01*
X132736904Y-145082200D02*
X132641666Y-145129819D01*
X132641666Y-145129819D02*
X132403571Y-145129819D01*
X132403571Y-145129819D02*
X132308333Y-145082200D01*
X132308333Y-145082200D02*
X132260714Y-145034580D01*
X133403571Y-144558390D02*
X133308333Y-144510771D01*
X133308333Y-144510771D02*
X133260714Y-144463152D01*
X133260714Y-144463152D02*
X133213095Y-144367914D01*
X133213095Y-144367914D02*
X133213095Y-144320295D01*
X133213095Y-144320295D02*
X133260714Y-144225057D01*
X133260714Y-144225057D02*
X133308333Y-144177438D01*
X133308333Y-144177438D02*
X133403571Y-144129819D01*
X133403571Y-144129819D02*
X133594047Y-144129819D01*
X133594047Y-144129819D02*
X133689285Y-144177438D01*
X133689285Y-144177438D02*
X133736904Y-144225057D01*
X133736904Y-144225057D02*
X133784523Y-144320295D01*
X133784523Y-144320295D02*
X133784523Y-144367914D01*
X133784523Y-144367914D02*
X133736904Y-144463152D01*
X133736904Y-144463152D02*
X133689285Y-144510771D01*
X133689285Y-144510771D02*
X133594047Y-144558390D01*
X133594047Y-144558390D02*
X133403571Y-144558390D01*
X133403571Y-144558390D02*
X133308333Y-144606009D01*
X133308333Y-144606009D02*
X133260714Y-144653628D01*
X133260714Y-144653628D02*
X133213095Y-144748866D01*
X133213095Y-144748866D02*
X133213095Y-144939342D01*
X133213095Y-144939342D02*
X133260714Y-145034580D01*
X133260714Y-145034580D02*
X133308333Y-145082200D01*
X133308333Y-145082200D02*
X133403571Y-145129819D01*
X133403571Y-145129819D02*
X133594047Y-145129819D01*
X133594047Y-145129819D02*
X133689285Y-145082200D01*
X133689285Y-145082200D02*
X133736904Y-145034580D01*
X133736904Y-145034580D02*
X133784523Y-144939342D01*
X133784523Y-144939342D02*
X133784523Y-144748866D01*
X133784523Y-144748866D02*
X133736904Y-144653628D01*
X133736904Y-144653628D02*
X133689285Y-144606009D01*
X133689285Y-144606009D02*
X133594047Y-144558390D01*
X134736904Y-145129819D02*
X134165476Y-145129819D01*
X134451190Y-145129819D02*
X134451190Y-144129819D01*
X134451190Y-144129819D02*
X134355952Y-144272676D01*
X134355952Y-144272676D02*
X134260714Y-144367914D01*
X134260714Y-144367914D02*
X134165476Y-144415533D01*
X135213095Y-145129819D02*
X135403571Y-145129819D01*
X135403571Y-145129819D02*
X135498809Y-145082200D01*
X135498809Y-145082200D02*
X135546428Y-145034580D01*
X135546428Y-145034580D02*
X135641666Y-144891723D01*
X135641666Y-144891723D02*
X135689285Y-144701247D01*
X135689285Y-144701247D02*
X135689285Y-144320295D01*
X135689285Y-144320295D02*
X135641666Y-144225057D01*
X135641666Y-144225057D02*
X135594047Y-144177438D01*
X135594047Y-144177438D02*
X135498809Y-144129819D01*
X135498809Y-144129819D02*
X135308333Y-144129819D01*
X135308333Y-144129819D02*
X135213095Y-144177438D01*
X135213095Y-144177438D02*
X135165476Y-144225057D01*
X135165476Y-144225057D02*
X135117857Y-144320295D01*
X135117857Y-144320295D02*
X135117857Y-144558390D01*
X135117857Y-144558390D02*
X135165476Y-144653628D01*
X135165476Y-144653628D02*
X135213095Y-144701247D01*
X135213095Y-144701247D02*
X135308333Y-144748866D01*
X135308333Y-144748866D02*
X135498809Y-144748866D01*
X135498809Y-144748866D02*
X135594047Y-144701247D01*
X135594047Y-144701247D02*
X135641666Y-144653628D01*
X135641666Y-144653628D02*
X135689285Y-144558390D01*
X92415238Y-114359819D02*
X92415238Y-113359819D01*
X92986666Y-114359819D02*
X92558095Y-113788390D01*
X92986666Y-113359819D02*
X92415238Y-113931247D01*
X93796190Y-114312200D02*
X93700952Y-114359819D01*
X93700952Y-114359819D02*
X93510476Y-114359819D01*
X93510476Y-114359819D02*
X93415238Y-114312200D01*
X93415238Y-114312200D02*
X93367619Y-114216961D01*
X93367619Y-114216961D02*
X93367619Y-113836009D01*
X93367619Y-113836009D02*
X93415238Y-113740771D01*
X93415238Y-113740771D02*
X93510476Y-113693152D01*
X93510476Y-113693152D02*
X93700952Y-113693152D01*
X93700952Y-113693152D02*
X93796190Y-113740771D01*
X93796190Y-113740771D02*
X93843809Y-113836009D01*
X93843809Y-113836009D02*
X93843809Y-113931247D01*
X93843809Y-113931247D02*
X93367619Y-114026485D01*
X94177143Y-113693152D02*
X94415238Y-114359819D01*
X94653333Y-113693152D02*
X94415238Y-114359819D01*
X94415238Y-114359819D02*
X94320000Y-114597914D01*
X94320000Y-114597914D02*
X94272381Y-114645533D01*
X94272381Y-114645533D02*
X94177143Y-114693152D01*
X95462857Y-114312200D02*
X95367619Y-114359819D01*
X95367619Y-114359819D02*
X95177143Y-114359819D01*
X95177143Y-114359819D02*
X95081905Y-114312200D01*
X95081905Y-114312200D02*
X95034286Y-114264580D01*
X95034286Y-114264580D02*
X94986667Y-114169342D01*
X94986667Y-114169342D02*
X94986667Y-113883628D01*
X94986667Y-113883628D02*
X95034286Y-113788390D01*
X95034286Y-113788390D02*
X95081905Y-113740771D01*
X95081905Y-113740771D02*
X95177143Y-113693152D01*
X95177143Y-113693152D02*
X95367619Y-113693152D01*
X95367619Y-113693152D02*
X95462857Y-113740771D01*
X96320000Y-114359819D02*
X96320000Y-113836009D01*
X96320000Y-113836009D02*
X96272381Y-113740771D01*
X96272381Y-113740771D02*
X96177143Y-113693152D01*
X96177143Y-113693152D02*
X95986667Y-113693152D01*
X95986667Y-113693152D02*
X95891429Y-113740771D01*
X96320000Y-114312200D02*
X96224762Y-114359819D01*
X96224762Y-114359819D02*
X95986667Y-114359819D01*
X95986667Y-114359819D02*
X95891429Y-114312200D01*
X95891429Y-114312200D02*
X95843810Y-114216961D01*
X95843810Y-114216961D02*
X95843810Y-114121723D01*
X95843810Y-114121723D02*
X95891429Y-114026485D01*
X95891429Y-114026485D02*
X95986667Y-113978866D01*
X95986667Y-113978866D02*
X96224762Y-113978866D01*
X96224762Y-113978866D02*
X96320000Y-113931247D01*
X96796191Y-113693152D02*
X96796191Y-114693152D01*
X96796191Y-113740771D02*
X96891429Y-113693152D01*
X96891429Y-113693152D02*
X97081905Y-113693152D01*
X97081905Y-113693152D02*
X97177143Y-113740771D01*
X97177143Y-113740771D02*
X97224762Y-113788390D01*
X97224762Y-113788390D02*
X97272381Y-113883628D01*
X97272381Y-113883628D02*
X97272381Y-114169342D01*
X97272381Y-114169342D02*
X97224762Y-114264580D01*
X97224762Y-114264580D02*
X97177143Y-114312200D01*
X97177143Y-114312200D02*
X97081905Y-114359819D01*
X97081905Y-114359819D02*
X96891429Y-114359819D01*
X96891429Y-114359819D02*
X96796191Y-114312200D01*
X112760714Y-102834819D02*
X112760714Y-101834819D01*
X112760714Y-101834819D02*
X112998809Y-101834819D01*
X112998809Y-101834819D02*
X113141666Y-101882438D01*
X113141666Y-101882438D02*
X113236904Y-101977676D01*
X113236904Y-101977676D02*
X113284523Y-102072914D01*
X113284523Y-102072914D02*
X113332142Y-102263390D01*
X113332142Y-102263390D02*
X113332142Y-102406247D01*
X113332142Y-102406247D02*
X113284523Y-102596723D01*
X113284523Y-102596723D02*
X113236904Y-102691961D01*
X113236904Y-102691961D02*
X113141666Y-102787200D01*
X113141666Y-102787200D02*
X112998809Y-102834819D01*
X112998809Y-102834819D02*
X112760714Y-102834819D01*
X113665476Y-101834819D02*
X114284523Y-101834819D01*
X114284523Y-101834819D02*
X113951190Y-102215771D01*
X113951190Y-102215771D02*
X114094047Y-102215771D01*
X114094047Y-102215771D02*
X114189285Y-102263390D01*
X114189285Y-102263390D02*
X114236904Y-102311009D01*
X114236904Y-102311009D02*
X114284523Y-102406247D01*
X114284523Y-102406247D02*
X114284523Y-102644342D01*
X114284523Y-102644342D02*
X114236904Y-102739580D01*
X114236904Y-102739580D02*
X114189285Y-102787200D01*
X114189285Y-102787200D02*
X114094047Y-102834819D01*
X114094047Y-102834819D02*
X113808333Y-102834819D01*
X113808333Y-102834819D02*
X113713095Y-102787200D01*
X113713095Y-102787200D02*
X113665476Y-102739580D01*
X115236904Y-102834819D02*
X114665476Y-102834819D01*
X114951190Y-102834819D02*
X114951190Y-101834819D01*
X114951190Y-101834819D02*
X114855952Y-101977676D01*
X114855952Y-101977676D02*
X114760714Y-102072914D01*
X114760714Y-102072914D02*
X114665476Y-102120533D01*
X111832142Y-107074819D02*
X111260714Y-107074819D01*
X111546428Y-107074819D02*
X111546428Y-106074819D01*
X111546428Y-106074819D02*
X111451190Y-106217676D01*
X111451190Y-106217676D02*
X111355952Y-106312914D01*
X111355952Y-106312914D02*
X111260714Y-106360533D01*
X112260714Y-107074819D02*
X112260714Y-106074819D01*
X112260714Y-106074819D02*
X112832142Y-107074819D01*
X112832142Y-107074819D02*
X112832142Y-106074819D01*
X113784523Y-106074819D02*
X113308333Y-106074819D01*
X113308333Y-106074819D02*
X113260714Y-106551009D01*
X113260714Y-106551009D02*
X113308333Y-106503390D01*
X113308333Y-106503390D02*
X113403571Y-106455771D01*
X113403571Y-106455771D02*
X113641666Y-106455771D01*
X113641666Y-106455771D02*
X113736904Y-106503390D01*
X113736904Y-106503390D02*
X113784523Y-106551009D01*
X113784523Y-106551009D02*
X113832142Y-106646247D01*
X113832142Y-106646247D02*
X113832142Y-106884342D01*
X113832142Y-106884342D02*
X113784523Y-106979580D01*
X113784523Y-106979580D02*
X113736904Y-107027200D01*
X113736904Y-107027200D02*
X113641666Y-107074819D01*
X113641666Y-107074819D02*
X113403571Y-107074819D01*
X113403571Y-107074819D02*
X113308333Y-107027200D01*
X113308333Y-107027200D02*
X113260714Y-106979580D01*
X114403571Y-106503390D02*
X114308333Y-106455771D01*
X114308333Y-106455771D02*
X114260714Y-106408152D01*
X114260714Y-106408152D02*
X114213095Y-106312914D01*
X114213095Y-106312914D02*
X114213095Y-106265295D01*
X114213095Y-106265295D02*
X114260714Y-106170057D01*
X114260714Y-106170057D02*
X114308333Y-106122438D01*
X114308333Y-106122438D02*
X114403571Y-106074819D01*
X114403571Y-106074819D02*
X114594047Y-106074819D01*
X114594047Y-106074819D02*
X114689285Y-106122438D01*
X114689285Y-106122438D02*
X114736904Y-106170057D01*
X114736904Y-106170057D02*
X114784523Y-106265295D01*
X114784523Y-106265295D02*
X114784523Y-106312914D01*
X114784523Y-106312914D02*
X114736904Y-106408152D01*
X114736904Y-106408152D02*
X114689285Y-106455771D01*
X114689285Y-106455771D02*
X114594047Y-106503390D01*
X114594047Y-106503390D02*
X114403571Y-106503390D01*
X114403571Y-106503390D02*
X114308333Y-106551009D01*
X114308333Y-106551009D02*
X114260714Y-106598628D01*
X114260714Y-106598628D02*
X114213095Y-106693866D01*
X114213095Y-106693866D02*
X114213095Y-106884342D01*
X114213095Y-106884342D02*
X114260714Y-106979580D01*
X114260714Y-106979580D02*
X114308333Y-107027200D01*
X114308333Y-107027200D02*
X114403571Y-107074819D01*
X114403571Y-107074819D02*
X114594047Y-107074819D01*
X114594047Y-107074819D02*
X114689285Y-107027200D01*
X114689285Y-107027200D02*
X114736904Y-106979580D01*
X114736904Y-106979580D02*
X114784523Y-106884342D01*
X114784523Y-106884342D02*
X114784523Y-106693866D01*
X114784523Y-106693866D02*
X114736904Y-106598628D01*
X114736904Y-106598628D02*
X114689285Y-106551009D01*
X114689285Y-106551009D02*
X114594047Y-106503390D01*
X115736904Y-107074819D02*
X115165476Y-107074819D01*
X115451190Y-107074819D02*
X115451190Y-106074819D01*
X115451190Y-106074819D02*
X115355952Y-106217676D01*
X115355952Y-106217676D02*
X115260714Y-106312914D01*
X115260714Y-106312914D02*
X115165476Y-106360533D01*
X116213095Y-107074819D02*
X116403571Y-107074819D01*
X116403571Y-107074819D02*
X116498809Y-107027200D01*
X116498809Y-107027200D02*
X116546428Y-106979580D01*
X116546428Y-106979580D02*
X116641666Y-106836723D01*
X116641666Y-106836723D02*
X116689285Y-106646247D01*
X116689285Y-106646247D02*
X116689285Y-106265295D01*
X116689285Y-106265295D02*
X116641666Y-106170057D01*
X116641666Y-106170057D02*
X116594047Y-106122438D01*
X116594047Y-106122438D02*
X116498809Y-106074819D01*
X116498809Y-106074819D02*
X116308333Y-106074819D01*
X116308333Y-106074819D02*
X116213095Y-106122438D01*
X116213095Y-106122438D02*
X116165476Y-106170057D01*
X116165476Y-106170057D02*
X116117857Y-106265295D01*
X116117857Y-106265295D02*
X116117857Y-106503390D01*
X116117857Y-106503390D02*
X116165476Y-106598628D01*
X116165476Y-106598628D02*
X116213095Y-106646247D01*
X116213095Y-106646247D02*
X116308333Y-106693866D01*
X116308333Y-106693866D02*
X116498809Y-106693866D01*
X116498809Y-106693866D02*
X116594047Y-106646247D01*
X116594047Y-106646247D02*
X116641666Y-106598628D01*
X116641666Y-106598628D02*
X116689285Y-106503390D01*
X129656666Y-61204819D02*
X129656666Y-61919104D01*
X129656666Y-61919104D02*
X129609047Y-62061961D01*
X129609047Y-62061961D02*
X129513809Y-62157200D01*
X129513809Y-62157200D02*
X129370952Y-62204819D01*
X129370952Y-62204819D02*
X129275714Y-62204819D01*
X130561428Y-61204819D02*
X130370952Y-61204819D01*
X130370952Y-61204819D02*
X130275714Y-61252438D01*
X130275714Y-61252438D02*
X130228095Y-61300057D01*
X130228095Y-61300057D02*
X130132857Y-61442914D01*
X130132857Y-61442914D02*
X130085238Y-61633390D01*
X130085238Y-61633390D02*
X130085238Y-62014342D01*
X130085238Y-62014342D02*
X130132857Y-62109580D01*
X130132857Y-62109580D02*
X130180476Y-62157200D01*
X130180476Y-62157200D02*
X130275714Y-62204819D01*
X130275714Y-62204819D02*
X130466190Y-62204819D01*
X130466190Y-62204819D02*
X130561428Y-62157200D01*
X130561428Y-62157200D02*
X130609047Y-62109580D01*
X130609047Y-62109580D02*
X130656666Y-62014342D01*
X130656666Y-62014342D02*
X130656666Y-61776247D01*
X130656666Y-61776247D02*
X130609047Y-61681009D01*
X130609047Y-61681009D02*
X130561428Y-61633390D01*
X130561428Y-61633390D02*
X130466190Y-61585771D01*
X130466190Y-61585771D02*
X130275714Y-61585771D01*
X130275714Y-61585771D02*
X130180476Y-61633390D01*
X130180476Y-61633390D02*
X130132857Y-61681009D01*
X130132857Y-61681009D02*
X130085238Y-61776247D01*
X73380238Y-95309819D02*
X73380238Y-94309819D01*
X73951666Y-95309819D02*
X73523095Y-94738390D01*
X73951666Y-94309819D02*
X73380238Y-94881247D01*
X74761190Y-95262200D02*
X74665952Y-95309819D01*
X74665952Y-95309819D02*
X74475476Y-95309819D01*
X74475476Y-95309819D02*
X74380238Y-95262200D01*
X74380238Y-95262200D02*
X74332619Y-95166961D01*
X74332619Y-95166961D02*
X74332619Y-94786009D01*
X74332619Y-94786009D02*
X74380238Y-94690771D01*
X74380238Y-94690771D02*
X74475476Y-94643152D01*
X74475476Y-94643152D02*
X74665952Y-94643152D01*
X74665952Y-94643152D02*
X74761190Y-94690771D01*
X74761190Y-94690771D02*
X74808809Y-94786009D01*
X74808809Y-94786009D02*
X74808809Y-94881247D01*
X74808809Y-94881247D02*
X74332619Y-94976485D01*
X75142143Y-94643152D02*
X75380238Y-95309819D01*
X75618333Y-94643152D02*
X75380238Y-95309819D01*
X75380238Y-95309819D02*
X75285000Y-95547914D01*
X75285000Y-95547914D02*
X75237381Y-95595533D01*
X75237381Y-95595533D02*
X75142143Y-95643152D01*
X76427857Y-95262200D02*
X76332619Y-95309819D01*
X76332619Y-95309819D02*
X76142143Y-95309819D01*
X76142143Y-95309819D02*
X76046905Y-95262200D01*
X76046905Y-95262200D02*
X75999286Y-95214580D01*
X75999286Y-95214580D02*
X75951667Y-95119342D01*
X75951667Y-95119342D02*
X75951667Y-94833628D01*
X75951667Y-94833628D02*
X75999286Y-94738390D01*
X75999286Y-94738390D02*
X76046905Y-94690771D01*
X76046905Y-94690771D02*
X76142143Y-94643152D01*
X76142143Y-94643152D02*
X76332619Y-94643152D01*
X76332619Y-94643152D02*
X76427857Y-94690771D01*
X77285000Y-95309819D02*
X77285000Y-94786009D01*
X77285000Y-94786009D02*
X77237381Y-94690771D01*
X77237381Y-94690771D02*
X77142143Y-94643152D01*
X77142143Y-94643152D02*
X76951667Y-94643152D01*
X76951667Y-94643152D02*
X76856429Y-94690771D01*
X77285000Y-95262200D02*
X77189762Y-95309819D01*
X77189762Y-95309819D02*
X76951667Y-95309819D01*
X76951667Y-95309819D02*
X76856429Y-95262200D01*
X76856429Y-95262200D02*
X76808810Y-95166961D01*
X76808810Y-95166961D02*
X76808810Y-95071723D01*
X76808810Y-95071723D02*
X76856429Y-94976485D01*
X76856429Y-94976485D02*
X76951667Y-94928866D01*
X76951667Y-94928866D02*
X77189762Y-94928866D01*
X77189762Y-94928866D02*
X77285000Y-94881247D01*
X77761191Y-94643152D02*
X77761191Y-95643152D01*
X77761191Y-94690771D02*
X77856429Y-94643152D01*
X77856429Y-94643152D02*
X78046905Y-94643152D01*
X78046905Y-94643152D02*
X78142143Y-94690771D01*
X78142143Y-94690771D02*
X78189762Y-94738390D01*
X78189762Y-94738390D02*
X78237381Y-94833628D01*
X78237381Y-94833628D02*
X78237381Y-95119342D01*
X78237381Y-95119342D02*
X78189762Y-95214580D01*
X78189762Y-95214580D02*
X78142143Y-95262200D01*
X78142143Y-95262200D02*
X78046905Y-95309819D01*
X78046905Y-95309819D02*
X77856429Y-95309819D01*
X77856429Y-95309819D02*
X77761191Y-95262200D01*
X54380238Y-133409819D02*
X54380238Y-132409819D01*
X54951666Y-133409819D02*
X54523095Y-132838390D01*
X54951666Y-132409819D02*
X54380238Y-132981247D01*
X55761190Y-133362200D02*
X55665952Y-133409819D01*
X55665952Y-133409819D02*
X55475476Y-133409819D01*
X55475476Y-133409819D02*
X55380238Y-133362200D01*
X55380238Y-133362200D02*
X55332619Y-133266961D01*
X55332619Y-133266961D02*
X55332619Y-132886009D01*
X55332619Y-132886009D02*
X55380238Y-132790771D01*
X55380238Y-132790771D02*
X55475476Y-132743152D01*
X55475476Y-132743152D02*
X55665952Y-132743152D01*
X55665952Y-132743152D02*
X55761190Y-132790771D01*
X55761190Y-132790771D02*
X55808809Y-132886009D01*
X55808809Y-132886009D02*
X55808809Y-132981247D01*
X55808809Y-132981247D02*
X55332619Y-133076485D01*
X56142143Y-132743152D02*
X56380238Y-133409819D01*
X56618333Y-132743152D02*
X56380238Y-133409819D01*
X56380238Y-133409819D02*
X56285000Y-133647914D01*
X56285000Y-133647914D02*
X56237381Y-133695533D01*
X56237381Y-133695533D02*
X56142143Y-133743152D01*
X57427857Y-133362200D02*
X57332619Y-133409819D01*
X57332619Y-133409819D02*
X57142143Y-133409819D01*
X57142143Y-133409819D02*
X57046905Y-133362200D01*
X57046905Y-133362200D02*
X56999286Y-133314580D01*
X56999286Y-133314580D02*
X56951667Y-133219342D01*
X56951667Y-133219342D02*
X56951667Y-132933628D01*
X56951667Y-132933628D02*
X56999286Y-132838390D01*
X56999286Y-132838390D02*
X57046905Y-132790771D01*
X57046905Y-132790771D02*
X57142143Y-132743152D01*
X57142143Y-132743152D02*
X57332619Y-132743152D01*
X57332619Y-132743152D02*
X57427857Y-132790771D01*
X58285000Y-133409819D02*
X58285000Y-132886009D01*
X58285000Y-132886009D02*
X58237381Y-132790771D01*
X58237381Y-132790771D02*
X58142143Y-132743152D01*
X58142143Y-132743152D02*
X57951667Y-132743152D01*
X57951667Y-132743152D02*
X57856429Y-132790771D01*
X58285000Y-133362200D02*
X58189762Y-133409819D01*
X58189762Y-133409819D02*
X57951667Y-133409819D01*
X57951667Y-133409819D02*
X57856429Y-133362200D01*
X57856429Y-133362200D02*
X57808810Y-133266961D01*
X57808810Y-133266961D02*
X57808810Y-133171723D01*
X57808810Y-133171723D02*
X57856429Y-133076485D01*
X57856429Y-133076485D02*
X57951667Y-133028866D01*
X57951667Y-133028866D02*
X58189762Y-133028866D01*
X58189762Y-133028866D02*
X58285000Y-132981247D01*
X58761191Y-132743152D02*
X58761191Y-133743152D01*
X58761191Y-132790771D02*
X58856429Y-132743152D01*
X58856429Y-132743152D02*
X59046905Y-132743152D01*
X59046905Y-132743152D02*
X59142143Y-132790771D01*
X59142143Y-132790771D02*
X59189762Y-132838390D01*
X59189762Y-132838390D02*
X59237381Y-132933628D01*
X59237381Y-132933628D02*
X59237381Y-133219342D01*
X59237381Y-133219342D02*
X59189762Y-133314580D01*
X59189762Y-133314580D02*
X59142143Y-133362200D01*
X59142143Y-133362200D02*
X59046905Y-133409819D01*
X59046905Y-133409819D02*
X58856429Y-133409819D01*
X58856429Y-133409819D02*
X58761191Y-133362200D01*
X111380238Y-95309819D02*
X111380238Y-94309819D01*
X111951666Y-95309819D02*
X111523095Y-94738390D01*
X111951666Y-94309819D02*
X111380238Y-94881247D01*
X112761190Y-95262200D02*
X112665952Y-95309819D01*
X112665952Y-95309819D02*
X112475476Y-95309819D01*
X112475476Y-95309819D02*
X112380238Y-95262200D01*
X112380238Y-95262200D02*
X112332619Y-95166961D01*
X112332619Y-95166961D02*
X112332619Y-94786009D01*
X112332619Y-94786009D02*
X112380238Y-94690771D01*
X112380238Y-94690771D02*
X112475476Y-94643152D01*
X112475476Y-94643152D02*
X112665952Y-94643152D01*
X112665952Y-94643152D02*
X112761190Y-94690771D01*
X112761190Y-94690771D02*
X112808809Y-94786009D01*
X112808809Y-94786009D02*
X112808809Y-94881247D01*
X112808809Y-94881247D02*
X112332619Y-94976485D01*
X113142143Y-94643152D02*
X113380238Y-95309819D01*
X113618333Y-94643152D02*
X113380238Y-95309819D01*
X113380238Y-95309819D02*
X113285000Y-95547914D01*
X113285000Y-95547914D02*
X113237381Y-95595533D01*
X113237381Y-95595533D02*
X113142143Y-95643152D01*
X114427857Y-95262200D02*
X114332619Y-95309819D01*
X114332619Y-95309819D02*
X114142143Y-95309819D01*
X114142143Y-95309819D02*
X114046905Y-95262200D01*
X114046905Y-95262200D02*
X113999286Y-95214580D01*
X113999286Y-95214580D02*
X113951667Y-95119342D01*
X113951667Y-95119342D02*
X113951667Y-94833628D01*
X113951667Y-94833628D02*
X113999286Y-94738390D01*
X113999286Y-94738390D02*
X114046905Y-94690771D01*
X114046905Y-94690771D02*
X114142143Y-94643152D01*
X114142143Y-94643152D02*
X114332619Y-94643152D01*
X114332619Y-94643152D02*
X114427857Y-94690771D01*
X115285000Y-95309819D02*
X115285000Y-94786009D01*
X115285000Y-94786009D02*
X115237381Y-94690771D01*
X115237381Y-94690771D02*
X115142143Y-94643152D01*
X115142143Y-94643152D02*
X114951667Y-94643152D01*
X114951667Y-94643152D02*
X114856429Y-94690771D01*
X115285000Y-95262200D02*
X115189762Y-95309819D01*
X115189762Y-95309819D02*
X114951667Y-95309819D01*
X114951667Y-95309819D02*
X114856429Y-95262200D01*
X114856429Y-95262200D02*
X114808810Y-95166961D01*
X114808810Y-95166961D02*
X114808810Y-95071723D01*
X114808810Y-95071723D02*
X114856429Y-94976485D01*
X114856429Y-94976485D02*
X114951667Y-94928866D01*
X114951667Y-94928866D02*
X115189762Y-94928866D01*
X115189762Y-94928866D02*
X115285000Y-94881247D01*
X115761191Y-94643152D02*
X115761191Y-95643152D01*
X115761191Y-94690771D02*
X115856429Y-94643152D01*
X115856429Y-94643152D02*
X116046905Y-94643152D01*
X116046905Y-94643152D02*
X116142143Y-94690771D01*
X116142143Y-94690771D02*
X116189762Y-94738390D01*
X116189762Y-94738390D02*
X116237381Y-94833628D01*
X116237381Y-94833628D02*
X116237381Y-95119342D01*
X116237381Y-95119342D02*
X116189762Y-95214580D01*
X116189762Y-95214580D02*
X116142143Y-95262200D01*
X116142143Y-95262200D02*
X116046905Y-95309819D01*
X116046905Y-95309819D02*
X115856429Y-95309819D01*
X115856429Y-95309819D02*
X115761191Y-95262200D01*
X54380238Y-95309819D02*
X54380238Y-94309819D01*
X54951666Y-95309819D02*
X54523095Y-94738390D01*
X54951666Y-94309819D02*
X54380238Y-94881247D01*
X55761190Y-95262200D02*
X55665952Y-95309819D01*
X55665952Y-95309819D02*
X55475476Y-95309819D01*
X55475476Y-95309819D02*
X55380238Y-95262200D01*
X55380238Y-95262200D02*
X55332619Y-95166961D01*
X55332619Y-95166961D02*
X55332619Y-94786009D01*
X55332619Y-94786009D02*
X55380238Y-94690771D01*
X55380238Y-94690771D02*
X55475476Y-94643152D01*
X55475476Y-94643152D02*
X55665952Y-94643152D01*
X55665952Y-94643152D02*
X55761190Y-94690771D01*
X55761190Y-94690771D02*
X55808809Y-94786009D01*
X55808809Y-94786009D02*
X55808809Y-94881247D01*
X55808809Y-94881247D02*
X55332619Y-94976485D01*
X56142143Y-94643152D02*
X56380238Y-95309819D01*
X56618333Y-94643152D02*
X56380238Y-95309819D01*
X56380238Y-95309819D02*
X56285000Y-95547914D01*
X56285000Y-95547914D02*
X56237381Y-95595533D01*
X56237381Y-95595533D02*
X56142143Y-95643152D01*
X57427857Y-95262200D02*
X57332619Y-95309819D01*
X57332619Y-95309819D02*
X57142143Y-95309819D01*
X57142143Y-95309819D02*
X57046905Y-95262200D01*
X57046905Y-95262200D02*
X56999286Y-95214580D01*
X56999286Y-95214580D02*
X56951667Y-95119342D01*
X56951667Y-95119342D02*
X56951667Y-94833628D01*
X56951667Y-94833628D02*
X56999286Y-94738390D01*
X56999286Y-94738390D02*
X57046905Y-94690771D01*
X57046905Y-94690771D02*
X57142143Y-94643152D01*
X57142143Y-94643152D02*
X57332619Y-94643152D01*
X57332619Y-94643152D02*
X57427857Y-94690771D01*
X58285000Y-95309819D02*
X58285000Y-94786009D01*
X58285000Y-94786009D02*
X58237381Y-94690771D01*
X58237381Y-94690771D02*
X58142143Y-94643152D01*
X58142143Y-94643152D02*
X57951667Y-94643152D01*
X57951667Y-94643152D02*
X57856429Y-94690771D01*
X58285000Y-95262200D02*
X58189762Y-95309819D01*
X58189762Y-95309819D02*
X57951667Y-95309819D01*
X57951667Y-95309819D02*
X57856429Y-95262200D01*
X57856429Y-95262200D02*
X57808810Y-95166961D01*
X57808810Y-95166961D02*
X57808810Y-95071723D01*
X57808810Y-95071723D02*
X57856429Y-94976485D01*
X57856429Y-94976485D02*
X57951667Y-94928866D01*
X57951667Y-94928866D02*
X58189762Y-94928866D01*
X58189762Y-94928866D02*
X58285000Y-94881247D01*
X58761191Y-94643152D02*
X58761191Y-95643152D01*
X58761191Y-94690771D02*
X58856429Y-94643152D01*
X58856429Y-94643152D02*
X59046905Y-94643152D01*
X59046905Y-94643152D02*
X59142143Y-94690771D01*
X59142143Y-94690771D02*
X59189762Y-94738390D01*
X59189762Y-94738390D02*
X59237381Y-94833628D01*
X59237381Y-94833628D02*
X59237381Y-95119342D01*
X59237381Y-95119342D02*
X59189762Y-95214580D01*
X59189762Y-95214580D02*
X59142143Y-95262200D01*
X59142143Y-95262200D02*
X59046905Y-95309819D01*
X59046905Y-95309819D02*
X58856429Y-95309819D01*
X58856429Y-95309819D02*
X58761191Y-95262200D01*
D12*
%TO.C,D21*%
X72165000Y-123500000D02*
X73975000Y-123500000D01*
X73975000Y-122500000D02*
X73975000Y-124500000D01*
X73975000Y-124500000D02*
X77975000Y-124500000D01*
X74475000Y-122500000D02*
X74475000Y-124500000D01*
X74575000Y-122500000D02*
X74575000Y-124500000D01*
X74675000Y-122500000D02*
X74675000Y-124500000D01*
X77975000Y-122500000D02*
X73975000Y-122500000D01*
X77975000Y-124500000D02*
X77975000Y-122500000D01*
X79785000Y-123500000D02*
X77975000Y-123500000D01*
%TO.C,R1*%
X83205000Y-82000000D02*
X85135000Y-82000000D01*
X85135000Y-80750000D02*
X85135000Y-83250000D01*
X85135000Y-83250000D02*
X91435000Y-83250000D01*
X91435000Y-80750000D02*
X85135000Y-80750000D01*
X91435000Y-83250000D02*
X91435000Y-80750000D01*
X93365000Y-82000000D02*
X91435000Y-82000000D01*
%TO.C,SW18*%
X126475000Y-107555000D02*
X139175000Y-107555000D01*
X126475000Y-120255000D02*
X126475000Y-107555000D01*
X139175000Y-107555000D02*
X139175000Y-120255000D01*
X139175000Y-120255000D02*
X126475000Y-120255000D01*
%TO.C,SW22*%
X88375000Y-88505000D02*
X101075000Y-88505000D01*
X88375000Y-101205000D02*
X88375000Y-88505000D01*
X101075000Y-88505000D02*
X101075000Y-101205000D01*
X101075000Y-101205000D02*
X88375000Y-101205000D01*
%TO.C,SW11*%
X107425000Y-126605000D02*
X120125000Y-126605000D01*
X107425000Y-139305000D02*
X107425000Y-126605000D01*
X120125000Y-126605000D02*
X120125000Y-139305000D01*
X120125000Y-139305000D02*
X107425000Y-139305000D01*
%TO.C,D19*%
X110165000Y-142500000D02*
X111975000Y-142500000D01*
X111975000Y-141500000D02*
X111975000Y-143500000D01*
X111975000Y-143500000D02*
X115975000Y-143500000D01*
X112475000Y-141500000D02*
X112475000Y-143500000D01*
X112575000Y-141500000D02*
X112575000Y-143500000D01*
X112675000Y-141500000D02*
X112675000Y-143500000D01*
X115975000Y-141500000D02*
X111975000Y-141500000D01*
X115975000Y-143500000D02*
X115975000Y-141500000D01*
X117785000Y-142500000D02*
X115975000Y-142500000D01*
%TO.C,R5*%
X60125000Y-72500000D02*
X62055000Y-72500000D01*
X62055000Y-71250000D02*
X62055000Y-73750000D01*
X62055000Y-73750000D02*
X68355000Y-73750000D01*
X68355000Y-71250000D02*
X62055000Y-71250000D01*
X68355000Y-73750000D02*
X68355000Y-71250000D01*
X70285000Y-72500000D02*
X68355000Y-72500000D01*
%TO.C,D2*%
X109285000Y-72000000D02*
X111095000Y-72000000D01*
X111095000Y-71000000D02*
X111095000Y-73000000D01*
X111095000Y-73000000D02*
X115095000Y-73000000D01*
X111595000Y-71000000D02*
X111595000Y-73000000D01*
X111695000Y-71000000D02*
X111695000Y-73000000D01*
X111795000Y-71000000D02*
X111795000Y-73000000D01*
X115095000Y-71000000D02*
X111095000Y-71000000D01*
X115095000Y-73000000D02*
X115095000Y-71000000D01*
X116905000Y-72000000D02*
X115095000Y-72000000D01*
%TO.C,U1*%
X74275000Y-65635000D02*
X91055000Y-65635000D01*
X74275000Y-71985000D02*
X74275000Y-65635000D01*
X91055000Y-65635000D02*
X92055000Y-66635000D01*
X92055000Y-66635000D02*
X92055000Y-71985000D01*
X92055000Y-71985000D02*
X74275000Y-71985000D01*
%TO.C,SW23*%
X107425000Y-88505000D02*
X120125000Y-88505000D01*
X107425000Y-101205000D02*
X107425000Y-88505000D01*
X120125000Y-88505000D02*
X120125000Y-101205000D01*
X120125000Y-101205000D02*
X107425000Y-101205000D01*
%TO.C,D20*%
X53165000Y-123555000D02*
X54975000Y-123555000D01*
X54975000Y-122555000D02*
X54975000Y-124555000D01*
X54975000Y-124555000D02*
X58975000Y-124555000D01*
X55475000Y-122555000D02*
X55475000Y-124555000D01*
X55575000Y-122555000D02*
X55575000Y-124555000D01*
X55675000Y-122555000D02*
X55675000Y-124555000D01*
X58975000Y-122555000D02*
X54975000Y-122555000D01*
X58975000Y-124555000D02*
X58975000Y-122555000D01*
X60785000Y-123555000D02*
X58975000Y-123555000D01*
%TO.C,SW8*%
X50275000Y-126605000D02*
X62975000Y-126605000D01*
X50275000Y-139305000D02*
X50275000Y-126605000D01*
X62975000Y-126605000D02*
X62975000Y-139305000D01*
X62975000Y-139305000D02*
X50275000Y-139305000D01*
%TO.C,D16*%
X53165000Y-142555000D02*
X54975000Y-142555000D01*
X54975000Y-141555000D02*
X54975000Y-143555000D01*
X54975000Y-143555000D02*
X58975000Y-143555000D01*
X55475000Y-141555000D02*
X55475000Y-143555000D01*
X55575000Y-141555000D02*
X55575000Y-143555000D01*
X55675000Y-141555000D02*
X55675000Y-143555000D01*
X58975000Y-141555000D02*
X54975000Y-141555000D01*
X58975000Y-143555000D02*
X58975000Y-141555000D01*
X60785000Y-142555000D02*
X58975000Y-142555000D01*
D13*
%TO.C,SW27*%
X47435000Y-67350000D02*
X47435000Y-80050000D01*
X48785000Y-80050000D02*
X52785000Y-80050000D01*
X52785000Y-67350000D02*
X48785000Y-67350000D01*
X54135000Y-80050000D02*
X54135000Y-67350000D01*
D14*
X50885000Y-66650000D02*
G75*
G02*
X50685000Y-66650000I-100000J0D01*
G01*
X50685000Y-66650000D02*
G75*
G02*
X50885000Y-66650000I100000J0D01*
G01*
D12*
%TO.C,J3*%
X87915000Y-48425000D02*
X90455000Y-48425000D01*
X87915000Y-53505000D02*
X87915000Y-48425000D01*
X89820000Y-53505000D02*
X87915000Y-53505000D01*
X90455000Y-48425000D02*
X90455000Y-52870000D01*
X90455000Y-52870000D02*
X89820000Y-53505000D01*
%TO.C,D3*%
X57745000Y-77500000D02*
X59555000Y-77500000D01*
X59555000Y-76500000D02*
X59555000Y-78500000D01*
X59555000Y-78500000D02*
X63555000Y-78500000D01*
X60055000Y-76500000D02*
X60055000Y-78500000D01*
X60155000Y-76500000D02*
X60155000Y-78500000D01*
X60255000Y-76500000D02*
X60255000Y-78500000D01*
X63555000Y-76500000D02*
X59555000Y-76500000D01*
X63555000Y-78500000D02*
X63555000Y-76500000D01*
X65365000Y-77500000D02*
X63555000Y-77500000D01*
%TO.C,D5*%
X49015000Y-62333810D02*
X49015000Y-64666190D01*
X49015000Y-62333810D02*
G75*
G02*
X49014445Y-64665476I1500000J-1166190D01*
G01*
X52015000Y-63500000D02*
G75*
G02*
X49015000Y-63500000I-1500000J0D01*
G01*
X49015000Y-63500000D02*
G75*
G02*
X52015000Y-63500000I1500000J0D01*
G01*
%TO.C,C1*%
X92946395Y-76662500D02*
X93446395Y-76662500D01*
X93196395Y-76412500D02*
X93196395Y-76912500D01*
X97580000Y-77750000D02*
G75*
G02*
X92580000Y-77750000I-2500000J0D01*
G01*
X92580000Y-77750000D02*
G75*
G02*
X97580000Y-77750000I2500000J0D01*
G01*
%TO.C,D17*%
X72165000Y-142555000D02*
X73975000Y-142555000D01*
X73975000Y-141555000D02*
X73975000Y-143555000D01*
X73975000Y-143555000D02*
X77975000Y-143555000D01*
X74475000Y-141555000D02*
X74475000Y-143555000D01*
X74575000Y-141555000D02*
X74575000Y-143555000D01*
X74675000Y-141555000D02*
X74675000Y-143555000D01*
X77975000Y-141555000D02*
X73975000Y-141555000D01*
X77975000Y-143555000D02*
X77975000Y-141555000D01*
X79785000Y-142555000D02*
X77975000Y-142555000D01*
%TO.C,J7*%
X136015000Y-58590000D02*
X136650000Y-57955000D01*
X136015000Y-63035000D02*
X136015000Y-58590000D01*
X136650000Y-57955000D02*
X138555000Y-57955000D01*
X138555000Y-57955000D02*
X138555000Y-63035000D01*
X138555000Y-63035000D02*
X136015000Y-63035000D01*
%TO.C,SW12*%
X50275000Y-107555000D02*
X62975000Y-107555000D01*
X50275000Y-120255000D02*
X50275000Y-107555000D01*
X62975000Y-107555000D02*
X62975000Y-120255000D01*
X62975000Y-120255000D02*
X50275000Y-120255000D01*
%TO.C,D24*%
X72165000Y-104555000D02*
X73975000Y-104555000D01*
X73975000Y-103555000D02*
X73975000Y-105555000D01*
X73975000Y-105555000D02*
X77975000Y-105555000D01*
X74475000Y-103555000D02*
X74475000Y-105555000D01*
X74575000Y-103555000D02*
X74575000Y-105555000D01*
X74675000Y-103555000D02*
X74675000Y-105555000D01*
X77975000Y-103555000D02*
X73975000Y-103555000D01*
X77975000Y-105555000D02*
X77975000Y-103555000D01*
X79785000Y-104555000D02*
X77975000Y-104555000D01*
%TO.C,SW24*%
X126475000Y-88505000D02*
X139175000Y-88505000D01*
X126475000Y-101205000D02*
X126475000Y-88505000D01*
X139175000Y-88505000D02*
X139175000Y-101205000D01*
X139175000Y-101205000D02*
X126475000Y-101205000D01*
%TO.C,C3*%
X67231395Y-76662500D02*
X67731395Y-76662500D01*
X67481395Y-76412500D02*
X67481395Y-76912500D01*
X71865000Y-77750000D02*
G75*
G02*
X66865000Y-77750000I-2500000J0D01*
G01*
X66865000Y-77750000D02*
G75*
G02*
X71865000Y-77750000I2500000J0D01*
G01*
%TO.C,J8*%
X136015000Y-48890000D02*
X136650000Y-48255000D01*
X136015000Y-53335000D02*
X136015000Y-48890000D01*
X136650000Y-48255000D02*
X138555000Y-48255000D01*
X138555000Y-48255000D02*
X138555000Y-53335000D01*
X138555000Y-53335000D02*
X136015000Y-53335000D01*
%TO.C,J4*%
X92975000Y-60485000D02*
X99960000Y-60485000D01*
X92975000Y-63025000D02*
X92975000Y-60485000D01*
X99960000Y-60485000D02*
X100595000Y-61120000D01*
X100595000Y-61120000D02*
X100595000Y-63025000D01*
X100595000Y-63025000D02*
X92975000Y-63025000D01*
%TO.C,C5*%
X103872500Y-70911283D02*
X103872500Y-71411283D01*
X104122500Y-71161283D02*
X103622500Y-71161283D01*
X105285000Y-73044888D02*
G75*
G02*
X100285000Y-73044888I-2500000J0D01*
G01*
X100285000Y-73044888D02*
G75*
G02*
X105285000Y-73044888I2500000J0D01*
G01*
%TO.C,D26*%
X129165000Y-123555000D02*
X130975000Y-123555000D01*
X130975000Y-122555000D02*
X130975000Y-124555000D01*
X130975000Y-124555000D02*
X134975000Y-124555000D01*
X131475000Y-122555000D02*
X131475000Y-124555000D01*
X131575000Y-122555000D02*
X131575000Y-124555000D01*
X131675000Y-122555000D02*
X131675000Y-124555000D01*
X134975000Y-122555000D02*
X130975000Y-122555000D01*
X134975000Y-124555000D02*
X134975000Y-122555000D01*
X136785000Y-123555000D02*
X134975000Y-123555000D01*
%TO.C,SW25*%
X129545000Y-69000000D02*
X129545000Y-79000000D01*
X129545000Y-69000000D02*
X139545000Y-69000000D01*
X129545000Y-79000000D02*
X139545000Y-79000000D01*
X139545000Y-69000000D02*
X139545000Y-79000000D01*
%TO.C,R3*%
X57705000Y-82000000D02*
X59635000Y-82000000D01*
X59635000Y-80750000D02*
X59635000Y-83250000D01*
X59635000Y-83250000D02*
X65935000Y-83250000D01*
X65935000Y-80750000D02*
X59635000Y-80750000D01*
X65935000Y-83250000D02*
X65935000Y-80750000D01*
X67865000Y-82000000D02*
X65935000Y-82000000D01*
%TO.C,SW15*%
X107425000Y-107555000D02*
X120125000Y-107555000D01*
X107425000Y-120255000D02*
X107425000Y-107555000D01*
X120125000Y-107555000D02*
X120125000Y-120255000D01*
X120125000Y-120255000D02*
X107425000Y-120255000D01*
%TO.C,D30*%
X91165000Y-104555000D02*
X92975000Y-104555000D01*
X92975000Y-103555000D02*
X92975000Y-105555000D01*
X92975000Y-105555000D02*
X96975000Y-105555000D01*
X93475000Y-103555000D02*
X93475000Y-105555000D01*
X93575000Y-103555000D02*
X93575000Y-105555000D01*
X93675000Y-103555000D02*
X93675000Y-105555000D01*
X96975000Y-103555000D02*
X92975000Y-103555000D01*
X96975000Y-105555000D02*
X96975000Y-103555000D01*
X98785000Y-104555000D02*
X96975000Y-104555000D01*
%TO.C,SW20*%
X126475000Y-126605000D02*
X139175000Y-126605000D01*
X126475000Y-139305000D02*
X126475000Y-126605000D01*
X139175000Y-126605000D02*
X139175000Y-139305000D01*
X139175000Y-139305000D02*
X126475000Y-139305000D01*
%TO.C,D22*%
X91165000Y-123500000D02*
X92975000Y-123500000D01*
X92975000Y-122500000D02*
X92975000Y-124500000D01*
X92975000Y-124500000D02*
X96975000Y-124500000D01*
X93475000Y-122500000D02*
X93475000Y-124500000D01*
X93575000Y-122500000D02*
X93575000Y-124500000D01*
X93675000Y-122500000D02*
X93675000Y-124500000D01*
X96975000Y-122500000D02*
X92975000Y-122500000D01*
X96975000Y-124500000D02*
X96975000Y-122500000D01*
X98785000Y-123500000D02*
X96975000Y-123500000D01*
%TO.C,RN1*%
X100175000Y-80750000D02*
X100175000Y-83250000D01*
X100175000Y-83250000D02*
X123075000Y-83250000D01*
X120515000Y-83250000D02*
X120515000Y-80750000D01*
X123075000Y-80750000D02*
X100175000Y-80750000D01*
X123075000Y-83250000D02*
X123075000Y-80750000D01*
%TO.C,SW14*%
X88375000Y-107555000D02*
X101075000Y-107555000D01*
X88375000Y-120255000D02*
X88375000Y-107555000D01*
X101075000Y-107555000D02*
X101075000Y-120255000D01*
X101075000Y-120255000D02*
X88375000Y-120255000D01*
%TO.C,J2*%
X96445000Y-48190000D02*
X128195000Y-48190000D01*
X96445000Y-53270000D02*
X96445000Y-48190000D01*
X128195000Y-48190000D02*
X129465000Y-49460000D01*
X129465000Y-49460000D02*
X129465000Y-53270000D01*
X129465000Y-53270000D02*
X96445000Y-53270000D01*
%TO.C,D18*%
X91165000Y-142555000D02*
X92975000Y-142555000D01*
X92975000Y-141555000D02*
X92975000Y-143555000D01*
X92975000Y-143555000D02*
X96975000Y-143555000D01*
X93475000Y-141555000D02*
X93475000Y-143555000D01*
X93575000Y-141555000D02*
X93575000Y-143555000D01*
X93675000Y-141555000D02*
X93675000Y-143555000D01*
X96975000Y-141555000D02*
X92975000Y-141555000D01*
X96975000Y-143555000D02*
X96975000Y-141555000D01*
X98785000Y-142555000D02*
X96975000Y-142555000D01*
%TO.C,SW10*%
X88375000Y-126605000D02*
X101075000Y-126605000D01*
X88375000Y-139305000D02*
X88375000Y-126605000D01*
X101075000Y-126605000D02*
X101075000Y-139305000D01*
X101075000Y-139305000D02*
X88375000Y-139305000D01*
%TO.C,SW13*%
X69325000Y-107555000D02*
X82025000Y-107555000D01*
X69325000Y-120255000D02*
X69325000Y-107555000D01*
X82025000Y-107555000D02*
X82025000Y-120255000D01*
X82025000Y-120255000D02*
X69325000Y-120255000D01*
%TO.C,D25*%
X53165000Y-104555000D02*
X54975000Y-104555000D01*
X54975000Y-103555000D02*
X54975000Y-105555000D01*
X54975000Y-105555000D02*
X58975000Y-105555000D01*
X55475000Y-103555000D02*
X55475000Y-105555000D01*
X55575000Y-103555000D02*
X55575000Y-105555000D01*
X55675000Y-103555000D02*
X55675000Y-105555000D01*
X58975000Y-103555000D02*
X54975000Y-103555000D01*
X58975000Y-105555000D02*
X58975000Y-103555000D01*
X60785000Y-104555000D02*
X58975000Y-104555000D01*
%TO.C,J1*%
X51335000Y-48390000D02*
X83085000Y-48390000D01*
X51335000Y-53470000D02*
X51335000Y-48390000D01*
X83085000Y-48390000D02*
X84355000Y-49660000D01*
X84355000Y-49660000D02*
X84355000Y-53470000D01*
X84355000Y-53470000D02*
X51335000Y-53470000D01*
%TO.C,SW9*%
X69325000Y-126605000D02*
X82025000Y-126605000D01*
X69325000Y-139305000D02*
X69325000Y-126605000D01*
X82025000Y-126605000D02*
X82025000Y-139305000D01*
X82025000Y-139305000D02*
X69325000Y-139305000D01*
%TO.C,R2*%
X109285000Y-76500000D02*
X111215000Y-76500000D01*
X111215000Y-75250000D02*
X111215000Y-77750000D01*
X111215000Y-77750000D02*
X117515000Y-77750000D01*
X117515000Y-75250000D02*
X111215000Y-75250000D01*
X117515000Y-77750000D02*
X117515000Y-75250000D01*
X119445000Y-76500000D02*
X117515000Y-76500000D01*
%TO.C,R4*%
X60125000Y-69000000D02*
X62055000Y-69000000D01*
X62055000Y-67750000D02*
X62055000Y-70250000D01*
X62055000Y-70250000D02*
X68355000Y-70250000D01*
X68355000Y-67750000D02*
X62055000Y-67750000D01*
X68355000Y-70250000D02*
X68355000Y-67750000D01*
X70285000Y-69000000D02*
X68355000Y-69000000D01*
%TO.C,D1*%
X83270000Y-77445000D02*
X85080000Y-77445000D01*
X85080000Y-76445000D02*
X85080000Y-78445000D01*
X85080000Y-78445000D02*
X89080000Y-78445000D01*
X85580000Y-76445000D02*
X85580000Y-78445000D01*
X85680000Y-76445000D02*
X85680000Y-78445000D01*
X85780000Y-76445000D02*
X85780000Y-78445000D01*
X89080000Y-76445000D02*
X85080000Y-76445000D01*
X89080000Y-78445000D02*
X89080000Y-76445000D01*
X90890000Y-77445000D02*
X89080000Y-77445000D01*
%TO.C,J5*%
X103735000Y-60480000D02*
X123420000Y-60480000D01*
X103735000Y-63020000D02*
X103735000Y-60480000D01*
X123420000Y-60480000D02*
X124055000Y-61115000D01*
X124055000Y-61115000D02*
X124055000Y-63020000D01*
X124055000Y-63020000D02*
X103735000Y-63020000D01*
%TO.C,C2*%
X118946283Y-71162500D02*
X119446283Y-71162500D01*
X119196283Y-70912500D02*
X119196283Y-71412500D01*
X123579888Y-72250000D02*
G75*
G02*
X118579888Y-72250000I-2500000J0D01*
G01*
X118579888Y-72250000D02*
G75*
G02*
X123579888Y-72250000I2500000J0D01*
G01*
%TO.C,SW17*%
X50275000Y-88505000D02*
X62975000Y-88505000D01*
X50275000Y-101205000D02*
X50275000Y-88505000D01*
X62975000Y-88505000D02*
X62975000Y-101205000D01*
X62975000Y-101205000D02*
X50275000Y-101205000D01*
%TO.C,D23*%
X110165000Y-123555000D02*
X111975000Y-123555000D01*
X111975000Y-122555000D02*
X111975000Y-124555000D01*
X111975000Y-124555000D02*
X115975000Y-124555000D01*
X112475000Y-122555000D02*
X112475000Y-124555000D01*
X112575000Y-122555000D02*
X112575000Y-124555000D01*
X112675000Y-122555000D02*
X112675000Y-124555000D01*
X115975000Y-122555000D02*
X111975000Y-122555000D01*
X115975000Y-124555000D02*
X115975000Y-122555000D01*
X117785000Y-123555000D02*
X115975000Y-123555000D01*
%TO.C,SW16*%
X69325000Y-88505000D02*
X82025000Y-88505000D01*
X69325000Y-101205000D02*
X69325000Y-88505000D01*
X82025000Y-88505000D02*
X82025000Y-101205000D01*
X82025000Y-101205000D02*
X69325000Y-101205000D01*
%TO.C,D4*%
X60515000Y-62333810D02*
X60515000Y-64666190D01*
X60515000Y-62333810D02*
G75*
G02*
X60514445Y-64665476I1500000J-1166190D01*
G01*
X63515000Y-63500000D02*
G75*
G02*
X60515000Y-63500000I-1500000J0D01*
G01*
X60515000Y-63500000D02*
G75*
G02*
X63515000Y-63500000I1500000J0D01*
G01*
%TO.C,D28*%
X129165000Y-142555000D02*
X130975000Y-142555000D01*
X130975000Y-141555000D02*
X130975000Y-143555000D01*
X130975000Y-143555000D02*
X134975000Y-143555000D01*
X131475000Y-141555000D02*
X131475000Y-143555000D01*
X131575000Y-141555000D02*
X131575000Y-143555000D01*
X131675000Y-141555000D02*
X131675000Y-143555000D01*
X134975000Y-141555000D02*
X130975000Y-141555000D01*
X134975000Y-143555000D02*
X134975000Y-141555000D01*
X136785000Y-142555000D02*
X134975000Y-142555000D01*
%TO.C,C4*%
X75535000Y-74750000D02*
X75535000Y-77250000D01*
X75535000Y-77250000D02*
X80535000Y-77250000D01*
X80535000Y-74750000D02*
X75535000Y-74750000D01*
X80535000Y-77250000D02*
X80535000Y-74750000D01*
%TO.C,D31*%
X110165000Y-104500000D02*
X111975000Y-104500000D01*
X111975000Y-103500000D02*
X111975000Y-105500000D01*
X111975000Y-105500000D02*
X115975000Y-105500000D01*
X112475000Y-103500000D02*
X112475000Y-105500000D01*
X112575000Y-103500000D02*
X112575000Y-105500000D01*
X112675000Y-103500000D02*
X112675000Y-105500000D01*
X115975000Y-103500000D02*
X111975000Y-103500000D01*
X115975000Y-105500000D02*
X115975000Y-103500000D01*
X117785000Y-104500000D02*
X115975000Y-104500000D01*
%TO.C,J6*%
X127450000Y-60480000D02*
X131895000Y-60480000D01*
X127450000Y-63020000D02*
X127450000Y-60480000D01*
X131895000Y-60480000D02*
X132530000Y-61115000D01*
X132530000Y-61115000D02*
X132530000Y-63020000D01*
X132530000Y-63020000D02*
X127450000Y-63020000D01*
%TD*%
M02*
