%TF.GenerationSoftware,KiCad,Pcbnew,9.0.2+1*%
%TF.CreationDate,2025-06-13T17:56:32+09:00*%
%TF.ProjectId,kp25tk,6b703235-746b-42e6-9b69-6361645f7063,0.0.8*%
%TF.SameCoordinates,Original*%
%TF.FileFunction,Soldermask,Top*%
%TF.FilePolarity,Negative*%
%FSLAX46Y46*%
G04 Gerber Fmt 4.6, Leading zero omitted, Abs format (unit mm)*
G04 Created by KiCad (PCBNEW 9.0.2+1) date 2025-06-13 17:56:32*
%MOMM*%
%LPD*%
G01*
G04 APERTURE LIST*
G04 Aperture macros list*
%AMRoundRect*
0 Rectangle with rounded corners*
0 $1 Rounding radius*
0 $2 $3 $4 $5 $6 $7 $8 $9 X,Y pos of 4 corners*
0 Add a 4 corners polygon primitive as box body*
4,1,4,$2,$3,$4,$5,$6,$7,$8,$9,$2,$3,0*
0 Add four circle primitives for the rounded corners*
1,1,$1+$1,$2,$3*
1,1,$1+$1,$4,$5*
1,1,$1+$1,$6,$7*
1,1,$1+$1,$8,$9*
0 Add four rect primitives between the rounded corners*
20,1,$1+$1,$2,$3,$4,$5,0*
20,1,$1+$1,$4,$5,$6,$7,0*
20,1,$1+$1,$6,$7,$8,$9,0*
20,1,$1+$1,$8,$9,$2,$3,0*%
G04 Aperture macros list end*
%ADD10C,0.100000*%
%ADD11C,0.150000*%
%ADD12C,0.300000*%
%ADD13C,0.400000*%
%ADD14R,1.600000X1.600000*%
%ADD15O,1.600000X1.600000*%
%ADD16C,1.600000*%
%ADD17C,1.700000*%
%ADD18C,4.000000*%
%ADD19C,2.200000*%
%ADD20C,4.500000*%
%ADD21RoundRect,0.102000X-1.040000X0.704000X-1.040000X-0.704000X1.040000X-0.704000X1.040000X0.704000X0*%
%ADD22O,2.284000X1.612000*%
%ADD23R,1.700000X1.700000*%
%ADD24O,1.700000X1.700000*%
%ADD25R,1.800000X1.800000*%
%ADD26C,1.800000*%
%ADD27O,3.048000X1.850000*%
G04 APERTURE END LIST*
D10*
D11*
X177002200Y-166007200D02*
X285002200Y-166007200D01*
X285002200Y-198007200D01*
X177002200Y-198007200D01*
X177002200Y-166007200D01*
D10*
D11*
X10000000Y-10000000D02*
X287002200Y-10000000D01*
X287002200Y-200007200D01*
X10000000Y-200007200D01*
X10000000Y-10000000D01*
D10*
D11*
X12000000Y-12000000D02*
X285002200Y-12000000D01*
X285002200Y-198007200D01*
X12000000Y-198007200D01*
X12000000Y-12000000D01*
D10*
D11*
X60000000Y-12000000D02*
X60000000Y-10000000D01*
D10*
D11*
X110000000Y-12000000D02*
X110000000Y-10000000D01*
D10*
D11*
X160000000Y-12000000D02*
X160000000Y-10000000D01*
D10*
D11*
X210000000Y-12000000D02*
X210000000Y-10000000D01*
D10*
D11*
X260000000Y-12000000D02*
X260000000Y-10000000D01*
D10*
D11*
X36089160Y-11593604D02*
X35346303Y-11593604D01*
X35717731Y-11593604D02*
X35717731Y-10293604D01*
X35717731Y-10293604D02*
X35593922Y-10479319D01*
X35593922Y-10479319D02*
X35470112Y-10603128D01*
X35470112Y-10603128D02*
X35346303Y-10665033D01*
D10*
D11*
X85346303Y-10417414D02*
X85408207Y-10355509D01*
X85408207Y-10355509D02*
X85532017Y-10293604D01*
X85532017Y-10293604D02*
X85841541Y-10293604D01*
X85841541Y-10293604D02*
X85965350Y-10355509D01*
X85965350Y-10355509D02*
X86027255Y-10417414D01*
X86027255Y-10417414D02*
X86089160Y-10541223D01*
X86089160Y-10541223D02*
X86089160Y-10665033D01*
X86089160Y-10665033D02*
X86027255Y-10850747D01*
X86027255Y-10850747D02*
X85284398Y-11593604D01*
X85284398Y-11593604D02*
X86089160Y-11593604D01*
D10*
D11*
X135284398Y-10293604D02*
X136089160Y-10293604D01*
X136089160Y-10293604D02*
X135655826Y-10788842D01*
X135655826Y-10788842D02*
X135841541Y-10788842D01*
X135841541Y-10788842D02*
X135965350Y-10850747D01*
X135965350Y-10850747D02*
X136027255Y-10912652D01*
X136027255Y-10912652D02*
X136089160Y-11036461D01*
X136089160Y-11036461D02*
X136089160Y-11345985D01*
X136089160Y-11345985D02*
X136027255Y-11469795D01*
X136027255Y-11469795D02*
X135965350Y-11531700D01*
X135965350Y-11531700D02*
X135841541Y-11593604D01*
X135841541Y-11593604D02*
X135470112Y-11593604D01*
X135470112Y-11593604D02*
X135346303Y-11531700D01*
X135346303Y-11531700D02*
X135284398Y-11469795D01*
D10*
D11*
X185965350Y-10726938D02*
X185965350Y-11593604D01*
X185655826Y-10231700D02*
X185346303Y-11160271D01*
X185346303Y-11160271D02*
X186151064Y-11160271D01*
D10*
D11*
X236027255Y-10293604D02*
X235408207Y-10293604D01*
X235408207Y-10293604D02*
X235346303Y-10912652D01*
X235346303Y-10912652D02*
X235408207Y-10850747D01*
X235408207Y-10850747D02*
X235532017Y-10788842D01*
X235532017Y-10788842D02*
X235841541Y-10788842D01*
X235841541Y-10788842D02*
X235965350Y-10850747D01*
X235965350Y-10850747D02*
X236027255Y-10912652D01*
X236027255Y-10912652D02*
X236089160Y-11036461D01*
X236089160Y-11036461D02*
X236089160Y-11345985D01*
X236089160Y-11345985D02*
X236027255Y-11469795D01*
X236027255Y-11469795D02*
X235965350Y-11531700D01*
X235965350Y-11531700D02*
X235841541Y-11593604D01*
X235841541Y-11593604D02*
X235532017Y-11593604D01*
X235532017Y-11593604D02*
X235408207Y-11531700D01*
X235408207Y-11531700D02*
X235346303Y-11469795D01*
D10*
D11*
X285965350Y-10293604D02*
X285717731Y-10293604D01*
X285717731Y-10293604D02*
X285593922Y-10355509D01*
X285593922Y-10355509D02*
X285532017Y-10417414D01*
X285532017Y-10417414D02*
X285408207Y-10603128D01*
X285408207Y-10603128D02*
X285346303Y-10850747D01*
X285346303Y-10850747D02*
X285346303Y-11345985D01*
X285346303Y-11345985D02*
X285408207Y-11469795D01*
X285408207Y-11469795D02*
X285470112Y-11531700D01*
X285470112Y-11531700D02*
X285593922Y-11593604D01*
X285593922Y-11593604D02*
X285841541Y-11593604D01*
X285841541Y-11593604D02*
X285965350Y-11531700D01*
X285965350Y-11531700D02*
X286027255Y-11469795D01*
X286027255Y-11469795D02*
X286089160Y-11345985D01*
X286089160Y-11345985D02*
X286089160Y-11036461D01*
X286089160Y-11036461D02*
X286027255Y-10912652D01*
X286027255Y-10912652D02*
X285965350Y-10850747D01*
X285965350Y-10850747D02*
X285841541Y-10788842D01*
X285841541Y-10788842D02*
X285593922Y-10788842D01*
X285593922Y-10788842D02*
X285470112Y-10850747D01*
X285470112Y-10850747D02*
X285408207Y-10912652D01*
X285408207Y-10912652D02*
X285346303Y-11036461D01*
D10*
D11*
X60000000Y-198007200D02*
X60000000Y-200007200D01*
D10*
D11*
X110000000Y-198007200D02*
X110000000Y-200007200D01*
D10*
D11*
X160000000Y-198007200D02*
X160000000Y-200007200D01*
D10*
D11*
X210000000Y-198007200D02*
X210000000Y-200007200D01*
D10*
D11*
X260000000Y-198007200D02*
X260000000Y-200007200D01*
D10*
D11*
X36089160Y-199600804D02*
X35346303Y-199600804D01*
X35717731Y-199600804D02*
X35717731Y-198300804D01*
X35717731Y-198300804D02*
X35593922Y-198486519D01*
X35593922Y-198486519D02*
X35470112Y-198610328D01*
X35470112Y-198610328D02*
X35346303Y-198672233D01*
D10*
D11*
X85346303Y-198424614D02*
X85408207Y-198362709D01*
X85408207Y-198362709D02*
X85532017Y-198300804D01*
X85532017Y-198300804D02*
X85841541Y-198300804D01*
X85841541Y-198300804D02*
X85965350Y-198362709D01*
X85965350Y-198362709D02*
X86027255Y-198424614D01*
X86027255Y-198424614D02*
X86089160Y-198548423D01*
X86089160Y-198548423D02*
X86089160Y-198672233D01*
X86089160Y-198672233D02*
X86027255Y-198857947D01*
X86027255Y-198857947D02*
X85284398Y-199600804D01*
X85284398Y-199600804D02*
X86089160Y-199600804D01*
D10*
D11*
X135284398Y-198300804D02*
X136089160Y-198300804D01*
X136089160Y-198300804D02*
X135655826Y-198796042D01*
X135655826Y-198796042D02*
X135841541Y-198796042D01*
X135841541Y-198796042D02*
X135965350Y-198857947D01*
X135965350Y-198857947D02*
X136027255Y-198919852D01*
X136027255Y-198919852D02*
X136089160Y-199043661D01*
X136089160Y-199043661D02*
X136089160Y-199353185D01*
X136089160Y-199353185D02*
X136027255Y-199476995D01*
X136027255Y-199476995D02*
X135965350Y-199538900D01*
X135965350Y-199538900D02*
X135841541Y-199600804D01*
X135841541Y-199600804D02*
X135470112Y-199600804D01*
X135470112Y-199600804D02*
X135346303Y-199538900D01*
X135346303Y-199538900D02*
X135284398Y-199476995D01*
D10*
D11*
X185965350Y-198734138D02*
X185965350Y-199600804D01*
X185655826Y-198238900D02*
X185346303Y-199167471D01*
X185346303Y-199167471D02*
X186151064Y-199167471D01*
D10*
D11*
X236027255Y-198300804D02*
X235408207Y-198300804D01*
X235408207Y-198300804D02*
X235346303Y-198919852D01*
X235346303Y-198919852D02*
X235408207Y-198857947D01*
X235408207Y-198857947D02*
X235532017Y-198796042D01*
X235532017Y-198796042D02*
X235841541Y-198796042D01*
X235841541Y-198796042D02*
X235965350Y-198857947D01*
X235965350Y-198857947D02*
X236027255Y-198919852D01*
X236027255Y-198919852D02*
X236089160Y-199043661D01*
X236089160Y-199043661D02*
X236089160Y-199353185D01*
X236089160Y-199353185D02*
X236027255Y-199476995D01*
X236027255Y-199476995D02*
X235965350Y-199538900D01*
X235965350Y-199538900D02*
X235841541Y-199600804D01*
X235841541Y-199600804D02*
X235532017Y-199600804D01*
X235532017Y-199600804D02*
X235408207Y-199538900D01*
X235408207Y-199538900D02*
X235346303Y-199476995D01*
D10*
D11*
X285965350Y-198300804D02*
X285717731Y-198300804D01*
X285717731Y-198300804D02*
X285593922Y-198362709D01*
X285593922Y-198362709D02*
X285532017Y-198424614D01*
X285532017Y-198424614D02*
X285408207Y-198610328D01*
X285408207Y-198610328D02*
X285346303Y-198857947D01*
X285346303Y-198857947D02*
X285346303Y-199353185D01*
X285346303Y-199353185D02*
X285408207Y-199476995D01*
X285408207Y-199476995D02*
X285470112Y-199538900D01*
X285470112Y-199538900D02*
X285593922Y-199600804D01*
X285593922Y-199600804D02*
X285841541Y-199600804D01*
X285841541Y-199600804D02*
X285965350Y-199538900D01*
X285965350Y-199538900D02*
X286027255Y-199476995D01*
X286027255Y-199476995D02*
X286089160Y-199353185D01*
X286089160Y-199353185D02*
X286089160Y-199043661D01*
X286089160Y-199043661D02*
X286027255Y-198919852D01*
X286027255Y-198919852D02*
X285965350Y-198857947D01*
X285965350Y-198857947D02*
X285841541Y-198796042D01*
X285841541Y-198796042D02*
X285593922Y-198796042D01*
X285593922Y-198796042D02*
X285470112Y-198857947D01*
X285470112Y-198857947D02*
X285408207Y-198919852D01*
X285408207Y-198919852D02*
X285346303Y-199043661D01*
D10*
D11*
X10000000Y-60000000D02*
X12000000Y-60000000D01*
D10*
D11*
X10000000Y-110000000D02*
X12000000Y-110000000D01*
D10*
D11*
X10000000Y-160000000D02*
X12000000Y-160000000D01*
D10*
D11*
X10690476Y-35222176D02*
X11309523Y-35222176D01*
X10566666Y-35593604D02*
X10999999Y-34293604D01*
X10999999Y-34293604D02*
X11433333Y-35593604D01*
D10*
D11*
X11092857Y-84912652D02*
X11278571Y-84974557D01*
X11278571Y-84974557D02*
X11340476Y-85036461D01*
X11340476Y-85036461D02*
X11402380Y-85160271D01*
X11402380Y-85160271D02*
X11402380Y-85345985D01*
X11402380Y-85345985D02*
X11340476Y-85469795D01*
X11340476Y-85469795D02*
X11278571Y-85531700D01*
X11278571Y-85531700D02*
X11154761Y-85593604D01*
X11154761Y-85593604D02*
X10659523Y-85593604D01*
X10659523Y-85593604D02*
X10659523Y-84293604D01*
X10659523Y-84293604D02*
X11092857Y-84293604D01*
X11092857Y-84293604D02*
X11216666Y-84355509D01*
X11216666Y-84355509D02*
X11278571Y-84417414D01*
X11278571Y-84417414D02*
X11340476Y-84541223D01*
X11340476Y-84541223D02*
X11340476Y-84665033D01*
X11340476Y-84665033D02*
X11278571Y-84788842D01*
X11278571Y-84788842D02*
X11216666Y-84850747D01*
X11216666Y-84850747D02*
X11092857Y-84912652D01*
X11092857Y-84912652D02*
X10659523Y-84912652D01*
D10*
D11*
X11402380Y-135469795D02*
X11340476Y-135531700D01*
X11340476Y-135531700D02*
X11154761Y-135593604D01*
X11154761Y-135593604D02*
X11030952Y-135593604D01*
X11030952Y-135593604D02*
X10845238Y-135531700D01*
X10845238Y-135531700D02*
X10721428Y-135407890D01*
X10721428Y-135407890D02*
X10659523Y-135284080D01*
X10659523Y-135284080D02*
X10597619Y-135036461D01*
X10597619Y-135036461D02*
X10597619Y-134850747D01*
X10597619Y-134850747D02*
X10659523Y-134603128D01*
X10659523Y-134603128D02*
X10721428Y-134479319D01*
X10721428Y-134479319D02*
X10845238Y-134355509D01*
X10845238Y-134355509D02*
X11030952Y-134293604D01*
X11030952Y-134293604D02*
X11154761Y-134293604D01*
X11154761Y-134293604D02*
X11340476Y-134355509D01*
X11340476Y-134355509D02*
X11402380Y-134417414D01*
D10*
D11*
X10659523Y-185593604D02*
X10659523Y-184293604D01*
X10659523Y-184293604D02*
X10969047Y-184293604D01*
X10969047Y-184293604D02*
X11154761Y-184355509D01*
X11154761Y-184355509D02*
X11278571Y-184479319D01*
X11278571Y-184479319D02*
X11340476Y-184603128D01*
X11340476Y-184603128D02*
X11402380Y-184850747D01*
X11402380Y-184850747D02*
X11402380Y-185036461D01*
X11402380Y-185036461D02*
X11340476Y-185284080D01*
X11340476Y-185284080D02*
X11278571Y-185407890D01*
X11278571Y-185407890D02*
X11154761Y-185531700D01*
X11154761Y-185531700D02*
X10969047Y-185593604D01*
X10969047Y-185593604D02*
X10659523Y-185593604D01*
D10*
D11*
X287002200Y-60000000D02*
X285002200Y-60000000D01*
D10*
D11*
X287002200Y-110000000D02*
X285002200Y-110000000D01*
D10*
D11*
X287002200Y-160000000D02*
X285002200Y-160000000D01*
D10*
D11*
X285692676Y-35222176D02*
X286311723Y-35222176D01*
X285568866Y-35593604D02*
X286002199Y-34293604D01*
X286002199Y-34293604D02*
X286435533Y-35593604D01*
D10*
D11*
X286095057Y-84912652D02*
X286280771Y-84974557D01*
X286280771Y-84974557D02*
X286342676Y-85036461D01*
X286342676Y-85036461D02*
X286404580Y-85160271D01*
X286404580Y-85160271D02*
X286404580Y-85345985D01*
X286404580Y-85345985D02*
X286342676Y-85469795D01*
X286342676Y-85469795D02*
X286280771Y-85531700D01*
X286280771Y-85531700D02*
X286156961Y-85593604D01*
X286156961Y-85593604D02*
X285661723Y-85593604D01*
X285661723Y-85593604D02*
X285661723Y-84293604D01*
X285661723Y-84293604D02*
X286095057Y-84293604D01*
X286095057Y-84293604D02*
X286218866Y-84355509D01*
X286218866Y-84355509D02*
X286280771Y-84417414D01*
X286280771Y-84417414D02*
X286342676Y-84541223D01*
X286342676Y-84541223D02*
X286342676Y-84665033D01*
X286342676Y-84665033D02*
X286280771Y-84788842D01*
X286280771Y-84788842D02*
X286218866Y-84850747D01*
X286218866Y-84850747D02*
X286095057Y-84912652D01*
X286095057Y-84912652D02*
X285661723Y-84912652D01*
D10*
D11*
X286404580Y-135469795D02*
X286342676Y-135531700D01*
X286342676Y-135531700D02*
X286156961Y-135593604D01*
X286156961Y-135593604D02*
X286033152Y-135593604D01*
X286033152Y-135593604D02*
X285847438Y-135531700D01*
X285847438Y-135531700D02*
X285723628Y-135407890D01*
X285723628Y-135407890D02*
X285661723Y-135284080D01*
X285661723Y-135284080D02*
X285599819Y-135036461D01*
X285599819Y-135036461D02*
X285599819Y-134850747D01*
X285599819Y-134850747D02*
X285661723Y-134603128D01*
X285661723Y-134603128D02*
X285723628Y-134479319D01*
X285723628Y-134479319D02*
X285847438Y-134355509D01*
X285847438Y-134355509D02*
X286033152Y-134293604D01*
X286033152Y-134293604D02*
X286156961Y-134293604D01*
X286156961Y-134293604D02*
X286342676Y-134355509D01*
X286342676Y-134355509D02*
X286404580Y-134417414D01*
D10*
D11*
X285661723Y-185593604D02*
X285661723Y-184293604D01*
X285661723Y-184293604D02*
X285971247Y-184293604D01*
X285971247Y-184293604D02*
X286156961Y-184355509D01*
X286156961Y-184355509D02*
X286280771Y-184479319D01*
X286280771Y-184479319D02*
X286342676Y-184603128D01*
X286342676Y-184603128D02*
X286404580Y-184850747D01*
X286404580Y-184850747D02*
X286404580Y-185036461D01*
X286404580Y-185036461D02*
X286342676Y-185284080D01*
X286342676Y-185284080D02*
X286280771Y-185407890D01*
X286280771Y-185407890D02*
X286156961Y-185531700D01*
X286156961Y-185531700D02*
X285971247Y-185593604D01*
X285971247Y-185593604D02*
X285661723Y-185593604D01*
D10*
D11*
X200458026Y-193793328D02*
X200458026Y-192293328D01*
X200458026Y-192293328D02*
X200815169Y-192293328D01*
X200815169Y-192293328D02*
X201029455Y-192364757D01*
X201029455Y-192364757D02*
X201172312Y-192507614D01*
X201172312Y-192507614D02*
X201243741Y-192650471D01*
X201243741Y-192650471D02*
X201315169Y-192936185D01*
X201315169Y-192936185D02*
X201315169Y-193150471D01*
X201315169Y-193150471D02*
X201243741Y-193436185D01*
X201243741Y-193436185D02*
X201172312Y-193579042D01*
X201172312Y-193579042D02*
X201029455Y-193721900D01*
X201029455Y-193721900D02*
X200815169Y-193793328D01*
X200815169Y-193793328D02*
X200458026Y-193793328D01*
X202600884Y-193793328D02*
X202600884Y-193007614D01*
X202600884Y-193007614D02*
X202529455Y-192864757D01*
X202529455Y-192864757D02*
X202386598Y-192793328D01*
X202386598Y-192793328D02*
X202100884Y-192793328D01*
X202100884Y-192793328D02*
X201958026Y-192864757D01*
X202600884Y-193721900D02*
X202458026Y-193793328D01*
X202458026Y-193793328D02*
X202100884Y-193793328D01*
X202100884Y-193793328D02*
X201958026Y-193721900D01*
X201958026Y-193721900D02*
X201886598Y-193579042D01*
X201886598Y-193579042D02*
X201886598Y-193436185D01*
X201886598Y-193436185D02*
X201958026Y-193293328D01*
X201958026Y-193293328D02*
X202100884Y-193221900D01*
X202100884Y-193221900D02*
X202458026Y-193221900D01*
X202458026Y-193221900D02*
X202600884Y-193150471D01*
X203100884Y-192793328D02*
X203672312Y-192793328D01*
X203315169Y-192293328D02*
X203315169Y-193579042D01*
X203315169Y-193579042D02*
X203386598Y-193721900D01*
X203386598Y-193721900D02*
X203529455Y-193793328D01*
X203529455Y-193793328D02*
X203672312Y-193793328D01*
X204743741Y-193721900D02*
X204600884Y-193793328D01*
X204600884Y-193793328D02*
X204315170Y-193793328D01*
X204315170Y-193793328D02*
X204172312Y-193721900D01*
X204172312Y-193721900D02*
X204100884Y-193579042D01*
X204100884Y-193579042D02*
X204100884Y-193007614D01*
X204100884Y-193007614D02*
X204172312Y-192864757D01*
X204172312Y-192864757D02*
X204315170Y-192793328D01*
X204315170Y-192793328D02*
X204600884Y-192793328D01*
X204600884Y-192793328D02*
X204743741Y-192864757D01*
X204743741Y-192864757D02*
X204815170Y-193007614D01*
X204815170Y-193007614D02*
X204815170Y-193150471D01*
X204815170Y-193150471D02*
X204100884Y-193293328D01*
X205458026Y-193650471D02*
X205529455Y-193721900D01*
X205529455Y-193721900D02*
X205458026Y-193793328D01*
X205458026Y-193793328D02*
X205386598Y-193721900D01*
X205386598Y-193721900D02*
X205458026Y-193650471D01*
X205458026Y-193650471D02*
X205458026Y-193793328D01*
X205458026Y-192864757D02*
X205529455Y-192936185D01*
X205529455Y-192936185D02*
X205458026Y-193007614D01*
X205458026Y-193007614D02*
X205386598Y-192936185D01*
X205386598Y-192936185D02*
X205458026Y-192864757D01*
X205458026Y-192864757D02*
X205458026Y-193007614D01*
D10*
D11*
X177002200Y-194507200D02*
X285002200Y-194507200D01*
D10*
D11*
X178458026Y-196593328D02*
X178458026Y-195093328D01*
X179315169Y-196593328D02*
X178672312Y-195736185D01*
X179315169Y-195093328D02*
X178458026Y-195950471D01*
X179958026Y-196593328D02*
X179958026Y-195593328D01*
X179958026Y-195093328D02*
X179886598Y-195164757D01*
X179886598Y-195164757D02*
X179958026Y-195236185D01*
X179958026Y-195236185D02*
X180029455Y-195164757D01*
X180029455Y-195164757D02*
X179958026Y-195093328D01*
X179958026Y-195093328D02*
X179958026Y-195236185D01*
X181529455Y-196450471D02*
X181458027Y-196521900D01*
X181458027Y-196521900D02*
X181243741Y-196593328D01*
X181243741Y-196593328D02*
X181100884Y-196593328D01*
X181100884Y-196593328D02*
X180886598Y-196521900D01*
X180886598Y-196521900D02*
X180743741Y-196379042D01*
X180743741Y-196379042D02*
X180672312Y-196236185D01*
X180672312Y-196236185D02*
X180600884Y-195950471D01*
X180600884Y-195950471D02*
X180600884Y-195736185D01*
X180600884Y-195736185D02*
X180672312Y-195450471D01*
X180672312Y-195450471D02*
X180743741Y-195307614D01*
X180743741Y-195307614D02*
X180886598Y-195164757D01*
X180886598Y-195164757D02*
X181100884Y-195093328D01*
X181100884Y-195093328D02*
X181243741Y-195093328D01*
X181243741Y-195093328D02*
X181458027Y-195164757D01*
X181458027Y-195164757D02*
X181529455Y-195236185D01*
X182815170Y-196593328D02*
X182815170Y-195807614D01*
X182815170Y-195807614D02*
X182743741Y-195664757D01*
X182743741Y-195664757D02*
X182600884Y-195593328D01*
X182600884Y-195593328D02*
X182315170Y-195593328D01*
X182315170Y-195593328D02*
X182172312Y-195664757D01*
X182815170Y-196521900D02*
X182672312Y-196593328D01*
X182672312Y-196593328D02*
X182315170Y-196593328D01*
X182315170Y-196593328D02*
X182172312Y-196521900D01*
X182172312Y-196521900D02*
X182100884Y-196379042D01*
X182100884Y-196379042D02*
X182100884Y-196236185D01*
X182100884Y-196236185D02*
X182172312Y-196093328D01*
X182172312Y-196093328D02*
X182315170Y-196021900D01*
X182315170Y-196021900D02*
X182672312Y-196021900D01*
X182672312Y-196021900D02*
X182815170Y-195950471D01*
X184172313Y-196593328D02*
X184172313Y-195093328D01*
X184172313Y-196521900D02*
X184029455Y-196593328D01*
X184029455Y-196593328D02*
X183743741Y-196593328D01*
X183743741Y-196593328D02*
X183600884Y-196521900D01*
X183600884Y-196521900D02*
X183529455Y-196450471D01*
X183529455Y-196450471D02*
X183458027Y-196307614D01*
X183458027Y-196307614D02*
X183458027Y-195879042D01*
X183458027Y-195879042D02*
X183529455Y-195736185D01*
X183529455Y-195736185D02*
X183600884Y-195664757D01*
X183600884Y-195664757D02*
X183743741Y-195593328D01*
X183743741Y-195593328D02*
X184029455Y-195593328D01*
X184029455Y-195593328D02*
X184172313Y-195664757D01*
X186029455Y-195807614D02*
X186529455Y-195807614D01*
X186743741Y-196593328D02*
X186029455Y-196593328D01*
X186029455Y-196593328D02*
X186029455Y-195093328D01*
X186029455Y-195093328D02*
X186743741Y-195093328D01*
X187386598Y-196450471D02*
X187458027Y-196521900D01*
X187458027Y-196521900D02*
X187386598Y-196593328D01*
X187386598Y-196593328D02*
X187315170Y-196521900D01*
X187315170Y-196521900D02*
X187386598Y-196450471D01*
X187386598Y-196450471D02*
X187386598Y-196593328D01*
X188100884Y-196593328D02*
X188100884Y-195093328D01*
X188100884Y-195093328D02*
X188458027Y-195093328D01*
X188458027Y-195093328D02*
X188672313Y-195164757D01*
X188672313Y-195164757D02*
X188815170Y-195307614D01*
X188815170Y-195307614D02*
X188886599Y-195450471D01*
X188886599Y-195450471D02*
X188958027Y-195736185D01*
X188958027Y-195736185D02*
X188958027Y-195950471D01*
X188958027Y-195950471D02*
X188886599Y-196236185D01*
X188886599Y-196236185D02*
X188815170Y-196379042D01*
X188815170Y-196379042D02*
X188672313Y-196521900D01*
X188672313Y-196521900D02*
X188458027Y-196593328D01*
X188458027Y-196593328D02*
X188100884Y-196593328D01*
X189600884Y-196450471D02*
X189672313Y-196521900D01*
X189672313Y-196521900D02*
X189600884Y-196593328D01*
X189600884Y-196593328D02*
X189529456Y-196521900D01*
X189529456Y-196521900D02*
X189600884Y-196450471D01*
X189600884Y-196450471D02*
X189600884Y-196593328D01*
X190243742Y-196164757D02*
X190958028Y-196164757D01*
X190100885Y-196593328D02*
X190600885Y-195093328D01*
X190600885Y-195093328D02*
X191100885Y-196593328D01*
X191600884Y-196450471D02*
X191672313Y-196521900D01*
X191672313Y-196521900D02*
X191600884Y-196593328D01*
X191600884Y-196593328D02*
X191529456Y-196521900D01*
X191529456Y-196521900D02*
X191600884Y-196450471D01*
X191600884Y-196450471D02*
X191600884Y-196593328D01*
X193529456Y-196593328D02*
X193815170Y-196593328D01*
X193815170Y-196593328D02*
X193958027Y-196521900D01*
X193958027Y-196521900D02*
X194029456Y-196450471D01*
X194029456Y-196450471D02*
X194172313Y-196236185D01*
X194172313Y-196236185D02*
X194243742Y-195950471D01*
X194243742Y-195950471D02*
X194243742Y-195379042D01*
X194243742Y-195379042D02*
X194172313Y-195236185D01*
X194172313Y-195236185D02*
X194100885Y-195164757D01*
X194100885Y-195164757D02*
X193958027Y-195093328D01*
X193958027Y-195093328D02*
X193672313Y-195093328D01*
X193672313Y-195093328D02*
X193529456Y-195164757D01*
X193529456Y-195164757D02*
X193458027Y-195236185D01*
X193458027Y-195236185D02*
X193386599Y-195379042D01*
X193386599Y-195379042D02*
X193386599Y-195736185D01*
X193386599Y-195736185D02*
X193458027Y-195879042D01*
X193458027Y-195879042D02*
X193529456Y-195950471D01*
X193529456Y-195950471D02*
X193672313Y-196021900D01*
X193672313Y-196021900D02*
X193958027Y-196021900D01*
X193958027Y-196021900D02*
X194100885Y-195950471D01*
X194100885Y-195950471D02*
X194172313Y-195879042D01*
X194172313Y-195879042D02*
X194243742Y-195736185D01*
X194886598Y-196450471D02*
X194958027Y-196521900D01*
X194958027Y-196521900D02*
X194886598Y-196593328D01*
X194886598Y-196593328D02*
X194815170Y-196521900D01*
X194815170Y-196521900D02*
X194886598Y-196450471D01*
X194886598Y-196450471D02*
X194886598Y-196593328D01*
X195886599Y-195093328D02*
X196029456Y-195093328D01*
X196029456Y-195093328D02*
X196172313Y-195164757D01*
X196172313Y-195164757D02*
X196243742Y-195236185D01*
X196243742Y-195236185D02*
X196315170Y-195379042D01*
X196315170Y-195379042D02*
X196386599Y-195664757D01*
X196386599Y-195664757D02*
X196386599Y-196021900D01*
X196386599Y-196021900D02*
X196315170Y-196307614D01*
X196315170Y-196307614D02*
X196243742Y-196450471D01*
X196243742Y-196450471D02*
X196172313Y-196521900D01*
X196172313Y-196521900D02*
X196029456Y-196593328D01*
X196029456Y-196593328D02*
X195886599Y-196593328D01*
X195886599Y-196593328D02*
X195743742Y-196521900D01*
X195743742Y-196521900D02*
X195672313Y-196450471D01*
X195672313Y-196450471D02*
X195600884Y-196307614D01*
X195600884Y-196307614D02*
X195529456Y-196021900D01*
X195529456Y-196021900D02*
X195529456Y-195664757D01*
X195529456Y-195664757D02*
X195600884Y-195379042D01*
X195600884Y-195379042D02*
X195672313Y-195236185D01*
X195672313Y-195236185D02*
X195743742Y-195164757D01*
X195743742Y-195164757D02*
X195886599Y-195093328D01*
X197029455Y-196450471D02*
X197100884Y-196521900D01*
X197100884Y-196521900D02*
X197029455Y-196593328D01*
X197029455Y-196593328D02*
X196958027Y-196521900D01*
X196958027Y-196521900D02*
X197029455Y-196450471D01*
X197029455Y-196450471D02*
X197029455Y-196593328D01*
X197672313Y-195236185D02*
X197743741Y-195164757D01*
X197743741Y-195164757D02*
X197886599Y-195093328D01*
X197886599Y-195093328D02*
X198243741Y-195093328D01*
X198243741Y-195093328D02*
X198386599Y-195164757D01*
X198386599Y-195164757D02*
X198458027Y-195236185D01*
X198458027Y-195236185D02*
X198529456Y-195379042D01*
X198529456Y-195379042D02*
X198529456Y-195521900D01*
X198529456Y-195521900D02*
X198458027Y-195736185D01*
X198458027Y-195736185D02*
X197600884Y-196593328D01*
X197600884Y-196593328D02*
X198529456Y-196593328D01*
D10*
D11*
X177002200Y-191507200D02*
X285002200Y-191507200D01*
D10*
D12*
X264413853Y-193785528D02*
X263913853Y-193071242D01*
X263556710Y-193785528D02*
X263556710Y-192285528D01*
X263556710Y-192285528D02*
X264128139Y-192285528D01*
X264128139Y-192285528D02*
X264270996Y-192356957D01*
X264270996Y-192356957D02*
X264342425Y-192428385D01*
X264342425Y-192428385D02*
X264413853Y-192571242D01*
X264413853Y-192571242D02*
X264413853Y-192785528D01*
X264413853Y-192785528D02*
X264342425Y-192928385D01*
X264342425Y-192928385D02*
X264270996Y-192999814D01*
X264270996Y-192999814D02*
X264128139Y-193071242D01*
X264128139Y-193071242D02*
X263556710Y-193071242D01*
X265628139Y-193714100D02*
X265485282Y-193785528D01*
X265485282Y-193785528D02*
X265199568Y-193785528D01*
X265199568Y-193785528D02*
X265056710Y-193714100D01*
X265056710Y-193714100D02*
X264985282Y-193571242D01*
X264985282Y-193571242D02*
X264985282Y-192999814D01*
X264985282Y-192999814D02*
X265056710Y-192856957D01*
X265056710Y-192856957D02*
X265199568Y-192785528D01*
X265199568Y-192785528D02*
X265485282Y-192785528D01*
X265485282Y-192785528D02*
X265628139Y-192856957D01*
X265628139Y-192856957D02*
X265699568Y-192999814D01*
X265699568Y-192999814D02*
X265699568Y-193142671D01*
X265699568Y-193142671D02*
X264985282Y-193285528D01*
X266199567Y-192785528D02*
X266556710Y-193785528D01*
X266556710Y-193785528D02*
X266913853Y-192785528D01*
X267485281Y-193642671D02*
X267556710Y-193714100D01*
X267556710Y-193714100D02*
X267485281Y-193785528D01*
X267485281Y-193785528D02*
X267413853Y-193714100D01*
X267413853Y-193714100D02*
X267485281Y-193642671D01*
X267485281Y-193642671D02*
X267485281Y-193785528D01*
X267485281Y-192856957D02*
X267556710Y-192928385D01*
X267556710Y-192928385D02*
X267485281Y-192999814D01*
X267485281Y-192999814D02*
X267413853Y-192928385D01*
X267413853Y-192928385D02*
X267485281Y-192856957D01*
X267485281Y-192856957D02*
X267485281Y-192999814D01*
X269628139Y-192285528D02*
X269770996Y-192285528D01*
X269770996Y-192285528D02*
X269913853Y-192356957D01*
X269913853Y-192356957D02*
X269985282Y-192428385D01*
X269985282Y-192428385D02*
X270056710Y-192571242D01*
X270056710Y-192571242D02*
X270128139Y-192856957D01*
X270128139Y-192856957D02*
X270128139Y-193214100D01*
X270128139Y-193214100D02*
X270056710Y-193499814D01*
X270056710Y-193499814D02*
X269985282Y-193642671D01*
X269985282Y-193642671D02*
X269913853Y-193714100D01*
X269913853Y-193714100D02*
X269770996Y-193785528D01*
X269770996Y-193785528D02*
X269628139Y-193785528D01*
X269628139Y-193785528D02*
X269485282Y-193714100D01*
X269485282Y-193714100D02*
X269413853Y-193642671D01*
X269413853Y-193642671D02*
X269342424Y-193499814D01*
X269342424Y-193499814D02*
X269270996Y-193214100D01*
X269270996Y-193214100D02*
X269270996Y-192856957D01*
X269270996Y-192856957D02*
X269342424Y-192571242D01*
X269342424Y-192571242D02*
X269413853Y-192428385D01*
X269413853Y-192428385D02*
X269485282Y-192356957D01*
X269485282Y-192356957D02*
X269628139Y-192285528D01*
X270770995Y-193642671D02*
X270842424Y-193714100D01*
X270842424Y-193714100D02*
X270770995Y-193785528D01*
X270770995Y-193785528D02*
X270699567Y-193714100D01*
X270699567Y-193714100D02*
X270770995Y-193642671D01*
X270770995Y-193642671D02*
X270770995Y-193785528D01*
X271770996Y-192285528D02*
X271913853Y-192285528D01*
X271913853Y-192285528D02*
X272056710Y-192356957D01*
X272056710Y-192356957D02*
X272128139Y-192428385D01*
X272128139Y-192428385D02*
X272199567Y-192571242D01*
X272199567Y-192571242D02*
X272270996Y-192856957D01*
X272270996Y-192856957D02*
X272270996Y-193214100D01*
X272270996Y-193214100D02*
X272199567Y-193499814D01*
X272199567Y-193499814D02*
X272128139Y-193642671D01*
X272128139Y-193642671D02*
X272056710Y-193714100D01*
X272056710Y-193714100D02*
X271913853Y-193785528D01*
X271913853Y-193785528D02*
X271770996Y-193785528D01*
X271770996Y-193785528D02*
X271628139Y-193714100D01*
X271628139Y-193714100D02*
X271556710Y-193642671D01*
X271556710Y-193642671D02*
X271485281Y-193499814D01*
X271485281Y-193499814D02*
X271413853Y-193214100D01*
X271413853Y-193214100D02*
X271413853Y-192856957D01*
X271413853Y-192856957D02*
X271485281Y-192571242D01*
X271485281Y-192571242D02*
X271556710Y-192428385D01*
X271556710Y-192428385D02*
X271628139Y-192356957D01*
X271628139Y-192356957D02*
X271770996Y-192285528D01*
X272913852Y-193642671D02*
X272985281Y-193714100D01*
X272985281Y-193714100D02*
X272913852Y-193785528D01*
X272913852Y-193785528D02*
X272842424Y-193714100D01*
X272842424Y-193714100D02*
X272913852Y-193642671D01*
X272913852Y-193642671D02*
X272913852Y-193785528D01*
X273842424Y-192928385D02*
X273699567Y-192856957D01*
X273699567Y-192856957D02*
X273628138Y-192785528D01*
X273628138Y-192785528D02*
X273556710Y-192642671D01*
X273556710Y-192642671D02*
X273556710Y-192571242D01*
X273556710Y-192571242D02*
X273628138Y-192428385D01*
X273628138Y-192428385D02*
X273699567Y-192356957D01*
X273699567Y-192356957D02*
X273842424Y-192285528D01*
X273842424Y-192285528D02*
X274128138Y-192285528D01*
X274128138Y-192285528D02*
X274270996Y-192356957D01*
X274270996Y-192356957D02*
X274342424Y-192428385D01*
X274342424Y-192428385D02*
X274413853Y-192571242D01*
X274413853Y-192571242D02*
X274413853Y-192642671D01*
X274413853Y-192642671D02*
X274342424Y-192785528D01*
X274342424Y-192785528D02*
X274270996Y-192856957D01*
X274270996Y-192856957D02*
X274128138Y-192928385D01*
X274128138Y-192928385D02*
X273842424Y-192928385D01*
X273842424Y-192928385D02*
X273699567Y-192999814D01*
X273699567Y-192999814D02*
X273628138Y-193071242D01*
X273628138Y-193071242D02*
X273556710Y-193214100D01*
X273556710Y-193214100D02*
X273556710Y-193499814D01*
X273556710Y-193499814D02*
X273628138Y-193642671D01*
X273628138Y-193642671D02*
X273699567Y-193714100D01*
X273699567Y-193714100D02*
X273842424Y-193785528D01*
X273842424Y-193785528D02*
X274128138Y-193785528D01*
X274128138Y-193785528D02*
X274270996Y-193714100D01*
X274270996Y-193714100D02*
X274342424Y-193642671D01*
X274342424Y-193642671D02*
X274413853Y-193499814D01*
X274413853Y-193499814D02*
X274413853Y-193214100D01*
X274413853Y-193214100D02*
X274342424Y-193071242D01*
X274342424Y-193071242D02*
X274270996Y-192999814D01*
X274270996Y-192999814D02*
X274128138Y-192928385D01*
D10*
D11*
X178386598Y-193721900D02*
X178600884Y-193793328D01*
X178600884Y-193793328D02*
X178958026Y-193793328D01*
X178958026Y-193793328D02*
X179100884Y-193721900D01*
X179100884Y-193721900D02*
X179172312Y-193650471D01*
X179172312Y-193650471D02*
X179243741Y-193507614D01*
X179243741Y-193507614D02*
X179243741Y-193364757D01*
X179243741Y-193364757D02*
X179172312Y-193221900D01*
X179172312Y-193221900D02*
X179100884Y-193150471D01*
X179100884Y-193150471D02*
X178958026Y-193079042D01*
X178958026Y-193079042D02*
X178672312Y-193007614D01*
X178672312Y-193007614D02*
X178529455Y-192936185D01*
X178529455Y-192936185D02*
X178458026Y-192864757D01*
X178458026Y-192864757D02*
X178386598Y-192721900D01*
X178386598Y-192721900D02*
X178386598Y-192579042D01*
X178386598Y-192579042D02*
X178458026Y-192436185D01*
X178458026Y-192436185D02*
X178529455Y-192364757D01*
X178529455Y-192364757D02*
X178672312Y-192293328D01*
X178672312Y-192293328D02*
X179029455Y-192293328D01*
X179029455Y-192293328D02*
X179243741Y-192364757D01*
X179886597Y-193793328D02*
X179886597Y-192793328D01*
X179886597Y-192293328D02*
X179815169Y-192364757D01*
X179815169Y-192364757D02*
X179886597Y-192436185D01*
X179886597Y-192436185D02*
X179958026Y-192364757D01*
X179958026Y-192364757D02*
X179886597Y-192293328D01*
X179886597Y-192293328D02*
X179886597Y-192436185D01*
X180458026Y-192793328D02*
X181243741Y-192793328D01*
X181243741Y-192793328D02*
X180458026Y-193793328D01*
X180458026Y-193793328D02*
X181243741Y-193793328D01*
X182386598Y-193721900D02*
X182243741Y-193793328D01*
X182243741Y-193793328D02*
X181958027Y-193793328D01*
X181958027Y-193793328D02*
X181815169Y-193721900D01*
X181815169Y-193721900D02*
X181743741Y-193579042D01*
X181743741Y-193579042D02*
X181743741Y-193007614D01*
X181743741Y-193007614D02*
X181815169Y-192864757D01*
X181815169Y-192864757D02*
X181958027Y-192793328D01*
X181958027Y-192793328D02*
X182243741Y-192793328D01*
X182243741Y-192793328D02*
X182386598Y-192864757D01*
X182386598Y-192864757D02*
X182458027Y-193007614D01*
X182458027Y-193007614D02*
X182458027Y-193150471D01*
X182458027Y-193150471D02*
X181743741Y-193293328D01*
X183100883Y-193650471D02*
X183172312Y-193721900D01*
X183172312Y-193721900D02*
X183100883Y-193793328D01*
X183100883Y-193793328D02*
X183029455Y-193721900D01*
X183029455Y-193721900D02*
X183100883Y-193650471D01*
X183100883Y-193650471D02*
X183100883Y-193793328D01*
X183100883Y-192864757D02*
X183172312Y-192936185D01*
X183172312Y-192936185D02*
X183100883Y-193007614D01*
X183100883Y-193007614D02*
X183029455Y-192936185D01*
X183029455Y-192936185D02*
X183100883Y-192864757D01*
X183100883Y-192864757D02*
X183100883Y-193007614D01*
X184886598Y-193364757D02*
X185600884Y-193364757D01*
X184743741Y-193793328D02*
X185243741Y-192293328D01*
X185243741Y-192293328D02*
X185743741Y-193793328D01*
X186886598Y-192793328D02*
X186886598Y-193793328D01*
X186529455Y-192221900D02*
X186172312Y-193293328D01*
X186172312Y-193293328D02*
X187100883Y-193293328D01*
D10*
D11*
X263458026Y-196593328D02*
X263458026Y-195093328D01*
X264815170Y-196593328D02*
X264815170Y-195093328D01*
X264815170Y-196521900D02*
X264672312Y-196593328D01*
X264672312Y-196593328D02*
X264386598Y-196593328D01*
X264386598Y-196593328D02*
X264243741Y-196521900D01*
X264243741Y-196521900D02*
X264172312Y-196450471D01*
X264172312Y-196450471D02*
X264100884Y-196307614D01*
X264100884Y-196307614D02*
X264100884Y-195879042D01*
X264100884Y-195879042D02*
X264172312Y-195736185D01*
X264172312Y-195736185D02*
X264243741Y-195664757D01*
X264243741Y-195664757D02*
X264386598Y-195593328D01*
X264386598Y-195593328D02*
X264672312Y-195593328D01*
X264672312Y-195593328D02*
X264815170Y-195664757D01*
X265529455Y-196450471D02*
X265600884Y-196521900D01*
X265600884Y-196521900D02*
X265529455Y-196593328D01*
X265529455Y-196593328D02*
X265458027Y-196521900D01*
X265458027Y-196521900D02*
X265529455Y-196450471D01*
X265529455Y-196450471D02*
X265529455Y-196593328D01*
X265529455Y-195664757D02*
X265600884Y-195736185D01*
X265600884Y-195736185D02*
X265529455Y-195807614D01*
X265529455Y-195807614D02*
X265458027Y-195736185D01*
X265458027Y-195736185D02*
X265529455Y-195664757D01*
X265529455Y-195664757D02*
X265529455Y-195807614D01*
X267243741Y-195093328D02*
X268243741Y-195093328D01*
X268243741Y-195093328D02*
X267600884Y-196593328D01*
X269886598Y-195021900D02*
X268600884Y-196950471D01*
X270458027Y-196593328D02*
X270743741Y-196593328D01*
X270743741Y-196593328D02*
X270886598Y-196521900D01*
X270886598Y-196521900D02*
X270958027Y-196450471D01*
X270958027Y-196450471D02*
X271100884Y-196236185D01*
X271100884Y-196236185D02*
X271172313Y-195950471D01*
X271172313Y-195950471D02*
X271172313Y-195379042D01*
X271172313Y-195379042D02*
X271100884Y-195236185D01*
X271100884Y-195236185D02*
X271029456Y-195164757D01*
X271029456Y-195164757D02*
X270886598Y-195093328D01*
X270886598Y-195093328D02*
X270600884Y-195093328D01*
X270600884Y-195093328D02*
X270458027Y-195164757D01*
X270458027Y-195164757D02*
X270386598Y-195236185D01*
X270386598Y-195236185D02*
X270315170Y-195379042D01*
X270315170Y-195379042D02*
X270315170Y-195736185D01*
X270315170Y-195736185D02*
X270386598Y-195879042D01*
X270386598Y-195879042D02*
X270458027Y-195950471D01*
X270458027Y-195950471D02*
X270600884Y-196021900D01*
X270600884Y-196021900D02*
X270886598Y-196021900D01*
X270886598Y-196021900D02*
X271029456Y-195950471D01*
X271029456Y-195950471D02*
X271100884Y-195879042D01*
X271100884Y-195879042D02*
X271172313Y-195736185D01*
D10*
D11*
X177002200Y-187507200D02*
X285002200Y-187507200D01*
D10*
D13*
X178693928Y-188211638D02*
X179836785Y-188211638D01*
X179015357Y-190211638D02*
X179265357Y-188211638D01*
X180253452Y-190211638D02*
X180420119Y-188878304D01*
X180503452Y-188211638D02*
X180396309Y-188306876D01*
X180396309Y-188306876D02*
X180479643Y-188402114D01*
X180479643Y-188402114D02*
X180586786Y-188306876D01*
X180586786Y-188306876D02*
X180503452Y-188211638D01*
X180503452Y-188211638D02*
X180479643Y-188402114D01*
X181086786Y-188878304D02*
X181848690Y-188878304D01*
X181455833Y-188211638D02*
X181241548Y-189925923D01*
X181241548Y-189925923D02*
X181312976Y-190116400D01*
X181312976Y-190116400D02*
X181491548Y-190211638D01*
X181491548Y-190211638D02*
X181682024Y-190211638D01*
X182634405Y-190211638D02*
X182455833Y-190116400D01*
X182455833Y-190116400D02*
X182384405Y-189925923D01*
X182384405Y-189925923D02*
X182598690Y-188211638D01*
X184170119Y-190116400D02*
X183967738Y-190211638D01*
X183967738Y-190211638D02*
X183586785Y-190211638D01*
X183586785Y-190211638D02*
X183408214Y-190116400D01*
X183408214Y-190116400D02*
X183336785Y-189925923D01*
X183336785Y-189925923D02*
X183432024Y-189164019D01*
X183432024Y-189164019D02*
X183551071Y-188973542D01*
X183551071Y-188973542D02*
X183753452Y-188878304D01*
X183753452Y-188878304D02*
X184134404Y-188878304D01*
X184134404Y-188878304D02*
X184312976Y-188973542D01*
X184312976Y-188973542D02*
X184384404Y-189164019D01*
X184384404Y-189164019D02*
X184360595Y-189354495D01*
X184360595Y-189354495D02*
X183384404Y-189544971D01*
X185134405Y-190021161D02*
X185217738Y-190116400D01*
X185217738Y-190116400D02*
X185110595Y-190211638D01*
X185110595Y-190211638D02*
X185027262Y-190116400D01*
X185027262Y-190116400D02*
X185134405Y-190021161D01*
X185134405Y-190021161D02*
X185110595Y-190211638D01*
X185265357Y-188973542D02*
X185348690Y-189068780D01*
X185348690Y-189068780D02*
X185241548Y-189164019D01*
X185241548Y-189164019D02*
X185158214Y-189068780D01*
X185158214Y-189068780D02*
X185265357Y-188973542D01*
X185265357Y-188973542D02*
X185241548Y-189164019D01*
X187586786Y-190211638D02*
X187836786Y-188211638D01*
X188729643Y-190211638D02*
X188015358Y-189068780D01*
X188979643Y-188211638D02*
X187693929Y-189354495D01*
X189586786Y-190211638D02*
X189836786Y-188211638D01*
X189836786Y-188211638D02*
X190598691Y-188211638D01*
X190598691Y-188211638D02*
X190777262Y-188306876D01*
X190777262Y-188306876D02*
X190860596Y-188402114D01*
X190860596Y-188402114D02*
X190932024Y-188592590D01*
X190932024Y-188592590D02*
X190896310Y-188878304D01*
X190896310Y-188878304D02*
X190777262Y-189068780D01*
X190777262Y-189068780D02*
X190670120Y-189164019D01*
X190670120Y-189164019D02*
X190467739Y-189259257D01*
X190467739Y-189259257D02*
X189705834Y-189259257D01*
X191717739Y-188402114D02*
X191824881Y-188306876D01*
X191824881Y-188306876D02*
X192027262Y-188211638D01*
X192027262Y-188211638D02*
X192503453Y-188211638D01*
X192503453Y-188211638D02*
X192682024Y-188306876D01*
X192682024Y-188306876D02*
X192765358Y-188402114D01*
X192765358Y-188402114D02*
X192836786Y-188592590D01*
X192836786Y-188592590D02*
X192812977Y-188783066D01*
X192812977Y-188783066D02*
X192682024Y-189068780D01*
X192682024Y-189068780D02*
X191396310Y-190211638D01*
X191396310Y-190211638D02*
X192634405Y-190211638D01*
X194693929Y-188211638D02*
X193741548Y-188211638D01*
X193741548Y-188211638D02*
X193527263Y-189164019D01*
X193527263Y-189164019D02*
X193634405Y-189068780D01*
X193634405Y-189068780D02*
X193836786Y-188973542D01*
X193836786Y-188973542D02*
X194312977Y-188973542D01*
X194312977Y-188973542D02*
X194491548Y-189068780D01*
X194491548Y-189068780D02*
X194574882Y-189164019D01*
X194574882Y-189164019D02*
X194646310Y-189354495D01*
X194646310Y-189354495D02*
X194586786Y-189830685D01*
X194586786Y-189830685D02*
X194467739Y-190021161D01*
X194467739Y-190021161D02*
X194360596Y-190116400D01*
X194360596Y-190116400D02*
X194158215Y-190211638D01*
X194158215Y-190211638D02*
X193682024Y-190211638D01*
X193682024Y-190211638D02*
X193503453Y-190116400D01*
X193503453Y-190116400D02*
X193420120Y-190021161D01*
X195360596Y-188211638D02*
X196503453Y-188211638D01*
X195682025Y-190211638D02*
X195932025Y-188211638D01*
X196920120Y-190211638D02*
X197170120Y-188211638D01*
X198062977Y-190211638D02*
X197348692Y-189068780D01*
X198312977Y-188211638D02*
X197027263Y-189354495D01*
X200574883Y-188402114D02*
X200682025Y-188306876D01*
X200682025Y-188306876D02*
X200884406Y-188211638D01*
X200884406Y-188211638D02*
X201360597Y-188211638D01*
X201360597Y-188211638D02*
X201539168Y-188306876D01*
X201539168Y-188306876D02*
X201622502Y-188402114D01*
X201622502Y-188402114D02*
X201693930Y-188592590D01*
X201693930Y-188592590D02*
X201670121Y-188783066D01*
X201670121Y-188783066D02*
X201539168Y-189068780D01*
X201539168Y-189068780D02*
X200253454Y-190211638D01*
X200253454Y-190211638D02*
X201491549Y-190211638D01*
X203551073Y-188211638D02*
X202598692Y-188211638D01*
X202598692Y-188211638D02*
X202384407Y-189164019D01*
X202384407Y-189164019D02*
X202491549Y-189068780D01*
X202491549Y-189068780D02*
X202693930Y-188973542D01*
X202693930Y-188973542D02*
X203170121Y-188973542D01*
X203170121Y-188973542D02*
X203348692Y-189068780D01*
X203348692Y-189068780D02*
X203432026Y-189164019D01*
X203432026Y-189164019D02*
X203503454Y-189354495D01*
X203503454Y-189354495D02*
X203443930Y-189830685D01*
X203443930Y-189830685D02*
X203324883Y-190021161D01*
X203324883Y-190021161D02*
X203217740Y-190116400D01*
X203217740Y-190116400D02*
X203015359Y-190211638D01*
X203015359Y-190211638D02*
X202539168Y-190211638D01*
X202539168Y-190211638D02*
X202360597Y-190116400D01*
X202360597Y-190116400D02*
X202277264Y-190021161D01*
X205777264Y-190211638D02*
X206027264Y-188211638D01*
X206920121Y-190211638D02*
X206205836Y-189068780D01*
X207170121Y-188211638D02*
X205884407Y-189354495D01*
X208551074Y-190116400D02*
X208348693Y-190211638D01*
X208348693Y-190211638D02*
X207967740Y-190211638D01*
X207967740Y-190211638D02*
X207789169Y-190116400D01*
X207789169Y-190116400D02*
X207717740Y-189925923D01*
X207717740Y-189925923D02*
X207812979Y-189164019D01*
X207812979Y-189164019D02*
X207932026Y-188973542D01*
X207932026Y-188973542D02*
X208134407Y-188878304D01*
X208134407Y-188878304D02*
X208515359Y-188878304D01*
X208515359Y-188878304D02*
X208693931Y-188973542D01*
X208693931Y-188973542D02*
X208765359Y-189164019D01*
X208765359Y-189164019D02*
X208741550Y-189354495D01*
X208741550Y-189354495D02*
X207765359Y-189544971D01*
X209467741Y-188878304D02*
X209777265Y-190211638D01*
X210420122Y-188878304D02*
X209777265Y-190211638D01*
X209777265Y-190211638D02*
X209527265Y-190687828D01*
X209527265Y-190687828D02*
X209420122Y-190783066D01*
X209420122Y-190783066D02*
X209217741Y-190878304D01*
X212539170Y-190211638D02*
X212789170Y-188211638D01*
X212670123Y-189164019D02*
X213812980Y-189164019D01*
X213682027Y-190211638D02*
X213932027Y-188211638D01*
X215408218Y-190116400D02*
X215205837Y-190211638D01*
X215205837Y-190211638D02*
X214824884Y-190211638D01*
X214824884Y-190211638D02*
X214646313Y-190116400D01*
X214646313Y-190116400D02*
X214574884Y-189925923D01*
X214574884Y-189925923D02*
X214670123Y-189164019D01*
X214670123Y-189164019D02*
X214789170Y-188973542D01*
X214789170Y-188973542D02*
X214991551Y-188878304D01*
X214991551Y-188878304D02*
X215372503Y-188878304D01*
X215372503Y-188878304D02*
X215551075Y-188973542D01*
X215551075Y-188973542D02*
X215622503Y-189164019D01*
X215622503Y-189164019D02*
X215598694Y-189354495D01*
X215598694Y-189354495D02*
X214622503Y-189544971D01*
X216158218Y-190211638D02*
X217372504Y-188878304D01*
X216324885Y-188878304D02*
X217205837Y-190211638D01*
X219491552Y-190211638D02*
X219741552Y-188211638D01*
X220634409Y-190211638D02*
X219920124Y-189068780D01*
X220884409Y-188211638D02*
X219598695Y-189354495D01*
X222265362Y-190116400D02*
X222062981Y-190211638D01*
X222062981Y-190211638D02*
X221682028Y-190211638D01*
X221682028Y-190211638D02*
X221503457Y-190116400D01*
X221503457Y-190116400D02*
X221432028Y-189925923D01*
X221432028Y-189925923D02*
X221527267Y-189164019D01*
X221527267Y-189164019D02*
X221646314Y-188973542D01*
X221646314Y-188973542D02*
X221848695Y-188878304D01*
X221848695Y-188878304D02*
X222229647Y-188878304D01*
X222229647Y-188878304D02*
X222408219Y-188973542D01*
X222408219Y-188973542D02*
X222479647Y-189164019D01*
X222479647Y-189164019D02*
X222455838Y-189354495D01*
X222455838Y-189354495D02*
X221479647Y-189544971D01*
X223182029Y-188878304D02*
X223491553Y-190211638D01*
X224134410Y-188878304D02*
X223491553Y-190211638D01*
X223491553Y-190211638D02*
X223241553Y-190687828D01*
X223241553Y-190687828D02*
X223134410Y-190783066D01*
X223134410Y-190783066D02*
X222932029Y-190878304D01*
X224729648Y-190211638D02*
X224979648Y-188211638D01*
X224884410Y-188973542D02*
X225086791Y-188878304D01*
X225086791Y-188878304D02*
X225467743Y-188878304D01*
X225467743Y-188878304D02*
X225646315Y-188973542D01*
X225646315Y-188973542D02*
X225729648Y-189068780D01*
X225729648Y-189068780D02*
X225801077Y-189259257D01*
X225801077Y-189259257D02*
X225729648Y-189830685D01*
X225729648Y-189830685D02*
X225610601Y-190021161D01*
X225610601Y-190021161D02*
X225503458Y-190116400D01*
X225503458Y-190116400D02*
X225301077Y-190211638D01*
X225301077Y-190211638D02*
X224920124Y-190211638D01*
X224920124Y-190211638D02*
X224741553Y-190116400D01*
X226824887Y-190211638D02*
X226646315Y-190116400D01*
X226646315Y-190116400D02*
X226562982Y-190021161D01*
X226562982Y-190021161D02*
X226491553Y-189830685D01*
X226491553Y-189830685D02*
X226562982Y-189259257D01*
X226562982Y-189259257D02*
X226682029Y-189068780D01*
X226682029Y-189068780D02*
X226789172Y-188973542D01*
X226789172Y-188973542D02*
X226991553Y-188878304D01*
X226991553Y-188878304D02*
X227277267Y-188878304D01*
X227277267Y-188878304D02*
X227455839Y-188973542D01*
X227455839Y-188973542D02*
X227539172Y-189068780D01*
X227539172Y-189068780D02*
X227610601Y-189259257D01*
X227610601Y-189259257D02*
X227539172Y-189830685D01*
X227539172Y-189830685D02*
X227420125Y-190021161D01*
X227420125Y-190021161D02*
X227312982Y-190116400D01*
X227312982Y-190116400D02*
X227110601Y-190211638D01*
X227110601Y-190211638D02*
X226824887Y-190211638D01*
X229205839Y-190211638D02*
X229336791Y-189164019D01*
X229336791Y-189164019D02*
X229265363Y-188973542D01*
X229265363Y-188973542D02*
X229086791Y-188878304D01*
X229086791Y-188878304D02*
X228705839Y-188878304D01*
X228705839Y-188878304D02*
X228503458Y-188973542D01*
X229217744Y-190116400D02*
X229015363Y-190211638D01*
X229015363Y-190211638D02*
X228539172Y-190211638D01*
X228539172Y-190211638D02*
X228360601Y-190116400D01*
X228360601Y-190116400D02*
X228289172Y-189925923D01*
X228289172Y-189925923D02*
X228312982Y-189735447D01*
X228312982Y-189735447D02*
X228432030Y-189544971D01*
X228432030Y-189544971D02*
X228634411Y-189449733D01*
X228634411Y-189449733D02*
X229110601Y-189449733D01*
X229110601Y-189449733D02*
X229312982Y-189354495D01*
X230158220Y-190211638D02*
X230324887Y-188878304D01*
X230277268Y-189259257D02*
X230396315Y-189068780D01*
X230396315Y-189068780D02*
X230503458Y-188973542D01*
X230503458Y-188973542D02*
X230705839Y-188878304D01*
X230705839Y-188878304D02*
X230896315Y-188878304D01*
X232253458Y-190211638D02*
X232503458Y-188211638D01*
X232265363Y-190116400D02*
X232062982Y-190211638D01*
X232062982Y-190211638D02*
X231682030Y-190211638D01*
X231682030Y-190211638D02*
X231503458Y-190116400D01*
X231503458Y-190116400D02*
X231420125Y-190021161D01*
X231420125Y-190021161D02*
X231348696Y-189830685D01*
X231348696Y-189830685D02*
X231420125Y-189259257D01*
X231420125Y-189259257D02*
X231539172Y-189068780D01*
X231539172Y-189068780D02*
X231646315Y-188973542D01*
X231646315Y-188973542D02*
X231848696Y-188878304D01*
X231848696Y-188878304D02*
X232229649Y-188878304D01*
X232229649Y-188878304D02*
X232408220Y-188973542D01*
D10*
D11*
X178958026Y-185607614D02*
X178458026Y-185607614D01*
X178458026Y-186393328D02*
X178458026Y-184893328D01*
X178458026Y-184893328D02*
X179172312Y-184893328D01*
X179743740Y-186393328D02*
X179743740Y-185393328D01*
X179743740Y-184893328D02*
X179672312Y-184964757D01*
X179672312Y-184964757D02*
X179743740Y-185036185D01*
X179743740Y-185036185D02*
X179815169Y-184964757D01*
X179815169Y-184964757D02*
X179743740Y-184893328D01*
X179743740Y-184893328D02*
X179743740Y-185036185D01*
X180672312Y-186393328D02*
X180529455Y-186321900D01*
X180529455Y-186321900D02*
X180458026Y-186179042D01*
X180458026Y-186179042D02*
X180458026Y-184893328D01*
X181815169Y-186321900D02*
X181672312Y-186393328D01*
X181672312Y-186393328D02*
X181386598Y-186393328D01*
X181386598Y-186393328D02*
X181243740Y-186321900D01*
X181243740Y-186321900D02*
X181172312Y-186179042D01*
X181172312Y-186179042D02*
X181172312Y-185607614D01*
X181172312Y-185607614D02*
X181243740Y-185464757D01*
X181243740Y-185464757D02*
X181386598Y-185393328D01*
X181386598Y-185393328D02*
X181672312Y-185393328D01*
X181672312Y-185393328D02*
X181815169Y-185464757D01*
X181815169Y-185464757D02*
X181886598Y-185607614D01*
X181886598Y-185607614D02*
X181886598Y-185750471D01*
X181886598Y-185750471D02*
X181172312Y-185893328D01*
X182529454Y-186250471D02*
X182600883Y-186321900D01*
X182600883Y-186321900D02*
X182529454Y-186393328D01*
X182529454Y-186393328D02*
X182458026Y-186321900D01*
X182458026Y-186321900D02*
X182529454Y-186250471D01*
X182529454Y-186250471D02*
X182529454Y-186393328D01*
X182529454Y-185464757D02*
X182600883Y-185536185D01*
X182600883Y-185536185D02*
X182529454Y-185607614D01*
X182529454Y-185607614D02*
X182458026Y-185536185D01*
X182458026Y-185536185D02*
X182529454Y-185464757D01*
X182529454Y-185464757D02*
X182529454Y-185607614D01*
X184386597Y-186393328D02*
X184386597Y-184893328D01*
X184529455Y-185821900D02*
X184958026Y-186393328D01*
X184958026Y-185393328D02*
X184386597Y-185964757D01*
X185600883Y-185393328D02*
X185600883Y-186893328D01*
X185600883Y-185464757D02*
X185743741Y-185393328D01*
X185743741Y-185393328D02*
X186029455Y-185393328D01*
X186029455Y-185393328D02*
X186172312Y-185464757D01*
X186172312Y-185464757D02*
X186243741Y-185536185D01*
X186243741Y-185536185D02*
X186315169Y-185679042D01*
X186315169Y-185679042D02*
X186315169Y-186107614D01*
X186315169Y-186107614D02*
X186243741Y-186250471D01*
X186243741Y-186250471D02*
X186172312Y-186321900D01*
X186172312Y-186321900D02*
X186029455Y-186393328D01*
X186029455Y-186393328D02*
X185743741Y-186393328D01*
X185743741Y-186393328D02*
X185600883Y-186321900D01*
X186886598Y-185036185D02*
X186958026Y-184964757D01*
X186958026Y-184964757D02*
X187100884Y-184893328D01*
X187100884Y-184893328D02*
X187458026Y-184893328D01*
X187458026Y-184893328D02*
X187600884Y-184964757D01*
X187600884Y-184964757D02*
X187672312Y-185036185D01*
X187672312Y-185036185D02*
X187743741Y-185179042D01*
X187743741Y-185179042D02*
X187743741Y-185321900D01*
X187743741Y-185321900D02*
X187672312Y-185536185D01*
X187672312Y-185536185D02*
X186815169Y-186393328D01*
X186815169Y-186393328D02*
X187743741Y-186393328D01*
X189100883Y-184893328D02*
X188386597Y-184893328D01*
X188386597Y-184893328D02*
X188315169Y-185607614D01*
X188315169Y-185607614D02*
X188386597Y-185536185D01*
X188386597Y-185536185D02*
X188529455Y-185464757D01*
X188529455Y-185464757D02*
X188886597Y-185464757D01*
X188886597Y-185464757D02*
X189029455Y-185536185D01*
X189029455Y-185536185D02*
X189100883Y-185607614D01*
X189100883Y-185607614D02*
X189172312Y-185750471D01*
X189172312Y-185750471D02*
X189172312Y-186107614D01*
X189172312Y-186107614D02*
X189100883Y-186250471D01*
X189100883Y-186250471D02*
X189029455Y-186321900D01*
X189029455Y-186321900D02*
X188886597Y-186393328D01*
X188886597Y-186393328D02*
X188529455Y-186393328D01*
X188529455Y-186393328D02*
X188386597Y-186321900D01*
X188386597Y-186321900D02*
X188315169Y-186250471D01*
X189600883Y-185393328D02*
X190172311Y-185393328D01*
X189815168Y-184893328D02*
X189815168Y-186179042D01*
X189815168Y-186179042D02*
X189886597Y-186321900D01*
X189886597Y-186321900D02*
X190029454Y-186393328D01*
X190029454Y-186393328D02*
X190172311Y-186393328D01*
X190672311Y-186393328D02*
X190672311Y-184893328D01*
X190815169Y-185821900D02*
X191243740Y-186393328D01*
X191243740Y-185393328D02*
X190672311Y-185964757D01*
X191886597Y-186250471D02*
X191958026Y-186321900D01*
X191958026Y-186321900D02*
X191886597Y-186393328D01*
X191886597Y-186393328D02*
X191815169Y-186321900D01*
X191815169Y-186321900D02*
X191886597Y-186250471D01*
X191886597Y-186250471D02*
X191886597Y-186393328D01*
X192600883Y-186393328D02*
X192600883Y-184893328D01*
X192743741Y-185821900D02*
X193172312Y-186393328D01*
X193172312Y-185393328D02*
X192600883Y-185964757D01*
X193815169Y-186393328D02*
X193815169Y-185393328D01*
X193815169Y-184893328D02*
X193743741Y-184964757D01*
X193743741Y-184964757D02*
X193815169Y-185036185D01*
X193815169Y-185036185D02*
X193886598Y-184964757D01*
X193886598Y-184964757D02*
X193815169Y-184893328D01*
X193815169Y-184893328D02*
X193815169Y-185036185D01*
X195172313Y-186321900D02*
X195029455Y-186393328D01*
X195029455Y-186393328D02*
X194743741Y-186393328D01*
X194743741Y-186393328D02*
X194600884Y-186321900D01*
X194600884Y-186321900D02*
X194529455Y-186250471D01*
X194529455Y-186250471D02*
X194458027Y-186107614D01*
X194458027Y-186107614D02*
X194458027Y-185679042D01*
X194458027Y-185679042D02*
X194529455Y-185536185D01*
X194529455Y-185536185D02*
X194600884Y-185464757D01*
X194600884Y-185464757D02*
X194743741Y-185393328D01*
X194743741Y-185393328D02*
X195029455Y-185393328D01*
X195029455Y-185393328D02*
X195172313Y-185464757D01*
X196458027Y-186393328D02*
X196458027Y-185607614D01*
X196458027Y-185607614D02*
X196386598Y-185464757D01*
X196386598Y-185464757D02*
X196243741Y-185393328D01*
X196243741Y-185393328D02*
X195958027Y-185393328D01*
X195958027Y-185393328D02*
X195815169Y-185464757D01*
X196458027Y-186321900D02*
X196315169Y-186393328D01*
X196315169Y-186393328D02*
X195958027Y-186393328D01*
X195958027Y-186393328D02*
X195815169Y-186321900D01*
X195815169Y-186321900D02*
X195743741Y-186179042D01*
X195743741Y-186179042D02*
X195743741Y-186036185D01*
X195743741Y-186036185D02*
X195815169Y-185893328D01*
X195815169Y-185893328D02*
X195958027Y-185821900D01*
X195958027Y-185821900D02*
X196315169Y-185821900D01*
X196315169Y-185821900D02*
X196458027Y-185750471D01*
X197815170Y-186393328D02*
X197815170Y-184893328D01*
X197815170Y-186321900D02*
X197672312Y-186393328D01*
X197672312Y-186393328D02*
X197386598Y-186393328D01*
X197386598Y-186393328D02*
X197243741Y-186321900D01*
X197243741Y-186321900D02*
X197172312Y-186250471D01*
X197172312Y-186250471D02*
X197100884Y-186107614D01*
X197100884Y-186107614D02*
X197100884Y-185679042D01*
X197100884Y-185679042D02*
X197172312Y-185536185D01*
X197172312Y-185536185D02*
X197243741Y-185464757D01*
X197243741Y-185464757D02*
X197386598Y-185393328D01*
X197386598Y-185393328D02*
X197672312Y-185393328D01*
X197672312Y-185393328D02*
X197815170Y-185464757D01*
X198172313Y-186536185D02*
X199315170Y-186536185D01*
X199672312Y-185393328D02*
X199672312Y-186893328D01*
X199672312Y-185464757D02*
X199815170Y-185393328D01*
X199815170Y-185393328D02*
X200100884Y-185393328D01*
X200100884Y-185393328D02*
X200243741Y-185464757D01*
X200243741Y-185464757D02*
X200315170Y-185536185D01*
X200315170Y-185536185D02*
X200386598Y-185679042D01*
X200386598Y-185679042D02*
X200386598Y-186107614D01*
X200386598Y-186107614D02*
X200315170Y-186250471D01*
X200315170Y-186250471D02*
X200243741Y-186321900D01*
X200243741Y-186321900D02*
X200100884Y-186393328D01*
X200100884Y-186393328D02*
X199815170Y-186393328D01*
X199815170Y-186393328D02*
X199672312Y-186321900D01*
X201672313Y-186321900D02*
X201529455Y-186393328D01*
X201529455Y-186393328D02*
X201243741Y-186393328D01*
X201243741Y-186393328D02*
X201100884Y-186321900D01*
X201100884Y-186321900D02*
X201029455Y-186250471D01*
X201029455Y-186250471D02*
X200958027Y-186107614D01*
X200958027Y-186107614D02*
X200958027Y-185679042D01*
X200958027Y-185679042D02*
X201029455Y-185536185D01*
X201029455Y-185536185D02*
X201100884Y-185464757D01*
X201100884Y-185464757D02*
X201243741Y-185393328D01*
X201243741Y-185393328D02*
X201529455Y-185393328D01*
X201529455Y-185393328D02*
X201672313Y-185464757D01*
X202315169Y-186393328D02*
X202315169Y-184893328D01*
X202315169Y-185464757D02*
X202458027Y-185393328D01*
X202458027Y-185393328D02*
X202743741Y-185393328D01*
X202743741Y-185393328D02*
X202886598Y-185464757D01*
X202886598Y-185464757D02*
X202958027Y-185536185D01*
X202958027Y-185536185D02*
X203029455Y-185679042D01*
X203029455Y-185679042D02*
X203029455Y-186107614D01*
X203029455Y-186107614D02*
X202958027Y-186250471D01*
X202958027Y-186250471D02*
X202886598Y-186321900D01*
X202886598Y-186321900D02*
X202743741Y-186393328D01*
X202743741Y-186393328D02*
X202458027Y-186393328D01*
X202458027Y-186393328D02*
X202315169Y-186321900D01*
D10*
D11*
X177002200Y-181507200D02*
X285002200Y-181507200D01*
D10*
D11*
X178386598Y-183621900D02*
X178600884Y-183693328D01*
X178600884Y-183693328D02*
X178958026Y-183693328D01*
X178958026Y-183693328D02*
X179100884Y-183621900D01*
X179100884Y-183621900D02*
X179172312Y-183550471D01*
X179172312Y-183550471D02*
X179243741Y-183407614D01*
X179243741Y-183407614D02*
X179243741Y-183264757D01*
X179243741Y-183264757D02*
X179172312Y-183121900D01*
X179172312Y-183121900D02*
X179100884Y-183050471D01*
X179100884Y-183050471D02*
X178958026Y-182979042D01*
X178958026Y-182979042D02*
X178672312Y-182907614D01*
X178672312Y-182907614D02*
X178529455Y-182836185D01*
X178529455Y-182836185D02*
X178458026Y-182764757D01*
X178458026Y-182764757D02*
X178386598Y-182621900D01*
X178386598Y-182621900D02*
X178386598Y-182479042D01*
X178386598Y-182479042D02*
X178458026Y-182336185D01*
X178458026Y-182336185D02*
X178529455Y-182264757D01*
X178529455Y-182264757D02*
X178672312Y-182193328D01*
X178672312Y-182193328D02*
X179029455Y-182193328D01*
X179029455Y-182193328D02*
X179243741Y-182264757D01*
X179886597Y-183693328D02*
X179886597Y-182193328D01*
X180529455Y-183693328D02*
X180529455Y-182907614D01*
X180529455Y-182907614D02*
X180458026Y-182764757D01*
X180458026Y-182764757D02*
X180315169Y-182693328D01*
X180315169Y-182693328D02*
X180100883Y-182693328D01*
X180100883Y-182693328D02*
X179958026Y-182764757D01*
X179958026Y-182764757D02*
X179886597Y-182836185D01*
X181815169Y-183621900D02*
X181672312Y-183693328D01*
X181672312Y-183693328D02*
X181386598Y-183693328D01*
X181386598Y-183693328D02*
X181243740Y-183621900D01*
X181243740Y-183621900D02*
X181172312Y-183479042D01*
X181172312Y-183479042D02*
X181172312Y-182907614D01*
X181172312Y-182907614D02*
X181243740Y-182764757D01*
X181243740Y-182764757D02*
X181386598Y-182693328D01*
X181386598Y-182693328D02*
X181672312Y-182693328D01*
X181672312Y-182693328D02*
X181815169Y-182764757D01*
X181815169Y-182764757D02*
X181886598Y-182907614D01*
X181886598Y-182907614D02*
X181886598Y-183050471D01*
X181886598Y-183050471D02*
X181172312Y-183193328D01*
X183100883Y-183621900D02*
X182958026Y-183693328D01*
X182958026Y-183693328D02*
X182672312Y-183693328D01*
X182672312Y-183693328D02*
X182529454Y-183621900D01*
X182529454Y-183621900D02*
X182458026Y-183479042D01*
X182458026Y-183479042D02*
X182458026Y-182907614D01*
X182458026Y-182907614D02*
X182529454Y-182764757D01*
X182529454Y-182764757D02*
X182672312Y-182693328D01*
X182672312Y-182693328D02*
X182958026Y-182693328D01*
X182958026Y-182693328D02*
X183100883Y-182764757D01*
X183100883Y-182764757D02*
X183172312Y-182907614D01*
X183172312Y-182907614D02*
X183172312Y-183050471D01*
X183172312Y-183050471D02*
X182458026Y-183193328D01*
X183600883Y-182693328D02*
X184172311Y-182693328D01*
X183815168Y-182193328D02*
X183815168Y-183479042D01*
X183815168Y-183479042D02*
X183886597Y-183621900D01*
X183886597Y-183621900D02*
X184029454Y-183693328D01*
X184029454Y-183693328D02*
X184172311Y-183693328D01*
X184672311Y-183550471D02*
X184743740Y-183621900D01*
X184743740Y-183621900D02*
X184672311Y-183693328D01*
X184672311Y-183693328D02*
X184600883Y-183621900D01*
X184600883Y-183621900D02*
X184672311Y-183550471D01*
X184672311Y-183550471D02*
X184672311Y-183693328D01*
X184672311Y-182764757D02*
X184743740Y-182836185D01*
X184743740Y-182836185D02*
X184672311Y-182907614D01*
X184672311Y-182907614D02*
X184600883Y-182836185D01*
X184600883Y-182836185D02*
X184672311Y-182764757D01*
X184672311Y-182764757D02*
X184672311Y-182907614D01*
D10*
D11*
X178458026Y-177693328D02*
X178458026Y-176193328D01*
X178458026Y-176193328D02*
X178815169Y-176193328D01*
X178815169Y-176193328D02*
X179029455Y-176264757D01*
X179029455Y-176264757D02*
X179172312Y-176407614D01*
X179172312Y-176407614D02*
X179243741Y-176550471D01*
X179243741Y-176550471D02*
X179315169Y-176836185D01*
X179315169Y-176836185D02*
X179315169Y-177050471D01*
X179315169Y-177050471D02*
X179243741Y-177336185D01*
X179243741Y-177336185D02*
X179172312Y-177479042D01*
X179172312Y-177479042D02*
X179029455Y-177621900D01*
X179029455Y-177621900D02*
X178815169Y-177693328D01*
X178815169Y-177693328D02*
X178458026Y-177693328D01*
X180529455Y-177621900D02*
X180386598Y-177693328D01*
X180386598Y-177693328D02*
X180100884Y-177693328D01*
X180100884Y-177693328D02*
X179958026Y-177621900D01*
X179958026Y-177621900D02*
X179886598Y-177479042D01*
X179886598Y-177479042D02*
X179886598Y-176907614D01*
X179886598Y-176907614D02*
X179958026Y-176764757D01*
X179958026Y-176764757D02*
X180100884Y-176693328D01*
X180100884Y-176693328D02*
X180386598Y-176693328D01*
X180386598Y-176693328D02*
X180529455Y-176764757D01*
X180529455Y-176764757D02*
X180600884Y-176907614D01*
X180600884Y-176907614D02*
X180600884Y-177050471D01*
X180600884Y-177050471D02*
X179886598Y-177193328D01*
X181172312Y-177621900D02*
X181315169Y-177693328D01*
X181315169Y-177693328D02*
X181600883Y-177693328D01*
X181600883Y-177693328D02*
X181743740Y-177621900D01*
X181743740Y-177621900D02*
X181815169Y-177479042D01*
X181815169Y-177479042D02*
X181815169Y-177407614D01*
X181815169Y-177407614D02*
X181743740Y-177264757D01*
X181743740Y-177264757D02*
X181600883Y-177193328D01*
X181600883Y-177193328D02*
X181386598Y-177193328D01*
X181386598Y-177193328D02*
X181243740Y-177121900D01*
X181243740Y-177121900D02*
X181172312Y-176979042D01*
X181172312Y-176979042D02*
X181172312Y-176907614D01*
X181172312Y-176907614D02*
X181243740Y-176764757D01*
X181243740Y-176764757D02*
X181386598Y-176693328D01*
X181386598Y-176693328D02*
X181600883Y-176693328D01*
X181600883Y-176693328D02*
X181743740Y-176764757D01*
X183100884Y-176693328D02*
X183100884Y-177907614D01*
X183100884Y-177907614D02*
X183029455Y-178050471D01*
X183029455Y-178050471D02*
X182958026Y-178121900D01*
X182958026Y-178121900D02*
X182815169Y-178193328D01*
X182815169Y-178193328D02*
X182600884Y-178193328D01*
X182600884Y-178193328D02*
X182458026Y-178121900D01*
X183100884Y-177621900D02*
X182958026Y-177693328D01*
X182958026Y-177693328D02*
X182672312Y-177693328D01*
X182672312Y-177693328D02*
X182529455Y-177621900D01*
X182529455Y-177621900D02*
X182458026Y-177550471D01*
X182458026Y-177550471D02*
X182386598Y-177407614D01*
X182386598Y-177407614D02*
X182386598Y-176979042D01*
X182386598Y-176979042D02*
X182458026Y-176836185D01*
X182458026Y-176836185D02*
X182529455Y-176764757D01*
X182529455Y-176764757D02*
X182672312Y-176693328D01*
X182672312Y-176693328D02*
X182958026Y-176693328D01*
X182958026Y-176693328D02*
X183100884Y-176764757D01*
X183815169Y-177693328D02*
X183815169Y-176693328D01*
X183815169Y-176193328D02*
X183743741Y-176264757D01*
X183743741Y-176264757D02*
X183815169Y-176336185D01*
X183815169Y-176336185D02*
X183886598Y-176264757D01*
X183886598Y-176264757D02*
X183815169Y-176193328D01*
X183815169Y-176193328D02*
X183815169Y-176336185D01*
X184529455Y-176693328D02*
X184529455Y-177693328D01*
X184529455Y-176836185D02*
X184600884Y-176764757D01*
X184600884Y-176764757D02*
X184743741Y-176693328D01*
X184743741Y-176693328D02*
X184958027Y-176693328D01*
X184958027Y-176693328D02*
X185100884Y-176764757D01*
X185100884Y-176764757D02*
X185172313Y-176907614D01*
X185172313Y-176907614D02*
X185172313Y-177693328D01*
X186458027Y-177621900D02*
X186315170Y-177693328D01*
X186315170Y-177693328D02*
X186029456Y-177693328D01*
X186029456Y-177693328D02*
X185886598Y-177621900D01*
X185886598Y-177621900D02*
X185815170Y-177479042D01*
X185815170Y-177479042D02*
X185815170Y-176907614D01*
X185815170Y-176907614D02*
X185886598Y-176764757D01*
X185886598Y-176764757D02*
X186029456Y-176693328D01*
X186029456Y-176693328D02*
X186315170Y-176693328D01*
X186315170Y-176693328D02*
X186458027Y-176764757D01*
X186458027Y-176764757D02*
X186529456Y-176907614D01*
X186529456Y-176907614D02*
X186529456Y-177050471D01*
X186529456Y-177050471D02*
X185815170Y-177193328D01*
X187172312Y-177693328D02*
X187172312Y-176693328D01*
X187172312Y-176979042D02*
X187243741Y-176836185D01*
X187243741Y-176836185D02*
X187315170Y-176764757D01*
X187315170Y-176764757D02*
X187458027Y-176693328D01*
X187458027Y-176693328D02*
X187600884Y-176693328D01*
X188100883Y-177550471D02*
X188172312Y-177621900D01*
X188172312Y-177621900D02*
X188100883Y-177693328D01*
X188100883Y-177693328D02*
X188029455Y-177621900D01*
X188029455Y-177621900D02*
X188100883Y-177550471D01*
X188100883Y-177550471D02*
X188100883Y-177693328D01*
X188100883Y-176764757D02*
X188172312Y-176836185D01*
X188172312Y-176836185D02*
X188100883Y-176907614D01*
X188100883Y-176907614D02*
X188029455Y-176836185D01*
X188029455Y-176836185D02*
X188100883Y-176764757D01*
X188100883Y-176764757D02*
X188100883Y-176907614D01*
X190600884Y-177621900D02*
X190458026Y-177693328D01*
X190458026Y-177693328D02*
X190172312Y-177693328D01*
X190172312Y-177693328D02*
X190029455Y-177621900D01*
X190029455Y-177621900D02*
X189958026Y-177550471D01*
X189958026Y-177550471D02*
X189886598Y-177407614D01*
X189886598Y-177407614D02*
X189886598Y-176979042D01*
X189886598Y-176979042D02*
X189958026Y-176836185D01*
X189958026Y-176836185D02*
X190029455Y-176764757D01*
X190029455Y-176764757D02*
X190172312Y-176693328D01*
X190172312Y-176693328D02*
X190458026Y-176693328D01*
X190458026Y-176693328D02*
X190600884Y-176764757D01*
X191243740Y-176693328D02*
X191243740Y-177979042D01*
X191243740Y-177979042D02*
X191172312Y-178121900D01*
X191172312Y-178121900D02*
X191029455Y-178193328D01*
X191029455Y-178193328D02*
X190958026Y-178193328D01*
X191243740Y-176193328D02*
X191172312Y-176264757D01*
X191172312Y-176264757D02*
X191243740Y-176336185D01*
X191243740Y-176336185D02*
X191315169Y-176264757D01*
X191315169Y-176264757D02*
X191243740Y-176193328D01*
X191243740Y-176193328D02*
X191243740Y-176336185D01*
X191886598Y-177621900D02*
X192029455Y-177693328D01*
X192029455Y-177693328D02*
X192315169Y-177693328D01*
X192315169Y-177693328D02*
X192458026Y-177621900D01*
X192458026Y-177621900D02*
X192529455Y-177479042D01*
X192529455Y-177479042D02*
X192529455Y-177407614D01*
X192529455Y-177407614D02*
X192458026Y-177264757D01*
X192458026Y-177264757D02*
X192315169Y-177193328D01*
X192315169Y-177193328D02*
X192100884Y-177193328D01*
X192100884Y-177193328D02*
X191958026Y-177121900D01*
X191958026Y-177121900D02*
X191886598Y-176979042D01*
X191886598Y-176979042D02*
X191886598Y-176907614D01*
X191886598Y-176907614D02*
X191958026Y-176764757D01*
X191958026Y-176764757D02*
X192100884Y-176693328D01*
X192100884Y-176693328D02*
X192315169Y-176693328D01*
X192315169Y-176693328D02*
X192458026Y-176764757D01*
D10*
D11*
X178458026Y-174693328D02*
X178458026Y-173193328D01*
X178458026Y-173193328D02*
X178815169Y-173193328D01*
X178815169Y-173193328D02*
X179029455Y-173264757D01*
X179029455Y-173264757D02*
X179172312Y-173407614D01*
X179172312Y-173407614D02*
X179243741Y-173550471D01*
X179243741Y-173550471D02*
X179315169Y-173836185D01*
X179315169Y-173836185D02*
X179315169Y-174050471D01*
X179315169Y-174050471D02*
X179243741Y-174336185D01*
X179243741Y-174336185D02*
X179172312Y-174479042D01*
X179172312Y-174479042D02*
X179029455Y-174621900D01*
X179029455Y-174621900D02*
X178815169Y-174693328D01*
X178815169Y-174693328D02*
X178458026Y-174693328D01*
X179958026Y-174693328D02*
X179958026Y-173693328D01*
X179958026Y-173979042D02*
X180029455Y-173836185D01*
X180029455Y-173836185D02*
X180100884Y-173764757D01*
X180100884Y-173764757D02*
X180243741Y-173693328D01*
X180243741Y-173693328D02*
X180386598Y-173693328D01*
X181529455Y-174693328D02*
X181529455Y-173907614D01*
X181529455Y-173907614D02*
X181458026Y-173764757D01*
X181458026Y-173764757D02*
X181315169Y-173693328D01*
X181315169Y-173693328D02*
X181029455Y-173693328D01*
X181029455Y-173693328D02*
X180886597Y-173764757D01*
X181529455Y-174621900D02*
X181386597Y-174693328D01*
X181386597Y-174693328D02*
X181029455Y-174693328D01*
X181029455Y-174693328D02*
X180886597Y-174621900D01*
X180886597Y-174621900D02*
X180815169Y-174479042D01*
X180815169Y-174479042D02*
X180815169Y-174336185D01*
X180815169Y-174336185D02*
X180886597Y-174193328D01*
X180886597Y-174193328D02*
X181029455Y-174121900D01*
X181029455Y-174121900D02*
X181386597Y-174121900D01*
X181386597Y-174121900D02*
X181529455Y-174050471D01*
X182029455Y-173693328D02*
X182600883Y-173693328D01*
X182243740Y-174693328D02*
X182243740Y-173407614D01*
X182243740Y-173407614D02*
X182315169Y-173264757D01*
X182315169Y-173264757D02*
X182458026Y-173193328D01*
X182458026Y-173193328D02*
X182600883Y-173193328D01*
X182886598Y-173693328D02*
X183458026Y-173693328D01*
X183100883Y-173193328D02*
X183100883Y-174479042D01*
X183100883Y-174479042D02*
X183172312Y-174621900D01*
X183172312Y-174621900D02*
X183315169Y-174693328D01*
X183315169Y-174693328D02*
X183458026Y-174693328D01*
X184529455Y-174621900D02*
X184386598Y-174693328D01*
X184386598Y-174693328D02*
X184100884Y-174693328D01*
X184100884Y-174693328D02*
X183958026Y-174621900D01*
X183958026Y-174621900D02*
X183886598Y-174479042D01*
X183886598Y-174479042D02*
X183886598Y-173907614D01*
X183886598Y-173907614D02*
X183958026Y-173764757D01*
X183958026Y-173764757D02*
X184100884Y-173693328D01*
X184100884Y-173693328D02*
X184386598Y-173693328D01*
X184386598Y-173693328D02*
X184529455Y-173764757D01*
X184529455Y-173764757D02*
X184600884Y-173907614D01*
X184600884Y-173907614D02*
X184600884Y-174050471D01*
X184600884Y-174050471D02*
X183886598Y-174193328D01*
X185243740Y-174693328D02*
X185243740Y-173693328D01*
X185243740Y-173979042D02*
X185315169Y-173836185D01*
X185315169Y-173836185D02*
X185386598Y-173764757D01*
X185386598Y-173764757D02*
X185529455Y-173693328D01*
X185529455Y-173693328D02*
X185672312Y-173693328D01*
X186172311Y-174550471D02*
X186243740Y-174621900D01*
X186243740Y-174621900D02*
X186172311Y-174693328D01*
X186172311Y-174693328D02*
X186100883Y-174621900D01*
X186100883Y-174621900D02*
X186172311Y-174550471D01*
X186172311Y-174550471D02*
X186172311Y-174693328D01*
X186172311Y-173764757D02*
X186243740Y-173836185D01*
X186243740Y-173836185D02*
X186172311Y-173907614D01*
X186172311Y-173907614D02*
X186100883Y-173836185D01*
X186100883Y-173836185D02*
X186172311Y-173764757D01*
X186172311Y-173764757D02*
X186172311Y-173907614D01*
X187958026Y-174264757D02*
X188672312Y-174264757D01*
X187815169Y-174693328D02*
X188315169Y-173193328D01*
X188315169Y-173193328D02*
X188815169Y-174693328D01*
X189315168Y-173693328D02*
X189315168Y-174693328D01*
X189315168Y-173836185D02*
X189386597Y-173764757D01*
X189386597Y-173764757D02*
X189529454Y-173693328D01*
X189529454Y-173693328D02*
X189743740Y-173693328D01*
X189743740Y-173693328D02*
X189886597Y-173764757D01*
X189886597Y-173764757D02*
X189958026Y-173907614D01*
X189958026Y-173907614D02*
X189958026Y-174693328D01*
X191315169Y-174693328D02*
X191315169Y-173193328D01*
X191315169Y-174621900D02*
X191172311Y-174693328D01*
X191172311Y-174693328D02*
X190886597Y-174693328D01*
X190886597Y-174693328D02*
X190743740Y-174621900D01*
X190743740Y-174621900D02*
X190672311Y-174550471D01*
X190672311Y-174550471D02*
X190600883Y-174407614D01*
X190600883Y-174407614D02*
X190600883Y-173979042D01*
X190600883Y-173979042D02*
X190672311Y-173836185D01*
X190672311Y-173836185D02*
X190743740Y-173764757D01*
X190743740Y-173764757D02*
X190886597Y-173693328D01*
X190886597Y-173693328D02*
X191172311Y-173693328D01*
X191172311Y-173693328D02*
X191315169Y-173764757D01*
X191886597Y-173693328D02*
X192243740Y-174693328D01*
X192600883Y-173693328D02*
X192243740Y-174693328D01*
X192243740Y-174693328D02*
X192100883Y-175050471D01*
X192100883Y-175050471D02*
X192029454Y-175121900D01*
X192029454Y-175121900D02*
X191886597Y-175193328D01*
X194315168Y-174693328D02*
X194315168Y-173193328D01*
X194315168Y-173193328D02*
X194672311Y-173193328D01*
X194672311Y-173193328D02*
X194886597Y-173264757D01*
X194886597Y-173264757D02*
X195029454Y-173407614D01*
X195029454Y-173407614D02*
X195100883Y-173550471D01*
X195100883Y-173550471D02*
X195172311Y-173836185D01*
X195172311Y-173836185D02*
X195172311Y-174050471D01*
X195172311Y-174050471D02*
X195100883Y-174336185D01*
X195100883Y-174336185D02*
X195029454Y-174479042D01*
X195029454Y-174479042D02*
X194886597Y-174621900D01*
X194886597Y-174621900D02*
X194672311Y-174693328D01*
X194672311Y-174693328D02*
X194315168Y-174693328D01*
X195815168Y-174693328D02*
X195815168Y-173693328D01*
X195815168Y-173193328D02*
X195743740Y-173264757D01*
X195743740Y-173264757D02*
X195815168Y-173336185D01*
X195815168Y-173336185D02*
X195886597Y-173264757D01*
X195886597Y-173264757D02*
X195815168Y-173193328D01*
X195815168Y-173193328D02*
X195815168Y-173336185D01*
X197172312Y-174693328D02*
X197172312Y-173907614D01*
X197172312Y-173907614D02*
X197100883Y-173764757D01*
X197100883Y-173764757D02*
X196958026Y-173693328D01*
X196958026Y-173693328D02*
X196672312Y-173693328D01*
X196672312Y-173693328D02*
X196529454Y-173764757D01*
X197172312Y-174621900D02*
X197029454Y-174693328D01*
X197029454Y-174693328D02*
X196672312Y-174693328D01*
X196672312Y-174693328D02*
X196529454Y-174621900D01*
X196529454Y-174621900D02*
X196458026Y-174479042D01*
X196458026Y-174479042D02*
X196458026Y-174336185D01*
X196458026Y-174336185D02*
X196529454Y-174193328D01*
X196529454Y-174193328D02*
X196672312Y-174121900D01*
X196672312Y-174121900D02*
X197029454Y-174121900D01*
X197029454Y-174121900D02*
X197172312Y-174050471D01*
X198529455Y-173693328D02*
X198529455Y-174907614D01*
X198529455Y-174907614D02*
X198458026Y-175050471D01*
X198458026Y-175050471D02*
X198386597Y-175121900D01*
X198386597Y-175121900D02*
X198243740Y-175193328D01*
X198243740Y-175193328D02*
X198029455Y-175193328D01*
X198029455Y-175193328D02*
X197886597Y-175121900D01*
X198529455Y-174621900D02*
X198386597Y-174693328D01*
X198386597Y-174693328D02*
X198100883Y-174693328D01*
X198100883Y-174693328D02*
X197958026Y-174621900D01*
X197958026Y-174621900D02*
X197886597Y-174550471D01*
X197886597Y-174550471D02*
X197815169Y-174407614D01*
X197815169Y-174407614D02*
X197815169Y-173979042D01*
X197815169Y-173979042D02*
X197886597Y-173836185D01*
X197886597Y-173836185D02*
X197958026Y-173764757D01*
X197958026Y-173764757D02*
X198100883Y-173693328D01*
X198100883Y-173693328D02*
X198386597Y-173693328D01*
X198386597Y-173693328D02*
X198529455Y-173764757D01*
X199172312Y-174621900D02*
X199315169Y-174693328D01*
X199315169Y-174693328D02*
X199600883Y-174693328D01*
X199600883Y-174693328D02*
X199743740Y-174621900D01*
X199743740Y-174621900D02*
X199815169Y-174479042D01*
X199815169Y-174479042D02*
X199815169Y-174407614D01*
X199815169Y-174407614D02*
X199743740Y-174264757D01*
X199743740Y-174264757D02*
X199600883Y-174193328D01*
X199600883Y-174193328D02*
X199386598Y-174193328D01*
X199386598Y-174193328D02*
X199243740Y-174121900D01*
X199243740Y-174121900D02*
X199172312Y-173979042D01*
X199172312Y-173979042D02*
X199172312Y-173907614D01*
X199172312Y-173907614D02*
X199243740Y-173764757D01*
X199243740Y-173764757D02*
X199386598Y-173693328D01*
X199386598Y-173693328D02*
X199600883Y-173693328D01*
X199600883Y-173693328D02*
X199743740Y-173764757D01*
D10*
D11*
X197002200Y-191507200D02*
X197002200Y-194507200D01*
D10*
D11*
X261002200Y-191507200D02*
X261002200Y-198007200D01*
D14*
%TO.C,D21*%
X72165000Y-123500000D03*
D15*
X79785000Y-123500000D03*
%TD*%
D16*
%TO.C,R1*%
X83205000Y-82000000D03*
D15*
X93365000Y-82000000D03*
%TD*%
D17*
%TO.C,SW18*%
X132825000Y-118985000D03*
D18*
X132825000Y-113905000D03*
D17*
X132825000Y-108825000D03*
D19*
X127745000Y-111365000D03*
X130285000Y-117715000D03*
%TD*%
D17*
%TO.C,SW22*%
X94725000Y-99935000D03*
D18*
X94725000Y-94855000D03*
D17*
X94725000Y-89775000D03*
D19*
X89645000Y-92315000D03*
X92185000Y-98665000D03*
%TD*%
D17*
%TO.C,SW11*%
X113775000Y-138035000D03*
D18*
X113775000Y-132955000D03*
D17*
X113775000Y-127875000D03*
D19*
X108695000Y-130415000D03*
X111235000Y-136765000D03*
%TD*%
D14*
%TO.C,D19*%
X110165000Y-142500000D03*
D15*
X117785000Y-142500000D03*
%TD*%
D20*
%TO.C,*%
X47385000Y-86200000D03*
%TD*%
D17*
%TO.C,SW21*%
X132825000Y-176135000D03*
D18*
X132825000Y-171055000D03*
D17*
X132825000Y-165975000D03*
D19*
X127745000Y-168515000D03*
X130285000Y-174865000D03*
%TD*%
D16*
%TO.C,R5*%
X70285000Y-72500000D03*
D15*
X60125000Y-72500000D03*
%TD*%
D17*
%TO.C,SW3*%
X113775000Y-176135000D03*
D18*
X113775000Y-171055000D03*
D17*
X113775000Y-165975000D03*
D19*
X108695000Y-168515000D03*
X111235000Y-174865000D03*
%TD*%
D14*
%TO.C,D2*%
X109285000Y-72000000D03*
D15*
X116905000Y-72000000D03*
%TD*%
D17*
%TO.C,SW5*%
X75675000Y-157085000D03*
D18*
X75675000Y-152005000D03*
D17*
X75675000Y-146925000D03*
D19*
X70595000Y-149465000D03*
X73135000Y-155815000D03*
%TD*%
D14*
%TO.C,U1*%
X90785000Y-65000000D03*
D15*
X88245000Y-65000000D03*
X85705000Y-65000000D03*
X83165000Y-65000000D03*
X80625000Y-65000000D03*
X78085000Y-65000000D03*
X75545000Y-65000000D03*
X75545000Y-72620000D03*
X78085000Y-72620000D03*
X80625000Y-72620000D03*
X83165000Y-72620000D03*
X85705000Y-72620000D03*
X88245000Y-72620000D03*
X90785000Y-72620000D03*
%TD*%
D14*
%TO.C,D10*%
X91165000Y-180555000D03*
D15*
X98785000Y-180555000D03*
%TD*%
D14*
%TO.C,D15*%
X110165000Y-161555000D03*
D15*
X117785000Y-161555000D03*
%TD*%
D14*
%TO.C,D29*%
X129165000Y-180555000D03*
D15*
X136785000Y-180555000D03*
%TD*%
D17*
%TO.C,SW23*%
X113775000Y-99935000D03*
D18*
X113775000Y-94855000D03*
D17*
X113775000Y-89775000D03*
D19*
X108695000Y-92315000D03*
X111235000Y-98665000D03*
%TD*%
D14*
%TO.C,D20*%
X53165000Y-123555000D03*
D15*
X60785000Y-123555000D03*
%TD*%
D17*
%TO.C,SW8*%
X56625000Y-138035000D03*
D18*
X56625000Y-132955000D03*
D17*
X56625000Y-127875000D03*
D19*
X51545000Y-130415000D03*
X54085000Y-136765000D03*
%TD*%
D14*
%TO.C,D27*%
X129165000Y-161555000D03*
D15*
X136785000Y-161555000D03*
%TD*%
D14*
%TO.C,D16*%
X53165000Y-142555000D03*
D15*
X60785000Y-142555000D03*
%TD*%
D21*
%TO.C,SW27*%
X50785000Y-68900000D03*
D22*
X50785000Y-73700000D03*
X50785000Y-78500000D03*
%TD*%
D23*
%TO.C,J3*%
X89185000Y-52235000D03*
D24*
X89185000Y-49695000D03*
%TD*%
D17*
%TO.C,SW19*%
X132825000Y-157085000D03*
D18*
X132825000Y-152005000D03*
D17*
X132825000Y-146925000D03*
D19*
X127745000Y-149465000D03*
X130285000Y-155815000D03*
%TD*%
D14*
%TO.C,D3*%
X57745000Y-77500000D03*
D15*
X65365000Y-77500000D03*
%TD*%
D25*
%TO.C,D5*%
X49245000Y-63500000D03*
D26*
X51785000Y-63500000D03*
%TD*%
D14*
%TO.C,C1*%
X94080000Y-77750000D03*
D16*
X96080000Y-77750000D03*
%TD*%
D14*
%TO.C,D17*%
X72165000Y-142555000D03*
D15*
X79785000Y-142555000D03*
%TD*%
D23*
%TO.C,J7*%
X137285000Y-59225000D03*
D24*
X137285000Y-61765000D03*
%TD*%
D14*
%TO.C,D9*%
X71915000Y-180500000D03*
D15*
X79535000Y-180500000D03*
%TD*%
D17*
%TO.C,SW12*%
X56625000Y-118985000D03*
D18*
X56625000Y-113905000D03*
D17*
X56625000Y-108825000D03*
D19*
X51545000Y-111365000D03*
X54085000Y-117715000D03*
%TD*%
D14*
%TO.C,D24*%
X72165000Y-104555000D03*
D15*
X79785000Y-104555000D03*
%TD*%
D17*
%TO.C,SW24*%
X132825000Y-99935000D03*
D18*
X132825000Y-94855000D03*
D17*
X132825000Y-89775000D03*
D19*
X127745000Y-92315000D03*
X130285000Y-98665000D03*
%TD*%
D14*
%TO.C,C3*%
X68365000Y-77750000D03*
D16*
X70365000Y-77750000D03*
%TD*%
D23*
%TO.C,J8*%
X137285000Y-49525000D03*
D24*
X137285000Y-52065000D03*
%TD*%
D23*
%TO.C,J4*%
X99325000Y-61755000D03*
D24*
X96785000Y-61755000D03*
X94245000Y-61755000D03*
%TD*%
D14*
%TO.C,C5*%
X102785000Y-72044888D03*
D16*
X102785000Y-74044888D03*
%TD*%
D14*
%TO.C,D26*%
X129165000Y-123555000D03*
D15*
X136785000Y-123555000D03*
%TD*%
D27*
%TO.C,SW25*%
X129295000Y-71500000D03*
X139795000Y-71500000D03*
X129295000Y-76500000D03*
X139795000Y-76500000D03*
%TD*%
D16*
%TO.C,R3*%
X57705000Y-82000000D03*
D15*
X67865000Y-82000000D03*
%TD*%
D14*
%TO.C,D14*%
X91165000Y-161500000D03*
D15*
X98785000Y-161500000D03*
%TD*%
D20*
%TO.C,*%
X47385000Y-180300000D03*
%TD*%
D17*
%TO.C,SW15*%
X113775000Y-118985000D03*
D18*
X113775000Y-113905000D03*
D17*
X113775000Y-108825000D03*
D19*
X108695000Y-111365000D03*
X111235000Y-117715000D03*
%TD*%
D14*
%TO.C,D30*%
X91165000Y-104555000D03*
D15*
X98785000Y-104555000D03*
%TD*%
D17*
%TO.C,SW20*%
X132825000Y-138035000D03*
D18*
X132825000Y-132955000D03*
D17*
X132825000Y-127875000D03*
D19*
X127745000Y-130415000D03*
X130285000Y-136765000D03*
%TD*%
D20*
%TO.C,*%
X47385000Y-48200000D03*
%TD*%
D17*
%TO.C,SW0*%
X56625000Y-176135000D03*
D18*
X56625000Y-171055000D03*
D17*
X56625000Y-165975000D03*
D19*
X51545000Y-168515000D03*
X54085000Y-174865000D03*
%TD*%
D14*
%TO.C,D22*%
X91165000Y-123500000D03*
D15*
X98785000Y-123500000D03*
%TD*%
D14*
%TO.C,RN1*%
X121785000Y-82000000D03*
D15*
X119245000Y-82000000D03*
X116705000Y-82000000D03*
X114165000Y-82000000D03*
X111625000Y-82000000D03*
X109085000Y-82000000D03*
X106545000Y-82000000D03*
X104005000Y-82000000D03*
X101465000Y-82000000D03*
%TD*%
D17*
%TO.C,SW14*%
X94725000Y-118985000D03*
D18*
X94725000Y-113905000D03*
D17*
X94725000Y-108825000D03*
D19*
X89645000Y-111365000D03*
X92185000Y-117715000D03*
%TD*%
D23*
%TO.C,J2*%
X128195000Y-49460000D03*
D24*
X128195000Y-52000000D03*
X125655000Y-49460000D03*
X125655000Y-52000000D03*
X123115000Y-49460000D03*
X123115000Y-52000000D03*
X120575000Y-49460000D03*
X120575000Y-52000000D03*
X118035000Y-49460000D03*
X118035000Y-52000000D03*
X115495000Y-49460000D03*
X115495000Y-52000000D03*
X112955000Y-49460000D03*
X112955000Y-52000000D03*
X110415000Y-49460000D03*
X110415000Y-52000000D03*
X107875000Y-49460000D03*
X107875000Y-52000000D03*
X105335000Y-49460000D03*
X105335000Y-52000000D03*
X102795000Y-49460000D03*
X102795000Y-52000000D03*
X100255000Y-49460000D03*
X100255000Y-52000000D03*
X97715000Y-49460000D03*
X97715000Y-52000000D03*
%TD*%
D14*
%TO.C,D18*%
X91165000Y-142555000D03*
D15*
X98785000Y-142555000D03*
%TD*%
D17*
%TO.C,SW10*%
X94725000Y-138035000D03*
D18*
X94725000Y-132955000D03*
D17*
X94725000Y-127875000D03*
D19*
X89645000Y-130415000D03*
X92185000Y-136765000D03*
%TD*%
D17*
%TO.C,SW13*%
X75675000Y-118985000D03*
D18*
X75675000Y-113905000D03*
D17*
X75675000Y-108825000D03*
D19*
X70595000Y-111365000D03*
X73135000Y-117715000D03*
%TD*%
D14*
%TO.C,D25*%
X53165000Y-104555000D03*
D15*
X60785000Y-104555000D03*
%TD*%
D23*
%TO.C,J1*%
X83085000Y-49660000D03*
D24*
X83085000Y-52200000D03*
X80545000Y-49660000D03*
X80545000Y-52200000D03*
X78005000Y-49660000D03*
X78005000Y-52200000D03*
X75465000Y-49660000D03*
X75465000Y-52200000D03*
X72925000Y-49660000D03*
X72925000Y-52200000D03*
X70385000Y-49660000D03*
X70385000Y-52200000D03*
X67845000Y-49660000D03*
X67845000Y-52200000D03*
X65305000Y-49660000D03*
X65305000Y-52200000D03*
X62765000Y-49660000D03*
X62765000Y-52200000D03*
X60225000Y-49660000D03*
X60225000Y-52200000D03*
X57685000Y-49660000D03*
X57685000Y-52200000D03*
X55145000Y-49660000D03*
X55145000Y-52200000D03*
X52605000Y-49660000D03*
X52605000Y-52200000D03*
%TD*%
D17*
%TO.C,SW9*%
X75675000Y-138035000D03*
D18*
X75675000Y-132955000D03*
D17*
X75675000Y-127875000D03*
D19*
X70595000Y-130415000D03*
X73135000Y-136765000D03*
%TD*%
D16*
%TO.C,R2*%
X109285000Y-76500000D03*
D15*
X119445000Y-76500000D03*
%TD*%
D16*
%TO.C,R4*%
X60125000Y-69000000D03*
D15*
X70285000Y-69000000D03*
%TD*%
D14*
%TO.C,D1*%
X83270000Y-77445000D03*
D15*
X90890000Y-77445000D03*
%TD*%
D23*
%TO.C,J5*%
X122785000Y-61750000D03*
D24*
X120245000Y-61750000D03*
X117705000Y-61750000D03*
X115165000Y-61750000D03*
X112625000Y-61750000D03*
X110085000Y-61750000D03*
X107545000Y-61750000D03*
X105005000Y-61750000D03*
%TD*%
D17*
%TO.C,SW2*%
X94725000Y-176135000D03*
D18*
X94725000Y-171055000D03*
D17*
X94725000Y-165975000D03*
D19*
X89645000Y-168515000D03*
X92185000Y-174865000D03*
%TD*%
D14*
%TO.C,C2*%
X120079888Y-72250000D03*
D16*
X122079888Y-72250000D03*
%TD*%
D17*
%TO.C,SW17*%
X56625000Y-99935000D03*
D18*
X56625000Y-94855000D03*
D17*
X56625000Y-89775000D03*
D19*
X51545000Y-92315000D03*
X54085000Y-98665000D03*
%TD*%
D14*
%TO.C,D8*%
X53165000Y-180500000D03*
D15*
X60785000Y-180500000D03*
%TD*%
D14*
%TO.C,D11*%
X110165000Y-180555000D03*
D15*
X117785000Y-180555000D03*
%TD*%
D14*
%TO.C,D23*%
X110165000Y-123555000D03*
D15*
X117785000Y-123555000D03*
%TD*%
D17*
%TO.C,SW16*%
X75675000Y-99935000D03*
D18*
X75675000Y-94855000D03*
D17*
X75675000Y-89775000D03*
D19*
X70595000Y-92315000D03*
X73135000Y-98665000D03*
%TD*%
D25*
%TO.C,D4*%
X60745000Y-63500000D03*
D26*
X63285000Y-63500000D03*
%TD*%
D14*
%TO.C,D28*%
X129165000Y-142555000D03*
D15*
X136785000Y-142555000D03*
%TD*%
D16*
%TO.C,C4*%
X75535000Y-76000000D03*
X80535000Y-76000000D03*
%TD*%
D14*
%TO.C,D12*%
X53165000Y-161500000D03*
D15*
X60785000Y-161500000D03*
%TD*%
D17*
%TO.C,SW6*%
X94725000Y-157085000D03*
D18*
X94725000Y-152005000D03*
D17*
X94725000Y-146925000D03*
D19*
X89645000Y-149465000D03*
X92185000Y-155815000D03*
%TD*%
D20*
%TO.C,*%
X142085000Y-48200000D03*
%TD*%
%TO.C,*%
X142085000Y-86200000D03*
%TD*%
D17*
%TO.C,SW4*%
X56625000Y-157085000D03*
D18*
X56625000Y-152005000D03*
D17*
X56625000Y-146925000D03*
D19*
X51545000Y-149465000D03*
X54085000Y-155815000D03*
%TD*%
D14*
%TO.C,D13*%
X71975000Y-161555000D03*
D15*
X79595000Y-161555000D03*
%TD*%
D17*
%TO.C,SW7*%
X113775000Y-157085000D03*
D18*
X113775000Y-152005000D03*
D17*
X113775000Y-146925000D03*
D19*
X108695000Y-149465000D03*
X111235000Y-155815000D03*
%TD*%
D14*
%TO.C,D31*%
X110165000Y-104500000D03*
D15*
X117785000Y-104500000D03*
%TD*%
D23*
%TO.C,J6*%
X131260000Y-61750000D03*
D24*
X128720000Y-61750000D03*
%TD*%
D20*
%TO.C,*%
X142085000Y-180300000D03*
%TD*%
D17*
%TO.C,SW1*%
X75675000Y-176135000D03*
D18*
X75675000Y-171055000D03*
D17*
X75675000Y-165975000D03*
D19*
X70595000Y-168515000D03*
X73135000Y-174865000D03*
%TD*%
M02*
