%TF.GenerationSoftware,KiCad,Pcbnew,9.0.2+1*%
%TF.CreationDate,2025-08-15T04:00:07+09:00*%
%TF.ProjectId,floppy-head-protector,666c6f70-7079-42d6-9865-61642d70726f,0-1*%
%TF.SameCoordinates,Original*%
%TF.FileFunction,Drillmap*%
%TF.FilePolarity,Positive*%
%FSLAX45Y45*%
G04 Gerber Fmt 4.5, Leading zero omitted, Abs format (unit mm)*
G04 Created by KiCad (PCBNEW 9.0.2+1) date 2025-08-15 04:00:07*
%MOMM*%
%LPD*%
G01*
G04 APERTURE LIST*
%ADD10C,0.050000*%
%ADD11C,0.200000*%
G04 APERTURE END LIST*
D10*
X10500000Y-19400000D02*
X13900000Y-19400000D01*
X10500000Y-17000000D02*
X10500000Y-19400000D01*
X13100000Y-4000000D02*
X17000000Y-4000000D01*
X13900000Y-17000000D02*
X13900000Y-19400000D01*
X8400000Y-4000000D02*
X9900000Y-1700000D01*
X13100000Y-4000000D02*
X13100000Y-1700000D01*
X4000000Y-4000000D02*
X4000000Y-17000000D01*
X9900000Y-1700000D02*
X13100000Y-1700000D01*
X12600000Y-10500000D02*
G75*
G02*
X8400000Y-10500000I-2100000J0D01*
G01*
X8400000Y-10500000D02*
G75*
G02*
X12600000Y-10500000I2100000J0D01*
G01*
X4000000Y-17000000D02*
X10500000Y-17000000D01*
X4000000Y-4000000D02*
X8400000Y-4000000D01*
X13900000Y-17000000D02*
X17000000Y-17000000D01*
X17000000Y-4000000D02*
X17000000Y-17000000D01*
D11*
X4258277Y-19713984D02*
X4258277Y-19513984D01*
X4258277Y-19513984D02*
X4305896Y-19513984D01*
X4305896Y-19513984D02*
X4334467Y-19523508D01*
X4334467Y-19523508D02*
X4353515Y-19542555D01*
X4353515Y-19542555D02*
X4363039Y-19561603D01*
X4363039Y-19561603D02*
X4372563Y-19599698D01*
X4372563Y-19599698D02*
X4372563Y-19628270D01*
X4372563Y-19628270D02*
X4363039Y-19666365D01*
X4363039Y-19666365D02*
X4353515Y-19685412D01*
X4353515Y-19685412D02*
X4334467Y-19704460D01*
X4334467Y-19704460D02*
X4305896Y-19713984D01*
X4305896Y-19713984D02*
X4258277Y-19713984D01*
X4458277Y-19713984D02*
X4458277Y-19580650D01*
X4458277Y-19618746D02*
X4467801Y-19599698D01*
X4467801Y-19599698D02*
X4477324Y-19590174D01*
X4477324Y-19590174D02*
X4496372Y-19580650D01*
X4496372Y-19580650D02*
X4515420Y-19580650D01*
X4582086Y-19713984D02*
X4582086Y-19580650D01*
X4582086Y-19513984D02*
X4572563Y-19523508D01*
X4572563Y-19523508D02*
X4582086Y-19533031D01*
X4582086Y-19533031D02*
X4591610Y-19523508D01*
X4591610Y-19523508D02*
X4582086Y-19513984D01*
X4582086Y-19513984D02*
X4582086Y-19533031D01*
X4705896Y-19713984D02*
X4686848Y-19704460D01*
X4686848Y-19704460D02*
X4677324Y-19685412D01*
X4677324Y-19685412D02*
X4677324Y-19513984D01*
X4810658Y-19713984D02*
X4791610Y-19704460D01*
X4791610Y-19704460D02*
X4782086Y-19685412D01*
X4782086Y-19685412D02*
X4782086Y-19513984D01*
X5039229Y-19713984D02*
X5039229Y-19513984D01*
X5039229Y-19513984D02*
X5105896Y-19656841D01*
X5105896Y-19656841D02*
X5172563Y-19513984D01*
X5172563Y-19513984D02*
X5172563Y-19713984D01*
X5353515Y-19713984D02*
X5353515Y-19609222D01*
X5353515Y-19609222D02*
X5343991Y-19590174D01*
X5343991Y-19590174D02*
X5324944Y-19580650D01*
X5324944Y-19580650D02*
X5286848Y-19580650D01*
X5286848Y-19580650D02*
X5267801Y-19590174D01*
X5353515Y-19704460D02*
X5334467Y-19713984D01*
X5334467Y-19713984D02*
X5286848Y-19713984D01*
X5286848Y-19713984D02*
X5267801Y-19704460D01*
X5267801Y-19704460D02*
X5258277Y-19685412D01*
X5258277Y-19685412D02*
X5258277Y-19666365D01*
X5258277Y-19666365D02*
X5267801Y-19647317D01*
X5267801Y-19647317D02*
X5286848Y-19637793D01*
X5286848Y-19637793D02*
X5334467Y-19637793D01*
X5334467Y-19637793D02*
X5353515Y-19628270D01*
X5448753Y-19580650D02*
X5448753Y-19780650D01*
X5448753Y-19590174D02*
X5467801Y-19580650D01*
X5467801Y-19580650D02*
X5505896Y-19580650D01*
X5505896Y-19580650D02*
X5524944Y-19590174D01*
X5524944Y-19590174D02*
X5534467Y-19599698D01*
X5534467Y-19599698D02*
X5543991Y-19618746D01*
X5543991Y-19618746D02*
X5543991Y-19675889D01*
X5543991Y-19675889D02*
X5534467Y-19694936D01*
X5534467Y-19694936D02*
X5524944Y-19704460D01*
X5524944Y-19704460D02*
X5505896Y-19713984D01*
X5505896Y-19713984D02*
X5467801Y-19713984D01*
X5467801Y-19713984D02*
X5448753Y-19704460D01*
X5629705Y-19694936D02*
X5639229Y-19704460D01*
X5639229Y-19704460D02*
X5629705Y-19713984D01*
X5629705Y-19713984D02*
X5620182Y-19704460D01*
X5620182Y-19704460D02*
X5629705Y-19694936D01*
X5629705Y-19694936D02*
X5629705Y-19713984D01*
X5629705Y-19590174D02*
X5639229Y-19599698D01*
X5639229Y-19599698D02*
X5629705Y-19609222D01*
X5629705Y-19609222D02*
X5620182Y-19599698D01*
X5620182Y-19599698D02*
X5629705Y-19590174D01*
X5629705Y-19590174D02*
X5629705Y-19609222D01*
M02*
