%TF.GenerationSoftware,KiCad,Pcbnew,9.0.2+1*%
%TF.CreationDate,2025-07-21T21:44:21+09:00*%
%TF.ProjectId,romext-2364,726f6d65-7874-42d3-9233-36342e6b6963,1-2*%
%TF.SameCoordinates,Original*%
%TF.FileFunction,AssemblyDrawing,Top*%
%FSLAX46Y46*%
G04 Gerber Fmt 4.6, Leading zero omitted, Abs format (unit mm)*
G04 Created by KiCad (PCBNEW 9.0.2+1) date 2025-07-21 21:44:21*
%MOMM*%
%LPD*%
G01*
G04 APERTURE LIST*
%ADD10C,0.150000*%
%ADD11C,0.100000*%
G04 APERTURE END LIST*
D10*
X107505714Y-80620057D02*
X107553333Y-80572438D01*
X107553333Y-80572438D02*
X107648571Y-80524819D01*
X107648571Y-80524819D02*
X107886666Y-80524819D01*
X107886666Y-80524819D02*
X107981904Y-80572438D01*
X107981904Y-80572438D02*
X108029523Y-80620057D01*
X108029523Y-80620057D02*
X108077142Y-80715295D01*
X108077142Y-80715295D02*
X108077142Y-80810533D01*
X108077142Y-80810533D02*
X108029523Y-80953390D01*
X108029523Y-80953390D02*
X107458095Y-81524819D01*
X107458095Y-81524819D02*
X108077142Y-81524819D01*
X108410476Y-80524819D02*
X109029523Y-80524819D01*
X109029523Y-80524819D02*
X108696190Y-80905771D01*
X108696190Y-80905771D02*
X108839047Y-80905771D01*
X108839047Y-80905771D02*
X108934285Y-80953390D01*
X108934285Y-80953390D02*
X108981904Y-81001009D01*
X108981904Y-81001009D02*
X109029523Y-81096247D01*
X109029523Y-81096247D02*
X109029523Y-81334342D01*
X109029523Y-81334342D02*
X108981904Y-81429580D01*
X108981904Y-81429580D02*
X108934285Y-81477200D01*
X108934285Y-81477200D02*
X108839047Y-81524819D01*
X108839047Y-81524819D02*
X108553333Y-81524819D01*
X108553333Y-81524819D02*
X108458095Y-81477200D01*
X108458095Y-81477200D02*
X108410476Y-81429580D01*
X109886666Y-80524819D02*
X109696190Y-80524819D01*
X109696190Y-80524819D02*
X109600952Y-80572438D01*
X109600952Y-80572438D02*
X109553333Y-80620057D01*
X109553333Y-80620057D02*
X109458095Y-80762914D01*
X109458095Y-80762914D02*
X109410476Y-80953390D01*
X109410476Y-80953390D02*
X109410476Y-81334342D01*
X109410476Y-81334342D02*
X109458095Y-81429580D01*
X109458095Y-81429580D02*
X109505714Y-81477200D01*
X109505714Y-81477200D02*
X109600952Y-81524819D01*
X109600952Y-81524819D02*
X109791428Y-81524819D01*
X109791428Y-81524819D02*
X109886666Y-81477200D01*
X109886666Y-81477200D02*
X109934285Y-81429580D01*
X109934285Y-81429580D02*
X109981904Y-81334342D01*
X109981904Y-81334342D02*
X109981904Y-81096247D01*
X109981904Y-81096247D02*
X109934285Y-81001009D01*
X109934285Y-81001009D02*
X109886666Y-80953390D01*
X109886666Y-80953390D02*
X109791428Y-80905771D01*
X109791428Y-80905771D02*
X109600952Y-80905771D01*
X109600952Y-80905771D02*
X109505714Y-80953390D01*
X109505714Y-80953390D02*
X109458095Y-81001009D01*
X109458095Y-81001009D02*
X109410476Y-81096247D01*
X110839047Y-80858152D02*
X110839047Y-81524819D01*
X110600952Y-80477200D02*
X110362857Y-81191485D01*
X110362857Y-81191485D02*
X110981904Y-81191485D01*
X140026667Y-43474819D02*
X140026667Y-42474819D01*
X140026667Y-42474819D02*
X140360000Y-43189104D01*
X140360000Y-43189104D02*
X140693333Y-42474819D01*
X140693333Y-42474819D02*
X140693333Y-43474819D01*
X141312381Y-43474819D02*
X141217143Y-43427200D01*
X141217143Y-43427200D02*
X141169524Y-43379580D01*
X141169524Y-43379580D02*
X141121905Y-43284342D01*
X141121905Y-43284342D02*
X141121905Y-42998628D01*
X141121905Y-42998628D02*
X141169524Y-42903390D01*
X141169524Y-42903390D02*
X141217143Y-42855771D01*
X141217143Y-42855771D02*
X141312381Y-42808152D01*
X141312381Y-42808152D02*
X141455238Y-42808152D01*
X141455238Y-42808152D02*
X141550476Y-42855771D01*
X141550476Y-42855771D02*
X141598095Y-42903390D01*
X141598095Y-42903390D02*
X141645714Y-42998628D01*
X141645714Y-42998628D02*
X141645714Y-43284342D01*
X141645714Y-43284342D02*
X141598095Y-43379580D01*
X141598095Y-43379580D02*
X141550476Y-43427200D01*
X141550476Y-43427200D02*
X141455238Y-43474819D01*
X141455238Y-43474819D02*
X141312381Y-43474819D01*
X142502857Y-42808152D02*
X142502857Y-43474819D01*
X142074286Y-42808152D02*
X142074286Y-43331961D01*
X142074286Y-43331961D02*
X142121905Y-43427200D01*
X142121905Y-43427200D02*
X142217143Y-43474819D01*
X142217143Y-43474819D02*
X142360000Y-43474819D01*
X142360000Y-43474819D02*
X142455238Y-43427200D01*
X142455238Y-43427200D02*
X142502857Y-43379580D01*
X142979048Y-42808152D02*
X142979048Y-43474819D01*
X142979048Y-42903390D02*
X143026667Y-42855771D01*
X143026667Y-42855771D02*
X143121905Y-42808152D01*
X143121905Y-42808152D02*
X143264762Y-42808152D01*
X143264762Y-42808152D02*
X143360000Y-42855771D01*
X143360000Y-42855771D02*
X143407619Y-42951009D01*
X143407619Y-42951009D02*
X143407619Y-43474819D01*
X143740953Y-42808152D02*
X144121905Y-42808152D01*
X143883810Y-42474819D02*
X143883810Y-43331961D01*
X143883810Y-43331961D02*
X143931429Y-43427200D01*
X143931429Y-43427200D02*
X144026667Y-43474819D01*
X144026667Y-43474819D02*
X144121905Y-43474819D01*
X144455239Y-43474819D02*
X144455239Y-42808152D01*
X144455239Y-42474819D02*
X144407620Y-42522438D01*
X144407620Y-42522438D02*
X144455239Y-42570057D01*
X144455239Y-42570057D02*
X144502858Y-42522438D01*
X144502858Y-42522438D02*
X144455239Y-42474819D01*
X144455239Y-42474819D02*
X144455239Y-42570057D01*
X144931429Y-42808152D02*
X144931429Y-43474819D01*
X144931429Y-42903390D02*
X144979048Y-42855771D01*
X144979048Y-42855771D02*
X145074286Y-42808152D01*
X145074286Y-42808152D02*
X145217143Y-42808152D01*
X145217143Y-42808152D02*
X145312381Y-42855771D01*
X145312381Y-42855771D02*
X145360000Y-42951009D01*
X145360000Y-42951009D02*
X145360000Y-43474819D01*
X146264762Y-42808152D02*
X146264762Y-43617676D01*
X146264762Y-43617676D02*
X146217143Y-43712914D01*
X146217143Y-43712914D02*
X146169524Y-43760533D01*
X146169524Y-43760533D02*
X146074286Y-43808152D01*
X146074286Y-43808152D02*
X145931429Y-43808152D01*
X145931429Y-43808152D02*
X145836191Y-43760533D01*
X146264762Y-43427200D02*
X146169524Y-43474819D01*
X146169524Y-43474819D02*
X145979048Y-43474819D01*
X145979048Y-43474819D02*
X145883810Y-43427200D01*
X145883810Y-43427200D02*
X145836191Y-43379580D01*
X145836191Y-43379580D02*
X145788572Y-43284342D01*
X145788572Y-43284342D02*
X145788572Y-42998628D01*
X145788572Y-42998628D02*
X145836191Y-42903390D01*
X145836191Y-42903390D02*
X145883810Y-42855771D01*
X145883810Y-42855771D02*
X145979048Y-42808152D01*
X145979048Y-42808152D02*
X146169524Y-42808152D01*
X146169524Y-42808152D02*
X146264762Y-42855771D01*
X146740953Y-43474819D02*
X146740953Y-42474819D01*
X146740953Y-42951009D02*
X147312381Y-42951009D01*
X147312381Y-43474819D02*
X147312381Y-42474819D01*
X147931429Y-43474819D02*
X147836191Y-43427200D01*
X147836191Y-43427200D02*
X147788572Y-43379580D01*
X147788572Y-43379580D02*
X147740953Y-43284342D01*
X147740953Y-43284342D02*
X147740953Y-42998628D01*
X147740953Y-42998628D02*
X147788572Y-42903390D01*
X147788572Y-42903390D02*
X147836191Y-42855771D01*
X147836191Y-42855771D02*
X147931429Y-42808152D01*
X147931429Y-42808152D02*
X148074286Y-42808152D01*
X148074286Y-42808152D02*
X148169524Y-42855771D01*
X148169524Y-42855771D02*
X148217143Y-42903390D01*
X148217143Y-42903390D02*
X148264762Y-42998628D01*
X148264762Y-42998628D02*
X148264762Y-43284342D01*
X148264762Y-43284342D02*
X148217143Y-43379580D01*
X148217143Y-43379580D02*
X148169524Y-43427200D01*
X148169524Y-43427200D02*
X148074286Y-43474819D01*
X148074286Y-43474819D02*
X147931429Y-43474819D01*
X148836191Y-43474819D02*
X148740953Y-43427200D01*
X148740953Y-43427200D02*
X148693334Y-43331961D01*
X148693334Y-43331961D02*
X148693334Y-42474819D01*
X149598096Y-43427200D02*
X149502858Y-43474819D01*
X149502858Y-43474819D02*
X149312382Y-43474819D01*
X149312382Y-43474819D02*
X149217144Y-43427200D01*
X149217144Y-43427200D02*
X149169525Y-43331961D01*
X149169525Y-43331961D02*
X149169525Y-42951009D01*
X149169525Y-42951009D02*
X149217144Y-42855771D01*
X149217144Y-42855771D02*
X149312382Y-42808152D01*
X149312382Y-42808152D02*
X149502858Y-42808152D01*
X149502858Y-42808152D02*
X149598096Y-42855771D01*
X149598096Y-42855771D02*
X149645715Y-42951009D01*
X149645715Y-42951009D02*
X149645715Y-43046247D01*
X149645715Y-43046247D02*
X149169525Y-43141485D01*
X149836192Y-43570057D02*
X150598096Y-43570057D01*
X150788573Y-42570057D02*
X150836192Y-42522438D01*
X150836192Y-42522438D02*
X150931430Y-42474819D01*
X150931430Y-42474819D02*
X151169525Y-42474819D01*
X151169525Y-42474819D02*
X151264763Y-42522438D01*
X151264763Y-42522438D02*
X151312382Y-42570057D01*
X151312382Y-42570057D02*
X151360001Y-42665295D01*
X151360001Y-42665295D02*
X151360001Y-42760533D01*
X151360001Y-42760533D02*
X151312382Y-42903390D01*
X151312382Y-42903390D02*
X150740954Y-43474819D01*
X150740954Y-43474819D02*
X151360001Y-43474819D01*
X151788573Y-43379580D02*
X151836192Y-43427200D01*
X151836192Y-43427200D02*
X151788573Y-43474819D01*
X151788573Y-43474819D02*
X151740954Y-43427200D01*
X151740954Y-43427200D02*
X151788573Y-43379580D01*
X151788573Y-43379580D02*
X151788573Y-43474819D01*
X152169525Y-42474819D02*
X152836191Y-42474819D01*
X152836191Y-42474819D02*
X152407620Y-43474819D01*
X153217144Y-43474819D02*
X153217144Y-42808152D01*
X153217144Y-42903390D02*
X153264763Y-42855771D01*
X153264763Y-42855771D02*
X153360001Y-42808152D01*
X153360001Y-42808152D02*
X153502858Y-42808152D01*
X153502858Y-42808152D02*
X153598096Y-42855771D01*
X153598096Y-42855771D02*
X153645715Y-42951009D01*
X153645715Y-42951009D02*
X153645715Y-43474819D01*
X153645715Y-42951009D02*
X153693334Y-42855771D01*
X153693334Y-42855771D02*
X153788572Y-42808152D01*
X153788572Y-42808152D02*
X153931429Y-42808152D01*
X153931429Y-42808152D02*
X154026668Y-42855771D01*
X154026668Y-42855771D02*
X154074287Y-42951009D01*
X154074287Y-42951009D02*
X154074287Y-43474819D01*
X154550477Y-43474819D02*
X154550477Y-42808152D01*
X154550477Y-42903390D02*
X154598096Y-42855771D01*
X154598096Y-42855771D02*
X154693334Y-42808152D01*
X154693334Y-42808152D02*
X154836191Y-42808152D01*
X154836191Y-42808152D02*
X154931429Y-42855771D01*
X154931429Y-42855771D02*
X154979048Y-42951009D01*
X154979048Y-42951009D02*
X154979048Y-43474819D01*
X154979048Y-42951009D02*
X155026667Y-42855771D01*
X155026667Y-42855771D02*
X155121905Y-42808152D01*
X155121905Y-42808152D02*
X155264762Y-42808152D01*
X155264762Y-42808152D02*
X155360001Y-42855771D01*
X155360001Y-42855771D02*
X155407620Y-42951009D01*
X155407620Y-42951009D02*
X155407620Y-43474819D01*
X155645715Y-43570057D02*
X156407619Y-43570057D01*
X156645715Y-43474819D02*
X156645715Y-42474819D01*
X156645715Y-42474819D02*
X156979048Y-43189104D01*
X156979048Y-43189104D02*
X157312381Y-42474819D01*
X157312381Y-42474819D02*
X157312381Y-43474819D01*
X157740953Y-42570057D02*
X157788572Y-42522438D01*
X157788572Y-42522438D02*
X157883810Y-42474819D01*
X157883810Y-42474819D02*
X158121905Y-42474819D01*
X158121905Y-42474819D02*
X158217143Y-42522438D01*
X158217143Y-42522438D02*
X158264762Y-42570057D01*
X158264762Y-42570057D02*
X158312381Y-42665295D01*
X158312381Y-42665295D02*
X158312381Y-42760533D01*
X158312381Y-42760533D02*
X158264762Y-42903390D01*
X158264762Y-42903390D02*
X157693334Y-43474819D01*
X157693334Y-43474819D02*
X158312381Y-43474819D01*
X158740953Y-43379580D02*
X158788572Y-43427200D01*
X158788572Y-43427200D02*
X158740953Y-43474819D01*
X158740953Y-43474819D02*
X158693334Y-43427200D01*
X158693334Y-43427200D02*
X158740953Y-43379580D01*
X158740953Y-43379580D02*
X158740953Y-43474819D01*
X159693333Y-42474819D02*
X159217143Y-42474819D01*
X159217143Y-42474819D02*
X159169524Y-42951009D01*
X159169524Y-42951009D02*
X159217143Y-42903390D01*
X159217143Y-42903390D02*
X159312381Y-42855771D01*
X159312381Y-42855771D02*
X159550476Y-42855771D01*
X159550476Y-42855771D02*
X159645714Y-42903390D01*
X159645714Y-42903390D02*
X159693333Y-42951009D01*
X159693333Y-42951009D02*
X159740952Y-43046247D01*
X159740952Y-43046247D02*
X159740952Y-43284342D01*
X159740952Y-43284342D02*
X159693333Y-43379580D01*
X159693333Y-43379580D02*
X159645714Y-43427200D01*
X159645714Y-43427200D02*
X159550476Y-43474819D01*
X159550476Y-43474819D02*
X159312381Y-43474819D01*
X159312381Y-43474819D02*
X159217143Y-43427200D01*
X159217143Y-43427200D02*
X159169524Y-43379580D01*
X148526666Y-39824819D02*
X148193333Y-39348628D01*
X147955238Y-39824819D02*
X147955238Y-38824819D01*
X147955238Y-38824819D02*
X148336190Y-38824819D01*
X148336190Y-38824819D02*
X148431428Y-38872438D01*
X148431428Y-38872438D02*
X148479047Y-38920057D01*
X148479047Y-38920057D02*
X148526666Y-39015295D01*
X148526666Y-39015295D02*
X148526666Y-39158152D01*
X148526666Y-39158152D02*
X148479047Y-39253390D01*
X148479047Y-39253390D02*
X148431428Y-39301009D01*
X148431428Y-39301009D02*
X148336190Y-39348628D01*
X148336190Y-39348628D02*
X147955238Y-39348628D01*
X148955238Y-39301009D02*
X149288571Y-39301009D01*
X149431428Y-39824819D02*
X148955238Y-39824819D01*
X148955238Y-39824819D02*
X148955238Y-38824819D01*
X148955238Y-38824819D02*
X149431428Y-38824819D01*
X150193333Y-39301009D02*
X149860000Y-39301009D01*
X149860000Y-39824819D02*
X149860000Y-38824819D01*
X149860000Y-38824819D02*
X150336190Y-38824819D01*
X150860000Y-38824819D02*
X150860000Y-39062914D01*
X150621905Y-38967676D02*
X150860000Y-39062914D01*
X150860000Y-39062914D02*
X151098095Y-38967676D01*
X150717143Y-39253390D02*
X150860000Y-39062914D01*
X150860000Y-39062914D02*
X151002857Y-39253390D01*
X151621905Y-38824819D02*
X151621905Y-39062914D01*
X151383810Y-38967676D02*
X151621905Y-39062914D01*
X151621905Y-39062914D02*
X151860000Y-38967676D01*
X151479048Y-39253390D02*
X151621905Y-39062914D01*
X151621905Y-39062914D02*
X151764762Y-39253390D01*
X140026667Y-94274819D02*
X140026667Y-93274819D01*
X140026667Y-93274819D02*
X140360000Y-93989104D01*
X140360000Y-93989104D02*
X140693333Y-93274819D01*
X140693333Y-93274819D02*
X140693333Y-94274819D01*
X141312381Y-94274819D02*
X141217143Y-94227200D01*
X141217143Y-94227200D02*
X141169524Y-94179580D01*
X141169524Y-94179580D02*
X141121905Y-94084342D01*
X141121905Y-94084342D02*
X141121905Y-93798628D01*
X141121905Y-93798628D02*
X141169524Y-93703390D01*
X141169524Y-93703390D02*
X141217143Y-93655771D01*
X141217143Y-93655771D02*
X141312381Y-93608152D01*
X141312381Y-93608152D02*
X141455238Y-93608152D01*
X141455238Y-93608152D02*
X141550476Y-93655771D01*
X141550476Y-93655771D02*
X141598095Y-93703390D01*
X141598095Y-93703390D02*
X141645714Y-93798628D01*
X141645714Y-93798628D02*
X141645714Y-94084342D01*
X141645714Y-94084342D02*
X141598095Y-94179580D01*
X141598095Y-94179580D02*
X141550476Y-94227200D01*
X141550476Y-94227200D02*
X141455238Y-94274819D01*
X141455238Y-94274819D02*
X141312381Y-94274819D01*
X142502857Y-93608152D02*
X142502857Y-94274819D01*
X142074286Y-93608152D02*
X142074286Y-94131961D01*
X142074286Y-94131961D02*
X142121905Y-94227200D01*
X142121905Y-94227200D02*
X142217143Y-94274819D01*
X142217143Y-94274819D02*
X142360000Y-94274819D01*
X142360000Y-94274819D02*
X142455238Y-94227200D01*
X142455238Y-94227200D02*
X142502857Y-94179580D01*
X142979048Y-93608152D02*
X142979048Y-94274819D01*
X142979048Y-93703390D02*
X143026667Y-93655771D01*
X143026667Y-93655771D02*
X143121905Y-93608152D01*
X143121905Y-93608152D02*
X143264762Y-93608152D01*
X143264762Y-93608152D02*
X143360000Y-93655771D01*
X143360000Y-93655771D02*
X143407619Y-93751009D01*
X143407619Y-93751009D02*
X143407619Y-94274819D01*
X143740953Y-93608152D02*
X144121905Y-93608152D01*
X143883810Y-93274819D02*
X143883810Y-94131961D01*
X143883810Y-94131961D02*
X143931429Y-94227200D01*
X143931429Y-94227200D02*
X144026667Y-94274819D01*
X144026667Y-94274819D02*
X144121905Y-94274819D01*
X144455239Y-94274819D02*
X144455239Y-93608152D01*
X144455239Y-93274819D02*
X144407620Y-93322438D01*
X144407620Y-93322438D02*
X144455239Y-93370057D01*
X144455239Y-93370057D02*
X144502858Y-93322438D01*
X144502858Y-93322438D02*
X144455239Y-93274819D01*
X144455239Y-93274819D02*
X144455239Y-93370057D01*
X144931429Y-93608152D02*
X144931429Y-94274819D01*
X144931429Y-93703390D02*
X144979048Y-93655771D01*
X144979048Y-93655771D02*
X145074286Y-93608152D01*
X145074286Y-93608152D02*
X145217143Y-93608152D01*
X145217143Y-93608152D02*
X145312381Y-93655771D01*
X145312381Y-93655771D02*
X145360000Y-93751009D01*
X145360000Y-93751009D02*
X145360000Y-94274819D01*
X146264762Y-93608152D02*
X146264762Y-94417676D01*
X146264762Y-94417676D02*
X146217143Y-94512914D01*
X146217143Y-94512914D02*
X146169524Y-94560533D01*
X146169524Y-94560533D02*
X146074286Y-94608152D01*
X146074286Y-94608152D02*
X145931429Y-94608152D01*
X145931429Y-94608152D02*
X145836191Y-94560533D01*
X146264762Y-94227200D02*
X146169524Y-94274819D01*
X146169524Y-94274819D02*
X145979048Y-94274819D01*
X145979048Y-94274819D02*
X145883810Y-94227200D01*
X145883810Y-94227200D02*
X145836191Y-94179580D01*
X145836191Y-94179580D02*
X145788572Y-94084342D01*
X145788572Y-94084342D02*
X145788572Y-93798628D01*
X145788572Y-93798628D02*
X145836191Y-93703390D01*
X145836191Y-93703390D02*
X145883810Y-93655771D01*
X145883810Y-93655771D02*
X145979048Y-93608152D01*
X145979048Y-93608152D02*
X146169524Y-93608152D01*
X146169524Y-93608152D02*
X146264762Y-93655771D01*
X146740953Y-94274819D02*
X146740953Y-93274819D01*
X146740953Y-93751009D02*
X147312381Y-93751009D01*
X147312381Y-94274819D02*
X147312381Y-93274819D01*
X147931429Y-94274819D02*
X147836191Y-94227200D01*
X147836191Y-94227200D02*
X147788572Y-94179580D01*
X147788572Y-94179580D02*
X147740953Y-94084342D01*
X147740953Y-94084342D02*
X147740953Y-93798628D01*
X147740953Y-93798628D02*
X147788572Y-93703390D01*
X147788572Y-93703390D02*
X147836191Y-93655771D01*
X147836191Y-93655771D02*
X147931429Y-93608152D01*
X147931429Y-93608152D02*
X148074286Y-93608152D01*
X148074286Y-93608152D02*
X148169524Y-93655771D01*
X148169524Y-93655771D02*
X148217143Y-93703390D01*
X148217143Y-93703390D02*
X148264762Y-93798628D01*
X148264762Y-93798628D02*
X148264762Y-94084342D01*
X148264762Y-94084342D02*
X148217143Y-94179580D01*
X148217143Y-94179580D02*
X148169524Y-94227200D01*
X148169524Y-94227200D02*
X148074286Y-94274819D01*
X148074286Y-94274819D02*
X147931429Y-94274819D01*
X148836191Y-94274819D02*
X148740953Y-94227200D01*
X148740953Y-94227200D02*
X148693334Y-94131961D01*
X148693334Y-94131961D02*
X148693334Y-93274819D01*
X149598096Y-94227200D02*
X149502858Y-94274819D01*
X149502858Y-94274819D02*
X149312382Y-94274819D01*
X149312382Y-94274819D02*
X149217144Y-94227200D01*
X149217144Y-94227200D02*
X149169525Y-94131961D01*
X149169525Y-94131961D02*
X149169525Y-93751009D01*
X149169525Y-93751009D02*
X149217144Y-93655771D01*
X149217144Y-93655771D02*
X149312382Y-93608152D01*
X149312382Y-93608152D02*
X149502858Y-93608152D01*
X149502858Y-93608152D02*
X149598096Y-93655771D01*
X149598096Y-93655771D02*
X149645715Y-93751009D01*
X149645715Y-93751009D02*
X149645715Y-93846247D01*
X149645715Y-93846247D02*
X149169525Y-93941485D01*
X149836192Y-94370057D02*
X150598096Y-94370057D01*
X150788573Y-93370057D02*
X150836192Y-93322438D01*
X150836192Y-93322438D02*
X150931430Y-93274819D01*
X150931430Y-93274819D02*
X151169525Y-93274819D01*
X151169525Y-93274819D02*
X151264763Y-93322438D01*
X151264763Y-93322438D02*
X151312382Y-93370057D01*
X151312382Y-93370057D02*
X151360001Y-93465295D01*
X151360001Y-93465295D02*
X151360001Y-93560533D01*
X151360001Y-93560533D02*
X151312382Y-93703390D01*
X151312382Y-93703390D02*
X150740954Y-94274819D01*
X150740954Y-94274819D02*
X151360001Y-94274819D01*
X151788573Y-94179580D02*
X151836192Y-94227200D01*
X151836192Y-94227200D02*
X151788573Y-94274819D01*
X151788573Y-94274819D02*
X151740954Y-94227200D01*
X151740954Y-94227200D02*
X151788573Y-94179580D01*
X151788573Y-94179580D02*
X151788573Y-94274819D01*
X152169525Y-93274819D02*
X152836191Y-93274819D01*
X152836191Y-93274819D02*
X152407620Y-94274819D01*
X153217144Y-94274819D02*
X153217144Y-93608152D01*
X153217144Y-93703390D02*
X153264763Y-93655771D01*
X153264763Y-93655771D02*
X153360001Y-93608152D01*
X153360001Y-93608152D02*
X153502858Y-93608152D01*
X153502858Y-93608152D02*
X153598096Y-93655771D01*
X153598096Y-93655771D02*
X153645715Y-93751009D01*
X153645715Y-93751009D02*
X153645715Y-94274819D01*
X153645715Y-93751009D02*
X153693334Y-93655771D01*
X153693334Y-93655771D02*
X153788572Y-93608152D01*
X153788572Y-93608152D02*
X153931429Y-93608152D01*
X153931429Y-93608152D02*
X154026668Y-93655771D01*
X154026668Y-93655771D02*
X154074287Y-93751009D01*
X154074287Y-93751009D02*
X154074287Y-94274819D01*
X154550477Y-94274819D02*
X154550477Y-93608152D01*
X154550477Y-93703390D02*
X154598096Y-93655771D01*
X154598096Y-93655771D02*
X154693334Y-93608152D01*
X154693334Y-93608152D02*
X154836191Y-93608152D01*
X154836191Y-93608152D02*
X154931429Y-93655771D01*
X154931429Y-93655771D02*
X154979048Y-93751009D01*
X154979048Y-93751009D02*
X154979048Y-94274819D01*
X154979048Y-93751009D02*
X155026667Y-93655771D01*
X155026667Y-93655771D02*
X155121905Y-93608152D01*
X155121905Y-93608152D02*
X155264762Y-93608152D01*
X155264762Y-93608152D02*
X155360001Y-93655771D01*
X155360001Y-93655771D02*
X155407620Y-93751009D01*
X155407620Y-93751009D02*
X155407620Y-94274819D01*
X155645715Y-94370057D02*
X156407619Y-94370057D01*
X156645715Y-94274819D02*
X156645715Y-93274819D01*
X156645715Y-93274819D02*
X156979048Y-93989104D01*
X156979048Y-93989104D02*
X157312381Y-93274819D01*
X157312381Y-93274819D02*
X157312381Y-94274819D01*
X157740953Y-93370057D02*
X157788572Y-93322438D01*
X157788572Y-93322438D02*
X157883810Y-93274819D01*
X157883810Y-93274819D02*
X158121905Y-93274819D01*
X158121905Y-93274819D02*
X158217143Y-93322438D01*
X158217143Y-93322438D02*
X158264762Y-93370057D01*
X158264762Y-93370057D02*
X158312381Y-93465295D01*
X158312381Y-93465295D02*
X158312381Y-93560533D01*
X158312381Y-93560533D02*
X158264762Y-93703390D01*
X158264762Y-93703390D02*
X157693334Y-94274819D01*
X157693334Y-94274819D02*
X158312381Y-94274819D01*
X158740953Y-94179580D02*
X158788572Y-94227200D01*
X158788572Y-94227200D02*
X158740953Y-94274819D01*
X158740953Y-94274819D02*
X158693334Y-94227200D01*
X158693334Y-94227200D02*
X158740953Y-94179580D01*
X158740953Y-94179580D02*
X158740953Y-94274819D01*
X159693333Y-93274819D02*
X159217143Y-93274819D01*
X159217143Y-93274819D02*
X159169524Y-93751009D01*
X159169524Y-93751009D02*
X159217143Y-93703390D01*
X159217143Y-93703390D02*
X159312381Y-93655771D01*
X159312381Y-93655771D02*
X159550476Y-93655771D01*
X159550476Y-93655771D02*
X159645714Y-93703390D01*
X159645714Y-93703390D02*
X159693333Y-93751009D01*
X159693333Y-93751009D02*
X159740952Y-93846247D01*
X159740952Y-93846247D02*
X159740952Y-94084342D01*
X159740952Y-94084342D02*
X159693333Y-94179580D01*
X159693333Y-94179580D02*
X159645714Y-94227200D01*
X159645714Y-94227200D02*
X159550476Y-94274819D01*
X159550476Y-94274819D02*
X159312381Y-94274819D01*
X159312381Y-94274819D02*
X159217143Y-94227200D01*
X159217143Y-94227200D02*
X159169524Y-94179580D01*
X148526666Y-90624819D02*
X148193333Y-90148628D01*
X147955238Y-90624819D02*
X147955238Y-89624819D01*
X147955238Y-89624819D02*
X148336190Y-89624819D01*
X148336190Y-89624819D02*
X148431428Y-89672438D01*
X148431428Y-89672438D02*
X148479047Y-89720057D01*
X148479047Y-89720057D02*
X148526666Y-89815295D01*
X148526666Y-89815295D02*
X148526666Y-89958152D01*
X148526666Y-89958152D02*
X148479047Y-90053390D01*
X148479047Y-90053390D02*
X148431428Y-90101009D01*
X148431428Y-90101009D02*
X148336190Y-90148628D01*
X148336190Y-90148628D02*
X147955238Y-90148628D01*
X148955238Y-90101009D02*
X149288571Y-90101009D01*
X149431428Y-90624819D02*
X148955238Y-90624819D01*
X148955238Y-90624819D02*
X148955238Y-89624819D01*
X148955238Y-89624819D02*
X149431428Y-89624819D01*
X150193333Y-90101009D02*
X149860000Y-90101009D01*
X149860000Y-90624819D02*
X149860000Y-89624819D01*
X149860000Y-89624819D02*
X150336190Y-89624819D01*
X150860000Y-89624819D02*
X150860000Y-89862914D01*
X150621905Y-89767676D02*
X150860000Y-89862914D01*
X150860000Y-89862914D02*
X151098095Y-89767676D01*
X150717143Y-90053390D02*
X150860000Y-89862914D01*
X150860000Y-89862914D02*
X151002857Y-90053390D01*
X151621905Y-89624819D02*
X151621905Y-89862914D01*
X151383810Y-89767676D02*
X151621905Y-89862914D01*
X151621905Y-89862914D02*
X151860000Y-89767676D01*
X151479048Y-90053390D02*
X151621905Y-89862914D01*
X151621905Y-89862914D02*
X151764762Y-90053390D01*
X93036667Y-94274819D02*
X93036667Y-93274819D01*
X93036667Y-93274819D02*
X93370000Y-93989104D01*
X93370000Y-93989104D02*
X93703333Y-93274819D01*
X93703333Y-93274819D02*
X93703333Y-94274819D01*
X94322381Y-94274819D02*
X94227143Y-94227200D01*
X94227143Y-94227200D02*
X94179524Y-94179580D01*
X94179524Y-94179580D02*
X94131905Y-94084342D01*
X94131905Y-94084342D02*
X94131905Y-93798628D01*
X94131905Y-93798628D02*
X94179524Y-93703390D01*
X94179524Y-93703390D02*
X94227143Y-93655771D01*
X94227143Y-93655771D02*
X94322381Y-93608152D01*
X94322381Y-93608152D02*
X94465238Y-93608152D01*
X94465238Y-93608152D02*
X94560476Y-93655771D01*
X94560476Y-93655771D02*
X94608095Y-93703390D01*
X94608095Y-93703390D02*
X94655714Y-93798628D01*
X94655714Y-93798628D02*
X94655714Y-94084342D01*
X94655714Y-94084342D02*
X94608095Y-94179580D01*
X94608095Y-94179580D02*
X94560476Y-94227200D01*
X94560476Y-94227200D02*
X94465238Y-94274819D01*
X94465238Y-94274819D02*
X94322381Y-94274819D01*
X95512857Y-93608152D02*
X95512857Y-94274819D01*
X95084286Y-93608152D02*
X95084286Y-94131961D01*
X95084286Y-94131961D02*
X95131905Y-94227200D01*
X95131905Y-94227200D02*
X95227143Y-94274819D01*
X95227143Y-94274819D02*
X95370000Y-94274819D01*
X95370000Y-94274819D02*
X95465238Y-94227200D01*
X95465238Y-94227200D02*
X95512857Y-94179580D01*
X95989048Y-93608152D02*
X95989048Y-94274819D01*
X95989048Y-93703390D02*
X96036667Y-93655771D01*
X96036667Y-93655771D02*
X96131905Y-93608152D01*
X96131905Y-93608152D02*
X96274762Y-93608152D01*
X96274762Y-93608152D02*
X96370000Y-93655771D01*
X96370000Y-93655771D02*
X96417619Y-93751009D01*
X96417619Y-93751009D02*
X96417619Y-94274819D01*
X96750953Y-93608152D02*
X97131905Y-93608152D01*
X96893810Y-93274819D02*
X96893810Y-94131961D01*
X96893810Y-94131961D02*
X96941429Y-94227200D01*
X96941429Y-94227200D02*
X97036667Y-94274819D01*
X97036667Y-94274819D02*
X97131905Y-94274819D01*
X97465239Y-94274819D02*
X97465239Y-93608152D01*
X97465239Y-93274819D02*
X97417620Y-93322438D01*
X97417620Y-93322438D02*
X97465239Y-93370057D01*
X97465239Y-93370057D02*
X97512858Y-93322438D01*
X97512858Y-93322438D02*
X97465239Y-93274819D01*
X97465239Y-93274819D02*
X97465239Y-93370057D01*
X97941429Y-93608152D02*
X97941429Y-94274819D01*
X97941429Y-93703390D02*
X97989048Y-93655771D01*
X97989048Y-93655771D02*
X98084286Y-93608152D01*
X98084286Y-93608152D02*
X98227143Y-93608152D01*
X98227143Y-93608152D02*
X98322381Y-93655771D01*
X98322381Y-93655771D02*
X98370000Y-93751009D01*
X98370000Y-93751009D02*
X98370000Y-94274819D01*
X99274762Y-93608152D02*
X99274762Y-94417676D01*
X99274762Y-94417676D02*
X99227143Y-94512914D01*
X99227143Y-94512914D02*
X99179524Y-94560533D01*
X99179524Y-94560533D02*
X99084286Y-94608152D01*
X99084286Y-94608152D02*
X98941429Y-94608152D01*
X98941429Y-94608152D02*
X98846191Y-94560533D01*
X99274762Y-94227200D02*
X99179524Y-94274819D01*
X99179524Y-94274819D02*
X98989048Y-94274819D01*
X98989048Y-94274819D02*
X98893810Y-94227200D01*
X98893810Y-94227200D02*
X98846191Y-94179580D01*
X98846191Y-94179580D02*
X98798572Y-94084342D01*
X98798572Y-94084342D02*
X98798572Y-93798628D01*
X98798572Y-93798628D02*
X98846191Y-93703390D01*
X98846191Y-93703390D02*
X98893810Y-93655771D01*
X98893810Y-93655771D02*
X98989048Y-93608152D01*
X98989048Y-93608152D02*
X99179524Y-93608152D01*
X99179524Y-93608152D02*
X99274762Y-93655771D01*
X99750953Y-94274819D02*
X99750953Y-93274819D01*
X99750953Y-93751009D02*
X100322381Y-93751009D01*
X100322381Y-94274819D02*
X100322381Y-93274819D01*
X100941429Y-94274819D02*
X100846191Y-94227200D01*
X100846191Y-94227200D02*
X100798572Y-94179580D01*
X100798572Y-94179580D02*
X100750953Y-94084342D01*
X100750953Y-94084342D02*
X100750953Y-93798628D01*
X100750953Y-93798628D02*
X100798572Y-93703390D01*
X100798572Y-93703390D02*
X100846191Y-93655771D01*
X100846191Y-93655771D02*
X100941429Y-93608152D01*
X100941429Y-93608152D02*
X101084286Y-93608152D01*
X101084286Y-93608152D02*
X101179524Y-93655771D01*
X101179524Y-93655771D02*
X101227143Y-93703390D01*
X101227143Y-93703390D02*
X101274762Y-93798628D01*
X101274762Y-93798628D02*
X101274762Y-94084342D01*
X101274762Y-94084342D02*
X101227143Y-94179580D01*
X101227143Y-94179580D02*
X101179524Y-94227200D01*
X101179524Y-94227200D02*
X101084286Y-94274819D01*
X101084286Y-94274819D02*
X100941429Y-94274819D01*
X101846191Y-94274819D02*
X101750953Y-94227200D01*
X101750953Y-94227200D02*
X101703334Y-94131961D01*
X101703334Y-94131961D02*
X101703334Y-93274819D01*
X102608096Y-94227200D02*
X102512858Y-94274819D01*
X102512858Y-94274819D02*
X102322382Y-94274819D01*
X102322382Y-94274819D02*
X102227144Y-94227200D01*
X102227144Y-94227200D02*
X102179525Y-94131961D01*
X102179525Y-94131961D02*
X102179525Y-93751009D01*
X102179525Y-93751009D02*
X102227144Y-93655771D01*
X102227144Y-93655771D02*
X102322382Y-93608152D01*
X102322382Y-93608152D02*
X102512858Y-93608152D01*
X102512858Y-93608152D02*
X102608096Y-93655771D01*
X102608096Y-93655771D02*
X102655715Y-93751009D01*
X102655715Y-93751009D02*
X102655715Y-93846247D01*
X102655715Y-93846247D02*
X102179525Y-93941485D01*
X102846192Y-94370057D02*
X103608096Y-94370057D01*
X103798573Y-93370057D02*
X103846192Y-93322438D01*
X103846192Y-93322438D02*
X103941430Y-93274819D01*
X103941430Y-93274819D02*
X104179525Y-93274819D01*
X104179525Y-93274819D02*
X104274763Y-93322438D01*
X104274763Y-93322438D02*
X104322382Y-93370057D01*
X104322382Y-93370057D02*
X104370001Y-93465295D01*
X104370001Y-93465295D02*
X104370001Y-93560533D01*
X104370001Y-93560533D02*
X104322382Y-93703390D01*
X104322382Y-93703390D02*
X103750954Y-94274819D01*
X103750954Y-94274819D02*
X104370001Y-94274819D01*
X104798573Y-94179580D02*
X104846192Y-94227200D01*
X104846192Y-94227200D02*
X104798573Y-94274819D01*
X104798573Y-94274819D02*
X104750954Y-94227200D01*
X104750954Y-94227200D02*
X104798573Y-94179580D01*
X104798573Y-94179580D02*
X104798573Y-94274819D01*
X105179525Y-93274819D02*
X105846191Y-93274819D01*
X105846191Y-93274819D02*
X105417620Y-94274819D01*
X106227144Y-94274819D02*
X106227144Y-93608152D01*
X106227144Y-93703390D02*
X106274763Y-93655771D01*
X106274763Y-93655771D02*
X106370001Y-93608152D01*
X106370001Y-93608152D02*
X106512858Y-93608152D01*
X106512858Y-93608152D02*
X106608096Y-93655771D01*
X106608096Y-93655771D02*
X106655715Y-93751009D01*
X106655715Y-93751009D02*
X106655715Y-94274819D01*
X106655715Y-93751009D02*
X106703334Y-93655771D01*
X106703334Y-93655771D02*
X106798572Y-93608152D01*
X106798572Y-93608152D02*
X106941429Y-93608152D01*
X106941429Y-93608152D02*
X107036668Y-93655771D01*
X107036668Y-93655771D02*
X107084287Y-93751009D01*
X107084287Y-93751009D02*
X107084287Y-94274819D01*
X107560477Y-94274819D02*
X107560477Y-93608152D01*
X107560477Y-93703390D02*
X107608096Y-93655771D01*
X107608096Y-93655771D02*
X107703334Y-93608152D01*
X107703334Y-93608152D02*
X107846191Y-93608152D01*
X107846191Y-93608152D02*
X107941429Y-93655771D01*
X107941429Y-93655771D02*
X107989048Y-93751009D01*
X107989048Y-93751009D02*
X107989048Y-94274819D01*
X107989048Y-93751009D02*
X108036667Y-93655771D01*
X108036667Y-93655771D02*
X108131905Y-93608152D01*
X108131905Y-93608152D02*
X108274762Y-93608152D01*
X108274762Y-93608152D02*
X108370001Y-93655771D01*
X108370001Y-93655771D02*
X108417620Y-93751009D01*
X108417620Y-93751009D02*
X108417620Y-94274819D01*
X108655715Y-94370057D02*
X109417619Y-94370057D01*
X109655715Y-94274819D02*
X109655715Y-93274819D01*
X109655715Y-93274819D02*
X109989048Y-93989104D01*
X109989048Y-93989104D02*
X110322381Y-93274819D01*
X110322381Y-93274819D02*
X110322381Y-94274819D01*
X110750953Y-93370057D02*
X110798572Y-93322438D01*
X110798572Y-93322438D02*
X110893810Y-93274819D01*
X110893810Y-93274819D02*
X111131905Y-93274819D01*
X111131905Y-93274819D02*
X111227143Y-93322438D01*
X111227143Y-93322438D02*
X111274762Y-93370057D01*
X111274762Y-93370057D02*
X111322381Y-93465295D01*
X111322381Y-93465295D02*
X111322381Y-93560533D01*
X111322381Y-93560533D02*
X111274762Y-93703390D01*
X111274762Y-93703390D02*
X110703334Y-94274819D01*
X110703334Y-94274819D02*
X111322381Y-94274819D01*
X111750953Y-94179580D02*
X111798572Y-94227200D01*
X111798572Y-94227200D02*
X111750953Y-94274819D01*
X111750953Y-94274819D02*
X111703334Y-94227200D01*
X111703334Y-94227200D02*
X111750953Y-94179580D01*
X111750953Y-94179580D02*
X111750953Y-94274819D01*
X112703333Y-93274819D02*
X112227143Y-93274819D01*
X112227143Y-93274819D02*
X112179524Y-93751009D01*
X112179524Y-93751009D02*
X112227143Y-93703390D01*
X112227143Y-93703390D02*
X112322381Y-93655771D01*
X112322381Y-93655771D02*
X112560476Y-93655771D01*
X112560476Y-93655771D02*
X112655714Y-93703390D01*
X112655714Y-93703390D02*
X112703333Y-93751009D01*
X112703333Y-93751009D02*
X112750952Y-93846247D01*
X112750952Y-93846247D02*
X112750952Y-94084342D01*
X112750952Y-94084342D02*
X112703333Y-94179580D01*
X112703333Y-94179580D02*
X112655714Y-94227200D01*
X112655714Y-94227200D02*
X112560476Y-94274819D01*
X112560476Y-94274819D02*
X112322381Y-94274819D01*
X112322381Y-94274819D02*
X112227143Y-94227200D01*
X112227143Y-94227200D02*
X112179524Y-94179580D01*
X101536666Y-90624819D02*
X101203333Y-90148628D01*
X100965238Y-90624819D02*
X100965238Y-89624819D01*
X100965238Y-89624819D02*
X101346190Y-89624819D01*
X101346190Y-89624819D02*
X101441428Y-89672438D01*
X101441428Y-89672438D02*
X101489047Y-89720057D01*
X101489047Y-89720057D02*
X101536666Y-89815295D01*
X101536666Y-89815295D02*
X101536666Y-89958152D01*
X101536666Y-89958152D02*
X101489047Y-90053390D01*
X101489047Y-90053390D02*
X101441428Y-90101009D01*
X101441428Y-90101009D02*
X101346190Y-90148628D01*
X101346190Y-90148628D02*
X100965238Y-90148628D01*
X101965238Y-90101009D02*
X102298571Y-90101009D01*
X102441428Y-90624819D02*
X101965238Y-90624819D01*
X101965238Y-90624819D02*
X101965238Y-89624819D01*
X101965238Y-89624819D02*
X102441428Y-89624819D01*
X103203333Y-90101009D02*
X102870000Y-90101009D01*
X102870000Y-90624819D02*
X102870000Y-89624819D01*
X102870000Y-89624819D02*
X103346190Y-89624819D01*
X103870000Y-89624819D02*
X103870000Y-89862914D01*
X103631905Y-89767676D02*
X103870000Y-89862914D01*
X103870000Y-89862914D02*
X104108095Y-89767676D01*
X103727143Y-90053390D02*
X103870000Y-89862914D01*
X103870000Y-89862914D02*
X104012857Y-90053390D01*
X104631905Y-89624819D02*
X104631905Y-89862914D01*
X104393810Y-89767676D02*
X104631905Y-89862914D01*
X104631905Y-89862914D02*
X104870000Y-89767676D01*
X104489048Y-90053390D02*
X104631905Y-89862914D01*
X104631905Y-89862914D02*
X104774762Y-90053390D01*
X132905714Y-91190057D02*
X132953333Y-91142438D01*
X132953333Y-91142438D02*
X133048571Y-91094819D01*
X133048571Y-91094819D02*
X133286666Y-91094819D01*
X133286666Y-91094819D02*
X133381904Y-91142438D01*
X133381904Y-91142438D02*
X133429523Y-91190057D01*
X133429523Y-91190057D02*
X133477142Y-91285295D01*
X133477142Y-91285295D02*
X133477142Y-91380533D01*
X133477142Y-91380533D02*
X133429523Y-91523390D01*
X133429523Y-91523390D02*
X132858095Y-92094819D01*
X132858095Y-92094819D02*
X133477142Y-92094819D01*
X133810476Y-91094819D02*
X134477142Y-91094819D01*
X134477142Y-91094819D02*
X134048571Y-92094819D01*
X135286666Y-91094819D02*
X135096190Y-91094819D01*
X135096190Y-91094819D02*
X135000952Y-91142438D01*
X135000952Y-91142438D02*
X134953333Y-91190057D01*
X134953333Y-91190057D02*
X134858095Y-91332914D01*
X134858095Y-91332914D02*
X134810476Y-91523390D01*
X134810476Y-91523390D02*
X134810476Y-91904342D01*
X134810476Y-91904342D02*
X134858095Y-91999580D01*
X134858095Y-91999580D02*
X134905714Y-92047200D01*
X134905714Y-92047200D02*
X135000952Y-92094819D01*
X135000952Y-92094819D02*
X135191428Y-92094819D01*
X135191428Y-92094819D02*
X135286666Y-92047200D01*
X135286666Y-92047200D02*
X135334285Y-91999580D01*
X135334285Y-91999580D02*
X135381904Y-91904342D01*
X135381904Y-91904342D02*
X135381904Y-91666247D01*
X135381904Y-91666247D02*
X135334285Y-91571009D01*
X135334285Y-91571009D02*
X135286666Y-91523390D01*
X135286666Y-91523390D02*
X135191428Y-91475771D01*
X135191428Y-91475771D02*
X135000952Y-91475771D01*
X135000952Y-91475771D02*
X134905714Y-91523390D01*
X134905714Y-91523390D02*
X134858095Y-91571009D01*
X134858095Y-91571009D02*
X134810476Y-91666247D01*
X136239047Y-91428152D02*
X136239047Y-92094819D01*
X136000952Y-91047200D02*
X135762857Y-91761485D01*
X135762857Y-91761485D02*
X136381904Y-91761485D01*
X133858095Y-64894819D02*
X133858095Y-65704342D01*
X133858095Y-65704342D02*
X133905714Y-65799580D01*
X133905714Y-65799580D02*
X133953333Y-65847200D01*
X133953333Y-65847200D02*
X134048571Y-65894819D01*
X134048571Y-65894819D02*
X134239047Y-65894819D01*
X134239047Y-65894819D02*
X134334285Y-65847200D01*
X134334285Y-65847200D02*
X134381904Y-65799580D01*
X134381904Y-65799580D02*
X134429523Y-65704342D01*
X134429523Y-65704342D02*
X134429523Y-64894819D01*
X135429523Y-65894819D02*
X134858095Y-65894819D01*
X135143809Y-65894819D02*
X135143809Y-64894819D01*
X135143809Y-64894819D02*
X135048571Y-65037676D01*
X135048571Y-65037676D02*
X134953333Y-65132914D01*
X134953333Y-65132914D02*
X134858095Y-65180533D01*
X93036667Y-43474819D02*
X93036667Y-42474819D01*
X93036667Y-42474819D02*
X93370000Y-43189104D01*
X93370000Y-43189104D02*
X93703333Y-42474819D01*
X93703333Y-42474819D02*
X93703333Y-43474819D01*
X94322381Y-43474819D02*
X94227143Y-43427200D01*
X94227143Y-43427200D02*
X94179524Y-43379580D01*
X94179524Y-43379580D02*
X94131905Y-43284342D01*
X94131905Y-43284342D02*
X94131905Y-42998628D01*
X94131905Y-42998628D02*
X94179524Y-42903390D01*
X94179524Y-42903390D02*
X94227143Y-42855771D01*
X94227143Y-42855771D02*
X94322381Y-42808152D01*
X94322381Y-42808152D02*
X94465238Y-42808152D01*
X94465238Y-42808152D02*
X94560476Y-42855771D01*
X94560476Y-42855771D02*
X94608095Y-42903390D01*
X94608095Y-42903390D02*
X94655714Y-42998628D01*
X94655714Y-42998628D02*
X94655714Y-43284342D01*
X94655714Y-43284342D02*
X94608095Y-43379580D01*
X94608095Y-43379580D02*
X94560476Y-43427200D01*
X94560476Y-43427200D02*
X94465238Y-43474819D01*
X94465238Y-43474819D02*
X94322381Y-43474819D01*
X95512857Y-42808152D02*
X95512857Y-43474819D01*
X95084286Y-42808152D02*
X95084286Y-43331961D01*
X95084286Y-43331961D02*
X95131905Y-43427200D01*
X95131905Y-43427200D02*
X95227143Y-43474819D01*
X95227143Y-43474819D02*
X95370000Y-43474819D01*
X95370000Y-43474819D02*
X95465238Y-43427200D01*
X95465238Y-43427200D02*
X95512857Y-43379580D01*
X95989048Y-42808152D02*
X95989048Y-43474819D01*
X95989048Y-42903390D02*
X96036667Y-42855771D01*
X96036667Y-42855771D02*
X96131905Y-42808152D01*
X96131905Y-42808152D02*
X96274762Y-42808152D01*
X96274762Y-42808152D02*
X96370000Y-42855771D01*
X96370000Y-42855771D02*
X96417619Y-42951009D01*
X96417619Y-42951009D02*
X96417619Y-43474819D01*
X96750953Y-42808152D02*
X97131905Y-42808152D01*
X96893810Y-42474819D02*
X96893810Y-43331961D01*
X96893810Y-43331961D02*
X96941429Y-43427200D01*
X96941429Y-43427200D02*
X97036667Y-43474819D01*
X97036667Y-43474819D02*
X97131905Y-43474819D01*
X97465239Y-43474819D02*
X97465239Y-42808152D01*
X97465239Y-42474819D02*
X97417620Y-42522438D01*
X97417620Y-42522438D02*
X97465239Y-42570057D01*
X97465239Y-42570057D02*
X97512858Y-42522438D01*
X97512858Y-42522438D02*
X97465239Y-42474819D01*
X97465239Y-42474819D02*
X97465239Y-42570057D01*
X97941429Y-42808152D02*
X97941429Y-43474819D01*
X97941429Y-42903390D02*
X97989048Y-42855771D01*
X97989048Y-42855771D02*
X98084286Y-42808152D01*
X98084286Y-42808152D02*
X98227143Y-42808152D01*
X98227143Y-42808152D02*
X98322381Y-42855771D01*
X98322381Y-42855771D02*
X98370000Y-42951009D01*
X98370000Y-42951009D02*
X98370000Y-43474819D01*
X99274762Y-42808152D02*
X99274762Y-43617676D01*
X99274762Y-43617676D02*
X99227143Y-43712914D01*
X99227143Y-43712914D02*
X99179524Y-43760533D01*
X99179524Y-43760533D02*
X99084286Y-43808152D01*
X99084286Y-43808152D02*
X98941429Y-43808152D01*
X98941429Y-43808152D02*
X98846191Y-43760533D01*
X99274762Y-43427200D02*
X99179524Y-43474819D01*
X99179524Y-43474819D02*
X98989048Y-43474819D01*
X98989048Y-43474819D02*
X98893810Y-43427200D01*
X98893810Y-43427200D02*
X98846191Y-43379580D01*
X98846191Y-43379580D02*
X98798572Y-43284342D01*
X98798572Y-43284342D02*
X98798572Y-42998628D01*
X98798572Y-42998628D02*
X98846191Y-42903390D01*
X98846191Y-42903390D02*
X98893810Y-42855771D01*
X98893810Y-42855771D02*
X98989048Y-42808152D01*
X98989048Y-42808152D02*
X99179524Y-42808152D01*
X99179524Y-42808152D02*
X99274762Y-42855771D01*
X99750953Y-43474819D02*
X99750953Y-42474819D01*
X99750953Y-42951009D02*
X100322381Y-42951009D01*
X100322381Y-43474819D02*
X100322381Y-42474819D01*
X100941429Y-43474819D02*
X100846191Y-43427200D01*
X100846191Y-43427200D02*
X100798572Y-43379580D01*
X100798572Y-43379580D02*
X100750953Y-43284342D01*
X100750953Y-43284342D02*
X100750953Y-42998628D01*
X100750953Y-42998628D02*
X100798572Y-42903390D01*
X100798572Y-42903390D02*
X100846191Y-42855771D01*
X100846191Y-42855771D02*
X100941429Y-42808152D01*
X100941429Y-42808152D02*
X101084286Y-42808152D01*
X101084286Y-42808152D02*
X101179524Y-42855771D01*
X101179524Y-42855771D02*
X101227143Y-42903390D01*
X101227143Y-42903390D02*
X101274762Y-42998628D01*
X101274762Y-42998628D02*
X101274762Y-43284342D01*
X101274762Y-43284342D02*
X101227143Y-43379580D01*
X101227143Y-43379580D02*
X101179524Y-43427200D01*
X101179524Y-43427200D02*
X101084286Y-43474819D01*
X101084286Y-43474819D02*
X100941429Y-43474819D01*
X101846191Y-43474819D02*
X101750953Y-43427200D01*
X101750953Y-43427200D02*
X101703334Y-43331961D01*
X101703334Y-43331961D02*
X101703334Y-42474819D01*
X102608096Y-43427200D02*
X102512858Y-43474819D01*
X102512858Y-43474819D02*
X102322382Y-43474819D01*
X102322382Y-43474819D02*
X102227144Y-43427200D01*
X102227144Y-43427200D02*
X102179525Y-43331961D01*
X102179525Y-43331961D02*
X102179525Y-42951009D01*
X102179525Y-42951009D02*
X102227144Y-42855771D01*
X102227144Y-42855771D02*
X102322382Y-42808152D01*
X102322382Y-42808152D02*
X102512858Y-42808152D01*
X102512858Y-42808152D02*
X102608096Y-42855771D01*
X102608096Y-42855771D02*
X102655715Y-42951009D01*
X102655715Y-42951009D02*
X102655715Y-43046247D01*
X102655715Y-43046247D02*
X102179525Y-43141485D01*
X102846192Y-43570057D02*
X103608096Y-43570057D01*
X103798573Y-42570057D02*
X103846192Y-42522438D01*
X103846192Y-42522438D02*
X103941430Y-42474819D01*
X103941430Y-42474819D02*
X104179525Y-42474819D01*
X104179525Y-42474819D02*
X104274763Y-42522438D01*
X104274763Y-42522438D02*
X104322382Y-42570057D01*
X104322382Y-42570057D02*
X104370001Y-42665295D01*
X104370001Y-42665295D02*
X104370001Y-42760533D01*
X104370001Y-42760533D02*
X104322382Y-42903390D01*
X104322382Y-42903390D02*
X103750954Y-43474819D01*
X103750954Y-43474819D02*
X104370001Y-43474819D01*
X104798573Y-43379580D02*
X104846192Y-43427200D01*
X104846192Y-43427200D02*
X104798573Y-43474819D01*
X104798573Y-43474819D02*
X104750954Y-43427200D01*
X104750954Y-43427200D02*
X104798573Y-43379580D01*
X104798573Y-43379580D02*
X104798573Y-43474819D01*
X105179525Y-42474819D02*
X105846191Y-42474819D01*
X105846191Y-42474819D02*
X105417620Y-43474819D01*
X106227144Y-43474819D02*
X106227144Y-42808152D01*
X106227144Y-42903390D02*
X106274763Y-42855771D01*
X106274763Y-42855771D02*
X106370001Y-42808152D01*
X106370001Y-42808152D02*
X106512858Y-42808152D01*
X106512858Y-42808152D02*
X106608096Y-42855771D01*
X106608096Y-42855771D02*
X106655715Y-42951009D01*
X106655715Y-42951009D02*
X106655715Y-43474819D01*
X106655715Y-42951009D02*
X106703334Y-42855771D01*
X106703334Y-42855771D02*
X106798572Y-42808152D01*
X106798572Y-42808152D02*
X106941429Y-42808152D01*
X106941429Y-42808152D02*
X107036668Y-42855771D01*
X107036668Y-42855771D02*
X107084287Y-42951009D01*
X107084287Y-42951009D02*
X107084287Y-43474819D01*
X107560477Y-43474819D02*
X107560477Y-42808152D01*
X107560477Y-42903390D02*
X107608096Y-42855771D01*
X107608096Y-42855771D02*
X107703334Y-42808152D01*
X107703334Y-42808152D02*
X107846191Y-42808152D01*
X107846191Y-42808152D02*
X107941429Y-42855771D01*
X107941429Y-42855771D02*
X107989048Y-42951009D01*
X107989048Y-42951009D02*
X107989048Y-43474819D01*
X107989048Y-42951009D02*
X108036667Y-42855771D01*
X108036667Y-42855771D02*
X108131905Y-42808152D01*
X108131905Y-42808152D02*
X108274762Y-42808152D01*
X108274762Y-42808152D02*
X108370001Y-42855771D01*
X108370001Y-42855771D02*
X108417620Y-42951009D01*
X108417620Y-42951009D02*
X108417620Y-43474819D01*
X108655715Y-43570057D02*
X109417619Y-43570057D01*
X109655715Y-43474819D02*
X109655715Y-42474819D01*
X109655715Y-42474819D02*
X109989048Y-43189104D01*
X109989048Y-43189104D02*
X110322381Y-42474819D01*
X110322381Y-42474819D02*
X110322381Y-43474819D01*
X110750953Y-42570057D02*
X110798572Y-42522438D01*
X110798572Y-42522438D02*
X110893810Y-42474819D01*
X110893810Y-42474819D02*
X111131905Y-42474819D01*
X111131905Y-42474819D02*
X111227143Y-42522438D01*
X111227143Y-42522438D02*
X111274762Y-42570057D01*
X111274762Y-42570057D02*
X111322381Y-42665295D01*
X111322381Y-42665295D02*
X111322381Y-42760533D01*
X111322381Y-42760533D02*
X111274762Y-42903390D01*
X111274762Y-42903390D02*
X110703334Y-43474819D01*
X110703334Y-43474819D02*
X111322381Y-43474819D01*
X111750953Y-43379580D02*
X111798572Y-43427200D01*
X111798572Y-43427200D02*
X111750953Y-43474819D01*
X111750953Y-43474819D02*
X111703334Y-43427200D01*
X111703334Y-43427200D02*
X111750953Y-43379580D01*
X111750953Y-43379580D02*
X111750953Y-43474819D01*
X112703333Y-42474819D02*
X112227143Y-42474819D01*
X112227143Y-42474819D02*
X112179524Y-42951009D01*
X112179524Y-42951009D02*
X112227143Y-42903390D01*
X112227143Y-42903390D02*
X112322381Y-42855771D01*
X112322381Y-42855771D02*
X112560476Y-42855771D01*
X112560476Y-42855771D02*
X112655714Y-42903390D01*
X112655714Y-42903390D02*
X112703333Y-42951009D01*
X112703333Y-42951009D02*
X112750952Y-43046247D01*
X112750952Y-43046247D02*
X112750952Y-43284342D01*
X112750952Y-43284342D02*
X112703333Y-43379580D01*
X112703333Y-43379580D02*
X112655714Y-43427200D01*
X112655714Y-43427200D02*
X112560476Y-43474819D01*
X112560476Y-43474819D02*
X112322381Y-43474819D01*
X112322381Y-43474819D02*
X112227143Y-43427200D01*
X112227143Y-43427200D02*
X112179524Y-43379580D01*
X101536666Y-39824819D02*
X101203333Y-39348628D01*
X100965238Y-39824819D02*
X100965238Y-38824819D01*
X100965238Y-38824819D02*
X101346190Y-38824819D01*
X101346190Y-38824819D02*
X101441428Y-38872438D01*
X101441428Y-38872438D02*
X101489047Y-38920057D01*
X101489047Y-38920057D02*
X101536666Y-39015295D01*
X101536666Y-39015295D02*
X101536666Y-39158152D01*
X101536666Y-39158152D02*
X101489047Y-39253390D01*
X101489047Y-39253390D02*
X101441428Y-39301009D01*
X101441428Y-39301009D02*
X101346190Y-39348628D01*
X101346190Y-39348628D02*
X100965238Y-39348628D01*
X101965238Y-39301009D02*
X102298571Y-39301009D01*
X102441428Y-39824819D02*
X101965238Y-39824819D01*
X101965238Y-39824819D02*
X101965238Y-38824819D01*
X101965238Y-38824819D02*
X102441428Y-38824819D01*
X103203333Y-39301009D02*
X102870000Y-39301009D01*
X102870000Y-39824819D02*
X102870000Y-38824819D01*
X102870000Y-38824819D02*
X103346190Y-38824819D01*
X103870000Y-38824819D02*
X103870000Y-39062914D01*
X103631905Y-38967676D02*
X103870000Y-39062914D01*
X103870000Y-39062914D02*
X104108095Y-38967676D01*
X103727143Y-39253390D02*
X103870000Y-39062914D01*
X103870000Y-39062914D02*
X104012857Y-39253390D01*
X104631905Y-38824819D02*
X104631905Y-39062914D01*
X104393810Y-38967676D02*
X104631905Y-39062914D01*
X104631905Y-39062914D02*
X104870000Y-38967676D01*
X104489048Y-39253390D02*
X104631905Y-39062914D01*
X104631905Y-39062914D02*
X104774762Y-39253390D01*
D11*
%TO.C,J1*%
X101855000Y-50530000D02*
X102855000Y-49530000D01*
X101855000Y-80010000D02*
X101855000Y-50530000D01*
X102855000Y-49530000D02*
X116585000Y-49530000D01*
X116585000Y-49530000D02*
X116585000Y-80010000D01*
X116585000Y-80010000D02*
X101855000Y-80010000D01*
%TO.C,U1*%
X122000000Y-29340000D02*
X122000000Y-32940000D01*
X122000000Y-29340000D02*
X123300000Y-27940000D01*
X122000000Y-32940000D02*
X123500000Y-34940000D01*
X122000000Y-32940000D02*
X126600000Y-32940000D01*
X123170000Y-41400000D02*
X124150000Y-40240000D01*
X123170000Y-90640000D02*
X123170000Y-41400000D01*
X123300000Y-27940000D02*
X125300000Y-27940000D01*
X123500000Y-34940000D02*
X125100000Y-34940000D01*
X123500000Y-41050000D02*
X123500000Y-34940000D01*
X124150000Y-40240000D02*
X146070000Y-40240000D01*
X125100000Y-34940000D02*
X125100000Y-40240000D01*
X125300000Y-27940000D02*
X126600000Y-29340000D01*
X126600000Y-29340000D02*
X122000000Y-29340000D01*
X126600000Y-32940000D02*
X125100000Y-34940000D01*
X126600000Y-32940000D02*
X126600000Y-29340000D01*
X146070000Y-40240000D02*
X146070000Y-90640000D01*
X146070000Y-90640000D02*
X123170000Y-90640000D01*
%TD*%
M02*
