%TF.GenerationSoftware,KiCad,Pcbnew,9.0.2+1*%
%TF.CreationDate,2025-07-10T03:03:21+09:00*%
%TF.ProjectId,romext-2364,726f6d65-7874-42d3-9233-36342e6b6963,1.0*%
%TF.SameCoordinates,Original*%
%TF.FileFunction,Drillmap*%
%TF.FilePolarity,Positive*%
%FSLAX45Y45*%
G04 Gerber Fmt 4.5, Leading zero omitted, Abs format (unit mm)*
G04 Created by KiCad (PCBNEW 9.0.2+1) date 2025-07-10 03:03:21*
%MOMM*%
%LPD*%
G01*
G04 APERTURE LIST*
%ADD10C,0.050000*%
%ADD11C,0.200000*%
%ADD12C,0.100000*%
%ADD13C,0.270000*%
G04 APERTURE END LIST*
D10*
X9398000Y-3556000D02*
X15367000Y-3556000D01*
X15367000Y-9398000D01*
X9398000Y-9398000D01*
X9398000Y-3556000D01*
D11*
D12*
X10120000Y-5040000D02*
X10200000Y-5120000D01*
X10200000Y-5040000D02*
X10120000Y-5120000D01*
X10120000Y-5294000D02*
X10200000Y-5374000D01*
X10200000Y-5294000D02*
X10120000Y-5374000D01*
X10120000Y-5548000D02*
X10200000Y-5628000D01*
X10200000Y-5548000D02*
X10120000Y-5628000D01*
X10120000Y-5802000D02*
X10200000Y-5882000D01*
X10200000Y-5802000D02*
X10120000Y-5882000D01*
X10120000Y-6056000D02*
X10200000Y-6136000D01*
X10200000Y-6056000D02*
X10120000Y-6136000D01*
X10120000Y-6310000D02*
X10200000Y-6390000D01*
X10200000Y-6310000D02*
X10120000Y-6390000D01*
X10120000Y-6564000D02*
X10200000Y-6644000D01*
X10200000Y-6564000D02*
X10120000Y-6644000D01*
X10120000Y-6818000D02*
X10200000Y-6898000D01*
X10200000Y-6818000D02*
X10120000Y-6898000D01*
X10120000Y-7072000D02*
X10200000Y-7152000D01*
X10200000Y-7072000D02*
X10120000Y-7152000D01*
X10120000Y-7326000D02*
X10200000Y-7406000D01*
X10200000Y-7326000D02*
X10120000Y-7406000D01*
X10120000Y-7580000D02*
X10200000Y-7660000D01*
X10200000Y-7580000D02*
X10120000Y-7660000D01*
X10120000Y-7834000D02*
X10200000Y-7914000D01*
X10200000Y-7834000D02*
X10120000Y-7914000D01*
X11644000Y-5040000D02*
X11724000Y-5120000D01*
X11724000Y-5040000D02*
X11644000Y-5120000D01*
X11644000Y-5294000D02*
X11724000Y-5374000D01*
X11724000Y-5294000D02*
X11644000Y-5374000D01*
X11644000Y-5548000D02*
X11724000Y-5628000D01*
X11724000Y-5548000D02*
X11644000Y-5628000D01*
X11644000Y-5802000D02*
X11724000Y-5882000D01*
X11724000Y-5802000D02*
X11644000Y-5882000D01*
X11644000Y-6056000D02*
X11724000Y-6136000D01*
X11724000Y-6056000D02*
X11644000Y-6136000D01*
X11644000Y-6310000D02*
X11724000Y-6390000D01*
X11724000Y-6310000D02*
X11644000Y-6390000D01*
X11644000Y-6564000D02*
X11724000Y-6644000D01*
X11724000Y-6564000D02*
X11644000Y-6644000D01*
X11644000Y-6818000D02*
X11724000Y-6898000D01*
X11724000Y-6818000D02*
X11644000Y-6898000D01*
X11644000Y-7072000D02*
X11724000Y-7152000D01*
X11724000Y-7072000D02*
X11644000Y-7152000D01*
X11644000Y-7326000D02*
X11724000Y-7406000D01*
X11724000Y-7326000D02*
X11644000Y-7406000D01*
X11644000Y-7580000D02*
X11724000Y-7660000D01*
X11724000Y-7580000D02*
X11644000Y-7660000D01*
X11644000Y-7834000D02*
X11724000Y-7914000D01*
X11724000Y-7834000D02*
X11644000Y-7914000D01*
X12660000Y-5040000D02*
X12740000Y-5120000D01*
X12740000Y-5040000D02*
X12660000Y-5120000D01*
X12660000Y-5294000D02*
X12740000Y-5374000D01*
X12740000Y-5294000D02*
X12660000Y-5374000D01*
X12660000Y-5548000D02*
X12740000Y-5628000D01*
X12740000Y-5548000D02*
X12660000Y-5628000D01*
X12660000Y-5802000D02*
X12740000Y-5882000D01*
X12740000Y-5802000D02*
X12660000Y-5882000D01*
X12660000Y-6056000D02*
X12740000Y-6136000D01*
X12740000Y-6056000D02*
X12660000Y-6136000D01*
X12660000Y-6310000D02*
X12740000Y-6390000D01*
X12740000Y-6310000D02*
X12660000Y-6390000D01*
X12660000Y-6564000D02*
X12740000Y-6644000D01*
X12740000Y-6564000D02*
X12660000Y-6644000D01*
X12660000Y-6818000D02*
X12740000Y-6898000D01*
X12740000Y-6818000D02*
X12660000Y-6898000D01*
X12660000Y-7072000D02*
X12740000Y-7152000D01*
X12740000Y-7072000D02*
X12660000Y-7152000D01*
X12660000Y-7326000D02*
X12740000Y-7406000D01*
X12740000Y-7326000D02*
X12660000Y-7406000D01*
X12660000Y-7580000D02*
X12740000Y-7660000D01*
X12740000Y-7580000D02*
X12660000Y-7660000D01*
X12660000Y-7834000D02*
X12740000Y-7914000D01*
X12740000Y-7834000D02*
X12660000Y-7914000D01*
X12660000Y-8088000D02*
X12740000Y-8168000D01*
X12740000Y-8088000D02*
X12660000Y-8168000D01*
X12660000Y-8342000D02*
X12740000Y-8422000D01*
X12740000Y-8342000D02*
X12660000Y-8422000D01*
X14184000Y-5040000D02*
X14264000Y-5120000D01*
X14264000Y-5040000D02*
X14184000Y-5120000D01*
X14184000Y-5294000D02*
X14264000Y-5374000D01*
X14264000Y-5294000D02*
X14184000Y-5374000D01*
X14184000Y-5548000D02*
X14264000Y-5628000D01*
X14264000Y-5548000D02*
X14184000Y-5628000D01*
X14184000Y-5802000D02*
X14264000Y-5882000D01*
X14264000Y-5802000D02*
X14184000Y-5882000D01*
X14184000Y-6056000D02*
X14264000Y-6136000D01*
X14264000Y-6056000D02*
X14184000Y-6136000D01*
X14184000Y-6310000D02*
X14264000Y-6390000D01*
X14264000Y-6310000D02*
X14184000Y-6390000D01*
X14184000Y-6564000D02*
X14264000Y-6644000D01*
X14264000Y-6564000D02*
X14184000Y-6644000D01*
X14184000Y-6818000D02*
X14264000Y-6898000D01*
X14264000Y-6818000D02*
X14184000Y-6898000D01*
X14184000Y-7072000D02*
X14264000Y-7152000D01*
X14264000Y-7072000D02*
X14184000Y-7152000D01*
X14184000Y-7326000D02*
X14264000Y-7406000D01*
X14264000Y-7326000D02*
X14184000Y-7406000D01*
X14184000Y-7580000D02*
X14264000Y-7660000D01*
X14264000Y-7580000D02*
X14184000Y-7660000D01*
X14184000Y-7834000D02*
X14264000Y-7914000D01*
X14264000Y-7834000D02*
X14184000Y-7914000D01*
X14184000Y-8088000D02*
X14264000Y-8168000D01*
X14264000Y-8088000D02*
X14184000Y-8168000D01*
X14184000Y-8342000D02*
X14264000Y-8422000D01*
X14264000Y-8342000D02*
X14184000Y-8422000D01*
D13*
X9914000Y-3937000D02*
G75*
G02*
X9644000Y-3937000I-135000J0D01*
G01*
X9644000Y-3937000D02*
G75*
G02*
X9914000Y-3937000I135000J0D01*
G01*
X9914000Y-9017000D02*
G75*
G02*
X9644000Y-9017000I-135000J0D01*
G01*
X9644000Y-9017000D02*
G75*
G02*
X9914000Y-9017000I135000J0D01*
G01*
X15121000Y-3937000D02*
G75*
G02*
X14851000Y-3937000I-135000J0D01*
G01*
X14851000Y-3937000D02*
G75*
G02*
X15121000Y-3937000I135000J0D01*
G01*
X15121000Y-9017000D02*
G75*
G02*
X14851000Y-9017000I-135000J0D01*
G01*
X14851000Y-9017000D02*
G75*
G02*
X15121000Y-9017000I135000J0D01*
G01*
D11*
X9656277Y-9711984D02*
X9656277Y-9511984D01*
X9656277Y-9511984D02*
X9703896Y-9511984D01*
X9703896Y-9511984D02*
X9732467Y-9521508D01*
X9732467Y-9521508D02*
X9751515Y-9540555D01*
X9751515Y-9540555D02*
X9761039Y-9559603D01*
X9761039Y-9559603D02*
X9770563Y-9597698D01*
X9770563Y-9597698D02*
X9770563Y-9626270D01*
X9770563Y-9626270D02*
X9761039Y-9664365D01*
X9761039Y-9664365D02*
X9751515Y-9683412D01*
X9751515Y-9683412D02*
X9732467Y-9702460D01*
X9732467Y-9702460D02*
X9703896Y-9711984D01*
X9703896Y-9711984D02*
X9656277Y-9711984D01*
X9856277Y-9711984D02*
X9856277Y-9578650D01*
X9856277Y-9616746D02*
X9865801Y-9597698D01*
X9865801Y-9597698D02*
X9875324Y-9588174D01*
X9875324Y-9588174D02*
X9894372Y-9578650D01*
X9894372Y-9578650D02*
X9913420Y-9578650D01*
X9980086Y-9711984D02*
X9980086Y-9578650D01*
X9980086Y-9511984D02*
X9970563Y-9521508D01*
X9970563Y-9521508D02*
X9980086Y-9531031D01*
X9980086Y-9531031D02*
X9989610Y-9521508D01*
X9989610Y-9521508D02*
X9980086Y-9511984D01*
X9980086Y-9511984D02*
X9980086Y-9531031D01*
X10103896Y-9711984D02*
X10084848Y-9702460D01*
X10084848Y-9702460D02*
X10075324Y-9683412D01*
X10075324Y-9683412D02*
X10075324Y-9511984D01*
X10208658Y-9711984D02*
X10189610Y-9702460D01*
X10189610Y-9702460D02*
X10180086Y-9683412D01*
X10180086Y-9683412D02*
X10180086Y-9511984D01*
X10437229Y-9711984D02*
X10437229Y-9511984D01*
X10437229Y-9511984D02*
X10503896Y-9654841D01*
X10503896Y-9654841D02*
X10570563Y-9511984D01*
X10570563Y-9511984D02*
X10570563Y-9711984D01*
X10751515Y-9711984D02*
X10751515Y-9607222D01*
X10751515Y-9607222D02*
X10741991Y-9588174D01*
X10741991Y-9588174D02*
X10722944Y-9578650D01*
X10722944Y-9578650D02*
X10684848Y-9578650D01*
X10684848Y-9578650D02*
X10665801Y-9588174D01*
X10751515Y-9702460D02*
X10732467Y-9711984D01*
X10732467Y-9711984D02*
X10684848Y-9711984D01*
X10684848Y-9711984D02*
X10665801Y-9702460D01*
X10665801Y-9702460D02*
X10656277Y-9683412D01*
X10656277Y-9683412D02*
X10656277Y-9664365D01*
X10656277Y-9664365D02*
X10665801Y-9645317D01*
X10665801Y-9645317D02*
X10684848Y-9635793D01*
X10684848Y-9635793D02*
X10732467Y-9635793D01*
X10732467Y-9635793D02*
X10751515Y-9626270D01*
X10846753Y-9578650D02*
X10846753Y-9778650D01*
X10846753Y-9588174D02*
X10865801Y-9578650D01*
X10865801Y-9578650D02*
X10903896Y-9578650D01*
X10903896Y-9578650D02*
X10922944Y-9588174D01*
X10922944Y-9588174D02*
X10932467Y-9597698D01*
X10932467Y-9597698D02*
X10941991Y-9616746D01*
X10941991Y-9616746D02*
X10941991Y-9673889D01*
X10941991Y-9673889D02*
X10932467Y-9692936D01*
X10932467Y-9692936D02*
X10922944Y-9702460D01*
X10922944Y-9702460D02*
X10903896Y-9711984D01*
X10903896Y-9711984D02*
X10865801Y-9711984D01*
X10865801Y-9711984D02*
X10846753Y-9702460D01*
X11027705Y-9692936D02*
X11037229Y-9702460D01*
X11037229Y-9702460D02*
X11027705Y-9711984D01*
X11027705Y-9711984D02*
X11018182Y-9702460D01*
X11018182Y-9702460D02*
X11027705Y-9692936D01*
X11027705Y-9692936D02*
X11027705Y-9711984D01*
X11027705Y-9588174D02*
X11037229Y-9597698D01*
X11037229Y-9597698D02*
X11027705Y-9607222D01*
X11027705Y-9607222D02*
X11018182Y-9597698D01*
X11018182Y-9597698D02*
X11027705Y-9588174D01*
X11027705Y-9588174D02*
X11027705Y-9607222D01*
D12*
X9315500Y-10000500D02*
X9395500Y-10080500D01*
X9395500Y-10000500D02*
X9315500Y-10080500D01*
D11*
X9694372Y-9931984D02*
X9713420Y-9931984D01*
X9713420Y-9931984D02*
X9732467Y-9941508D01*
X9732467Y-9941508D02*
X9741991Y-9951031D01*
X9741991Y-9951031D02*
X9751515Y-9970079D01*
X9751515Y-9970079D02*
X9761039Y-10008174D01*
X9761039Y-10008174D02*
X9761039Y-10055793D01*
X9761039Y-10055793D02*
X9751515Y-10093889D01*
X9751515Y-10093889D02*
X9741991Y-10112936D01*
X9741991Y-10112936D02*
X9732467Y-10122460D01*
X9732467Y-10122460D02*
X9713420Y-10131984D01*
X9713420Y-10131984D02*
X9694372Y-10131984D01*
X9694372Y-10131984D02*
X9675324Y-10122460D01*
X9675324Y-10122460D02*
X9665801Y-10112936D01*
X9665801Y-10112936D02*
X9656277Y-10093889D01*
X9656277Y-10093889D02*
X9646753Y-10055793D01*
X9646753Y-10055793D02*
X9646753Y-10008174D01*
X9646753Y-10008174D02*
X9656277Y-9970079D01*
X9656277Y-9970079D02*
X9665801Y-9951031D01*
X9665801Y-9951031D02*
X9675324Y-9941508D01*
X9675324Y-9941508D02*
X9694372Y-9931984D01*
X9846753Y-10112936D02*
X9856277Y-10122460D01*
X9856277Y-10122460D02*
X9846753Y-10131984D01*
X9846753Y-10131984D02*
X9837229Y-10122460D01*
X9837229Y-10122460D02*
X9846753Y-10112936D01*
X9846753Y-10112936D02*
X9846753Y-10131984D01*
X9970563Y-10017698D02*
X9951515Y-10008174D01*
X9951515Y-10008174D02*
X9941991Y-9998650D01*
X9941991Y-9998650D02*
X9932467Y-9979603D01*
X9932467Y-9979603D02*
X9932467Y-9970079D01*
X9932467Y-9970079D02*
X9941991Y-9951031D01*
X9941991Y-9951031D02*
X9951515Y-9941508D01*
X9951515Y-9941508D02*
X9970563Y-9931984D01*
X9970563Y-9931984D02*
X10008658Y-9931984D01*
X10008658Y-9931984D02*
X10027705Y-9941508D01*
X10027705Y-9941508D02*
X10037229Y-9951031D01*
X10037229Y-9951031D02*
X10046753Y-9970079D01*
X10046753Y-9970079D02*
X10046753Y-9979603D01*
X10046753Y-9979603D02*
X10037229Y-9998650D01*
X10037229Y-9998650D02*
X10027705Y-10008174D01*
X10027705Y-10008174D02*
X10008658Y-10017698D01*
X10008658Y-10017698D02*
X9970563Y-10017698D01*
X9970563Y-10017698D02*
X9951515Y-10027222D01*
X9951515Y-10027222D02*
X9941991Y-10036746D01*
X9941991Y-10036746D02*
X9932467Y-10055793D01*
X9932467Y-10055793D02*
X9932467Y-10093889D01*
X9932467Y-10093889D02*
X9941991Y-10112936D01*
X9941991Y-10112936D02*
X9951515Y-10122460D01*
X9951515Y-10122460D02*
X9970563Y-10131984D01*
X9970563Y-10131984D02*
X10008658Y-10131984D01*
X10008658Y-10131984D02*
X10027705Y-10122460D01*
X10027705Y-10122460D02*
X10037229Y-10112936D01*
X10037229Y-10112936D02*
X10046753Y-10093889D01*
X10046753Y-10093889D02*
X10046753Y-10055793D01*
X10046753Y-10055793D02*
X10037229Y-10036746D01*
X10037229Y-10036746D02*
X10027705Y-10027222D01*
X10027705Y-10027222D02*
X10008658Y-10017698D01*
X10170563Y-9931984D02*
X10189610Y-9931984D01*
X10189610Y-9931984D02*
X10208658Y-9941508D01*
X10208658Y-9941508D02*
X10218182Y-9951031D01*
X10218182Y-9951031D02*
X10227705Y-9970079D01*
X10227705Y-9970079D02*
X10237229Y-10008174D01*
X10237229Y-10008174D02*
X10237229Y-10055793D01*
X10237229Y-10055793D02*
X10227705Y-10093889D01*
X10227705Y-10093889D02*
X10218182Y-10112936D01*
X10218182Y-10112936D02*
X10208658Y-10122460D01*
X10208658Y-10122460D02*
X10189610Y-10131984D01*
X10189610Y-10131984D02*
X10170563Y-10131984D01*
X10170563Y-10131984D02*
X10151515Y-10122460D01*
X10151515Y-10122460D02*
X10141991Y-10112936D01*
X10141991Y-10112936D02*
X10132467Y-10093889D01*
X10132467Y-10093889D02*
X10122944Y-10055793D01*
X10122944Y-10055793D02*
X10122944Y-10008174D01*
X10122944Y-10008174D02*
X10132467Y-9970079D01*
X10132467Y-9970079D02*
X10141991Y-9951031D01*
X10141991Y-9951031D02*
X10151515Y-9941508D01*
X10151515Y-9941508D02*
X10170563Y-9931984D01*
X10361039Y-9931984D02*
X10380086Y-9931984D01*
X10380086Y-9931984D02*
X10399134Y-9941508D01*
X10399134Y-9941508D02*
X10408658Y-9951031D01*
X10408658Y-9951031D02*
X10418182Y-9970079D01*
X10418182Y-9970079D02*
X10427705Y-10008174D01*
X10427705Y-10008174D02*
X10427705Y-10055793D01*
X10427705Y-10055793D02*
X10418182Y-10093889D01*
X10418182Y-10093889D02*
X10408658Y-10112936D01*
X10408658Y-10112936D02*
X10399134Y-10122460D01*
X10399134Y-10122460D02*
X10380086Y-10131984D01*
X10380086Y-10131984D02*
X10361039Y-10131984D01*
X10361039Y-10131984D02*
X10341991Y-10122460D01*
X10341991Y-10122460D02*
X10332467Y-10112936D01*
X10332467Y-10112936D02*
X10322944Y-10093889D01*
X10322944Y-10093889D02*
X10313420Y-10055793D01*
X10313420Y-10055793D02*
X10313420Y-10008174D01*
X10313420Y-10008174D02*
X10322944Y-9970079D01*
X10322944Y-9970079D02*
X10332467Y-9951031D01*
X10332467Y-9951031D02*
X10341991Y-9941508D01*
X10341991Y-9941508D02*
X10361039Y-9931984D01*
X10513420Y-10131984D02*
X10513420Y-9998650D01*
X10513420Y-10017698D02*
X10522944Y-10008174D01*
X10522944Y-10008174D02*
X10541991Y-9998650D01*
X10541991Y-9998650D02*
X10570563Y-9998650D01*
X10570563Y-9998650D02*
X10589610Y-10008174D01*
X10589610Y-10008174D02*
X10599134Y-10027222D01*
X10599134Y-10027222D02*
X10599134Y-10131984D01*
X10599134Y-10027222D02*
X10608658Y-10008174D01*
X10608658Y-10008174D02*
X10627705Y-9998650D01*
X10627705Y-9998650D02*
X10656277Y-9998650D01*
X10656277Y-9998650D02*
X10675325Y-10008174D01*
X10675325Y-10008174D02*
X10684848Y-10027222D01*
X10684848Y-10027222D02*
X10684848Y-10131984D01*
X10780086Y-10131984D02*
X10780086Y-9998650D01*
X10780086Y-10017698D02*
X10789610Y-10008174D01*
X10789610Y-10008174D02*
X10808658Y-9998650D01*
X10808658Y-9998650D02*
X10837229Y-9998650D01*
X10837229Y-9998650D02*
X10856277Y-10008174D01*
X10856277Y-10008174D02*
X10865801Y-10027222D01*
X10865801Y-10027222D02*
X10865801Y-10131984D01*
X10865801Y-10027222D02*
X10875325Y-10008174D01*
X10875325Y-10008174D02*
X10894372Y-9998650D01*
X10894372Y-9998650D02*
X10922944Y-9998650D01*
X10922944Y-9998650D02*
X10941991Y-10008174D01*
X10941991Y-10008174D02*
X10951515Y-10027222D01*
X10951515Y-10027222D02*
X10951515Y-10131984D01*
X11341991Y-9922460D02*
X11170563Y-10179603D01*
X11599134Y-9931984D02*
X11618182Y-9931984D01*
X11618182Y-9931984D02*
X11637229Y-9941508D01*
X11637229Y-9941508D02*
X11646753Y-9951031D01*
X11646753Y-9951031D02*
X11656277Y-9970079D01*
X11656277Y-9970079D02*
X11665801Y-10008174D01*
X11665801Y-10008174D02*
X11665801Y-10055793D01*
X11665801Y-10055793D02*
X11656277Y-10093889D01*
X11656277Y-10093889D02*
X11646753Y-10112936D01*
X11646753Y-10112936D02*
X11637229Y-10122460D01*
X11637229Y-10122460D02*
X11618182Y-10131984D01*
X11618182Y-10131984D02*
X11599134Y-10131984D01*
X11599134Y-10131984D02*
X11580086Y-10122460D01*
X11580086Y-10122460D02*
X11570563Y-10112936D01*
X11570563Y-10112936D02*
X11561039Y-10093889D01*
X11561039Y-10093889D02*
X11551515Y-10055793D01*
X11551515Y-10055793D02*
X11551515Y-10008174D01*
X11551515Y-10008174D02*
X11561039Y-9970079D01*
X11561039Y-9970079D02*
X11570563Y-9951031D01*
X11570563Y-9951031D02*
X11580086Y-9941508D01*
X11580086Y-9941508D02*
X11599134Y-9931984D01*
X11751515Y-10112936D02*
X11761039Y-10122460D01*
X11761039Y-10122460D02*
X11751515Y-10131984D01*
X11751515Y-10131984D02*
X11741991Y-10122460D01*
X11741991Y-10122460D02*
X11751515Y-10112936D01*
X11751515Y-10112936D02*
X11751515Y-10131984D01*
X11884848Y-9931984D02*
X11903896Y-9931984D01*
X11903896Y-9931984D02*
X11922944Y-9941508D01*
X11922944Y-9941508D02*
X11932467Y-9951031D01*
X11932467Y-9951031D02*
X11941991Y-9970079D01*
X11941991Y-9970079D02*
X11951515Y-10008174D01*
X11951515Y-10008174D02*
X11951515Y-10055793D01*
X11951515Y-10055793D02*
X11941991Y-10093889D01*
X11941991Y-10093889D02*
X11932467Y-10112936D01*
X11932467Y-10112936D02*
X11922944Y-10122460D01*
X11922944Y-10122460D02*
X11903896Y-10131984D01*
X11903896Y-10131984D02*
X11884848Y-10131984D01*
X11884848Y-10131984D02*
X11865801Y-10122460D01*
X11865801Y-10122460D02*
X11856277Y-10112936D01*
X11856277Y-10112936D02*
X11846753Y-10093889D01*
X11846753Y-10093889D02*
X11837229Y-10055793D01*
X11837229Y-10055793D02*
X11837229Y-10008174D01*
X11837229Y-10008174D02*
X11846753Y-9970079D01*
X11846753Y-9970079D02*
X11856277Y-9951031D01*
X11856277Y-9951031D02*
X11865801Y-9941508D01*
X11865801Y-9941508D02*
X11884848Y-9931984D01*
X12018182Y-9931984D02*
X12141991Y-9931984D01*
X12141991Y-9931984D02*
X12075325Y-10008174D01*
X12075325Y-10008174D02*
X12103896Y-10008174D01*
X12103896Y-10008174D02*
X12122944Y-10017698D01*
X12122944Y-10017698D02*
X12132467Y-10027222D01*
X12132467Y-10027222D02*
X12141991Y-10046270D01*
X12141991Y-10046270D02*
X12141991Y-10093889D01*
X12141991Y-10093889D02*
X12132467Y-10112936D01*
X12132467Y-10112936D02*
X12122944Y-10122460D01*
X12122944Y-10122460D02*
X12103896Y-10131984D01*
X12103896Y-10131984D02*
X12046753Y-10131984D01*
X12046753Y-10131984D02*
X12027706Y-10122460D01*
X12027706Y-10122460D02*
X12018182Y-10112936D01*
X12332467Y-10131984D02*
X12218182Y-10131984D01*
X12275325Y-10131984D02*
X12275325Y-9931984D01*
X12275325Y-9931984D02*
X12256277Y-9960555D01*
X12256277Y-9960555D02*
X12237229Y-9979603D01*
X12237229Y-9979603D02*
X12218182Y-9989127D01*
X12513420Y-9931984D02*
X12418182Y-9931984D01*
X12418182Y-9931984D02*
X12408658Y-10027222D01*
X12408658Y-10027222D02*
X12418182Y-10017698D01*
X12418182Y-10017698D02*
X12437229Y-10008174D01*
X12437229Y-10008174D02*
X12484848Y-10008174D01*
X12484848Y-10008174D02*
X12503896Y-10017698D01*
X12503896Y-10017698D02*
X12513420Y-10027222D01*
X12513420Y-10027222D02*
X12522944Y-10046270D01*
X12522944Y-10046270D02*
X12522944Y-10093889D01*
X12522944Y-10093889D02*
X12513420Y-10112936D01*
X12513420Y-10112936D02*
X12503896Y-10122460D01*
X12503896Y-10122460D02*
X12484848Y-10131984D01*
X12484848Y-10131984D02*
X12437229Y-10131984D01*
X12437229Y-10131984D02*
X12418182Y-10122460D01*
X12418182Y-10122460D02*
X12408658Y-10112936D01*
X12599134Y-9931984D02*
X12599134Y-9970079D01*
X12675325Y-9931984D02*
X12675325Y-9970079D01*
X12970563Y-10208174D02*
X12961039Y-10198650D01*
X12961039Y-10198650D02*
X12941991Y-10170079D01*
X12941991Y-10170079D02*
X12932468Y-10151031D01*
X12932468Y-10151031D02*
X12922944Y-10122460D01*
X12922944Y-10122460D02*
X12913420Y-10074841D01*
X12913420Y-10074841D02*
X12913420Y-10036746D01*
X12913420Y-10036746D02*
X12922944Y-9989127D01*
X12922944Y-9989127D02*
X12932468Y-9960555D01*
X12932468Y-9960555D02*
X12941991Y-9941508D01*
X12941991Y-9941508D02*
X12961039Y-9912936D01*
X12961039Y-9912936D02*
X12970563Y-9903412D01*
X13141991Y-9931984D02*
X13046753Y-9931984D01*
X13046753Y-9931984D02*
X13037229Y-10027222D01*
X13037229Y-10027222D02*
X13046753Y-10017698D01*
X13046753Y-10017698D02*
X13065801Y-10008174D01*
X13065801Y-10008174D02*
X13113420Y-10008174D01*
X13113420Y-10008174D02*
X13132468Y-10017698D01*
X13132468Y-10017698D02*
X13141991Y-10027222D01*
X13141991Y-10027222D02*
X13151515Y-10046270D01*
X13151515Y-10046270D02*
X13151515Y-10093889D01*
X13151515Y-10093889D02*
X13141991Y-10112936D01*
X13141991Y-10112936D02*
X13132468Y-10122460D01*
X13132468Y-10122460D02*
X13113420Y-10131984D01*
X13113420Y-10131984D02*
X13065801Y-10131984D01*
X13065801Y-10131984D02*
X13046753Y-10122460D01*
X13046753Y-10122460D02*
X13037229Y-10112936D01*
X13227706Y-9951031D02*
X13237229Y-9941508D01*
X13237229Y-9941508D02*
X13256277Y-9931984D01*
X13256277Y-9931984D02*
X13303896Y-9931984D01*
X13303896Y-9931984D02*
X13322944Y-9941508D01*
X13322944Y-9941508D02*
X13332468Y-9951031D01*
X13332468Y-9951031D02*
X13341991Y-9970079D01*
X13341991Y-9970079D02*
X13341991Y-9989127D01*
X13341991Y-9989127D02*
X13332468Y-10017698D01*
X13332468Y-10017698D02*
X13218182Y-10131984D01*
X13218182Y-10131984D02*
X13341991Y-10131984D01*
X13580087Y-10131984D02*
X13580087Y-9931984D01*
X13665801Y-10131984D02*
X13665801Y-10027222D01*
X13665801Y-10027222D02*
X13656277Y-10008174D01*
X13656277Y-10008174D02*
X13637230Y-9998650D01*
X13637230Y-9998650D02*
X13608658Y-9998650D01*
X13608658Y-9998650D02*
X13589610Y-10008174D01*
X13589610Y-10008174D02*
X13580087Y-10017698D01*
X13789610Y-10131984D02*
X13770563Y-10122460D01*
X13770563Y-10122460D02*
X13761039Y-10112936D01*
X13761039Y-10112936D02*
X13751515Y-10093889D01*
X13751515Y-10093889D02*
X13751515Y-10036746D01*
X13751515Y-10036746D02*
X13761039Y-10017698D01*
X13761039Y-10017698D02*
X13770563Y-10008174D01*
X13770563Y-10008174D02*
X13789610Y-9998650D01*
X13789610Y-9998650D02*
X13818182Y-9998650D01*
X13818182Y-9998650D02*
X13837230Y-10008174D01*
X13837230Y-10008174D02*
X13846753Y-10017698D01*
X13846753Y-10017698D02*
X13856277Y-10036746D01*
X13856277Y-10036746D02*
X13856277Y-10093889D01*
X13856277Y-10093889D02*
X13846753Y-10112936D01*
X13846753Y-10112936D02*
X13837230Y-10122460D01*
X13837230Y-10122460D02*
X13818182Y-10131984D01*
X13818182Y-10131984D02*
X13789610Y-10131984D01*
X13970563Y-10131984D02*
X13951515Y-10122460D01*
X13951515Y-10122460D02*
X13941991Y-10103412D01*
X13941991Y-10103412D02*
X13941991Y-9931984D01*
X14122944Y-10122460D02*
X14103896Y-10131984D01*
X14103896Y-10131984D02*
X14065801Y-10131984D01*
X14065801Y-10131984D02*
X14046753Y-10122460D01*
X14046753Y-10122460D02*
X14037230Y-10103412D01*
X14037230Y-10103412D02*
X14037230Y-10027222D01*
X14037230Y-10027222D02*
X14046753Y-10008174D01*
X14046753Y-10008174D02*
X14065801Y-9998650D01*
X14065801Y-9998650D02*
X14103896Y-9998650D01*
X14103896Y-9998650D02*
X14122944Y-10008174D01*
X14122944Y-10008174D02*
X14132468Y-10027222D01*
X14132468Y-10027222D02*
X14132468Y-10046270D01*
X14132468Y-10046270D02*
X14037230Y-10065317D01*
X14208658Y-10122460D02*
X14227706Y-10131984D01*
X14227706Y-10131984D02*
X14265801Y-10131984D01*
X14265801Y-10131984D02*
X14284849Y-10122460D01*
X14284849Y-10122460D02*
X14294372Y-10103412D01*
X14294372Y-10103412D02*
X14294372Y-10093889D01*
X14294372Y-10093889D02*
X14284849Y-10074841D01*
X14284849Y-10074841D02*
X14265801Y-10065317D01*
X14265801Y-10065317D02*
X14237230Y-10065317D01*
X14237230Y-10065317D02*
X14218182Y-10055793D01*
X14218182Y-10055793D02*
X14208658Y-10036746D01*
X14208658Y-10036746D02*
X14208658Y-10027222D01*
X14208658Y-10027222D02*
X14218182Y-10008174D01*
X14218182Y-10008174D02*
X14237230Y-9998650D01*
X14237230Y-9998650D02*
X14265801Y-9998650D01*
X14265801Y-9998650D02*
X14284849Y-10008174D01*
X14361039Y-10208174D02*
X14370563Y-10198650D01*
X14370563Y-10198650D02*
X14389611Y-10170079D01*
X14389611Y-10170079D02*
X14399134Y-10151031D01*
X14399134Y-10151031D02*
X14408658Y-10122460D01*
X14408658Y-10122460D02*
X14418182Y-10074841D01*
X14418182Y-10074841D02*
X14418182Y-10036746D01*
X14418182Y-10036746D02*
X14408658Y-9989127D01*
X14408658Y-9989127D02*
X14399134Y-9960555D01*
X14399134Y-9960555D02*
X14389611Y-9941508D01*
X14389611Y-9941508D02*
X14370563Y-9912936D01*
X14370563Y-9912936D02*
X14361039Y-9903412D01*
X9395500Y-10304500D02*
G75*
G02*
X9195500Y-10304500I-100000J0D01*
G01*
X9195500Y-10304500D02*
G75*
G02*
X9395500Y-10304500I100000J0D01*
G01*
X9646753Y-10215031D02*
X9656277Y-10205508D01*
X9656277Y-10205508D02*
X9675324Y-10195984D01*
X9675324Y-10195984D02*
X9722944Y-10195984D01*
X9722944Y-10195984D02*
X9741991Y-10205508D01*
X9741991Y-10205508D02*
X9751515Y-10215031D01*
X9751515Y-10215031D02*
X9761039Y-10234079D01*
X9761039Y-10234079D02*
X9761039Y-10253127D01*
X9761039Y-10253127D02*
X9751515Y-10281698D01*
X9751515Y-10281698D02*
X9637229Y-10395984D01*
X9637229Y-10395984D02*
X9761039Y-10395984D01*
X9846753Y-10376936D02*
X9856277Y-10386460D01*
X9856277Y-10386460D02*
X9846753Y-10395984D01*
X9846753Y-10395984D02*
X9837229Y-10386460D01*
X9837229Y-10386460D02*
X9846753Y-10376936D01*
X9846753Y-10376936D02*
X9846753Y-10395984D01*
X9922944Y-10195984D02*
X10056277Y-10195984D01*
X10056277Y-10195984D02*
X9970563Y-10395984D01*
X10170563Y-10195984D02*
X10189610Y-10195984D01*
X10189610Y-10195984D02*
X10208658Y-10205508D01*
X10208658Y-10205508D02*
X10218182Y-10215031D01*
X10218182Y-10215031D02*
X10227705Y-10234079D01*
X10227705Y-10234079D02*
X10237229Y-10272174D01*
X10237229Y-10272174D02*
X10237229Y-10319793D01*
X10237229Y-10319793D02*
X10227705Y-10357889D01*
X10227705Y-10357889D02*
X10218182Y-10376936D01*
X10218182Y-10376936D02*
X10208658Y-10386460D01*
X10208658Y-10386460D02*
X10189610Y-10395984D01*
X10189610Y-10395984D02*
X10170563Y-10395984D01*
X10170563Y-10395984D02*
X10151515Y-10386460D01*
X10151515Y-10386460D02*
X10141991Y-10376936D01*
X10141991Y-10376936D02*
X10132467Y-10357889D01*
X10132467Y-10357889D02*
X10122944Y-10319793D01*
X10122944Y-10319793D02*
X10122944Y-10272174D01*
X10122944Y-10272174D02*
X10132467Y-10234079D01*
X10132467Y-10234079D02*
X10141991Y-10215031D01*
X10141991Y-10215031D02*
X10151515Y-10205508D01*
X10151515Y-10205508D02*
X10170563Y-10195984D01*
X10361039Y-10195984D02*
X10380086Y-10195984D01*
X10380086Y-10195984D02*
X10399134Y-10205508D01*
X10399134Y-10205508D02*
X10408658Y-10215031D01*
X10408658Y-10215031D02*
X10418182Y-10234079D01*
X10418182Y-10234079D02*
X10427705Y-10272174D01*
X10427705Y-10272174D02*
X10427705Y-10319793D01*
X10427705Y-10319793D02*
X10418182Y-10357889D01*
X10418182Y-10357889D02*
X10408658Y-10376936D01*
X10408658Y-10376936D02*
X10399134Y-10386460D01*
X10399134Y-10386460D02*
X10380086Y-10395984D01*
X10380086Y-10395984D02*
X10361039Y-10395984D01*
X10361039Y-10395984D02*
X10341991Y-10386460D01*
X10341991Y-10386460D02*
X10332467Y-10376936D01*
X10332467Y-10376936D02*
X10322944Y-10357889D01*
X10322944Y-10357889D02*
X10313420Y-10319793D01*
X10313420Y-10319793D02*
X10313420Y-10272174D01*
X10313420Y-10272174D02*
X10322944Y-10234079D01*
X10322944Y-10234079D02*
X10332467Y-10215031D01*
X10332467Y-10215031D02*
X10341991Y-10205508D01*
X10341991Y-10205508D02*
X10361039Y-10195984D01*
X10513420Y-10395984D02*
X10513420Y-10262650D01*
X10513420Y-10281698D02*
X10522944Y-10272174D01*
X10522944Y-10272174D02*
X10541991Y-10262650D01*
X10541991Y-10262650D02*
X10570563Y-10262650D01*
X10570563Y-10262650D02*
X10589610Y-10272174D01*
X10589610Y-10272174D02*
X10599134Y-10291222D01*
X10599134Y-10291222D02*
X10599134Y-10395984D01*
X10599134Y-10291222D02*
X10608658Y-10272174D01*
X10608658Y-10272174D02*
X10627705Y-10262650D01*
X10627705Y-10262650D02*
X10656277Y-10262650D01*
X10656277Y-10262650D02*
X10675325Y-10272174D01*
X10675325Y-10272174D02*
X10684848Y-10291222D01*
X10684848Y-10291222D02*
X10684848Y-10395984D01*
X10780086Y-10395984D02*
X10780086Y-10262650D01*
X10780086Y-10281698D02*
X10789610Y-10272174D01*
X10789610Y-10272174D02*
X10808658Y-10262650D01*
X10808658Y-10262650D02*
X10837229Y-10262650D01*
X10837229Y-10262650D02*
X10856277Y-10272174D01*
X10856277Y-10272174D02*
X10865801Y-10291222D01*
X10865801Y-10291222D02*
X10865801Y-10395984D01*
X10865801Y-10291222D02*
X10875325Y-10272174D01*
X10875325Y-10272174D02*
X10894372Y-10262650D01*
X10894372Y-10262650D02*
X10922944Y-10262650D01*
X10922944Y-10262650D02*
X10941991Y-10272174D01*
X10941991Y-10272174D02*
X10951515Y-10291222D01*
X10951515Y-10291222D02*
X10951515Y-10395984D01*
X11341991Y-10186460D02*
X11170563Y-10443603D01*
X11599134Y-10195984D02*
X11618182Y-10195984D01*
X11618182Y-10195984D02*
X11637229Y-10205508D01*
X11637229Y-10205508D02*
X11646753Y-10215031D01*
X11646753Y-10215031D02*
X11656277Y-10234079D01*
X11656277Y-10234079D02*
X11665801Y-10272174D01*
X11665801Y-10272174D02*
X11665801Y-10319793D01*
X11665801Y-10319793D02*
X11656277Y-10357889D01*
X11656277Y-10357889D02*
X11646753Y-10376936D01*
X11646753Y-10376936D02*
X11637229Y-10386460D01*
X11637229Y-10386460D02*
X11618182Y-10395984D01*
X11618182Y-10395984D02*
X11599134Y-10395984D01*
X11599134Y-10395984D02*
X11580086Y-10386460D01*
X11580086Y-10386460D02*
X11570563Y-10376936D01*
X11570563Y-10376936D02*
X11561039Y-10357889D01*
X11561039Y-10357889D02*
X11551515Y-10319793D01*
X11551515Y-10319793D02*
X11551515Y-10272174D01*
X11551515Y-10272174D02*
X11561039Y-10234079D01*
X11561039Y-10234079D02*
X11570563Y-10215031D01*
X11570563Y-10215031D02*
X11580086Y-10205508D01*
X11580086Y-10205508D02*
X11599134Y-10195984D01*
X11751515Y-10376936D02*
X11761039Y-10386460D01*
X11761039Y-10386460D02*
X11751515Y-10395984D01*
X11751515Y-10395984D02*
X11741991Y-10386460D01*
X11741991Y-10386460D02*
X11751515Y-10376936D01*
X11751515Y-10376936D02*
X11751515Y-10395984D01*
X11951515Y-10395984D02*
X11837229Y-10395984D01*
X11894372Y-10395984D02*
X11894372Y-10195984D01*
X11894372Y-10195984D02*
X11875325Y-10224555D01*
X11875325Y-10224555D02*
X11856277Y-10243603D01*
X11856277Y-10243603D02*
X11837229Y-10253127D01*
X12075325Y-10195984D02*
X12094372Y-10195984D01*
X12094372Y-10195984D02*
X12113420Y-10205508D01*
X12113420Y-10205508D02*
X12122944Y-10215031D01*
X12122944Y-10215031D02*
X12132467Y-10234079D01*
X12132467Y-10234079D02*
X12141991Y-10272174D01*
X12141991Y-10272174D02*
X12141991Y-10319793D01*
X12141991Y-10319793D02*
X12132467Y-10357889D01*
X12132467Y-10357889D02*
X12122944Y-10376936D01*
X12122944Y-10376936D02*
X12113420Y-10386460D01*
X12113420Y-10386460D02*
X12094372Y-10395984D01*
X12094372Y-10395984D02*
X12075325Y-10395984D01*
X12075325Y-10395984D02*
X12056277Y-10386460D01*
X12056277Y-10386460D02*
X12046753Y-10376936D01*
X12046753Y-10376936D02*
X12037229Y-10357889D01*
X12037229Y-10357889D02*
X12027706Y-10319793D01*
X12027706Y-10319793D02*
X12027706Y-10272174D01*
X12027706Y-10272174D02*
X12037229Y-10234079D01*
X12037229Y-10234079D02*
X12046753Y-10215031D01*
X12046753Y-10215031D02*
X12056277Y-10205508D01*
X12056277Y-10205508D02*
X12075325Y-10195984D01*
X12313420Y-10195984D02*
X12275325Y-10195984D01*
X12275325Y-10195984D02*
X12256277Y-10205508D01*
X12256277Y-10205508D02*
X12246753Y-10215031D01*
X12246753Y-10215031D02*
X12227706Y-10243603D01*
X12227706Y-10243603D02*
X12218182Y-10281698D01*
X12218182Y-10281698D02*
X12218182Y-10357889D01*
X12218182Y-10357889D02*
X12227706Y-10376936D01*
X12227706Y-10376936D02*
X12237229Y-10386460D01*
X12237229Y-10386460D02*
X12256277Y-10395984D01*
X12256277Y-10395984D02*
X12294372Y-10395984D01*
X12294372Y-10395984D02*
X12313420Y-10386460D01*
X12313420Y-10386460D02*
X12322944Y-10376936D01*
X12322944Y-10376936D02*
X12332467Y-10357889D01*
X12332467Y-10357889D02*
X12332467Y-10310270D01*
X12332467Y-10310270D02*
X12322944Y-10291222D01*
X12322944Y-10291222D02*
X12313420Y-10281698D01*
X12313420Y-10281698D02*
X12294372Y-10272174D01*
X12294372Y-10272174D02*
X12256277Y-10272174D01*
X12256277Y-10272174D02*
X12237229Y-10281698D01*
X12237229Y-10281698D02*
X12227706Y-10291222D01*
X12227706Y-10291222D02*
X12218182Y-10310270D01*
X12399134Y-10195984D02*
X12522944Y-10195984D01*
X12522944Y-10195984D02*
X12456277Y-10272174D01*
X12456277Y-10272174D02*
X12484848Y-10272174D01*
X12484848Y-10272174D02*
X12503896Y-10281698D01*
X12503896Y-10281698D02*
X12513420Y-10291222D01*
X12513420Y-10291222D02*
X12522944Y-10310270D01*
X12522944Y-10310270D02*
X12522944Y-10357889D01*
X12522944Y-10357889D02*
X12513420Y-10376936D01*
X12513420Y-10376936D02*
X12503896Y-10386460D01*
X12503896Y-10386460D02*
X12484848Y-10395984D01*
X12484848Y-10395984D02*
X12427706Y-10395984D01*
X12427706Y-10395984D02*
X12408658Y-10386460D01*
X12408658Y-10386460D02*
X12399134Y-10376936D01*
X12599134Y-10195984D02*
X12599134Y-10234079D01*
X12675325Y-10195984D02*
X12675325Y-10234079D01*
X12970563Y-10472174D02*
X12961039Y-10462650D01*
X12961039Y-10462650D02*
X12941991Y-10434079D01*
X12941991Y-10434079D02*
X12932468Y-10415031D01*
X12932468Y-10415031D02*
X12922944Y-10386460D01*
X12922944Y-10386460D02*
X12913420Y-10338841D01*
X12913420Y-10338841D02*
X12913420Y-10300746D01*
X12913420Y-10300746D02*
X12922944Y-10253127D01*
X12922944Y-10253127D02*
X12932468Y-10224555D01*
X12932468Y-10224555D02*
X12941991Y-10205508D01*
X12941991Y-10205508D02*
X12961039Y-10176936D01*
X12961039Y-10176936D02*
X12970563Y-10167412D01*
X13132468Y-10262650D02*
X13132468Y-10395984D01*
X13084848Y-10186460D02*
X13037229Y-10329317D01*
X13037229Y-10329317D02*
X13161039Y-10329317D01*
X13389610Y-10395984D02*
X13389610Y-10195984D01*
X13475325Y-10395984D02*
X13475325Y-10291222D01*
X13475325Y-10291222D02*
X13465801Y-10272174D01*
X13465801Y-10272174D02*
X13446753Y-10262650D01*
X13446753Y-10262650D02*
X13418182Y-10262650D01*
X13418182Y-10262650D02*
X13399134Y-10272174D01*
X13399134Y-10272174D02*
X13389610Y-10281698D01*
X13599134Y-10395984D02*
X13580087Y-10386460D01*
X13580087Y-10386460D02*
X13570563Y-10376936D01*
X13570563Y-10376936D02*
X13561039Y-10357889D01*
X13561039Y-10357889D02*
X13561039Y-10300746D01*
X13561039Y-10300746D02*
X13570563Y-10281698D01*
X13570563Y-10281698D02*
X13580087Y-10272174D01*
X13580087Y-10272174D02*
X13599134Y-10262650D01*
X13599134Y-10262650D02*
X13627706Y-10262650D01*
X13627706Y-10262650D02*
X13646753Y-10272174D01*
X13646753Y-10272174D02*
X13656277Y-10281698D01*
X13656277Y-10281698D02*
X13665801Y-10300746D01*
X13665801Y-10300746D02*
X13665801Y-10357889D01*
X13665801Y-10357889D02*
X13656277Y-10376936D01*
X13656277Y-10376936D02*
X13646753Y-10386460D01*
X13646753Y-10386460D02*
X13627706Y-10395984D01*
X13627706Y-10395984D02*
X13599134Y-10395984D01*
X13780087Y-10395984D02*
X13761039Y-10386460D01*
X13761039Y-10386460D02*
X13751515Y-10367412D01*
X13751515Y-10367412D02*
X13751515Y-10195984D01*
X13932468Y-10386460D02*
X13913420Y-10395984D01*
X13913420Y-10395984D02*
X13875325Y-10395984D01*
X13875325Y-10395984D02*
X13856277Y-10386460D01*
X13856277Y-10386460D02*
X13846753Y-10367412D01*
X13846753Y-10367412D02*
X13846753Y-10291222D01*
X13846753Y-10291222D02*
X13856277Y-10272174D01*
X13856277Y-10272174D02*
X13875325Y-10262650D01*
X13875325Y-10262650D02*
X13913420Y-10262650D01*
X13913420Y-10262650D02*
X13932468Y-10272174D01*
X13932468Y-10272174D02*
X13941991Y-10291222D01*
X13941991Y-10291222D02*
X13941991Y-10310270D01*
X13941991Y-10310270D02*
X13846753Y-10329317D01*
X14018182Y-10386460D02*
X14037230Y-10395984D01*
X14037230Y-10395984D02*
X14075325Y-10395984D01*
X14075325Y-10395984D02*
X14094372Y-10386460D01*
X14094372Y-10386460D02*
X14103896Y-10367412D01*
X14103896Y-10367412D02*
X14103896Y-10357889D01*
X14103896Y-10357889D02*
X14094372Y-10338841D01*
X14094372Y-10338841D02*
X14075325Y-10329317D01*
X14075325Y-10329317D02*
X14046753Y-10329317D01*
X14046753Y-10329317D02*
X14027706Y-10319793D01*
X14027706Y-10319793D02*
X14018182Y-10300746D01*
X14018182Y-10300746D02*
X14018182Y-10291222D01*
X14018182Y-10291222D02*
X14027706Y-10272174D01*
X14027706Y-10272174D02*
X14046753Y-10262650D01*
X14046753Y-10262650D02*
X14075325Y-10262650D01*
X14075325Y-10262650D02*
X14094372Y-10272174D01*
X14170563Y-10472174D02*
X14180087Y-10462650D01*
X14180087Y-10462650D02*
X14199134Y-10434079D01*
X14199134Y-10434079D02*
X14208658Y-10415031D01*
X14208658Y-10415031D02*
X14218182Y-10386460D01*
X14218182Y-10386460D02*
X14227706Y-10338841D01*
X14227706Y-10338841D02*
X14227706Y-10300746D01*
X14227706Y-10300746D02*
X14218182Y-10253127D01*
X14218182Y-10253127D02*
X14208658Y-10224555D01*
X14208658Y-10224555D02*
X14199134Y-10205508D01*
X14199134Y-10205508D02*
X14180087Y-10176936D01*
X14180087Y-10176936D02*
X14170563Y-10167412D01*
X14532468Y-10472174D02*
X14522944Y-10462650D01*
X14522944Y-10462650D02*
X14503896Y-10434079D01*
X14503896Y-10434079D02*
X14494372Y-10415031D01*
X14494372Y-10415031D02*
X14484849Y-10386460D01*
X14484849Y-10386460D02*
X14475325Y-10338841D01*
X14475325Y-10338841D02*
X14475325Y-10300746D01*
X14475325Y-10300746D02*
X14484849Y-10253127D01*
X14484849Y-10253127D02*
X14494372Y-10224555D01*
X14494372Y-10224555D02*
X14503896Y-10205508D01*
X14503896Y-10205508D02*
X14522944Y-10176936D01*
X14522944Y-10176936D02*
X14532468Y-10167412D01*
X14608658Y-10262650D02*
X14608658Y-10395984D01*
X14608658Y-10281698D02*
X14618182Y-10272174D01*
X14618182Y-10272174D02*
X14637230Y-10262650D01*
X14637230Y-10262650D02*
X14665801Y-10262650D01*
X14665801Y-10262650D02*
X14684849Y-10272174D01*
X14684849Y-10272174D02*
X14694372Y-10291222D01*
X14694372Y-10291222D02*
X14694372Y-10395984D01*
X14818182Y-10395984D02*
X14799134Y-10386460D01*
X14799134Y-10386460D02*
X14789611Y-10376936D01*
X14789611Y-10376936D02*
X14780087Y-10357889D01*
X14780087Y-10357889D02*
X14780087Y-10300746D01*
X14780087Y-10300746D02*
X14789611Y-10281698D01*
X14789611Y-10281698D02*
X14799134Y-10272174D01*
X14799134Y-10272174D02*
X14818182Y-10262650D01*
X14818182Y-10262650D02*
X14846753Y-10262650D01*
X14846753Y-10262650D02*
X14865801Y-10272174D01*
X14865801Y-10272174D02*
X14875325Y-10281698D01*
X14875325Y-10281698D02*
X14884849Y-10300746D01*
X14884849Y-10300746D02*
X14884849Y-10357889D01*
X14884849Y-10357889D02*
X14875325Y-10376936D01*
X14875325Y-10376936D02*
X14865801Y-10386460D01*
X14865801Y-10386460D02*
X14846753Y-10395984D01*
X14846753Y-10395984D02*
X14818182Y-10395984D01*
X14941992Y-10262650D02*
X15018182Y-10262650D01*
X14970563Y-10195984D02*
X14970563Y-10367412D01*
X14970563Y-10367412D02*
X14980087Y-10386460D01*
X14980087Y-10386460D02*
X14999134Y-10395984D01*
X14999134Y-10395984D02*
X15018182Y-10395984D01*
X15237230Y-10262650D02*
X15237230Y-10462650D01*
X15237230Y-10272174D02*
X15256277Y-10262650D01*
X15256277Y-10262650D02*
X15294373Y-10262650D01*
X15294373Y-10262650D02*
X15313420Y-10272174D01*
X15313420Y-10272174D02*
X15322944Y-10281698D01*
X15322944Y-10281698D02*
X15332468Y-10300746D01*
X15332468Y-10300746D02*
X15332468Y-10357889D01*
X15332468Y-10357889D02*
X15322944Y-10376936D01*
X15322944Y-10376936D02*
X15313420Y-10386460D01*
X15313420Y-10386460D02*
X15294373Y-10395984D01*
X15294373Y-10395984D02*
X15256277Y-10395984D01*
X15256277Y-10395984D02*
X15237230Y-10386460D01*
X15446753Y-10395984D02*
X15427706Y-10386460D01*
X15427706Y-10386460D02*
X15418182Y-10367412D01*
X15418182Y-10367412D02*
X15418182Y-10195984D01*
X15608658Y-10395984D02*
X15608658Y-10291222D01*
X15608658Y-10291222D02*
X15599134Y-10272174D01*
X15599134Y-10272174D02*
X15580087Y-10262650D01*
X15580087Y-10262650D02*
X15541992Y-10262650D01*
X15541992Y-10262650D02*
X15522944Y-10272174D01*
X15608658Y-10386460D02*
X15589611Y-10395984D01*
X15589611Y-10395984D02*
X15541992Y-10395984D01*
X15541992Y-10395984D02*
X15522944Y-10386460D01*
X15522944Y-10386460D02*
X15513420Y-10367412D01*
X15513420Y-10367412D02*
X15513420Y-10348365D01*
X15513420Y-10348365D02*
X15522944Y-10329317D01*
X15522944Y-10329317D02*
X15541992Y-10319793D01*
X15541992Y-10319793D02*
X15589611Y-10319793D01*
X15589611Y-10319793D02*
X15608658Y-10310270D01*
X15675325Y-10262650D02*
X15751515Y-10262650D01*
X15703896Y-10195984D02*
X15703896Y-10367412D01*
X15703896Y-10367412D02*
X15713420Y-10386460D01*
X15713420Y-10386460D02*
X15732468Y-10395984D01*
X15732468Y-10395984D02*
X15751515Y-10395984D01*
X15894373Y-10386460D02*
X15875325Y-10395984D01*
X15875325Y-10395984D02*
X15837230Y-10395984D01*
X15837230Y-10395984D02*
X15818182Y-10386460D01*
X15818182Y-10386460D02*
X15808658Y-10367412D01*
X15808658Y-10367412D02*
X15808658Y-10291222D01*
X15808658Y-10291222D02*
X15818182Y-10272174D01*
X15818182Y-10272174D02*
X15837230Y-10262650D01*
X15837230Y-10262650D02*
X15875325Y-10262650D01*
X15875325Y-10262650D02*
X15894373Y-10272174D01*
X15894373Y-10272174D02*
X15903896Y-10291222D01*
X15903896Y-10291222D02*
X15903896Y-10310270D01*
X15903896Y-10310270D02*
X15808658Y-10329317D01*
X16075325Y-10395984D02*
X16075325Y-10195984D01*
X16075325Y-10386460D02*
X16056277Y-10395984D01*
X16056277Y-10395984D02*
X16018182Y-10395984D01*
X16018182Y-10395984D02*
X15999134Y-10386460D01*
X15999134Y-10386460D02*
X15989611Y-10376936D01*
X15989611Y-10376936D02*
X15980087Y-10357889D01*
X15980087Y-10357889D02*
X15980087Y-10300746D01*
X15980087Y-10300746D02*
X15989611Y-10281698D01*
X15989611Y-10281698D02*
X15999134Y-10272174D01*
X15999134Y-10272174D02*
X16018182Y-10262650D01*
X16018182Y-10262650D02*
X16056277Y-10262650D01*
X16056277Y-10262650D02*
X16075325Y-10272174D01*
X16151515Y-10472174D02*
X16161039Y-10462650D01*
X16161039Y-10462650D02*
X16180087Y-10434079D01*
X16180087Y-10434079D02*
X16189611Y-10415031D01*
X16189611Y-10415031D02*
X16199134Y-10386460D01*
X16199134Y-10386460D02*
X16208658Y-10338841D01*
X16208658Y-10338841D02*
X16208658Y-10300746D01*
X16208658Y-10300746D02*
X16199134Y-10253127D01*
X16199134Y-10253127D02*
X16189611Y-10224555D01*
X16189611Y-10224555D02*
X16180087Y-10205508D01*
X16180087Y-10205508D02*
X16161039Y-10176936D01*
X16161039Y-10176936D02*
X16151515Y-10167412D01*
M02*
