%TF.GenerationSoftware,KiCad,Pcbnew,9.0.3+1*%
%TF.CreationDate,2025-09-14T03:51:48+09:00*%
%TF.ProjectId,romext-2364,726f6d65-7874-42d3-9233-36342e6b6963,1-2*%
%TF.SameCoordinates,Original*%
%TF.FileFunction,Copper,L1,Top*%
%TF.FilePolarity,Positive*%
%FSLAX46Y46*%
G04 Gerber Fmt 4.6, Leading zero omitted, Abs format (unit mm)*
G04 Created by KiCad (PCBNEW 9.0.3+1) date 2025-09-14 03:51:48*
%MOMM*%
%LPD*%
G01*
G04 APERTURE LIST*
G04 Aperture macros list*
%AMRoundRect*
0 Rectangle with rounded corners*
0 $1 Rounding radius*
0 $2 $3 $4 $5 $6 $7 $8 $9 X,Y pos of 4 corners*
0 Add a 4 corners polygon primitive as box body*
4,1,4,$2,$3,$4,$5,$6,$7,$8,$9,$2,$3,0*
0 Add four circle primitives for the rounded corners*
1,1,$1+$1,$2,$3*
1,1,$1+$1,$4,$5*
1,1,$1+$1,$6,$7*
1,1,$1+$1,$8,$9*
0 Add four rect primitives between the rounded corners*
20,1,$1+$1,$2,$3,$4,$5,0*
20,1,$1+$1,$4,$5,$6,$7,0*
20,1,$1+$1,$6,$7,$8,$9,0*
20,1,$1+$1,$8,$9,$2,$3,0*%
G04 Aperture macros list end*
%TA.AperFunction,ComponentPad*%
%ADD10RoundRect,0.250000X-0.550000X-0.550000X0.550000X-0.550000X0.550000X0.550000X-0.550000X0.550000X0*%
%TD*%
%TA.AperFunction,ComponentPad*%
%ADD11C,1.600000*%
%TD*%
%TA.AperFunction,ComponentPad*%
%ADD12R,2.000000X1.440000*%
%TD*%
%TA.AperFunction,ComponentPad*%
%ADD13O,2.000000X1.440000*%
%TD*%
G04 APERTURE END LIST*
D10*
%TO.P,J1,1,A7*%
%TO.N,/A7*%
X101600000Y-50800000D03*
D11*
%TO.P,J1,2,A6*%
%TO.N,/A6*%
X101600000Y-53340000D03*
%TO.P,J1,3,A5*%
%TO.N,/A5*%
X101600000Y-55880000D03*
%TO.P,J1,4,A4*%
%TO.N,/A4*%
X101600000Y-58420000D03*
%TO.P,J1,5,A3*%
%TO.N,/A3*%
X101600000Y-60960000D03*
%TO.P,J1,6,A2*%
%TO.N,/A2*%
X101600000Y-63500000D03*
%TO.P,J1,7,A1*%
%TO.N,/A1*%
X101600000Y-66040000D03*
%TO.P,J1,8,A0*%
%TO.N,/A0*%
X101600000Y-68580000D03*
%TO.P,J1,9,D0*%
%TO.N,/D0*%
X101600000Y-71120000D03*
%TO.P,J1,10,D1*%
%TO.N,/D1*%
X101600000Y-73660000D03*
%TO.P,J1,11,D2*%
%TO.N,/D2*%
X101600000Y-76200000D03*
%TO.P,J1,12,GND*%
%TO.N,GND*%
X101600000Y-78740000D03*
%TO.P,J1,13,D3*%
%TO.N,/D3*%
X116840000Y-78740000D03*
%TO.P,J1,14,D4*%
%TO.N,/D4*%
X116840000Y-76200000D03*
%TO.P,J1,15,D5*%
%TO.N,/D5*%
X116840000Y-73660000D03*
%TO.P,J1,16,D6*%
%TO.N,/D6*%
X116840000Y-71120000D03*
%TO.P,J1,17,D7*%
%TO.N,/D7*%
X116840000Y-68580000D03*
%TO.P,J1,18,A11*%
%TO.N,/A11*%
X116840000Y-66040000D03*
%TO.P,J1,19,A10*%
%TO.N,/A10*%
X116840000Y-63500000D03*
%TO.P,J1,20,~{CS}*%
%TO.N,Net-(J1-~{CS})*%
X116840000Y-60960000D03*
%TO.P,J1,21,A12*%
%TO.N,/A12*%
X116840000Y-58420000D03*
%TO.P,J1,22,A9*%
%TO.N,/A9*%
X116840000Y-55880000D03*
%TO.P,J1,23,A8*%
%TO.N,/A8*%
X116840000Y-53340000D03*
%TO.P,J1,24,Vcc*%
%TO.N,VCC*%
X116840000Y-50800000D03*
%TD*%
D12*
%TO.P,U1,1,VPP*%
%TO.N,VCC*%
X127000000Y-50800000D03*
D13*
%TO.P,U1,2,A12*%
%TO.N,/A12*%
X127000000Y-53340000D03*
%TO.P,U1,3,A7*%
%TO.N,/A7*%
X127000000Y-55880000D03*
%TO.P,U1,4,A6*%
%TO.N,/A6*%
X127000000Y-58420000D03*
%TO.P,U1,5,A5*%
%TO.N,/A5*%
X127000000Y-60960000D03*
%TO.P,U1,6,A4*%
%TO.N,/A4*%
X127000000Y-63500000D03*
%TO.P,U1,7,A3*%
%TO.N,/A3*%
X127000000Y-66040000D03*
%TO.P,U1,8,A2*%
%TO.N,/A2*%
X127000000Y-68580000D03*
%TO.P,U1,9,A1*%
%TO.N,/A1*%
X127000000Y-71120000D03*
%TO.P,U1,10,A0*%
%TO.N,/A0*%
X127000000Y-73660000D03*
%TO.P,U1,11,D0*%
%TO.N,/D0*%
X127000000Y-76200000D03*
%TO.P,U1,12,D1*%
%TO.N,/D1*%
X127000000Y-78740000D03*
%TO.P,U1,13,D2*%
%TO.N,/D2*%
X127000000Y-81280000D03*
%TO.P,U1,14,GND*%
%TO.N,GND*%
X127000000Y-83820000D03*
%TO.P,U1,15,D3*%
%TO.N,/D3*%
X142240000Y-83820000D03*
%TO.P,U1,16,D4*%
%TO.N,/D4*%
X142240000Y-81280000D03*
%TO.P,U1,17,D5*%
%TO.N,/D5*%
X142240000Y-78740000D03*
%TO.P,U1,18,D6*%
%TO.N,/D6*%
X142240000Y-76200000D03*
%TO.P,U1,19,D7*%
%TO.N,/D7*%
X142240000Y-73660000D03*
%TO.P,U1,20,~{CE}*%
%TO.N,Net-(J1-~{CS})*%
X142240000Y-71120000D03*
%TO.P,U1,21,A10*%
%TO.N,/A10*%
X142240000Y-68580000D03*
%TO.P,U1,22,~{OE}*%
%TO.N,Net-(J1-~{CS})*%
X142240000Y-66040000D03*
%TO.P,U1,23,A11*%
%TO.N,/A11*%
X142240000Y-63500000D03*
%TO.P,U1,24,A9*%
%TO.N,/A9*%
X142240000Y-60960000D03*
%TO.P,U1,25,A8*%
%TO.N,/A8*%
X142240000Y-58420000D03*
%TO.P,U1,26,NC*%
%TO.N,unconnected-(U1-NC-Pad26)*%
X142240000Y-55880000D03*
%TO.P,U1,27,~{PGM}*%
%TO.N,VCC*%
X142240000Y-53340000D03*
%TO.P,U1,28,VCC*%
X142240000Y-50800000D03*
%TD*%
M02*
