%TF.GenerationSoftware,KiCad,Pcbnew,9.0.2+1*%
%TF.CreationDate,2025-07-21T21:44:21+09:00*%
%TF.ProjectId,romext-2364,726f6d65-7874-42d3-9233-36342e6b6963,1-2*%
%TF.SameCoordinates,Original*%
%TF.FileFunction,Legend,Top*%
%TF.FilePolarity,Positive*%
%FSLAX46Y46*%
G04 Gerber Fmt 4.6, Leading zero omitted, Abs format (unit mm)*
G04 Created by KiCad (PCBNEW 9.0.2+1) date 2025-07-21 21:44:21*
%MOMM*%
%LPD*%
G01*
G04 APERTURE LIST*
%ADD10C,0.100000*%
%ADD11C,0.150000*%
%ADD12C,0.120000*%
G04 APERTURE END LIST*
D10*
X149392475Y-71936666D02*
X148725808Y-71936666D01*
X148916284Y-71936666D02*
X148821046Y-71889047D01*
X148821046Y-71889047D02*
X148773427Y-71841428D01*
X148773427Y-71841428D02*
X148725808Y-71746190D01*
X148725808Y-71746190D02*
X148725808Y-71650952D01*
X149392475Y-71174761D02*
X149344856Y-71269999D01*
X149344856Y-71269999D02*
X149297236Y-71317618D01*
X149297236Y-71317618D02*
X149201998Y-71365237D01*
X149201998Y-71365237D02*
X148916284Y-71365237D01*
X148916284Y-71365237D02*
X148821046Y-71317618D01*
X148821046Y-71317618D02*
X148773427Y-71269999D01*
X148773427Y-71269999D02*
X148725808Y-71174761D01*
X148725808Y-71174761D02*
X148725808Y-71031904D01*
X148725808Y-71031904D02*
X148773427Y-70936666D01*
X148773427Y-70936666D02*
X148821046Y-70889047D01*
X148821046Y-70889047D02*
X148916284Y-70841428D01*
X148916284Y-70841428D02*
X149201998Y-70841428D01*
X149201998Y-70841428D02*
X149297236Y-70889047D01*
X149297236Y-70889047D02*
X149344856Y-70936666D01*
X149344856Y-70936666D02*
X149392475Y-71031904D01*
X149392475Y-71031904D02*
X149392475Y-71174761D01*
X149392475Y-70412856D02*
X148725808Y-70412856D01*
X148821046Y-70412856D02*
X148773427Y-70365237D01*
X148773427Y-70365237D02*
X148725808Y-70269999D01*
X148725808Y-70269999D02*
X148725808Y-70127142D01*
X148725808Y-70127142D02*
X148773427Y-70031904D01*
X148773427Y-70031904D02*
X148868665Y-69984285D01*
X148868665Y-69984285D02*
X149392475Y-69984285D01*
X148868665Y-69984285D02*
X148773427Y-69936666D01*
X148773427Y-69936666D02*
X148725808Y-69841428D01*
X148725808Y-69841428D02*
X148725808Y-69698571D01*
X148725808Y-69698571D02*
X148773427Y-69603332D01*
X148773427Y-69603332D02*
X148868665Y-69555713D01*
X148868665Y-69555713D02*
X149392475Y-69555713D01*
X149344856Y-68698571D02*
X149392475Y-68793809D01*
X149392475Y-68793809D02*
X149392475Y-68984285D01*
X149392475Y-68984285D02*
X149344856Y-69079523D01*
X149344856Y-69079523D02*
X149249617Y-69127142D01*
X149249617Y-69127142D02*
X148868665Y-69127142D01*
X148868665Y-69127142D02*
X148773427Y-69079523D01*
X148773427Y-69079523D02*
X148725808Y-68984285D01*
X148725808Y-68984285D02*
X148725808Y-68793809D01*
X148725808Y-68793809D02*
X148773427Y-68698571D01*
X148773427Y-68698571D02*
X148868665Y-68650952D01*
X148868665Y-68650952D02*
X148963903Y-68650952D01*
X148963903Y-68650952D02*
X149059141Y-69127142D01*
X149392475Y-68317618D02*
X148725808Y-67793809D01*
X148725808Y-68317618D02*
X149392475Y-67793809D01*
X148725808Y-67555713D02*
X148725808Y-67174761D01*
X148392475Y-67412856D02*
X149249617Y-67412856D01*
X149249617Y-67412856D02*
X149344856Y-67365237D01*
X149344856Y-67365237D02*
X149392475Y-67269999D01*
X149392475Y-67269999D02*
X149392475Y-67174761D01*
X149011522Y-66841427D02*
X149011522Y-66079523D01*
X148487713Y-65650951D02*
X148440094Y-65603332D01*
X148440094Y-65603332D02*
X148392475Y-65508094D01*
X148392475Y-65508094D02*
X148392475Y-65269999D01*
X148392475Y-65269999D02*
X148440094Y-65174761D01*
X148440094Y-65174761D02*
X148487713Y-65127142D01*
X148487713Y-65127142D02*
X148582951Y-65079523D01*
X148582951Y-65079523D02*
X148678189Y-65079523D01*
X148678189Y-65079523D02*
X148821046Y-65127142D01*
X148821046Y-65127142D02*
X149392475Y-65698570D01*
X149392475Y-65698570D02*
X149392475Y-65079523D01*
X148392475Y-64746189D02*
X148392475Y-64127142D01*
X148392475Y-64127142D02*
X148773427Y-64460475D01*
X148773427Y-64460475D02*
X148773427Y-64317618D01*
X148773427Y-64317618D02*
X148821046Y-64222380D01*
X148821046Y-64222380D02*
X148868665Y-64174761D01*
X148868665Y-64174761D02*
X148963903Y-64127142D01*
X148963903Y-64127142D02*
X149201998Y-64127142D01*
X149201998Y-64127142D02*
X149297236Y-64174761D01*
X149297236Y-64174761D02*
X149344856Y-64222380D01*
X149344856Y-64222380D02*
X149392475Y-64317618D01*
X149392475Y-64317618D02*
X149392475Y-64603332D01*
X149392475Y-64603332D02*
X149344856Y-64698570D01*
X149344856Y-64698570D02*
X149297236Y-64746189D01*
X148392475Y-63269999D02*
X148392475Y-63460475D01*
X148392475Y-63460475D02*
X148440094Y-63555713D01*
X148440094Y-63555713D02*
X148487713Y-63603332D01*
X148487713Y-63603332D02*
X148630570Y-63698570D01*
X148630570Y-63698570D02*
X148821046Y-63746189D01*
X148821046Y-63746189D02*
X149201998Y-63746189D01*
X149201998Y-63746189D02*
X149297236Y-63698570D01*
X149297236Y-63698570D02*
X149344856Y-63650951D01*
X149344856Y-63650951D02*
X149392475Y-63555713D01*
X149392475Y-63555713D02*
X149392475Y-63365237D01*
X149392475Y-63365237D02*
X149344856Y-63269999D01*
X149344856Y-63269999D02*
X149297236Y-63222380D01*
X149297236Y-63222380D02*
X149201998Y-63174761D01*
X149201998Y-63174761D02*
X148963903Y-63174761D01*
X148963903Y-63174761D02*
X148868665Y-63222380D01*
X148868665Y-63222380D02*
X148821046Y-63269999D01*
X148821046Y-63269999D02*
X148773427Y-63365237D01*
X148773427Y-63365237D02*
X148773427Y-63555713D01*
X148773427Y-63555713D02*
X148821046Y-63650951D01*
X148821046Y-63650951D02*
X148868665Y-63698570D01*
X148868665Y-63698570D02*
X148963903Y-63746189D01*
X148725808Y-62317618D02*
X149392475Y-62317618D01*
X148344856Y-62555713D02*
X149059141Y-62793808D01*
X149059141Y-62793808D02*
X149059141Y-62174761D01*
X149392475Y-59746189D02*
X149392475Y-60317617D01*
X149392475Y-60031903D02*
X148392475Y-60031903D01*
X148392475Y-60031903D02*
X148535332Y-60127141D01*
X148535332Y-60127141D02*
X148630570Y-60222379D01*
X148630570Y-60222379D02*
X148678189Y-60317617D01*
X149011522Y-59317617D02*
X149011522Y-58555713D01*
X148487713Y-58127141D02*
X148440094Y-58079522D01*
X148440094Y-58079522D02*
X148392475Y-57984284D01*
X148392475Y-57984284D02*
X148392475Y-57746189D01*
X148392475Y-57746189D02*
X148440094Y-57650951D01*
X148440094Y-57650951D02*
X148487713Y-57603332D01*
X148487713Y-57603332D02*
X148582951Y-57555713D01*
X148582951Y-57555713D02*
X148678189Y-57555713D01*
X148678189Y-57555713D02*
X148821046Y-57603332D01*
X148821046Y-57603332D02*
X149392475Y-58174760D01*
X149392475Y-58174760D02*
X149392475Y-57555713D01*
X151002419Y-76650952D02*
X150002419Y-76650952D01*
X151002419Y-76222381D02*
X150478609Y-76222381D01*
X150478609Y-76222381D02*
X150383371Y-76270000D01*
X150383371Y-76270000D02*
X150335752Y-76365238D01*
X150335752Y-76365238D02*
X150335752Y-76508095D01*
X150335752Y-76508095D02*
X150383371Y-76603333D01*
X150383371Y-76603333D02*
X150430990Y-76650952D01*
X150335752Y-75889047D02*
X150335752Y-75508095D01*
X150002419Y-75746190D02*
X150859561Y-75746190D01*
X150859561Y-75746190D02*
X150954800Y-75698571D01*
X150954800Y-75698571D02*
X151002419Y-75603333D01*
X151002419Y-75603333D02*
X151002419Y-75508095D01*
X150335752Y-75317618D02*
X150335752Y-74936666D01*
X150002419Y-75174761D02*
X150859561Y-75174761D01*
X150859561Y-75174761D02*
X150954800Y-75127142D01*
X150954800Y-75127142D02*
X151002419Y-75031904D01*
X151002419Y-75031904D02*
X151002419Y-74936666D01*
X150335752Y-74603332D02*
X151335752Y-74603332D01*
X150383371Y-74603332D02*
X150335752Y-74508094D01*
X150335752Y-74508094D02*
X150335752Y-74317618D01*
X150335752Y-74317618D02*
X150383371Y-74222380D01*
X150383371Y-74222380D02*
X150430990Y-74174761D01*
X150430990Y-74174761D02*
X150526228Y-74127142D01*
X150526228Y-74127142D02*
X150811942Y-74127142D01*
X150811942Y-74127142D02*
X150907180Y-74174761D01*
X150907180Y-74174761D02*
X150954800Y-74222380D01*
X150954800Y-74222380D02*
X151002419Y-74317618D01*
X151002419Y-74317618D02*
X151002419Y-74508094D01*
X151002419Y-74508094D02*
X150954800Y-74603332D01*
X150954800Y-73746189D02*
X151002419Y-73650951D01*
X151002419Y-73650951D02*
X151002419Y-73460475D01*
X151002419Y-73460475D02*
X150954800Y-73365237D01*
X150954800Y-73365237D02*
X150859561Y-73317618D01*
X150859561Y-73317618D02*
X150811942Y-73317618D01*
X150811942Y-73317618D02*
X150716704Y-73365237D01*
X150716704Y-73365237D02*
X150669085Y-73460475D01*
X150669085Y-73460475D02*
X150669085Y-73603332D01*
X150669085Y-73603332D02*
X150621466Y-73698570D01*
X150621466Y-73698570D02*
X150526228Y-73746189D01*
X150526228Y-73746189D02*
X150478609Y-73746189D01*
X150478609Y-73746189D02*
X150383371Y-73698570D01*
X150383371Y-73698570D02*
X150335752Y-73603332D01*
X150335752Y-73603332D02*
X150335752Y-73460475D01*
X150335752Y-73460475D02*
X150383371Y-73365237D01*
X150907180Y-72889046D02*
X150954800Y-72841427D01*
X150954800Y-72841427D02*
X151002419Y-72889046D01*
X151002419Y-72889046D02*
X150954800Y-72936665D01*
X150954800Y-72936665D02*
X150907180Y-72889046D01*
X150907180Y-72889046D02*
X151002419Y-72889046D01*
X150383371Y-72889046D02*
X150430990Y-72841427D01*
X150430990Y-72841427D02*
X150478609Y-72889046D01*
X150478609Y-72889046D02*
X150430990Y-72936665D01*
X150430990Y-72936665D02*
X150383371Y-72889046D01*
X150383371Y-72889046D02*
X150478609Y-72889046D01*
X149954800Y-71698571D02*
X151240514Y-72555713D01*
X149954800Y-70650952D02*
X151240514Y-71508094D01*
X150335752Y-69889047D02*
X151145276Y-69889047D01*
X151145276Y-69889047D02*
X151240514Y-69936666D01*
X151240514Y-69936666D02*
X151288133Y-69984285D01*
X151288133Y-69984285D02*
X151335752Y-70079523D01*
X151335752Y-70079523D02*
X151335752Y-70222380D01*
X151335752Y-70222380D02*
X151288133Y-70317618D01*
X150954800Y-69889047D02*
X151002419Y-69984285D01*
X151002419Y-69984285D02*
X151002419Y-70174761D01*
X151002419Y-70174761D02*
X150954800Y-70269999D01*
X150954800Y-70269999D02*
X150907180Y-70317618D01*
X150907180Y-70317618D02*
X150811942Y-70365237D01*
X150811942Y-70365237D02*
X150526228Y-70365237D01*
X150526228Y-70365237D02*
X150430990Y-70317618D01*
X150430990Y-70317618D02*
X150383371Y-70269999D01*
X150383371Y-70269999D02*
X150335752Y-70174761D01*
X150335752Y-70174761D02*
X150335752Y-69984285D01*
X150335752Y-69984285D02*
X150383371Y-69889047D01*
X151002419Y-69412856D02*
X150335752Y-69412856D01*
X150002419Y-69412856D02*
X150050038Y-69460475D01*
X150050038Y-69460475D02*
X150097657Y-69412856D01*
X150097657Y-69412856D02*
X150050038Y-69365237D01*
X150050038Y-69365237D02*
X150002419Y-69412856D01*
X150002419Y-69412856D02*
X150097657Y-69412856D01*
X150335752Y-69079523D02*
X150335752Y-68698571D01*
X150002419Y-68936666D02*
X150859561Y-68936666D01*
X150859561Y-68936666D02*
X150954800Y-68889047D01*
X150954800Y-68889047D02*
X151002419Y-68793809D01*
X151002419Y-68793809D02*
X151002419Y-68698571D01*
X151002419Y-68365237D02*
X150002419Y-68365237D01*
X151002419Y-67936666D02*
X150478609Y-67936666D01*
X150478609Y-67936666D02*
X150383371Y-67984285D01*
X150383371Y-67984285D02*
X150335752Y-68079523D01*
X150335752Y-68079523D02*
X150335752Y-68222380D01*
X150335752Y-68222380D02*
X150383371Y-68317618D01*
X150383371Y-68317618D02*
X150430990Y-68365237D01*
X150335752Y-67031904D02*
X151002419Y-67031904D01*
X150335752Y-67460475D02*
X150859561Y-67460475D01*
X150859561Y-67460475D02*
X150954800Y-67412856D01*
X150954800Y-67412856D02*
X151002419Y-67317618D01*
X151002419Y-67317618D02*
X151002419Y-67174761D01*
X151002419Y-67174761D02*
X150954800Y-67079523D01*
X150954800Y-67079523D02*
X150907180Y-67031904D01*
X151002419Y-66555713D02*
X150002419Y-66555713D01*
X150383371Y-66555713D02*
X150335752Y-66460475D01*
X150335752Y-66460475D02*
X150335752Y-66269999D01*
X150335752Y-66269999D02*
X150383371Y-66174761D01*
X150383371Y-66174761D02*
X150430990Y-66127142D01*
X150430990Y-66127142D02*
X150526228Y-66079523D01*
X150526228Y-66079523D02*
X150811942Y-66079523D01*
X150811942Y-66079523D02*
X150907180Y-66127142D01*
X150907180Y-66127142D02*
X150954800Y-66174761D01*
X150954800Y-66174761D02*
X151002419Y-66269999D01*
X151002419Y-66269999D02*
X151002419Y-66460475D01*
X151002419Y-66460475D02*
X150954800Y-66555713D01*
X150907180Y-65650951D02*
X150954800Y-65603332D01*
X150954800Y-65603332D02*
X151002419Y-65650951D01*
X151002419Y-65650951D02*
X150954800Y-65698570D01*
X150954800Y-65698570D02*
X150907180Y-65650951D01*
X150907180Y-65650951D02*
X151002419Y-65650951D01*
X150954800Y-64746190D02*
X151002419Y-64841428D01*
X151002419Y-64841428D02*
X151002419Y-65031904D01*
X151002419Y-65031904D02*
X150954800Y-65127142D01*
X150954800Y-65127142D02*
X150907180Y-65174761D01*
X150907180Y-65174761D02*
X150811942Y-65222380D01*
X150811942Y-65222380D02*
X150526228Y-65222380D01*
X150526228Y-65222380D02*
X150430990Y-65174761D01*
X150430990Y-65174761D02*
X150383371Y-65127142D01*
X150383371Y-65127142D02*
X150335752Y-65031904D01*
X150335752Y-65031904D02*
X150335752Y-64841428D01*
X150335752Y-64841428D02*
X150383371Y-64746190D01*
X151002419Y-64174761D02*
X150954800Y-64269999D01*
X150954800Y-64269999D02*
X150907180Y-64317618D01*
X150907180Y-64317618D02*
X150811942Y-64365237D01*
X150811942Y-64365237D02*
X150526228Y-64365237D01*
X150526228Y-64365237D02*
X150430990Y-64317618D01*
X150430990Y-64317618D02*
X150383371Y-64269999D01*
X150383371Y-64269999D02*
X150335752Y-64174761D01*
X150335752Y-64174761D02*
X150335752Y-64031904D01*
X150335752Y-64031904D02*
X150383371Y-63936666D01*
X150383371Y-63936666D02*
X150430990Y-63889047D01*
X150430990Y-63889047D02*
X150526228Y-63841428D01*
X150526228Y-63841428D02*
X150811942Y-63841428D01*
X150811942Y-63841428D02*
X150907180Y-63889047D01*
X150907180Y-63889047D02*
X150954800Y-63936666D01*
X150954800Y-63936666D02*
X151002419Y-64031904D01*
X151002419Y-64031904D02*
X151002419Y-64174761D01*
X151002419Y-63412856D02*
X150335752Y-63412856D01*
X150430990Y-63412856D02*
X150383371Y-63365237D01*
X150383371Y-63365237D02*
X150335752Y-63269999D01*
X150335752Y-63269999D02*
X150335752Y-63127142D01*
X150335752Y-63127142D02*
X150383371Y-63031904D01*
X150383371Y-63031904D02*
X150478609Y-62984285D01*
X150478609Y-62984285D02*
X151002419Y-62984285D01*
X150478609Y-62984285D02*
X150383371Y-62936666D01*
X150383371Y-62936666D02*
X150335752Y-62841428D01*
X150335752Y-62841428D02*
X150335752Y-62698571D01*
X150335752Y-62698571D02*
X150383371Y-62603332D01*
X150383371Y-62603332D02*
X150478609Y-62555713D01*
X150478609Y-62555713D02*
X151002419Y-62555713D01*
X149954800Y-61365238D02*
X151240514Y-62222380D01*
X150002419Y-60841428D02*
X150002419Y-60746190D01*
X150002419Y-60746190D02*
X150050038Y-60650952D01*
X150050038Y-60650952D02*
X150097657Y-60603333D01*
X150097657Y-60603333D02*
X150192895Y-60555714D01*
X150192895Y-60555714D02*
X150383371Y-60508095D01*
X150383371Y-60508095D02*
X150621466Y-60508095D01*
X150621466Y-60508095D02*
X150811942Y-60555714D01*
X150811942Y-60555714D02*
X150907180Y-60603333D01*
X150907180Y-60603333D02*
X150954800Y-60650952D01*
X150954800Y-60650952D02*
X151002419Y-60746190D01*
X151002419Y-60746190D02*
X151002419Y-60841428D01*
X151002419Y-60841428D02*
X150954800Y-60936666D01*
X150954800Y-60936666D02*
X150907180Y-60984285D01*
X150907180Y-60984285D02*
X150811942Y-61031904D01*
X150811942Y-61031904D02*
X150621466Y-61079523D01*
X150621466Y-61079523D02*
X150383371Y-61079523D01*
X150383371Y-61079523D02*
X150192895Y-61031904D01*
X150192895Y-61031904D02*
X150097657Y-60984285D01*
X150097657Y-60984285D02*
X150050038Y-60936666D01*
X150050038Y-60936666D02*
X150002419Y-60841428D01*
X150954800Y-59650952D02*
X151002419Y-59746190D01*
X151002419Y-59746190D02*
X151002419Y-59936666D01*
X151002419Y-59936666D02*
X150954800Y-60031904D01*
X150954800Y-60031904D02*
X150907180Y-60079523D01*
X150907180Y-60079523D02*
X150811942Y-60127142D01*
X150811942Y-60127142D02*
X150526228Y-60127142D01*
X150526228Y-60127142D02*
X150430990Y-60079523D01*
X150430990Y-60079523D02*
X150383371Y-60031904D01*
X150383371Y-60031904D02*
X150335752Y-59936666D01*
X150335752Y-59936666D02*
X150335752Y-59746190D01*
X150335752Y-59746190D02*
X150383371Y-59650952D01*
X150335752Y-59222380D02*
X151192895Y-59222380D01*
X151192895Y-59222380D02*
X151288133Y-59269999D01*
X151288133Y-59269999D02*
X151335752Y-59365237D01*
X151335752Y-59365237D02*
X151335752Y-59412856D01*
X150002419Y-59222380D02*
X150050038Y-59269999D01*
X150050038Y-59269999D02*
X150097657Y-59222380D01*
X150097657Y-59222380D02*
X150050038Y-59174761D01*
X150050038Y-59174761D02*
X150002419Y-59222380D01*
X150002419Y-59222380D02*
X150097657Y-59222380D01*
X150954800Y-58793809D02*
X151002419Y-58698571D01*
X151002419Y-58698571D02*
X151002419Y-58508095D01*
X151002419Y-58508095D02*
X150954800Y-58412857D01*
X150954800Y-58412857D02*
X150859561Y-58365238D01*
X150859561Y-58365238D02*
X150811942Y-58365238D01*
X150811942Y-58365238D02*
X150716704Y-58412857D01*
X150716704Y-58412857D02*
X150669085Y-58508095D01*
X150669085Y-58508095D02*
X150669085Y-58650952D01*
X150669085Y-58650952D02*
X150621466Y-58746190D01*
X150621466Y-58746190D02*
X150526228Y-58793809D01*
X150526228Y-58793809D02*
X150478609Y-58793809D01*
X150478609Y-58793809D02*
X150383371Y-58746190D01*
X150383371Y-58746190D02*
X150335752Y-58650952D01*
X150335752Y-58650952D02*
X150335752Y-58508095D01*
X150335752Y-58508095D02*
X150383371Y-58412857D01*
X149954800Y-57222381D02*
X151240514Y-58079523D01*
X151002419Y-56889047D02*
X150002419Y-56889047D01*
X151002419Y-56460476D02*
X150478609Y-56460476D01*
X150478609Y-56460476D02*
X150383371Y-56508095D01*
X150383371Y-56508095D02*
X150335752Y-56603333D01*
X150335752Y-56603333D02*
X150335752Y-56746190D01*
X150335752Y-56746190D02*
X150383371Y-56841428D01*
X150383371Y-56841428D02*
X150430990Y-56889047D01*
X150335752Y-56079523D02*
X151002419Y-55889047D01*
X151002419Y-55889047D02*
X150526228Y-55698571D01*
X150526228Y-55698571D02*
X151002419Y-55508095D01*
X151002419Y-55508095D02*
X150335752Y-55317619D01*
X151002419Y-54508095D02*
X150002419Y-54508095D01*
X150954800Y-54508095D02*
X151002419Y-54603333D01*
X151002419Y-54603333D02*
X151002419Y-54793809D01*
X151002419Y-54793809D02*
X150954800Y-54889047D01*
X150954800Y-54889047D02*
X150907180Y-54936666D01*
X150907180Y-54936666D02*
X150811942Y-54984285D01*
X150811942Y-54984285D02*
X150526228Y-54984285D01*
X150526228Y-54984285D02*
X150430990Y-54936666D01*
X150430990Y-54936666D02*
X150383371Y-54889047D01*
X150383371Y-54889047D02*
X150335752Y-54793809D01*
X150335752Y-54793809D02*
X150335752Y-54603333D01*
X150335752Y-54603333D02*
X150383371Y-54508095D01*
X150954800Y-53650952D02*
X151002419Y-53746190D01*
X151002419Y-53746190D02*
X151002419Y-53936666D01*
X151002419Y-53936666D02*
X150954800Y-54031904D01*
X150954800Y-54031904D02*
X150859561Y-54079523D01*
X150859561Y-54079523D02*
X150478609Y-54079523D01*
X150478609Y-54079523D02*
X150383371Y-54031904D01*
X150383371Y-54031904D02*
X150335752Y-53936666D01*
X150335752Y-53936666D02*
X150335752Y-53746190D01*
X150335752Y-53746190D02*
X150383371Y-53650952D01*
X150383371Y-53650952D02*
X150478609Y-53603333D01*
X150478609Y-53603333D02*
X150573847Y-53603333D01*
X150573847Y-53603333D02*
X150669085Y-54079523D01*
X150335752Y-53269999D02*
X151002419Y-53031904D01*
X151002419Y-53031904D02*
X150335752Y-52793809D01*
D11*
X108886666Y-47924819D02*
X108886666Y-48639104D01*
X108886666Y-48639104D02*
X108839047Y-48781961D01*
X108839047Y-48781961D02*
X108743809Y-48877200D01*
X108743809Y-48877200D02*
X108600952Y-48924819D01*
X108600952Y-48924819D02*
X108505714Y-48924819D01*
X109886666Y-48924819D02*
X109315238Y-48924819D01*
X109600952Y-48924819D02*
X109600952Y-47924819D01*
X109600952Y-47924819D02*
X109505714Y-48067676D01*
X109505714Y-48067676D02*
X109410476Y-48162914D01*
X109410476Y-48162914D02*
X109315238Y-48210533D01*
X133858095Y-38694819D02*
X133858095Y-39504342D01*
X133858095Y-39504342D02*
X133905714Y-39599580D01*
X133905714Y-39599580D02*
X133953333Y-39647200D01*
X133953333Y-39647200D02*
X134048571Y-39694819D01*
X134048571Y-39694819D02*
X134239047Y-39694819D01*
X134239047Y-39694819D02*
X134334285Y-39647200D01*
X134334285Y-39647200D02*
X134381904Y-39599580D01*
X134381904Y-39599580D02*
X134429523Y-39504342D01*
X134429523Y-39504342D02*
X134429523Y-38694819D01*
X135429523Y-39694819D02*
X134858095Y-39694819D01*
X135143809Y-39694819D02*
X135143809Y-38694819D01*
X135143809Y-38694819D02*
X135048571Y-38837676D01*
X135048571Y-38837676D02*
X134953333Y-38932914D01*
X134953333Y-38932914D02*
X134858095Y-38980533D01*
D12*
%TO.C,J1*%
X102760000Y-49470000D02*
X102760000Y-80070000D01*
X102760000Y-80070000D02*
X115680000Y-80070000D01*
X108220000Y-49470000D02*
X102760000Y-49470000D01*
X115680000Y-49470000D02*
X110220000Y-49470000D01*
X115680000Y-80070000D02*
X115680000Y-49470000D01*
X110220000Y-49470000D02*
G75*
G02*
X108220000Y-49470000I-1000000J0D01*
G01*
%TO.C,U1*%
X122050000Y-52070000D02*
X122050000Y-49530000D01*
X123070000Y-40140000D02*
X123070000Y-42000000D01*
X123070000Y-46900000D02*
X123070000Y-90740000D01*
X123070000Y-90740000D02*
X146170000Y-90740000D01*
X125350000Y-40140000D02*
X125350000Y-42400000D01*
X146170000Y-40140000D02*
X123070000Y-40140000D01*
X146170000Y-90740000D02*
X146170000Y-40140000D01*
X124700000Y-44450000D02*
G75*
G02*
X122900000Y-44450000I-900000J0D01*
G01*
X122900000Y-44450000D02*
G75*
G02*
X124700000Y-44450000I900000J0D01*
G01*
X126350000Y-44450000D02*
G75*
G02*
X121250000Y-44450000I-2550000J0D01*
G01*
X121250000Y-44450000D02*
G75*
G02*
X126350000Y-44450000I2550000J0D01*
G01*
%TD*%
M02*
