%TF.GenerationSoftware,KiCad,Pcbnew,9.0.3-9.0.3-0~ubuntu24.04.1*%
%TF.CreationDate,2025-08-16T22:58:59+09:00*%
%TF.ProjectId,romext-2364,726f6d65-7874-42d3-9233-36342e6b6963,1-2*%
%TF.SameCoordinates,Original*%
%TF.FileFunction,Drillmap*%
%TF.FilePolarity,Positive*%
%FSLAX45Y45*%
G04 Gerber Fmt 4.5, Leading zero omitted, Abs format (unit mm)*
G04 Created by KiCad (PCBNEW 9.0.3-9.0.3-0~ubuntu24.04.1) date 2025-08-16 22:58:59*
%MOMM*%
%LPD*%
G01*
G04 APERTURE LIST*
%ADD10C,0.050000*%
%ADD11C,0.200000*%
%ADD12C,0.100000*%
%ADD13C,0.270000*%
G04 APERTURE END LIST*
D10*
X9906000Y-3556000D02*
X15367000Y-3556000D01*
X15367000Y-9398000D01*
X9906000Y-9398000D01*
X9906000Y-3556000D01*
D11*
D12*
X10120000Y-5040000D02*
X10200000Y-5120000D01*
X10200000Y-5040000D02*
X10120000Y-5120000D01*
X10120000Y-5294000D02*
X10200000Y-5374000D01*
X10200000Y-5294000D02*
X10120000Y-5374000D01*
X10120000Y-5548000D02*
X10200000Y-5628000D01*
X10200000Y-5548000D02*
X10120000Y-5628000D01*
X10120000Y-5802000D02*
X10200000Y-5882000D01*
X10200000Y-5802000D02*
X10120000Y-5882000D01*
X10120000Y-6056000D02*
X10200000Y-6136000D01*
X10200000Y-6056000D02*
X10120000Y-6136000D01*
X10120000Y-6310000D02*
X10200000Y-6390000D01*
X10200000Y-6310000D02*
X10120000Y-6390000D01*
X10120000Y-6564000D02*
X10200000Y-6644000D01*
X10200000Y-6564000D02*
X10120000Y-6644000D01*
X10120000Y-6818000D02*
X10200000Y-6898000D01*
X10200000Y-6818000D02*
X10120000Y-6898000D01*
X10120000Y-7072000D02*
X10200000Y-7152000D01*
X10200000Y-7072000D02*
X10120000Y-7152000D01*
X10120000Y-7326000D02*
X10200000Y-7406000D01*
X10200000Y-7326000D02*
X10120000Y-7406000D01*
X10120000Y-7580000D02*
X10200000Y-7660000D01*
X10200000Y-7580000D02*
X10120000Y-7660000D01*
X10120000Y-7834000D02*
X10200000Y-7914000D01*
X10200000Y-7834000D02*
X10120000Y-7914000D01*
X11644000Y-5040000D02*
X11724000Y-5120000D01*
X11724000Y-5040000D02*
X11644000Y-5120000D01*
X11644000Y-5294000D02*
X11724000Y-5374000D01*
X11724000Y-5294000D02*
X11644000Y-5374000D01*
X11644000Y-5548000D02*
X11724000Y-5628000D01*
X11724000Y-5548000D02*
X11644000Y-5628000D01*
X11644000Y-5802000D02*
X11724000Y-5882000D01*
X11724000Y-5802000D02*
X11644000Y-5882000D01*
X11644000Y-6056000D02*
X11724000Y-6136000D01*
X11724000Y-6056000D02*
X11644000Y-6136000D01*
X11644000Y-6310000D02*
X11724000Y-6390000D01*
X11724000Y-6310000D02*
X11644000Y-6390000D01*
X11644000Y-6564000D02*
X11724000Y-6644000D01*
X11724000Y-6564000D02*
X11644000Y-6644000D01*
X11644000Y-6818000D02*
X11724000Y-6898000D01*
X11724000Y-6818000D02*
X11644000Y-6898000D01*
X11644000Y-7072000D02*
X11724000Y-7152000D01*
X11724000Y-7072000D02*
X11644000Y-7152000D01*
X11644000Y-7326000D02*
X11724000Y-7406000D01*
X11724000Y-7326000D02*
X11644000Y-7406000D01*
X11644000Y-7580000D02*
X11724000Y-7660000D01*
X11724000Y-7580000D02*
X11644000Y-7660000D01*
X11644000Y-7834000D02*
X11724000Y-7914000D01*
X11724000Y-7834000D02*
X11644000Y-7914000D01*
X12750000Y-5080000D02*
G75*
G02*
X12650000Y-5080000I-50000J0D01*
G01*
X12650000Y-5080000D02*
G75*
G02*
X12750000Y-5080000I50000J0D01*
G01*
X12750000Y-5334000D02*
G75*
G02*
X12650000Y-5334000I-50000J0D01*
G01*
X12650000Y-5334000D02*
G75*
G02*
X12750000Y-5334000I50000J0D01*
G01*
X12750000Y-5588000D02*
G75*
G02*
X12650000Y-5588000I-50000J0D01*
G01*
X12650000Y-5588000D02*
G75*
G02*
X12750000Y-5588000I50000J0D01*
G01*
X12750000Y-5842000D02*
G75*
G02*
X12650000Y-5842000I-50000J0D01*
G01*
X12650000Y-5842000D02*
G75*
G02*
X12750000Y-5842000I50000J0D01*
G01*
X12750000Y-6096000D02*
G75*
G02*
X12650000Y-6096000I-50000J0D01*
G01*
X12650000Y-6096000D02*
G75*
G02*
X12750000Y-6096000I50000J0D01*
G01*
X12750000Y-6350000D02*
G75*
G02*
X12650000Y-6350000I-50000J0D01*
G01*
X12650000Y-6350000D02*
G75*
G02*
X12750000Y-6350000I50000J0D01*
G01*
X12750000Y-6604000D02*
G75*
G02*
X12650000Y-6604000I-50000J0D01*
G01*
X12650000Y-6604000D02*
G75*
G02*
X12750000Y-6604000I50000J0D01*
G01*
X12750000Y-6858000D02*
G75*
G02*
X12650000Y-6858000I-50000J0D01*
G01*
X12650000Y-6858000D02*
G75*
G02*
X12750000Y-6858000I50000J0D01*
G01*
X12750000Y-7112000D02*
G75*
G02*
X12650000Y-7112000I-50000J0D01*
G01*
X12650000Y-7112000D02*
G75*
G02*
X12750000Y-7112000I50000J0D01*
G01*
X12750000Y-7366000D02*
G75*
G02*
X12650000Y-7366000I-50000J0D01*
G01*
X12650000Y-7366000D02*
G75*
G02*
X12750000Y-7366000I50000J0D01*
G01*
X12750000Y-7620000D02*
G75*
G02*
X12650000Y-7620000I-50000J0D01*
G01*
X12650000Y-7620000D02*
G75*
G02*
X12750000Y-7620000I50000J0D01*
G01*
X12750000Y-7874000D02*
G75*
G02*
X12650000Y-7874000I-50000J0D01*
G01*
X12650000Y-7874000D02*
G75*
G02*
X12750000Y-7874000I50000J0D01*
G01*
X12750000Y-8128000D02*
G75*
G02*
X12650000Y-8128000I-50000J0D01*
G01*
X12650000Y-8128000D02*
G75*
G02*
X12750000Y-8128000I50000J0D01*
G01*
X12750000Y-8382000D02*
G75*
G02*
X12650000Y-8382000I-50000J0D01*
G01*
X12650000Y-8382000D02*
G75*
G02*
X12750000Y-8382000I50000J0D01*
G01*
X14274000Y-5080000D02*
G75*
G02*
X14174000Y-5080000I-50000J0D01*
G01*
X14174000Y-5080000D02*
G75*
G02*
X14274000Y-5080000I50000J0D01*
G01*
X14274000Y-5334000D02*
G75*
G02*
X14174000Y-5334000I-50000J0D01*
G01*
X14174000Y-5334000D02*
G75*
G02*
X14274000Y-5334000I50000J0D01*
G01*
X14274000Y-5588000D02*
G75*
G02*
X14174000Y-5588000I-50000J0D01*
G01*
X14174000Y-5588000D02*
G75*
G02*
X14274000Y-5588000I50000J0D01*
G01*
X14274000Y-5842000D02*
G75*
G02*
X14174000Y-5842000I-50000J0D01*
G01*
X14174000Y-5842000D02*
G75*
G02*
X14274000Y-5842000I50000J0D01*
G01*
X14274000Y-6096000D02*
G75*
G02*
X14174000Y-6096000I-50000J0D01*
G01*
X14174000Y-6096000D02*
G75*
G02*
X14274000Y-6096000I50000J0D01*
G01*
X14274000Y-6350000D02*
G75*
G02*
X14174000Y-6350000I-50000J0D01*
G01*
X14174000Y-6350000D02*
G75*
G02*
X14274000Y-6350000I50000J0D01*
G01*
X14274000Y-6604000D02*
G75*
G02*
X14174000Y-6604000I-50000J0D01*
G01*
X14174000Y-6604000D02*
G75*
G02*
X14274000Y-6604000I50000J0D01*
G01*
X14274000Y-6858000D02*
G75*
G02*
X14174000Y-6858000I-50000J0D01*
G01*
X14174000Y-6858000D02*
G75*
G02*
X14274000Y-6858000I50000J0D01*
G01*
X14274000Y-7112000D02*
G75*
G02*
X14174000Y-7112000I-50000J0D01*
G01*
X14174000Y-7112000D02*
G75*
G02*
X14274000Y-7112000I50000J0D01*
G01*
X14274000Y-7366000D02*
G75*
G02*
X14174000Y-7366000I-50000J0D01*
G01*
X14174000Y-7366000D02*
G75*
G02*
X14274000Y-7366000I50000J0D01*
G01*
X14274000Y-7620000D02*
G75*
G02*
X14174000Y-7620000I-50000J0D01*
G01*
X14174000Y-7620000D02*
G75*
G02*
X14274000Y-7620000I50000J0D01*
G01*
X14274000Y-7874000D02*
G75*
G02*
X14174000Y-7874000I-50000J0D01*
G01*
X14174000Y-7874000D02*
G75*
G02*
X14274000Y-7874000I50000J0D01*
G01*
X14274000Y-8128000D02*
G75*
G02*
X14174000Y-8128000I-50000J0D01*
G01*
X14174000Y-8128000D02*
G75*
G02*
X14274000Y-8128000I50000J0D01*
G01*
X14274000Y-8382000D02*
G75*
G02*
X14174000Y-8382000I-50000J0D01*
G01*
X14174000Y-8382000D02*
G75*
G02*
X14274000Y-8382000I50000J0D01*
G01*
D13*
X10287000Y-3802000D02*
X10287000Y-4072000D01*
X10152000Y-3937000D02*
X10422000Y-3937000D01*
X10287000Y-8882000D02*
X10287000Y-9152000D01*
X10152000Y-9017000D02*
X10422000Y-9017000D01*
X14986000Y-3802000D02*
X14986000Y-4072000D01*
X14851000Y-3937000D02*
X15121000Y-3937000D01*
X14986000Y-8882000D02*
X14986000Y-9152000D01*
X14851000Y-9017000D02*
X15121000Y-9017000D01*
D11*
X10164277Y-9711984D02*
X10164277Y-9511984D01*
X10164277Y-9511984D02*
X10211896Y-9511984D01*
X10211896Y-9511984D02*
X10240467Y-9521508D01*
X10240467Y-9521508D02*
X10259515Y-9540555D01*
X10259515Y-9540555D02*
X10269039Y-9559603D01*
X10269039Y-9559603D02*
X10278563Y-9597698D01*
X10278563Y-9597698D02*
X10278563Y-9626270D01*
X10278563Y-9626270D02*
X10269039Y-9664365D01*
X10269039Y-9664365D02*
X10259515Y-9683412D01*
X10259515Y-9683412D02*
X10240467Y-9702460D01*
X10240467Y-9702460D02*
X10211896Y-9711984D01*
X10211896Y-9711984D02*
X10164277Y-9711984D01*
X10364277Y-9711984D02*
X10364277Y-9578650D01*
X10364277Y-9616746D02*
X10373801Y-9597698D01*
X10373801Y-9597698D02*
X10383324Y-9588174D01*
X10383324Y-9588174D02*
X10402372Y-9578650D01*
X10402372Y-9578650D02*
X10421420Y-9578650D01*
X10488086Y-9711984D02*
X10488086Y-9578650D01*
X10488086Y-9511984D02*
X10478563Y-9521508D01*
X10478563Y-9521508D02*
X10488086Y-9531031D01*
X10488086Y-9531031D02*
X10497610Y-9521508D01*
X10497610Y-9521508D02*
X10488086Y-9511984D01*
X10488086Y-9511984D02*
X10488086Y-9531031D01*
X10611896Y-9711984D02*
X10592848Y-9702460D01*
X10592848Y-9702460D02*
X10583324Y-9683412D01*
X10583324Y-9683412D02*
X10583324Y-9511984D01*
X10716658Y-9711984D02*
X10697610Y-9702460D01*
X10697610Y-9702460D02*
X10688086Y-9683412D01*
X10688086Y-9683412D02*
X10688086Y-9511984D01*
X10945229Y-9711984D02*
X10945229Y-9511984D01*
X10945229Y-9511984D02*
X11011896Y-9654841D01*
X11011896Y-9654841D02*
X11078563Y-9511984D01*
X11078563Y-9511984D02*
X11078563Y-9711984D01*
X11259515Y-9711984D02*
X11259515Y-9607222D01*
X11259515Y-9607222D02*
X11249991Y-9588174D01*
X11249991Y-9588174D02*
X11230943Y-9578650D01*
X11230943Y-9578650D02*
X11192848Y-9578650D01*
X11192848Y-9578650D02*
X11173801Y-9588174D01*
X11259515Y-9702460D02*
X11240467Y-9711984D01*
X11240467Y-9711984D02*
X11192848Y-9711984D01*
X11192848Y-9711984D02*
X11173801Y-9702460D01*
X11173801Y-9702460D02*
X11164277Y-9683412D01*
X11164277Y-9683412D02*
X11164277Y-9664365D01*
X11164277Y-9664365D02*
X11173801Y-9645317D01*
X11173801Y-9645317D02*
X11192848Y-9635793D01*
X11192848Y-9635793D02*
X11240467Y-9635793D01*
X11240467Y-9635793D02*
X11259515Y-9626270D01*
X11354753Y-9578650D02*
X11354753Y-9778650D01*
X11354753Y-9588174D02*
X11373801Y-9578650D01*
X11373801Y-9578650D02*
X11411896Y-9578650D01*
X11411896Y-9578650D02*
X11430943Y-9588174D01*
X11430943Y-9588174D02*
X11440467Y-9597698D01*
X11440467Y-9597698D02*
X11449991Y-9616746D01*
X11449991Y-9616746D02*
X11449991Y-9673889D01*
X11449991Y-9673889D02*
X11440467Y-9692936D01*
X11440467Y-9692936D02*
X11430943Y-9702460D01*
X11430943Y-9702460D02*
X11411896Y-9711984D01*
X11411896Y-9711984D02*
X11373801Y-9711984D01*
X11373801Y-9711984D02*
X11354753Y-9702460D01*
X11535705Y-9692936D02*
X11545229Y-9702460D01*
X11545229Y-9702460D02*
X11535705Y-9711984D01*
X11535705Y-9711984D02*
X11526182Y-9702460D01*
X11526182Y-9702460D02*
X11535705Y-9692936D01*
X11535705Y-9692936D02*
X11535705Y-9711984D01*
X11535705Y-9588174D02*
X11545229Y-9597698D01*
X11545229Y-9597698D02*
X11535705Y-9607222D01*
X11535705Y-9607222D02*
X11526182Y-9597698D01*
X11526182Y-9597698D02*
X11535705Y-9588174D01*
X11535705Y-9588174D02*
X11535705Y-9607222D01*
D12*
X9823500Y-10000500D02*
X9903500Y-10080500D01*
X9903500Y-10000500D02*
X9823500Y-10080500D01*
D11*
X10202372Y-9931984D02*
X10221420Y-9931984D01*
X10221420Y-9931984D02*
X10240467Y-9941508D01*
X10240467Y-9941508D02*
X10249991Y-9951031D01*
X10249991Y-9951031D02*
X10259515Y-9970079D01*
X10259515Y-9970079D02*
X10269039Y-10008174D01*
X10269039Y-10008174D02*
X10269039Y-10055793D01*
X10269039Y-10055793D02*
X10259515Y-10093889D01*
X10259515Y-10093889D02*
X10249991Y-10112936D01*
X10249991Y-10112936D02*
X10240467Y-10122460D01*
X10240467Y-10122460D02*
X10221420Y-10131984D01*
X10221420Y-10131984D02*
X10202372Y-10131984D01*
X10202372Y-10131984D02*
X10183324Y-10122460D01*
X10183324Y-10122460D02*
X10173801Y-10112936D01*
X10173801Y-10112936D02*
X10164277Y-10093889D01*
X10164277Y-10093889D02*
X10154753Y-10055793D01*
X10154753Y-10055793D02*
X10154753Y-10008174D01*
X10154753Y-10008174D02*
X10164277Y-9970079D01*
X10164277Y-9970079D02*
X10173801Y-9951031D01*
X10173801Y-9951031D02*
X10183324Y-9941508D01*
X10183324Y-9941508D02*
X10202372Y-9931984D01*
X10354753Y-10112936D02*
X10364277Y-10122460D01*
X10364277Y-10122460D02*
X10354753Y-10131984D01*
X10354753Y-10131984D02*
X10345229Y-10122460D01*
X10345229Y-10122460D02*
X10354753Y-10112936D01*
X10354753Y-10112936D02*
X10354753Y-10131984D01*
X10478563Y-10017698D02*
X10459515Y-10008174D01*
X10459515Y-10008174D02*
X10449991Y-9998650D01*
X10449991Y-9998650D02*
X10440467Y-9979603D01*
X10440467Y-9979603D02*
X10440467Y-9970079D01*
X10440467Y-9970079D02*
X10449991Y-9951031D01*
X10449991Y-9951031D02*
X10459515Y-9941508D01*
X10459515Y-9941508D02*
X10478563Y-9931984D01*
X10478563Y-9931984D02*
X10516658Y-9931984D01*
X10516658Y-9931984D02*
X10535705Y-9941508D01*
X10535705Y-9941508D02*
X10545229Y-9951031D01*
X10545229Y-9951031D02*
X10554753Y-9970079D01*
X10554753Y-9970079D02*
X10554753Y-9979603D01*
X10554753Y-9979603D02*
X10545229Y-9998650D01*
X10545229Y-9998650D02*
X10535705Y-10008174D01*
X10535705Y-10008174D02*
X10516658Y-10017698D01*
X10516658Y-10017698D02*
X10478563Y-10017698D01*
X10478563Y-10017698D02*
X10459515Y-10027222D01*
X10459515Y-10027222D02*
X10449991Y-10036746D01*
X10449991Y-10036746D02*
X10440467Y-10055793D01*
X10440467Y-10055793D02*
X10440467Y-10093889D01*
X10440467Y-10093889D02*
X10449991Y-10112936D01*
X10449991Y-10112936D02*
X10459515Y-10122460D01*
X10459515Y-10122460D02*
X10478563Y-10131984D01*
X10478563Y-10131984D02*
X10516658Y-10131984D01*
X10516658Y-10131984D02*
X10535705Y-10122460D01*
X10535705Y-10122460D02*
X10545229Y-10112936D01*
X10545229Y-10112936D02*
X10554753Y-10093889D01*
X10554753Y-10093889D02*
X10554753Y-10055793D01*
X10554753Y-10055793D02*
X10545229Y-10036746D01*
X10545229Y-10036746D02*
X10535705Y-10027222D01*
X10535705Y-10027222D02*
X10516658Y-10017698D01*
X10678563Y-9931984D02*
X10697610Y-9931984D01*
X10697610Y-9931984D02*
X10716658Y-9941508D01*
X10716658Y-9941508D02*
X10726182Y-9951031D01*
X10726182Y-9951031D02*
X10735705Y-9970079D01*
X10735705Y-9970079D02*
X10745229Y-10008174D01*
X10745229Y-10008174D02*
X10745229Y-10055793D01*
X10745229Y-10055793D02*
X10735705Y-10093889D01*
X10735705Y-10093889D02*
X10726182Y-10112936D01*
X10726182Y-10112936D02*
X10716658Y-10122460D01*
X10716658Y-10122460D02*
X10697610Y-10131984D01*
X10697610Y-10131984D02*
X10678563Y-10131984D01*
X10678563Y-10131984D02*
X10659515Y-10122460D01*
X10659515Y-10122460D02*
X10649991Y-10112936D01*
X10649991Y-10112936D02*
X10640467Y-10093889D01*
X10640467Y-10093889D02*
X10630944Y-10055793D01*
X10630944Y-10055793D02*
X10630944Y-10008174D01*
X10630944Y-10008174D02*
X10640467Y-9970079D01*
X10640467Y-9970079D02*
X10649991Y-9951031D01*
X10649991Y-9951031D02*
X10659515Y-9941508D01*
X10659515Y-9941508D02*
X10678563Y-9931984D01*
X10869039Y-9931984D02*
X10888086Y-9931984D01*
X10888086Y-9931984D02*
X10907134Y-9941508D01*
X10907134Y-9941508D02*
X10916658Y-9951031D01*
X10916658Y-9951031D02*
X10926182Y-9970079D01*
X10926182Y-9970079D02*
X10935705Y-10008174D01*
X10935705Y-10008174D02*
X10935705Y-10055793D01*
X10935705Y-10055793D02*
X10926182Y-10093889D01*
X10926182Y-10093889D02*
X10916658Y-10112936D01*
X10916658Y-10112936D02*
X10907134Y-10122460D01*
X10907134Y-10122460D02*
X10888086Y-10131984D01*
X10888086Y-10131984D02*
X10869039Y-10131984D01*
X10869039Y-10131984D02*
X10849991Y-10122460D01*
X10849991Y-10122460D02*
X10840467Y-10112936D01*
X10840467Y-10112936D02*
X10830944Y-10093889D01*
X10830944Y-10093889D02*
X10821420Y-10055793D01*
X10821420Y-10055793D02*
X10821420Y-10008174D01*
X10821420Y-10008174D02*
X10830944Y-9970079D01*
X10830944Y-9970079D02*
X10840467Y-9951031D01*
X10840467Y-9951031D02*
X10849991Y-9941508D01*
X10849991Y-9941508D02*
X10869039Y-9931984D01*
X11021420Y-10131984D02*
X11021420Y-9998650D01*
X11021420Y-10017698D02*
X11030944Y-10008174D01*
X11030944Y-10008174D02*
X11049991Y-9998650D01*
X11049991Y-9998650D02*
X11078563Y-9998650D01*
X11078563Y-9998650D02*
X11097610Y-10008174D01*
X11097610Y-10008174D02*
X11107134Y-10027222D01*
X11107134Y-10027222D02*
X11107134Y-10131984D01*
X11107134Y-10027222D02*
X11116658Y-10008174D01*
X11116658Y-10008174D02*
X11135705Y-9998650D01*
X11135705Y-9998650D02*
X11164277Y-9998650D01*
X11164277Y-9998650D02*
X11183325Y-10008174D01*
X11183325Y-10008174D02*
X11192848Y-10027222D01*
X11192848Y-10027222D02*
X11192848Y-10131984D01*
X11288086Y-10131984D02*
X11288086Y-9998650D01*
X11288086Y-10017698D02*
X11297610Y-10008174D01*
X11297610Y-10008174D02*
X11316658Y-9998650D01*
X11316658Y-9998650D02*
X11345229Y-9998650D01*
X11345229Y-9998650D02*
X11364277Y-10008174D01*
X11364277Y-10008174D02*
X11373801Y-10027222D01*
X11373801Y-10027222D02*
X11373801Y-10131984D01*
X11373801Y-10027222D02*
X11383324Y-10008174D01*
X11383324Y-10008174D02*
X11402372Y-9998650D01*
X11402372Y-9998650D02*
X11430943Y-9998650D01*
X11430943Y-9998650D02*
X11449991Y-10008174D01*
X11449991Y-10008174D02*
X11459515Y-10027222D01*
X11459515Y-10027222D02*
X11459515Y-10131984D01*
X11849991Y-9922460D02*
X11678563Y-10179603D01*
X12107134Y-9931984D02*
X12126182Y-9931984D01*
X12126182Y-9931984D02*
X12145229Y-9941508D01*
X12145229Y-9941508D02*
X12154753Y-9951031D01*
X12154753Y-9951031D02*
X12164277Y-9970079D01*
X12164277Y-9970079D02*
X12173801Y-10008174D01*
X12173801Y-10008174D02*
X12173801Y-10055793D01*
X12173801Y-10055793D02*
X12164277Y-10093889D01*
X12164277Y-10093889D02*
X12154753Y-10112936D01*
X12154753Y-10112936D02*
X12145229Y-10122460D01*
X12145229Y-10122460D02*
X12126182Y-10131984D01*
X12126182Y-10131984D02*
X12107134Y-10131984D01*
X12107134Y-10131984D02*
X12088086Y-10122460D01*
X12088086Y-10122460D02*
X12078563Y-10112936D01*
X12078563Y-10112936D02*
X12069039Y-10093889D01*
X12069039Y-10093889D02*
X12059515Y-10055793D01*
X12059515Y-10055793D02*
X12059515Y-10008174D01*
X12059515Y-10008174D02*
X12069039Y-9970079D01*
X12069039Y-9970079D02*
X12078563Y-9951031D01*
X12078563Y-9951031D02*
X12088086Y-9941508D01*
X12088086Y-9941508D02*
X12107134Y-9931984D01*
X12259515Y-10112936D02*
X12269039Y-10122460D01*
X12269039Y-10122460D02*
X12259515Y-10131984D01*
X12259515Y-10131984D02*
X12249991Y-10122460D01*
X12249991Y-10122460D02*
X12259515Y-10112936D01*
X12259515Y-10112936D02*
X12259515Y-10131984D01*
X12392848Y-9931984D02*
X12411896Y-9931984D01*
X12411896Y-9931984D02*
X12430944Y-9941508D01*
X12430944Y-9941508D02*
X12440467Y-9951031D01*
X12440467Y-9951031D02*
X12449991Y-9970079D01*
X12449991Y-9970079D02*
X12459515Y-10008174D01*
X12459515Y-10008174D02*
X12459515Y-10055793D01*
X12459515Y-10055793D02*
X12449991Y-10093889D01*
X12449991Y-10093889D02*
X12440467Y-10112936D01*
X12440467Y-10112936D02*
X12430944Y-10122460D01*
X12430944Y-10122460D02*
X12411896Y-10131984D01*
X12411896Y-10131984D02*
X12392848Y-10131984D01*
X12392848Y-10131984D02*
X12373801Y-10122460D01*
X12373801Y-10122460D02*
X12364277Y-10112936D01*
X12364277Y-10112936D02*
X12354753Y-10093889D01*
X12354753Y-10093889D02*
X12345229Y-10055793D01*
X12345229Y-10055793D02*
X12345229Y-10008174D01*
X12345229Y-10008174D02*
X12354753Y-9970079D01*
X12354753Y-9970079D02*
X12364277Y-9951031D01*
X12364277Y-9951031D02*
X12373801Y-9941508D01*
X12373801Y-9941508D02*
X12392848Y-9931984D01*
X12526182Y-9931984D02*
X12649991Y-9931984D01*
X12649991Y-9931984D02*
X12583325Y-10008174D01*
X12583325Y-10008174D02*
X12611896Y-10008174D01*
X12611896Y-10008174D02*
X12630944Y-10017698D01*
X12630944Y-10017698D02*
X12640467Y-10027222D01*
X12640467Y-10027222D02*
X12649991Y-10046270D01*
X12649991Y-10046270D02*
X12649991Y-10093889D01*
X12649991Y-10093889D02*
X12640467Y-10112936D01*
X12640467Y-10112936D02*
X12630944Y-10122460D01*
X12630944Y-10122460D02*
X12611896Y-10131984D01*
X12611896Y-10131984D02*
X12554753Y-10131984D01*
X12554753Y-10131984D02*
X12535706Y-10122460D01*
X12535706Y-10122460D02*
X12526182Y-10112936D01*
X12840467Y-10131984D02*
X12726182Y-10131984D01*
X12783325Y-10131984D02*
X12783325Y-9931984D01*
X12783325Y-9931984D02*
X12764277Y-9960555D01*
X12764277Y-9960555D02*
X12745229Y-9979603D01*
X12745229Y-9979603D02*
X12726182Y-9989127D01*
X13021420Y-9931984D02*
X12926182Y-9931984D01*
X12926182Y-9931984D02*
X12916658Y-10027222D01*
X12916658Y-10027222D02*
X12926182Y-10017698D01*
X12926182Y-10017698D02*
X12945229Y-10008174D01*
X12945229Y-10008174D02*
X12992848Y-10008174D01*
X12992848Y-10008174D02*
X13011896Y-10017698D01*
X13011896Y-10017698D02*
X13021420Y-10027222D01*
X13021420Y-10027222D02*
X13030944Y-10046270D01*
X13030944Y-10046270D02*
X13030944Y-10093889D01*
X13030944Y-10093889D02*
X13021420Y-10112936D01*
X13021420Y-10112936D02*
X13011896Y-10122460D01*
X13011896Y-10122460D02*
X12992848Y-10131984D01*
X12992848Y-10131984D02*
X12945229Y-10131984D01*
X12945229Y-10131984D02*
X12926182Y-10122460D01*
X12926182Y-10122460D02*
X12916658Y-10112936D01*
X13107134Y-9931984D02*
X13107134Y-9970079D01*
X13183325Y-9931984D02*
X13183325Y-9970079D01*
X13478563Y-10208174D02*
X13469039Y-10198650D01*
X13469039Y-10198650D02*
X13449991Y-10170079D01*
X13449991Y-10170079D02*
X13440468Y-10151031D01*
X13440468Y-10151031D02*
X13430944Y-10122460D01*
X13430944Y-10122460D02*
X13421420Y-10074841D01*
X13421420Y-10074841D02*
X13421420Y-10036746D01*
X13421420Y-10036746D02*
X13430944Y-9989127D01*
X13430944Y-9989127D02*
X13440468Y-9960555D01*
X13440468Y-9960555D02*
X13449991Y-9941508D01*
X13449991Y-9941508D02*
X13469039Y-9912936D01*
X13469039Y-9912936D02*
X13478563Y-9903412D01*
X13545229Y-9951031D02*
X13554753Y-9941508D01*
X13554753Y-9941508D02*
X13573801Y-9931984D01*
X13573801Y-9931984D02*
X13621420Y-9931984D01*
X13621420Y-9931984D02*
X13640468Y-9941508D01*
X13640468Y-9941508D02*
X13649991Y-9951031D01*
X13649991Y-9951031D02*
X13659515Y-9970079D01*
X13659515Y-9970079D02*
X13659515Y-9989127D01*
X13659515Y-9989127D02*
X13649991Y-10017698D01*
X13649991Y-10017698D02*
X13535706Y-10131984D01*
X13535706Y-10131984D02*
X13659515Y-10131984D01*
X13830944Y-9998650D02*
X13830944Y-10131984D01*
X13783325Y-9922460D02*
X13735706Y-10065317D01*
X13735706Y-10065317D02*
X13859515Y-10065317D01*
X14088087Y-10131984D02*
X14088087Y-9931984D01*
X14173801Y-10131984D02*
X14173801Y-10027222D01*
X14173801Y-10027222D02*
X14164277Y-10008174D01*
X14164277Y-10008174D02*
X14145230Y-9998650D01*
X14145230Y-9998650D02*
X14116658Y-9998650D01*
X14116658Y-9998650D02*
X14097610Y-10008174D01*
X14097610Y-10008174D02*
X14088087Y-10017698D01*
X14297610Y-10131984D02*
X14278563Y-10122460D01*
X14278563Y-10122460D02*
X14269039Y-10112936D01*
X14269039Y-10112936D02*
X14259515Y-10093889D01*
X14259515Y-10093889D02*
X14259515Y-10036746D01*
X14259515Y-10036746D02*
X14269039Y-10017698D01*
X14269039Y-10017698D02*
X14278563Y-10008174D01*
X14278563Y-10008174D02*
X14297610Y-9998650D01*
X14297610Y-9998650D02*
X14326182Y-9998650D01*
X14326182Y-9998650D02*
X14345230Y-10008174D01*
X14345230Y-10008174D02*
X14354753Y-10017698D01*
X14354753Y-10017698D02*
X14364277Y-10036746D01*
X14364277Y-10036746D02*
X14364277Y-10093889D01*
X14364277Y-10093889D02*
X14354753Y-10112936D01*
X14354753Y-10112936D02*
X14345230Y-10122460D01*
X14345230Y-10122460D02*
X14326182Y-10131984D01*
X14326182Y-10131984D02*
X14297610Y-10131984D01*
X14478563Y-10131984D02*
X14459515Y-10122460D01*
X14459515Y-10122460D02*
X14449991Y-10103412D01*
X14449991Y-10103412D02*
X14449991Y-9931984D01*
X14630944Y-10122460D02*
X14611896Y-10131984D01*
X14611896Y-10131984D02*
X14573801Y-10131984D01*
X14573801Y-10131984D02*
X14554753Y-10122460D01*
X14554753Y-10122460D02*
X14545230Y-10103412D01*
X14545230Y-10103412D02*
X14545230Y-10027222D01*
X14545230Y-10027222D02*
X14554753Y-10008174D01*
X14554753Y-10008174D02*
X14573801Y-9998650D01*
X14573801Y-9998650D02*
X14611896Y-9998650D01*
X14611896Y-9998650D02*
X14630944Y-10008174D01*
X14630944Y-10008174D02*
X14640468Y-10027222D01*
X14640468Y-10027222D02*
X14640468Y-10046270D01*
X14640468Y-10046270D02*
X14545230Y-10065317D01*
X14716658Y-10122460D02*
X14735706Y-10131984D01*
X14735706Y-10131984D02*
X14773801Y-10131984D01*
X14773801Y-10131984D02*
X14792849Y-10122460D01*
X14792849Y-10122460D02*
X14802372Y-10103412D01*
X14802372Y-10103412D02*
X14802372Y-10093889D01*
X14802372Y-10093889D02*
X14792849Y-10074841D01*
X14792849Y-10074841D02*
X14773801Y-10065317D01*
X14773801Y-10065317D02*
X14745230Y-10065317D01*
X14745230Y-10065317D02*
X14726182Y-10055793D01*
X14726182Y-10055793D02*
X14716658Y-10036746D01*
X14716658Y-10036746D02*
X14716658Y-10027222D01*
X14716658Y-10027222D02*
X14726182Y-10008174D01*
X14726182Y-10008174D02*
X14745230Y-9998650D01*
X14745230Y-9998650D02*
X14773801Y-9998650D01*
X14773801Y-9998650D02*
X14792849Y-10008174D01*
X14869039Y-10208174D02*
X14878563Y-10198650D01*
X14878563Y-10198650D02*
X14897611Y-10170079D01*
X14897611Y-10170079D02*
X14907134Y-10151031D01*
X14907134Y-10151031D02*
X14916658Y-10122460D01*
X14916658Y-10122460D02*
X14926182Y-10074841D01*
X14926182Y-10074841D02*
X14926182Y-10036746D01*
X14926182Y-10036746D02*
X14916658Y-9989127D01*
X14916658Y-9989127D02*
X14907134Y-9960555D01*
X14907134Y-9960555D02*
X14897611Y-9941508D01*
X14897611Y-9941508D02*
X14878563Y-9912936D01*
X14878563Y-9912936D02*
X14869039Y-9903412D01*
D12*
X9903500Y-10304500D02*
G75*
G02*
X9803500Y-10304500I-50000J0D01*
G01*
X9803500Y-10304500D02*
G75*
G02*
X9903500Y-10304500I50000J0D01*
G01*
D11*
X10269039Y-10395984D02*
X10154753Y-10395984D01*
X10211896Y-10395984D02*
X10211896Y-10195984D01*
X10211896Y-10195984D02*
X10192848Y-10224555D01*
X10192848Y-10224555D02*
X10173801Y-10243603D01*
X10173801Y-10243603D02*
X10154753Y-10253127D01*
X10354753Y-10376936D02*
X10364277Y-10386460D01*
X10364277Y-10386460D02*
X10354753Y-10395984D01*
X10354753Y-10395984D02*
X10345229Y-10386460D01*
X10345229Y-10386460D02*
X10354753Y-10376936D01*
X10354753Y-10376936D02*
X10354753Y-10395984D01*
X10488086Y-10195984D02*
X10507134Y-10195984D01*
X10507134Y-10195984D02*
X10526182Y-10205508D01*
X10526182Y-10205508D02*
X10535705Y-10215031D01*
X10535705Y-10215031D02*
X10545229Y-10234079D01*
X10545229Y-10234079D02*
X10554753Y-10272174D01*
X10554753Y-10272174D02*
X10554753Y-10319793D01*
X10554753Y-10319793D02*
X10545229Y-10357889D01*
X10545229Y-10357889D02*
X10535705Y-10376936D01*
X10535705Y-10376936D02*
X10526182Y-10386460D01*
X10526182Y-10386460D02*
X10507134Y-10395984D01*
X10507134Y-10395984D02*
X10488086Y-10395984D01*
X10488086Y-10395984D02*
X10469039Y-10386460D01*
X10469039Y-10386460D02*
X10459515Y-10376936D01*
X10459515Y-10376936D02*
X10449991Y-10357889D01*
X10449991Y-10357889D02*
X10440467Y-10319793D01*
X10440467Y-10319793D02*
X10440467Y-10272174D01*
X10440467Y-10272174D02*
X10449991Y-10234079D01*
X10449991Y-10234079D02*
X10459515Y-10215031D01*
X10459515Y-10215031D02*
X10469039Y-10205508D01*
X10469039Y-10205508D02*
X10488086Y-10195984D01*
X10678563Y-10195984D02*
X10697610Y-10195984D01*
X10697610Y-10195984D02*
X10716658Y-10205508D01*
X10716658Y-10205508D02*
X10726182Y-10215031D01*
X10726182Y-10215031D02*
X10735705Y-10234079D01*
X10735705Y-10234079D02*
X10745229Y-10272174D01*
X10745229Y-10272174D02*
X10745229Y-10319793D01*
X10745229Y-10319793D02*
X10735705Y-10357889D01*
X10735705Y-10357889D02*
X10726182Y-10376936D01*
X10726182Y-10376936D02*
X10716658Y-10386460D01*
X10716658Y-10386460D02*
X10697610Y-10395984D01*
X10697610Y-10395984D02*
X10678563Y-10395984D01*
X10678563Y-10395984D02*
X10659515Y-10386460D01*
X10659515Y-10386460D02*
X10649991Y-10376936D01*
X10649991Y-10376936D02*
X10640467Y-10357889D01*
X10640467Y-10357889D02*
X10630944Y-10319793D01*
X10630944Y-10319793D02*
X10630944Y-10272174D01*
X10630944Y-10272174D02*
X10640467Y-10234079D01*
X10640467Y-10234079D02*
X10649991Y-10215031D01*
X10649991Y-10215031D02*
X10659515Y-10205508D01*
X10659515Y-10205508D02*
X10678563Y-10195984D01*
X10869039Y-10195984D02*
X10888086Y-10195984D01*
X10888086Y-10195984D02*
X10907134Y-10205508D01*
X10907134Y-10205508D02*
X10916658Y-10215031D01*
X10916658Y-10215031D02*
X10926182Y-10234079D01*
X10926182Y-10234079D02*
X10935705Y-10272174D01*
X10935705Y-10272174D02*
X10935705Y-10319793D01*
X10935705Y-10319793D02*
X10926182Y-10357889D01*
X10926182Y-10357889D02*
X10916658Y-10376936D01*
X10916658Y-10376936D02*
X10907134Y-10386460D01*
X10907134Y-10386460D02*
X10888086Y-10395984D01*
X10888086Y-10395984D02*
X10869039Y-10395984D01*
X10869039Y-10395984D02*
X10849991Y-10386460D01*
X10849991Y-10386460D02*
X10840467Y-10376936D01*
X10840467Y-10376936D02*
X10830944Y-10357889D01*
X10830944Y-10357889D02*
X10821420Y-10319793D01*
X10821420Y-10319793D02*
X10821420Y-10272174D01*
X10821420Y-10272174D02*
X10830944Y-10234079D01*
X10830944Y-10234079D02*
X10840467Y-10215031D01*
X10840467Y-10215031D02*
X10849991Y-10205508D01*
X10849991Y-10205508D02*
X10869039Y-10195984D01*
X11021420Y-10395984D02*
X11021420Y-10262650D01*
X11021420Y-10281698D02*
X11030944Y-10272174D01*
X11030944Y-10272174D02*
X11049991Y-10262650D01*
X11049991Y-10262650D02*
X11078563Y-10262650D01*
X11078563Y-10262650D02*
X11097610Y-10272174D01*
X11097610Y-10272174D02*
X11107134Y-10291222D01*
X11107134Y-10291222D02*
X11107134Y-10395984D01*
X11107134Y-10291222D02*
X11116658Y-10272174D01*
X11116658Y-10272174D02*
X11135705Y-10262650D01*
X11135705Y-10262650D02*
X11164277Y-10262650D01*
X11164277Y-10262650D02*
X11183325Y-10272174D01*
X11183325Y-10272174D02*
X11192848Y-10291222D01*
X11192848Y-10291222D02*
X11192848Y-10395984D01*
X11288086Y-10395984D02*
X11288086Y-10262650D01*
X11288086Y-10281698D02*
X11297610Y-10272174D01*
X11297610Y-10272174D02*
X11316658Y-10262650D01*
X11316658Y-10262650D02*
X11345229Y-10262650D01*
X11345229Y-10262650D02*
X11364277Y-10272174D01*
X11364277Y-10272174D02*
X11373801Y-10291222D01*
X11373801Y-10291222D02*
X11373801Y-10395984D01*
X11373801Y-10291222D02*
X11383324Y-10272174D01*
X11383324Y-10272174D02*
X11402372Y-10262650D01*
X11402372Y-10262650D02*
X11430943Y-10262650D01*
X11430943Y-10262650D02*
X11449991Y-10272174D01*
X11449991Y-10272174D02*
X11459515Y-10291222D01*
X11459515Y-10291222D02*
X11459515Y-10395984D01*
X11849991Y-10186460D02*
X11678563Y-10443603D01*
X12107134Y-10195984D02*
X12126182Y-10195984D01*
X12126182Y-10195984D02*
X12145229Y-10205508D01*
X12145229Y-10205508D02*
X12154753Y-10215031D01*
X12154753Y-10215031D02*
X12164277Y-10234079D01*
X12164277Y-10234079D02*
X12173801Y-10272174D01*
X12173801Y-10272174D02*
X12173801Y-10319793D01*
X12173801Y-10319793D02*
X12164277Y-10357889D01*
X12164277Y-10357889D02*
X12154753Y-10376936D01*
X12154753Y-10376936D02*
X12145229Y-10386460D01*
X12145229Y-10386460D02*
X12126182Y-10395984D01*
X12126182Y-10395984D02*
X12107134Y-10395984D01*
X12107134Y-10395984D02*
X12088086Y-10386460D01*
X12088086Y-10386460D02*
X12078563Y-10376936D01*
X12078563Y-10376936D02*
X12069039Y-10357889D01*
X12069039Y-10357889D02*
X12059515Y-10319793D01*
X12059515Y-10319793D02*
X12059515Y-10272174D01*
X12059515Y-10272174D02*
X12069039Y-10234079D01*
X12069039Y-10234079D02*
X12078563Y-10215031D01*
X12078563Y-10215031D02*
X12088086Y-10205508D01*
X12088086Y-10205508D02*
X12107134Y-10195984D01*
X12259515Y-10376936D02*
X12269039Y-10386460D01*
X12269039Y-10386460D02*
X12259515Y-10395984D01*
X12259515Y-10395984D02*
X12249991Y-10386460D01*
X12249991Y-10386460D02*
X12259515Y-10376936D01*
X12259515Y-10376936D02*
X12259515Y-10395984D01*
X12392848Y-10195984D02*
X12411896Y-10195984D01*
X12411896Y-10195984D02*
X12430944Y-10205508D01*
X12430944Y-10205508D02*
X12440467Y-10215031D01*
X12440467Y-10215031D02*
X12449991Y-10234079D01*
X12449991Y-10234079D02*
X12459515Y-10272174D01*
X12459515Y-10272174D02*
X12459515Y-10319793D01*
X12459515Y-10319793D02*
X12449991Y-10357889D01*
X12449991Y-10357889D02*
X12440467Y-10376936D01*
X12440467Y-10376936D02*
X12430944Y-10386460D01*
X12430944Y-10386460D02*
X12411896Y-10395984D01*
X12411896Y-10395984D02*
X12392848Y-10395984D01*
X12392848Y-10395984D02*
X12373801Y-10386460D01*
X12373801Y-10386460D02*
X12364277Y-10376936D01*
X12364277Y-10376936D02*
X12354753Y-10357889D01*
X12354753Y-10357889D02*
X12345229Y-10319793D01*
X12345229Y-10319793D02*
X12345229Y-10272174D01*
X12345229Y-10272174D02*
X12354753Y-10234079D01*
X12354753Y-10234079D02*
X12364277Y-10215031D01*
X12364277Y-10215031D02*
X12373801Y-10205508D01*
X12373801Y-10205508D02*
X12392848Y-10195984D01*
X12526182Y-10195984D02*
X12649991Y-10195984D01*
X12649991Y-10195984D02*
X12583325Y-10272174D01*
X12583325Y-10272174D02*
X12611896Y-10272174D01*
X12611896Y-10272174D02*
X12630944Y-10281698D01*
X12630944Y-10281698D02*
X12640467Y-10291222D01*
X12640467Y-10291222D02*
X12649991Y-10310270D01*
X12649991Y-10310270D02*
X12649991Y-10357889D01*
X12649991Y-10357889D02*
X12640467Y-10376936D01*
X12640467Y-10376936D02*
X12630944Y-10386460D01*
X12630944Y-10386460D02*
X12611896Y-10395984D01*
X12611896Y-10395984D02*
X12554753Y-10395984D01*
X12554753Y-10395984D02*
X12535706Y-10386460D01*
X12535706Y-10386460D02*
X12526182Y-10376936D01*
X12745229Y-10395984D02*
X12783325Y-10395984D01*
X12783325Y-10395984D02*
X12802372Y-10386460D01*
X12802372Y-10386460D02*
X12811896Y-10376936D01*
X12811896Y-10376936D02*
X12830944Y-10348365D01*
X12830944Y-10348365D02*
X12840467Y-10310270D01*
X12840467Y-10310270D02*
X12840467Y-10234079D01*
X12840467Y-10234079D02*
X12830944Y-10215031D01*
X12830944Y-10215031D02*
X12821420Y-10205508D01*
X12821420Y-10205508D02*
X12802372Y-10195984D01*
X12802372Y-10195984D02*
X12764277Y-10195984D01*
X12764277Y-10195984D02*
X12745229Y-10205508D01*
X12745229Y-10205508D02*
X12735706Y-10215031D01*
X12735706Y-10215031D02*
X12726182Y-10234079D01*
X12726182Y-10234079D02*
X12726182Y-10281698D01*
X12726182Y-10281698D02*
X12735706Y-10300746D01*
X12735706Y-10300746D02*
X12745229Y-10310270D01*
X12745229Y-10310270D02*
X12764277Y-10319793D01*
X12764277Y-10319793D02*
X12802372Y-10319793D01*
X12802372Y-10319793D02*
X12821420Y-10310270D01*
X12821420Y-10310270D02*
X12830944Y-10300746D01*
X12830944Y-10300746D02*
X12840467Y-10281698D01*
X13011896Y-10262650D02*
X13011896Y-10395984D01*
X12964277Y-10186460D02*
X12916658Y-10329317D01*
X12916658Y-10329317D02*
X13040467Y-10329317D01*
X13107134Y-10195984D02*
X13107134Y-10234079D01*
X13183325Y-10195984D02*
X13183325Y-10234079D01*
X13478563Y-10472174D02*
X13469039Y-10462650D01*
X13469039Y-10462650D02*
X13449991Y-10434079D01*
X13449991Y-10434079D02*
X13440468Y-10415031D01*
X13440468Y-10415031D02*
X13430944Y-10386460D01*
X13430944Y-10386460D02*
X13421420Y-10338841D01*
X13421420Y-10338841D02*
X13421420Y-10300746D01*
X13421420Y-10300746D02*
X13430944Y-10253127D01*
X13430944Y-10253127D02*
X13440468Y-10224555D01*
X13440468Y-10224555D02*
X13449991Y-10205508D01*
X13449991Y-10205508D02*
X13469039Y-10176936D01*
X13469039Y-10176936D02*
X13478563Y-10167412D01*
X13545229Y-10215031D02*
X13554753Y-10205508D01*
X13554753Y-10205508D02*
X13573801Y-10195984D01*
X13573801Y-10195984D02*
X13621420Y-10195984D01*
X13621420Y-10195984D02*
X13640468Y-10205508D01*
X13640468Y-10205508D02*
X13649991Y-10215031D01*
X13649991Y-10215031D02*
X13659515Y-10234079D01*
X13659515Y-10234079D02*
X13659515Y-10253127D01*
X13659515Y-10253127D02*
X13649991Y-10281698D01*
X13649991Y-10281698D02*
X13535706Y-10395984D01*
X13535706Y-10395984D02*
X13659515Y-10395984D01*
X13773801Y-10281698D02*
X13754753Y-10272174D01*
X13754753Y-10272174D02*
X13745229Y-10262650D01*
X13745229Y-10262650D02*
X13735706Y-10243603D01*
X13735706Y-10243603D02*
X13735706Y-10234079D01*
X13735706Y-10234079D02*
X13745229Y-10215031D01*
X13745229Y-10215031D02*
X13754753Y-10205508D01*
X13754753Y-10205508D02*
X13773801Y-10195984D01*
X13773801Y-10195984D02*
X13811896Y-10195984D01*
X13811896Y-10195984D02*
X13830944Y-10205508D01*
X13830944Y-10205508D02*
X13840468Y-10215031D01*
X13840468Y-10215031D02*
X13849991Y-10234079D01*
X13849991Y-10234079D02*
X13849991Y-10243603D01*
X13849991Y-10243603D02*
X13840468Y-10262650D01*
X13840468Y-10262650D02*
X13830944Y-10272174D01*
X13830944Y-10272174D02*
X13811896Y-10281698D01*
X13811896Y-10281698D02*
X13773801Y-10281698D01*
X13773801Y-10281698D02*
X13754753Y-10291222D01*
X13754753Y-10291222D02*
X13745229Y-10300746D01*
X13745229Y-10300746D02*
X13735706Y-10319793D01*
X13735706Y-10319793D02*
X13735706Y-10357889D01*
X13735706Y-10357889D02*
X13745229Y-10376936D01*
X13745229Y-10376936D02*
X13754753Y-10386460D01*
X13754753Y-10386460D02*
X13773801Y-10395984D01*
X13773801Y-10395984D02*
X13811896Y-10395984D01*
X13811896Y-10395984D02*
X13830944Y-10386460D01*
X13830944Y-10386460D02*
X13840468Y-10376936D01*
X13840468Y-10376936D02*
X13849991Y-10357889D01*
X13849991Y-10357889D02*
X13849991Y-10319793D01*
X13849991Y-10319793D02*
X13840468Y-10300746D01*
X13840468Y-10300746D02*
X13830944Y-10291222D01*
X13830944Y-10291222D02*
X13811896Y-10281698D01*
X14088087Y-10395984D02*
X14088087Y-10195984D01*
X14173801Y-10395984D02*
X14173801Y-10291222D01*
X14173801Y-10291222D02*
X14164277Y-10272174D01*
X14164277Y-10272174D02*
X14145230Y-10262650D01*
X14145230Y-10262650D02*
X14116658Y-10262650D01*
X14116658Y-10262650D02*
X14097610Y-10272174D01*
X14097610Y-10272174D02*
X14088087Y-10281698D01*
X14297610Y-10395984D02*
X14278563Y-10386460D01*
X14278563Y-10386460D02*
X14269039Y-10376936D01*
X14269039Y-10376936D02*
X14259515Y-10357889D01*
X14259515Y-10357889D02*
X14259515Y-10300746D01*
X14259515Y-10300746D02*
X14269039Y-10281698D01*
X14269039Y-10281698D02*
X14278563Y-10272174D01*
X14278563Y-10272174D02*
X14297610Y-10262650D01*
X14297610Y-10262650D02*
X14326182Y-10262650D01*
X14326182Y-10262650D02*
X14345230Y-10272174D01*
X14345230Y-10272174D02*
X14354753Y-10281698D01*
X14354753Y-10281698D02*
X14364277Y-10300746D01*
X14364277Y-10300746D02*
X14364277Y-10357889D01*
X14364277Y-10357889D02*
X14354753Y-10376936D01*
X14354753Y-10376936D02*
X14345230Y-10386460D01*
X14345230Y-10386460D02*
X14326182Y-10395984D01*
X14326182Y-10395984D02*
X14297610Y-10395984D01*
X14478563Y-10395984D02*
X14459515Y-10386460D01*
X14459515Y-10386460D02*
X14449991Y-10367412D01*
X14449991Y-10367412D02*
X14449991Y-10195984D01*
X14630944Y-10386460D02*
X14611896Y-10395984D01*
X14611896Y-10395984D02*
X14573801Y-10395984D01*
X14573801Y-10395984D02*
X14554753Y-10386460D01*
X14554753Y-10386460D02*
X14545230Y-10367412D01*
X14545230Y-10367412D02*
X14545230Y-10291222D01*
X14545230Y-10291222D02*
X14554753Y-10272174D01*
X14554753Y-10272174D02*
X14573801Y-10262650D01*
X14573801Y-10262650D02*
X14611896Y-10262650D01*
X14611896Y-10262650D02*
X14630944Y-10272174D01*
X14630944Y-10272174D02*
X14640468Y-10291222D01*
X14640468Y-10291222D02*
X14640468Y-10310270D01*
X14640468Y-10310270D02*
X14545230Y-10329317D01*
X14716658Y-10386460D02*
X14735706Y-10395984D01*
X14735706Y-10395984D02*
X14773801Y-10395984D01*
X14773801Y-10395984D02*
X14792849Y-10386460D01*
X14792849Y-10386460D02*
X14802372Y-10367412D01*
X14802372Y-10367412D02*
X14802372Y-10357889D01*
X14802372Y-10357889D02*
X14792849Y-10338841D01*
X14792849Y-10338841D02*
X14773801Y-10329317D01*
X14773801Y-10329317D02*
X14745230Y-10329317D01*
X14745230Y-10329317D02*
X14726182Y-10319793D01*
X14726182Y-10319793D02*
X14716658Y-10300746D01*
X14716658Y-10300746D02*
X14716658Y-10291222D01*
X14716658Y-10291222D02*
X14726182Y-10272174D01*
X14726182Y-10272174D02*
X14745230Y-10262650D01*
X14745230Y-10262650D02*
X14773801Y-10262650D01*
X14773801Y-10262650D02*
X14792849Y-10272174D01*
X14869039Y-10472174D02*
X14878563Y-10462650D01*
X14878563Y-10462650D02*
X14897611Y-10434079D01*
X14897611Y-10434079D02*
X14907134Y-10415031D01*
X14907134Y-10415031D02*
X14916658Y-10386460D01*
X14916658Y-10386460D02*
X14926182Y-10338841D01*
X14926182Y-10338841D02*
X14926182Y-10300746D01*
X14926182Y-10300746D02*
X14916658Y-10253127D01*
X14916658Y-10253127D02*
X14907134Y-10224555D01*
X14907134Y-10224555D02*
X14897611Y-10205508D01*
X14897611Y-10205508D02*
X14878563Y-10176936D01*
X14878563Y-10176936D02*
X14869039Y-10167412D01*
X9803500Y-10468500D02*
X9803500Y-10668500D01*
X9703500Y-10568500D02*
X9903500Y-10568500D01*
X10154753Y-10479031D02*
X10164277Y-10469508D01*
X10164277Y-10469508D02*
X10183324Y-10459984D01*
X10183324Y-10459984D02*
X10230944Y-10459984D01*
X10230944Y-10459984D02*
X10249991Y-10469508D01*
X10249991Y-10469508D02*
X10259515Y-10479031D01*
X10259515Y-10479031D02*
X10269039Y-10498079D01*
X10269039Y-10498079D02*
X10269039Y-10517127D01*
X10269039Y-10517127D02*
X10259515Y-10545698D01*
X10259515Y-10545698D02*
X10145229Y-10659984D01*
X10145229Y-10659984D02*
X10269039Y-10659984D01*
X10354753Y-10640936D02*
X10364277Y-10650460D01*
X10364277Y-10650460D02*
X10354753Y-10659984D01*
X10354753Y-10659984D02*
X10345229Y-10650460D01*
X10345229Y-10650460D02*
X10354753Y-10640936D01*
X10354753Y-10640936D02*
X10354753Y-10659984D01*
X10430944Y-10459984D02*
X10564277Y-10459984D01*
X10564277Y-10459984D02*
X10478563Y-10659984D01*
X10678563Y-10459984D02*
X10697610Y-10459984D01*
X10697610Y-10459984D02*
X10716658Y-10469508D01*
X10716658Y-10469508D02*
X10726182Y-10479031D01*
X10726182Y-10479031D02*
X10735705Y-10498079D01*
X10735705Y-10498079D02*
X10745229Y-10536174D01*
X10745229Y-10536174D02*
X10745229Y-10583793D01*
X10745229Y-10583793D02*
X10735705Y-10621889D01*
X10735705Y-10621889D02*
X10726182Y-10640936D01*
X10726182Y-10640936D02*
X10716658Y-10650460D01*
X10716658Y-10650460D02*
X10697610Y-10659984D01*
X10697610Y-10659984D02*
X10678563Y-10659984D01*
X10678563Y-10659984D02*
X10659515Y-10650460D01*
X10659515Y-10650460D02*
X10649991Y-10640936D01*
X10649991Y-10640936D02*
X10640467Y-10621889D01*
X10640467Y-10621889D02*
X10630944Y-10583793D01*
X10630944Y-10583793D02*
X10630944Y-10536174D01*
X10630944Y-10536174D02*
X10640467Y-10498079D01*
X10640467Y-10498079D02*
X10649991Y-10479031D01*
X10649991Y-10479031D02*
X10659515Y-10469508D01*
X10659515Y-10469508D02*
X10678563Y-10459984D01*
X10869039Y-10459984D02*
X10888086Y-10459984D01*
X10888086Y-10459984D02*
X10907134Y-10469508D01*
X10907134Y-10469508D02*
X10916658Y-10479031D01*
X10916658Y-10479031D02*
X10926182Y-10498079D01*
X10926182Y-10498079D02*
X10935705Y-10536174D01*
X10935705Y-10536174D02*
X10935705Y-10583793D01*
X10935705Y-10583793D02*
X10926182Y-10621889D01*
X10926182Y-10621889D02*
X10916658Y-10640936D01*
X10916658Y-10640936D02*
X10907134Y-10650460D01*
X10907134Y-10650460D02*
X10888086Y-10659984D01*
X10888086Y-10659984D02*
X10869039Y-10659984D01*
X10869039Y-10659984D02*
X10849991Y-10650460D01*
X10849991Y-10650460D02*
X10840467Y-10640936D01*
X10840467Y-10640936D02*
X10830944Y-10621889D01*
X10830944Y-10621889D02*
X10821420Y-10583793D01*
X10821420Y-10583793D02*
X10821420Y-10536174D01*
X10821420Y-10536174D02*
X10830944Y-10498079D01*
X10830944Y-10498079D02*
X10840467Y-10479031D01*
X10840467Y-10479031D02*
X10849991Y-10469508D01*
X10849991Y-10469508D02*
X10869039Y-10459984D01*
X11021420Y-10659984D02*
X11021420Y-10526650D01*
X11021420Y-10545698D02*
X11030944Y-10536174D01*
X11030944Y-10536174D02*
X11049991Y-10526650D01*
X11049991Y-10526650D02*
X11078563Y-10526650D01*
X11078563Y-10526650D02*
X11097610Y-10536174D01*
X11097610Y-10536174D02*
X11107134Y-10555222D01*
X11107134Y-10555222D02*
X11107134Y-10659984D01*
X11107134Y-10555222D02*
X11116658Y-10536174D01*
X11116658Y-10536174D02*
X11135705Y-10526650D01*
X11135705Y-10526650D02*
X11164277Y-10526650D01*
X11164277Y-10526650D02*
X11183325Y-10536174D01*
X11183325Y-10536174D02*
X11192848Y-10555222D01*
X11192848Y-10555222D02*
X11192848Y-10659984D01*
X11288086Y-10659984D02*
X11288086Y-10526650D01*
X11288086Y-10545698D02*
X11297610Y-10536174D01*
X11297610Y-10536174D02*
X11316658Y-10526650D01*
X11316658Y-10526650D02*
X11345229Y-10526650D01*
X11345229Y-10526650D02*
X11364277Y-10536174D01*
X11364277Y-10536174D02*
X11373801Y-10555222D01*
X11373801Y-10555222D02*
X11373801Y-10659984D01*
X11373801Y-10555222D02*
X11383324Y-10536174D01*
X11383324Y-10536174D02*
X11402372Y-10526650D01*
X11402372Y-10526650D02*
X11430943Y-10526650D01*
X11430943Y-10526650D02*
X11449991Y-10536174D01*
X11449991Y-10536174D02*
X11459515Y-10555222D01*
X11459515Y-10555222D02*
X11459515Y-10659984D01*
X11849991Y-10450460D02*
X11678563Y-10707603D01*
X12107134Y-10459984D02*
X12126182Y-10459984D01*
X12126182Y-10459984D02*
X12145229Y-10469508D01*
X12145229Y-10469508D02*
X12154753Y-10479031D01*
X12154753Y-10479031D02*
X12164277Y-10498079D01*
X12164277Y-10498079D02*
X12173801Y-10536174D01*
X12173801Y-10536174D02*
X12173801Y-10583793D01*
X12173801Y-10583793D02*
X12164277Y-10621889D01*
X12164277Y-10621889D02*
X12154753Y-10640936D01*
X12154753Y-10640936D02*
X12145229Y-10650460D01*
X12145229Y-10650460D02*
X12126182Y-10659984D01*
X12126182Y-10659984D02*
X12107134Y-10659984D01*
X12107134Y-10659984D02*
X12088086Y-10650460D01*
X12088086Y-10650460D02*
X12078563Y-10640936D01*
X12078563Y-10640936D02*
X12069039Y-10621889D01*
X12069039Y-10621889D02*
X12059515Y-10583793D01*
X12059515Y-10583793D02*
X12059515Y-10536174D01*
X12059515Y-10536174D02*
X12069039Y-10498079D01*
X12069039Y-10498079D02*
X12078563Y-10479031D01*
X12078563Y-10479031D02*
X12088086Y-10469508D01*
X12088086Y-10469508D02*
X12107134Y-10459984D01*
X12259515Y-10640936D02*
X12269039Y-10650460D01*
X12269039Y-10650460D02*
X12259515Y-10659984D01*
X12259515Y-10659984D02*
X12249991Y-10650460D01*
X12249991Y-10650460D02*
X12259515Y-10640936D01*
X12259515Y-10640936D02*
X12259515Y-10659984D01*
X12459515Y-10659984D02*
X12345229Y-10659984D01*
X12402372Y-10659984D02*
X12402372Y-10459984D01*
X12402372Y-10459984D02*
X12383325Y-10488555D01*
X12383325Y-10488555D02*
X12364277Y-10507603D01*
X12364277Y-10507603D02*
X12345229Y-10517127D01*
X12583325Y-10459984D02*
X12602372Y-10459984D01*
X12602372Y-10459984D02*
X12621420Y-10469508D01*
X12621420Y-10469508D02*
X12630944Y-10479031D01*
X12630944Y-10479031D02*
X12640467Y-10498079D01*
X12640467Y-10498079D02*
X12649991Y-10536174D01*
X12649991Y-10536174D02*
X12649991Y-10583793D01*
X12649991Y-10583793D02*
X12640467Y-10621889D01*
X12640467Y-10621889D02*
X12630944Y-10640936D01*
X12630944Y-10640936D02*
X12621420Y-10650460D01*
X12621420Y-10650460D02*
X12602372Y-10659984D01*
X12602372Y-10659984D02*
X12583325Y-10659984D01*
X12583325Y-10659984D02*
X12564277Y-10650460D01*
X12564277Y-10650460D02*
X12554753Y-10640936D01*
X12554753Y-10640936D02*
X12545229Y-10621889D01*
X12545229Y-10621889D02*
X12535706Y-10583793D01*
X12535706Y-10583793D02*
X12535706Y-10536174D01*
X12535706Y-10536174D02*
X12545229Y-10498079D01*
X12545229Y-10498079D02*
X12554753Y-10479031D01*
X12554753Y-10479031D02*
X12564277Y-10469508D01*
X12564277Y-10469508D02*
X12583325Y-10459984D01*
X12821420Y-10459984D02*
X12783325Y-10459984D01*
X12783325Y-10459984D02*
X12764277Y-10469508D01*
X12764277Y-10469508D02*
X12754753Y-10479031D01*
X12754753Y-10479031D02*
X12735706Y-10507603D01*
X12735706Y-10507603D02*
X12726182Y-10545698D01*
X12726182Y-10545698D02*
X12726182Y-10621889D01*
X12726182Y-10621889D02*
X12735706Y-10640936D01*
X12735706Y-10640936D02*
X12745229Y-10650460D01*
X12745229Y-10650460D02*
X12764277Y-10659984D01*
X12764277Y-10659984D02*
X12802372Y-10659984D01*
X12802372Y-10659984D02*
X12821420Y-10650460D01*
X12821420Y-10650460D02*
X12830944Y-10640936D01*
X12830944Y-10640936D02*
X12840467Y-10621889D01*
X12840467Y-10621889D02*
X12840467Y-10574270D01*
X12840467Y-10574270D02*
X12830944Y-10555222D01*
X12830944Y-10555222D02*
X12821420Y-10545698D01*
X12821420Y-10545698D02*
X12802372Y-10536174D01*
X12802372Y-10536174D02*
X12764277Y-10536174D01*
X12764277Y-10536174D02*
X12745229Y-10545698D01*
X12745229Y-10545698D02*
X12735706Y-10555222D01*
X12735706Y-10555222D02*
X12726182Y-10574270D01*
X12907134Y-10459984D02*
X13030944Y-10459984D01*
X13030944Y-10459984D02*
X12964277Y-10536174D01*
X12964277Y-10536174D02*
X12992848Y-10536174D01*
X12992848Y-10536174D02*
X13011896Y-10545698D01*
X13011896Y-10545698D02*
X13021420Y-10555222D01*
X13021420Y-10555222D02*
X13030944Y-10574270D01*
X13030944Y-10574270D02*
X13030944Y-10621889D01*
X13030944Y-10621889D02*
X13021420Y-10640936D01*
X13021420Y-10640936D02*
X13011896Y-10650460D01*
X13011896Y-10650460D02*
X12992848Y-10659984D01*
X12992848Y-10659984D02*
X12935706Y-10659984D01*
X12935706Y-10659984D02*
X12916658Y-10650460D01*
X12916658Y-10650460D02*
X12907134Y-10640936D01*
X13107134Y-10459984D02*
X13107134Y-10498079D01*
X13183325Y-10459984D02*
X13183325Y-10498079D01*
X13478563Y-10736174D02*
X13469039Y-10726650D01*
X13469039Y-10726650D02*
X13449991Y-10698079D01*
X13449991Y-10698079D02*
X13440468Y-10679031D01*
X13440468Y-10679031D02*
X13430944Y-10650460D01*
X13430944Y-10650460D02*
X13421420Y-10602841D01*
X13421420Y-10602841D02*
X13421420Y-10564746D01*
X13421420Y-10564746D02*
X13430944Y-10517127D01*
X13430944Y-10517127D02*
X13440468Y-10488555D01*
X13440468Y-10488555D02*
X13449991Y-10469508D01*
X13449991Y-10469508D02*
X13469039Y-10440936D01*
X13469039Y-10440936D02*
X13478563Y-10431412D01*
X13640468Y-10526650D02*
X13640468Y-10659984D01*
X13592848Y-10450460D02*
X13545229Y-10593317D01*
X13545229Y-10593317D02*
X13669039Y-10593317D01*
X13897610Y-10659984D02*
X13897610Y-10459984D01*
X13983325Y-10659984D02*
X13983325Y-10555222D01*
X13983325Y-10555222D02*
X13973801Y-10536174D01*
X13973801Y-10536174D02*
X13954753Y-10526650D01*
X13954753Y-10526650D02*
X13926182Y-10526650D01*
X13926182Y-10526650D02*
X13907134Y-10536174D01*
X13907134Y-10536174D02*
X13897610Y-10545698D01*
X14107134Y-10659984D02*
X14088087Y-10650460D01*
X14088087Y-10650460D02*
X14078563Y-10640936D01*
X14078563Y-10640936D02*
X14069039Y-10621889D01*
X14069039Y-10621889D02*
X14069039Y-10564746D01*
X14069039Y-10564746D02*
X14078563Y-10545698D01*
X14078563Y-10545698D02*
X14088087Y-10536174D01*
X14088087Y-10536174D02*
X14107134Y-10526650D01*
X14107134Y-10526650D02*
X14135706Y-10526650D01*
X14135706Y-10526650D02*
X14154753Y-10536174D01*
X14154753Y-10536174D02*
X14164277Y-10545698D01*
X14164277Y-10545698D02*
X14173801Y-10564746D01*
X14173801Y-10564746D02*
X14173801Y-10621889D01*
X14173801Y-10621889D02*
X14164277Y-10640936D01*
X14164277Y-10640936D02*
X14154753Y-10650460D01*
X14154753Y-10650460D02*
X14135706Y-10659984D01*
X14135706Y-10659984D02*
X14107134Y-10659984D01*
X14288087Y-10659984D02*
X14269039Y-10650460D01*
X14269039Y-10650460D02*
X14259515Y-10631412D01*
X14259515Y-10631412D02*
X14259515Y-10459984D01*
X14440468Y-10650460D02*
X14421420Y-10659984D01*
X14421420Y-10659984D02*
X14383325Y-10659984D01*
X14383325Y-10659984D02*
X14364277Y-10650460D01*
X14364277Y-10650460D02*
X14354753Y-10631412D01*
X14354753Y-10631412D02*
X14354753Y-10555222D01*
X14354753Y-10555222D02*
X14364277Y-10536174D01*
X14364277Y-10536174D02*
X14383325Y-10526650D01*
X14383325Y-10526650D02*
X14421420Y-10526650D01*
X14421420Y-10526650D02*
X14440468Y-10536174D01*
X14440468Y-10536174D02*
X14449991Y-10555222D01*
X14449991Y-10555222D02*
X14449991Y-10574270D01*
X14449991Y-10574270D02*
X14354753Y-10593317D01*
X14526182Y-10650460D02*
X14545230Y-10659984D01*
X14545230Y-10659984D02*
X14583325Y-10659984D01*
X14583325Y-10659984D02*
X14602372Y-10650460D01*
X14602372Y-10650460D02*
X14611896Y-10631412D01*
X14611896Y-10631412D02*
X14611896Y-10621889D01*
X14611896Y-10621889D02*
X14602372Y-10602841D01*
X14602372Y-10602841D02*
X14583325Y-10593317D01*
X14583325Y-10593317D02*
X14554753Y-10593317D01*
X14554753Y-10593317D02*
X14535706Y-10583793D01*
X14535706Y-10583793D02*
X14526182Y-10564746D01*
X14526182Y-10564746D02*
X14526182Y-10555222D01*
X14526182Y-10555222D02*
X14535706Y-10536174D01*
X14535706Y-10536174D02*
X14554753Y-10526650D01*
X14554753Y-10526650D02*
X14583325Y-10526650D01*
X14583325Y-10526650D02*
X14602372Y-10536174D01*
X14678563Y-10736174D02*
X14688087Y-10726650D01*
X14688087Y-10726650D02*
X14707134Y-10698079D01*
X14707134Y-10698079D02*
X14716658Y-10679031D01*
X14716658Y-10679031D02*
X14726182Y-10650460D01*
X14726182Y-10650460D02*
X14735706Y-10602841D01*
X14735706Y-10602841D02*
X14735706Y-10564746D01*
X14735706Y-10564746D02*
X14726182Y-10517127D01*
X14726182Y-10517127D02*
X14716658Y-10488555D01*
X14716658Y-10488555D02*
X14707134Y-10469508D01*
X14707134Y-10469508D02*
X14688087Y-10440936D01*
X14688087Y-10440936D02*
X14678563Y-10431412D01*
X15040468Y-10736174D02*
X15030944Y-10726650D01*
X15030944Y-10726650D02*
X15011896Y-10698079D01*
X15011896Y-10698079D02*
X15002372Y-10679031D01*
X15002372Y-10679031D02*
X14992849Y-10650460D01*
X14992849Y-10650460D02*
X14983325Y-10602841D01*
X14983325Y-10602841D02*
X14983325Y-10564746D01*
X14983325Y-10564746D02*
X14992849Y-10517127D01*
X14992849Y-10517127D02*
X15002372Y-10488555D01*
X15002372Y-10488555D02*
X15011896Y-10469508D01*
X15011896Y-10469508D02*
X15030944Y-10440936D01*
X15030944Y-10440936D02*
X15040468Y-10431412D01*
X15116658Y-10526650D02*
X15116658Y-10659984D01*
X15116658Y-10545698D02*
X15126182Y-10536174D01*
X15126182Y-10536174D02*
X15145230Y-10526650D01*
X15145230Y-10526650D02*
X15173801Y-10526650D01*
X15173801Y-10526650D02*
X15192849Y-10536174D01*
X15192849Y-10536174D02*
X15202372Y-10555222D01*
X15202372Y-10555222D02*
X15202372Y-10659984D01*
X15326182Y-10659984D02*
X15307134Y-10650460D01*
X15307134Y-10650460D02*
X15297611Y-10640936D01*
X15297611Y-10640936D02*
X15288087Y-10621889D01*
X15288087Y-10621889D02*
X15288087Y-10564746D01*
X15288087Y-10564746D02*
X15297611Y-10545698D01*
X15297611Y-10545698D02*
X15307134Y-10536174D01*
X15307134Y-10536174D02*
X15326182Y-10526650D01*
X15326182Y-10526650D02*
X15354753Y-10526650D01*
X15354753Y-10526650D02*
X15373801Y-10536174D01*
X15373801Y-10536174D02*
X15383325Y-10545698D01*
X15383325Y-10545698D02*
X15392849Y-10564746D01*
X15392849Y-10564746D02*
X15392849Y-10621889D01*
X15392849Y-10621889D02*
X15383325Y-10640936D01*
X15383325Y-10640936D02*
X15373801Y-10650460D01*
X15373801Y-10650460D02*
X15354753Y-10659984D01*
X15354753Y-10659984D02*
X15326182Y-10659984D01*
X15449992Y-10526650D02*
X15526182Y-10526650D01*
X15478563Y-10459984D02*
X15478563Y-10631412D01*
X15478563Y-10631412D02*
X15488087Y-10650460D01*
X15488087Y-10650460D02*
X15507134Y-10659984D01*
X15507134Y-10659984D02*
X15526182Y-10659984D01*
X15745230Y-10526650D02*
X15745230Y-10726650D01*
X15745230Y-10536174D02*
X15764277Y-10526650D01*
X15764277Y-10526650D02*
X15802373Y-10526650D01*
X15802373Y-10526650D02*
X15821420Y-10536174D01*
X15821420Y-10536174D02*
X15830944Y-10545698D01*
X15830944Y-10545698D02*
X15840468Y-10564746D01*
X15840468Y-10564746D02*
X15840468Y-10621889D01*
X15840468Y-10621889D02*
X15830944Y-10640936D01*
X15830944Y-10640936D02*
X15821420Y-10650460D01*
X15821420Y-10650460D02*
X15802373Y-10659984D01*
X15802373Y-10659984D02*
X15764277Y-10659984D01*
X15764277Y-10659984D02*
X15745230Y-10650460D01*
X15954753Y-10659984D02*
X15935706Y-10650460D01*
X15935706Y-10650460D02*
X15926182Y-10631412D01*
X15926182Y-10631412D02*
X15926182Y-10459984D01*
X16116658Y-10659984D02*
X16116658Y-10555222D01*
X16116658Y-10555222D02*
X16107134Y-10536174D01*
X16107134Y-10536174D02*
X16088087Y-10526650D01*
X16088087Y-10526650D02*
X16049992Y-10526650D01*
X16049992Y-10526650D02*
X16030944Y-10536174D01*
X16116658Y-10650460D02*
X16097611Y-10659984D01*
X16097611Y-10659984D02*
X16049992Y-10659984D01*
X16049992Y-10659984D02*
X16030944Y-10650460D01*
X16030944Y-10650460D02*
X16021420Y-10631412D01*
X16021420Y-10631412D02*
X16021420Y-10612365D01*
X16021420Y-10612365D02*
X16030944Y-10593317D01*
X16030944Y-10593317D02*
X16049992Y-10583793D01*
X16049992Y-10583793D02*
X16097611Y-10583793D01*
X16097611Y-10583793D02*
X16116658Y-10574270D01*
X16183325Y-10526650D02*
X16259515Y-10526650D01*
X16211896Y-10459984D02*
X16211896Y-10631412D01*
X16211896Y-10631412D02*
X16221420Y-10650460D01*
X16221420Y-10650460D02*
X16240468Y-10659984D01*
X16240468Y-10659984D02*
X16259515Y-10659984D01*
X16402373Y-10650460D02*
X16383325Y-10659984D01*
X16383325Y-10659984D02*
X16345230Y-10659984D01*
X16345230Y-10659984D02*
X16326182Y-10650460D01*
X16326182Y-10650460D02*
X16316658Y-10631412D01*
X16316658Y-10631412D02*
X16316658Y-10555222D01*
X16316658Y-10555222D02*
X16326182Y-10536174D01*
X16326182Y-10536174D02*
X16345230Y-10526650D01*
X16345230Y-10526650D02*
X16383325Y-10526650D01*
X16383325Y-10526650D02*
X16402373Y-10536174D01*
X16402373Y-10536174D02*
X16411896Y-10555222D01*
X16411896Y-10555222D02*
X16411896Y-10574270D01*
X16411896Y-10574270D02*
X16316658Y-10593317D01*
X16583325Y-10659984D02*
X16583325Y-10459984D01*
X16583325Y-10650460D02*
X16564277Y-10659984D01*
X16564277Y-10659984D02*
X16526182Y-10659984D01*
X16526182Y-10659984D02*
X16507134Y-10650460D01*
X16507134Y-10650460D02*
X16497611Y-10640936D01*
X16497611Y-10640936D02*
X16488087Y-10621889D01*
X16488087Y-10621889D02*
X16488087Y-10564746D01*
X16488087Y-10564746D02*
X16497611Y-10545698D01*
X16497611Y-10545698D02*
X16507134Y-10536174D01*
X16507134Y-10536174D02*
X16526182Y-10526650D01*
X16526182Y-10526650D02*
X16564277Y-10526650D01*
X16564277Y-10526650D02*
X16583325Y-10536174D01*
X16659515Y-10736174D02*
X16669039Y-10726650D01*
X16669039Y-10726650D02*
X16688087Y-10698079D01*
X16688087Y-10698079D02*
X16697611Y-10679031D01*
X16697611Y-10679031D02*
X16707134Y-10650460D01*
X16707134Y-10650460D02*
X16716658Y-10602841D01*
X16716658Y-10602841D02*
X16716658Y-10564746D01*
X16716658Y-10564746D02*
X16707134Y-10517127D01*
X16707134Y-10517127D02*
X16697611Y-10488555D01*
X16697611Y-10488555D02*
X16688087Y-10469508D01*
X16688087Y-10469508D02*
X16669039Y-10440936D01*
X16669039Y-10440936D02*
X16659515Y-10431412D01*
M02*
