%TF.GenerationSoftware,KiCad,Pcbnew,9.0.4-9.0.4-0~ubuntu24.04.1*%
%TF.CreationDate,2025-09-18T23:07:20+09:00*%
%TF.ProjectId,romread-adapter,726f6d72-6561-4642-9d61-646170746572,0-0*%
%TF.SameCoordinates,Original*%
%TF.FileFunction,AssemblyDrawing,Top*%
%FSLAX46Y46*%
G04 Gerber Fmt 4.6, Leading zero omitted, Abs format (unit mm)*
G04 Created by KiCad (PCBNEW 9.0.4-9.0.4-0~ubuntu24.04.1) date 2025-09-18 23:07:20*
%MOMM*%
%LPD*%
G01*
G04 APERTURE LIST*
%ADD10C,0.150000*%
%ADD11C,0.114000*%
%ADD12C,0.100000*%
G04 APERTURE END LIST*
D10*
X196304819Y-86420235D02*
X197019104Y-86420235D01*
X197019104Y-86420235D02*
X197161961Y-86467854D01*
X197161961Y-86467854D02*
X197257200Y-86563092D01*
X197257200Y-86563092D02*
X197304819Y-86705949D01*
X197304819Y-86705949D02*
X197304819Y-86801187D01*
X197304819Y-85944044D02*
X196304819Y-85944044D01*
X196781009Y-85944044D02*
X196781009Y-85372616D01*
X197304819Y-85372616D02*
X196304819Y-85372616D01*
X196638152Y-84467854D02*
X197304819Y-84467854D01*
X196257200Y-84705949D02*
X196971485Y-84944044D01*
X196971485Y-84944044D02*
X196971485Y-84324997D01*
X197304819Y-83420235D02*
X197304819Y-83991663D01*
X197304819Y-83705949D02*
X196304819Y-83705949D01*
X196304819Y-83705949D02*
X196447676Y-83801187D01*
X196447676Y-83801187D02*
X196542914Y-83896425D01*
X196542914Y-83896425D02*
X196590533Y-83991663D01*
X137884819Y-101663333D02*
X138599104Y-101663333D01*
X138599104Y-101663333D02*
X138741961Y-101710952D01*
X138741961Y-101710952D02*
X138837200Y-101806190D01*
X138837200Y-101806190D02*
X138884819Y-101949047D01*
X138884819Y-101949047D02*
X138884819Y-102044285D01*
X138884819Y-101187142D02*
X137884819Y-101187142D01*
X138361009Y-101187142D02*
X138361009Y-100615714D01*
X138884819Y-100615714D02*
X137884819Y-100615714D01*
X137884819Y-100234761D02*
X137884819Y-99615714D01*
X137884819Y-99615714D02*
X138265771Y-99949047D01*
X138265771Y-99949047D02*
X138265771Y-99806190D01*
X138265771Y-99806190D02*
X138313390Y-99710952D01*
X138313390Y-99710952D02*
X138361009Y-99663333D01*
X138361009Y-99663333D02*
X138456247Y-99615714D01*
X138456247Y-99615714D02*
X138694342Y-99615714D01*
X138694342Y-99615714D02*
X138789580Y-99663333D01*
X138789580Y-99663333D02*
X138837200Y-99710952D01*
X138837200Y-99710952D02*
X138884819Y-99806190D01*
X138884819Y-99806190D02*
X138884819Y-100091904D01*
X138884819Y-100091904D02*
X138837200Y-100187142D01*
X138837200Y-100187142D02*
X138789580Y-100234761D01*
X137980057Y-99234761D02*
X137932438Y-99187142D01*
X137932438Y-99187142D02*
X137884819Y-99091904D01*
X137884819Y-99091904D02*
X137884819Y-98853809D01*
X137884819Y-98853809D02*
X137932438Y-98758571D01*
X137932438Y-98758571D02*
X137980057Y-98710952D01*
X137980057Y-98710952D02*
X138075295Y-98663333D01*
X138075295Y-98663333D02*
X138170533Y-98663333D01*
X138170533Y-98663333D02*
X138313390Y-98710952D01*
X138313390Y-98710952D02*
X138884819Y-99282380D01*
X138884819Y-99282380D02*
X138884819Y-98663333D01*
X196304819Y-101660235D02*
X197019104Y-101660235D01*
X197019104Y-101660235D02*
X197161961Y-101707854D01*
X197161961Y-101707854D02*
X197257200Y-101803092D01*
X197257200Y-101803092D02*
X197304819Y-101945949D01*
X197304819Y-101945949D02*
X197304819Y-102041187D01*
X197304819Y-101184044D02*
X196304819Y-101184044D01*
X196781009Y-101184044D02*
X196781009Y-100612616D01*
X197304819Y-100612616D02*
X196304819Y-100612616D01*
X196638152Y-99707854D02*
X197304819Y-99707854D01*
X196257200Y-99945949D02*
X196971485Y-100184044D01*
X196971485Y-100184044D02*
X196971485Y-99564997D01*
X196400057Y-99231663D02*
X196352438Y-99184044D01*
X196352438Y-99184044D02*
X196304819Y-99088806D01*
X196304819Y-99088806D02*
X196304819Y-98850711D01*
X196304819Y-98850711D02*
X196352438Y-98755473D01*
X196352438Y-98755473D02*
X196400057Y-98707854D01*
X196400057Y-98707854D02*
X196495295Y-98660235D01*
X196495295Y-98660235D02*
X196590533Y-98660235D01*
X196590533Y-98660235D02*
X196733390Y-98707854D01*
X196733390Y-98707854D02*
X197304819Y-99279282D01*
X197304819Y-99279282D02*
X197304819Y-98660235D01*
X147732857Y-54064819D02*
X147732857Y-54779104D01*
X147732857Y-54779104D02*
X147685238Y-54921961D01*
X147685238Y-54921961D02*
X147590000Y-55017200D01*
X147590000Y-55017200D02*
X147447143Y-55064819D01*
X147447143Y-55064819D02*
X147351905Y-55064819D01*
X148209048Y-55064819D02*
X148209048Y-54064819D01*
X148209048Y-54541009D02*
X148780476Y-54541009D01*
X148780476Y-55064819D02*
X148780476Y-54064819D01*
X149780476Y-55064819D02*
X149209048Y-55064819D01*
X149494762Y-55064819D02*
X149494762Y-54064819D01*
X149494762Y-54064819D02*
X149399524Y-54207676D01*
X149399524Y-54207676D02*
X149304286Y-54302914D01*
X149304286Y-54302914D02*
X149209048Y-54350533D01*
X177254819Y-108780235D02*
X177969104Y-108780235D01*
X177969104Y-108780235D02*
X178111961Y-108827854D01*
X178111961Y-108827854D02*
X178207200Y-108923092D01*
X178207200Y-108923092D02*
X178254819Y-109065949D01*
X178254819Y-109065949D02*
X178254819Y-109161187D01*
X178254819Y-107732616D02*
X177778628Y-108065949D01*
X178254819Y-108304044D02*
X177254819Y-108304044D01*
X177254819Y-108304044D02*
X177254819Y-107923092D01*
X177254819Y-107923092D02*
X177302438Y-107827854D01*
X177302438Y-107827854D02*
X177350057Y-107780235D01*
X177350057Y-107780235D02*
X177445295Y-107732616D01*
X177445295Y-107732616D02*
X177588152Y-107732616D01*
X177588152Y-107732616D02*
X177683390Y-107780235D01*
X177683390Y-107780235D02*
X177731009Y-107827854D01*
X177731009Y-107827854D02*
X177778628Y-107923092D01*
X177778628Y-107923092D02*
X177778628Y-108304044D01*
X177254819Y-107399282D02*
X177254819Y-106780235D01*
X177254819Y-106780235D02*
X177635771Y-107113568D01*
X177635771Y-107113568D02*
X177635771Y-106970711D01*
X177635771Y-106970711D02*
X177683390Y-106875473D01*
X177683390Y-106875473D02*
X177731009Y-106827854D01*
X177731009Y-106827854D02*
X177826247Y-106780235D01*
X177826247Y-106780235D02*
X178064342Y-106780235D01*
X178064342Y-106780235D02*
X178159580Y-106827854D01*
X178159580Y-106827854D02*
X178207200Y-106875473D01*
X178207200Y-106875473D02*
X178254819Y-106970711D01*
X178254819Y-106970711D02*
X178254819Y-107256425D01*
X178254819Y-107256425D02*
X178207200Y-107351663D01*
X178207200Y-107351663D02*
X178159580Y-107399282D01*
X154394819Y-122777142D02*
X155109104Y-122777142D01*
X155109104Y-122777142D02*
X155251961Y-122824761D01*
X155251961Y-122824761D02*
X155347200Y-122919999D01*
X155347200Y-122919999D02*
X155394819Y-123062856D01*
X155394819Y-123062856D02*
X155394819Y-123158094D01*
X155394819Y-122300951D02*
X154394819Y-122300951D01*
X154871009Y-122300951D02*
X154871009Y-121729523D01*
X155394819Y-121729523D02*
X154394819Y-121729523D01*
X154490057Y-121300951D02*
X154442438Y-121253332D01*
X154442438Y-121253332D02*
X154394819Y-121158094D01*
X154394819Y-121158094D02*
X154394819Y-120919999D01*
X154394819Y-120919999D02*
X154442438Y-120824761D01*
X154442438Y-120824761D02*
X154490057Y-120777142D01*
X154490057Y-120777142D02*
X154585295Y-120729523D01*
X154585295Y-120729523D02*
X154680533Y-120729523D01*
X154680533Y-120729523D02*
X154823390Y-120777142D01*
X154823390Y-120777142D02*
X155394819Y-121348570D01*
X155394819Y-121348570D02*
X155394819Y-120729523D01*
X179006666Y-69304819D02*
X179006666Y-70019104D01*
X179006666Y-70019104D02*
X178959047Y-70161961D01*
X178959047Y-70161961D02*
X178863809Y-70257200D01*
X178863809Y-70257200D02*
X178720952Y-70304819D01*
X178720952Y-70304819D02*
X178625714Y-70304819D01*
X179482857Y-70304819D02*
X179482857Y-69304819D01*
X179482857Y-69781009D02*
X180054285Y-69781009D01*
X180054285Y-70304819D02*
X180054285Y-69304819D01*
X181054285Y-70304819D02*
X180482857Y-70304819D01*
X180768571Y-70304819D02*
X180768571Y-69304819D01*
X180768571Y-69304819D02*
X180673333Y-69447676D01*
X180673333Y-69447676D02*
X180578095Y-69542914D01*
X180578095Y-69542914D02*
X180482857Y-69590533D01*
X181911428Y-69638152D02*
X181911428Y-70304819D01*
X181673333Y-69257200D02*
X181435238Y-69971485D01*
X181435238Y-69971485D02*
X182054285Y-69971485D01*
X112445666Y-100464819D02*
X112445666Y-101179104D01*
X112445666Y-101179104D02*
X112398047Y-101321961D01*
X112398047Y-101321961D02*
X112302809Y-101417200D01*
X112302809Y-101417200D02*
X112159952Y-101464819D01*
X112159952Y-101464819D02*
X112064714Y-101464819D01*
X113493285Y-101464819D02*
X113159952Y-100988628D01*
X112921857Y-101464819D02*
X112921857Y-100464819D01*
X112921857Y-100464819D02*
X113302809Y-100464819D01*
X113302809Y-100464819D02*
X113398047Y-100512438D01*
X113398047Y-100512438D02*
X113445666Y-100560057D01*
X113445666Y-100560057D02*
X113493285Y-100655295D01*
X113493285Y-100655295D02*
X113493285Y-100798152D01*
X113493285Y-100798152D02*
X113445666Y-100893390D01*
X113445666Y-100893390D02*
X113398047Y-100941009D01*
X113398047Y-100941009D02*
X113302809Y-100988628D01*
X113302809Y-100988628D02*
X112921857Y-100988628D01*
X114445666Y-101464819D02*
X113874238Y-101464819D01*
X114159952Y-101464819D02*
X114159952Y-100464819D01*
X114159952Y-100464819D02*
X114064714Y-100607676D01*
X114064714Y-100607676D02*
X113969476Y-100702914D01*
X113969476Y-100702914D02*
X113874238Y-100750533D01*
X179794819Y-104994044D02*
X180509104Y-104994044D01*
X180509104Y-104994044D02*
X180651961Y-105041663D01*
X180651961Y-105041663D02*
X180747200Y-105136901D01*
X180747200Y-105136901D02*
X180794819Y-105279758D01*
X180794819Y-105279758D02*
X180794819Y-105374996D01*
X180794819Y-104517853D02*
X179794819Y-104517853D01*
X180271009Y-104517853D02*
X180271009Y-103946425D01*
X180794819Y-103946425D02*
X179794819Y-103946425D01*
X179794819Y-103041663D02*
X179794819Y-103232139D01*
X179794819Y-103232139D02*
X179842438Y-103327377D01*
X179842438Y-103327377D02*
X179890057Y-103374996D01*
X179890057Y-103374996D02*
X180032914Y-103470234D01*
X180032914Y-103470234D02*
X180223390Y-103517853D01*
X180223390Y-103517853D02*
X180604342Y-103517853D01*
X180604342Y-103517853D02*
X180699580Y-103470234D01*
X180699580Y-103470234D02*
X180747200Y-103422615D01*
X180747200Y-103422615D02*
X180794819Y-103327377D01*
X180794819Y-103327377D02*
X180794819Y-103136901D01*
X180794819Y-103136901D02*
X180747200Y-103041663D01*
X180747200Y-103041663D02*
X180699580Y-102994044D01*
X180699580Y-102994044D02*
X180604342Y-102946425D01*
X180604342Y-102946425D02*
X180366247Y-102946425D01*
X180366247Y-102946425D02*
X180271009Y-102994044D01*
X180271009Y-102994044D02*
X180223390Y-103041663D01*
X180223390Y-103041663D02*
X180175771Y-103136901D01*
X180175771Y-103136901D02*
X180175771Y-103327377D01*
X180175771Y-103327377D02*
X180223390Y-103422615D01*
X180223390Y-103422615D02*
X180271009Y-103470234D01*
X180271009Y-103470234D02*
X180366247Y-103517853D01*
X196304819Y-116900235D02*
X197019104Y-116900235D01*
X197019104Y-116900235D02*
X197161961Y-116947854D01*
X197161961Y-116947854D02*
X197257200Y-117043092D01*
X197257200Y-117043092D02*
X197304819Y-117185949D01*
X197304819Y-117185949D02*
X197304819Y-117281187D01*
X197304819Y-116424044D02*
X196304819Y-116424044D01*
X196781009Y-116424044D02*
X196781009Y-115852616D01*
X197304819Y-115852616D02*
X196304819Y-115852616D01*
X196638152Y-114947854D02*
X197304819Y-114947854D01*
X196257200Y-115185949D02*
X196971485Y-115424044D01*
X196971485Y-115424044D02*
X196971485Y-114804997D01*
X196304819Y-114519282D02*
X196304819Y-113900235D01*
X196304819Y-113900235D02*
X196685771Y-114233568D01*
X196685771Y-114233568D02*
X196685771Y-114090711D01*
X196685771Y-114090711D02*
X196733390Y-113995473D01*
X196733390Y-113995473D02*
X196781009Y-113947854D01*
X196781009Y-113947854D02*
X196876247Y-113900235D01*
X196876247Y-113900235D02*
X197114342Y-113900235D01*
X197114342Y-113900235D02*
X197209580Y-113947854D01*
X197209580Y-113947854D02*
X197257200Y-113995473D01*
X197257200Y-113995473D02*
X197304819Y-114090711D01*
X197304819Y-114090711D02*
X197304819Y-114376425D01*
X197304819Y-114376425D02*
X197257200Y-114471663D01*
X197257200Y-114471663D02*
X197209580Y-114519282D01*
X171386666Y-145504819D02*
X171386666Y-146219104D01*
X171386666Y-146219104D02*
X171339047Y-146361961D01*
X171339047Y-146361961D02*
X171243809Y-146457200D01*
X171243809Y-146457200D02*
X171100952Y-146504819D01*
X171100952Y-146504819D02*
X171005714Y-146504819D01*
X171862857Y-146504819D02*
X171862857Y-145504819D01*
X171862857Y-145981009D02*
X172434285Y-145981009D01*
X172434285Y-146504819D02*
X172434285Y-145504819D01*
X172862857Y-145600057D02*
X172910476Y-145552438D01*
X172910476Y-145552438D02*
X173005714Y-145504819D01*
X173005714Y-145504819D02*
X173243809Y-145504819D01*
X173243809Y-145504819D02*
X173339047Y-145552438D01*
X173339047Y-145552438D02*
X173386666Y-145600057D01*
X173386666Y-145600057D02*
X173434285Y-145695295D01*
X173434285Y-145695295D02*
X173434285Y-145790533D01*
X173434285Y-145790533D02*
X173386666Y-145933390D01*
X173386666Y-145933390D02*
X172815238Y-146504819D01*
X172815238Y-146504819D02*
X173434285Y-146504819D01*
X173767619Y-145504819D02*
X174386666Y-145504819D01*
X174386666Y-145504819D02*
X174053333Y-145885771D01*
X174053333Y-145885771D02*
X174196190Y-145885771D01*
X174196190Y-145885771D02*
X174291428Y-145933390D01*
X174291428Y-145933390D02*
X174339047Y-145981009D01*
X174339047Y-145981009D02*
X174386666Y-146076247D01*
X174386666Y-146076247D02*
X174386666Y-146314342D01*
X174386666Y-146314342D02*
X174339047Y-146409580D01*
X174339047Y-146409580D02*
X174291428Y-146457200D01*
X174291428Y-146457200D02*
X174196190Y-146504819D01*
X174196190Y-146504819D02*
X173910476Y-146504819D01*
X173910476Y-146504819D02*
X173815238Y-146457200D01*
X173815238Y-146457200D02*
X173767619Y-146409580D01*
X156146666Y-145504819D02*
X156146666Y-146219104D01*
X156146666Y-146219104D02*
X156099047Y-146361961D01*
X156099047Y-146361961D02*
X156003809Y-146457200D01*
X156003809Y-146457200D02*
X155860952Y-146504819D01*
X155860952Y-146504819D02*
X155765714Y-146504819D01*
X156622857Y-146504819D02*
X156622857Y-145504819D01*
X156622857Y-145981009D02*
X157194285Y-145981009D01*
X157194285Y-146504819D02*
X157194285Y-145504819D01*
X157622857Y-145600057D02*
X157670476Y-145552438D01*
X157670476Y-145552438D02*
X157765714Y-145504819D01*
X157765714Y-145504819D02*
X158003809Y-145504819D01*
X158003809Y-145504819D02*
X158099047Y-145552438D01*
X158099047Y-145552438D02*
X158146666Y-145600057D01*
X158146666Y-145600057D02*
X158194285Y-145695295D01*
X158194285Y-145695295D02*
X158194285Y-145790533D01*
X158194285Y-145790533D02*
X158146666Y-145933390D01*
X158146666Y-145933390D02*
X157575238Y-146504819D01*
X157575238Y-146504819D02*
X158194285Y-146504819D01*
X158575238Y-145600057D02*
X158622857Y-145552438D01*
X158622857Y-145552438D02*
X158718095Y-145504819D01*
X158718095Y-145504819D02*
X158956190Y-145504819D01*
X158956190Y-145504819D02*
X159051428Y-145552438D01*
X159051428Y-145552438D02*
X159099047Y-145600057D01*
X159099047Y-145600057D02*
X159146666Y-145695295D01*
X159146666Y-145695295D02*
X159146666Y-145790533D01*
X159146666Y-145790533D02*
X159099047Y-145933390D01*
X159099047Y-145933390D02*
X158527619Y-146504819D01*
X158527619Y-146504819D02*
X159146666Y-146504819D01*
X186626666Y-145504819D02*
X186626666Y-146219104D01*
X186626666Y-146219104D02*
X186579047Y-146361961D01*
X186579047Y-146361961D02*
X186483809Y-146457200D01*
X186483809Y-146457200D02*
X186340952Y-146504819D01*
X186340952Y-146504819D02*
X186245714Y-146504819D01*
X187102857Y-146504819D02*
X187102857Y-145504819D01*
X187102857Y-145981009D02*
X187674285Y-145981009D01*
X187674285Y-146504819D02*
X187674285Y-145504819D01*
X188102857Y-145600057D02*
X188150476Y-145552438D01*
X188150476Y-145552438D02*
X188245714Y-145504819D01*
X188245714Y-145504819D02*
X188483809Y-145504819D01*
X188483809Y-145504819D02*
X188579047Y-145552438D01*
X188579047Y-145552438D02*
X188626666Y-145600057D01*
X188626666Y-145600057D02*
X188674285Y-145695295D01*
X188674285Y-145695295D02*
X188674285Y-145790533D01*
X188674285Y-145790533D02*
X188626666Y-145933390D01*
X188626666Y-145933390D02*
X188055238Y-146504819D01*
X188055238Y-146504819D02*
X188674285Y-146504819D01*
X189531428Y-145838152D02*
X189531428Y-146504819D01*
X189293333Y-145457200D02*
X189055238Y-146171485D01*
X189055238Y-146171485D02*
X189674285Y-146171485D01*
X137884819Y-86423333D02*
X138599104Y-86423333D01*
X138599104Y-86423333D02*
X138741961Y-86470952D01*
X138741961Y-86470952D02*
X138837200Y-86566190D01*
X138837200Y-86566190D02*
X138884819Y-86709047D01*
X138884819Y-86709047D02*
X138884819Y-86804285D01*
X138884819Y-85947142D02*
X137884819Y-85947142D01*
X138361009Y-85947142D02*
X138361009Y-85375714D01*
X138884819Y-85375714D02*
X137884819Y-85375714D01*
X137884819Y-84994761D02*
X137884819Y-84375714D01*
X137884819Y-84375714D02*
X138265771Y-84709047D01*
X138265771Y-84709047D02*
X138265771Y-84566190D01*
X138265771Y-84566190D02*
X138313390Y-84470952D01*
X138313390Y-84470952D02*
X138361009Y-84423333D01*
X138361009Y-84423333D02*
X138456247Y-84375714D01*
X138456247Y-84375714D02*
X138694342Y-84375714D01*
X138694342Y-84375714D02*
X138789580Y-84423333D01*
X138789580Y-84423333D02*
X138837200Y-84470952D01*
X138837200Y-84470952D02*
X138884819Y-84566190D01*
X138884819Y-84566190D02*
X138884819Y-84851904D01*
X138884819Y-84851904D02*
X138837200Y-84947142D01*
X138837200Y-84947142D02*
X138789580Y-84994761D01*
X138884819Y-83423333D02*
X138884819Y-83994761D01*
X138884819Y-83709047D02*
X137884819Y-83709047D01*
X137884819Y-83709047D02*
X138027676Y-83804285D01*
X138027676Y-83804285D02*
X138122914Y-83899523D01*
X138122914Y-83899523D02*
X138170533Y-83994761D01*
X137884819Y-132143333D02*
X138599104Y-132143333D01*
X138599104Y-132143333D02*
X138741961Y-132190952D01*
X138741961Y-132190952D02*
X138837200Y-132286190D01*
X138837200Y-132286190D02*
X138884819Y-132429047D01*
X138884819Y-132429047D02*
X138884819Y-132524285D01*
X138884819Y-131667142D02*
X137884819Y-131667142D01*
X138361009Y-131667142D02*
X138361009Y-131095714D01*
X138884819Y-131095714D02*
X137884819Y-131095714D01*
X137884819Y-130714761D02*
X137884819Y-130095714D01*
X137884819Y-130095714D02*
X138265771Y-130429047D01*
X138265771Y-130429047D02*
X138265771Y-130286190D01*
X138265771Y-130286190D02*
X138313390Y-130190952D01*
X138313390Y-130190952D02*
X138361009Y-130143333D01*
X138361009Y-130143333D02*
X138456247Y-130095714D01*
X138456247Y-130095714D02*
X138694342Y-130095714D01*
X138694342Y-130095714D02*
X138789580Y-130143333D01*
X138789580Y-130143333D02*
X138837200Y-130190952D01*
X138837200Y-130190952D02*
X138884819Y-130286190D01*
X138884819Y-130286190D02*
X138884819Y-130571904D01*
X138884819Y-130571904D02*
X138837200Y-130667142D01*
X138837200Y-130667142D02*
X138789580Y-130714761D01*
X138218152Y-129238571D02*
X138884819Y-129238571D01*
X137837200Y-129476666D02*
X138551485Y-129714761D01*
X138551485Y-129714761D02*
X138551485Y-129095714D01*
X179794819Y-112614044D02*
X180509104Y-112614044D01*
X180509104Y-112614044D02*
X180651961Y-112661663D01*
X180651961Y-112661663D02*
X180747200Y-112756901D01*
X180747200Y-112756901D02*
X180794819Y-112899758D01*
X180794819Y-112899758D02*
X180794819Y-112994996D01*
X180794819Y-112137853D02*
X179794819Y-112137853D01*
X180271009Y-112137853D02*
X180271009Y-111566425D01*
X180794819Y-111566425D02*
X179794819Y-111566425D01*
X179794819Y-110614044D02*
X179794819Y-111090234D01*
X179794819Y-111090234D02*
X180271009Y-111137853D01*
X180271009Y-111137853D02*
X180223390Y-111090234D01*
X180223390Y-111090234D02*
X180175771Y-110994996D01*
X180175771Y-110994996D02*
X180175771Y-110756901D01*
X180175771Y-110756901D02*
X180223390Y-110661663D01*
X180223390Y-110661663D02*
X180271009Y-110614044D01*
X180271009Y-110614044D02*
X180366247Y-110566425D01*
X180366247Y-110566425D02*
X180604342Y-110566425D01*
X180604342Y-110566425D02*
X180699580Y-110614044D01*
X180699580Y-110614044D02*
X180747200Y-110661663D01*
X180747200Y-110661663D02*
X180794819Y-110756901D01*
X180794819Y-110756901D02*
X180794819Y-110994996D01*
X180794819Y-110994996D02*
X180747200Y-111090234D01*
X180747200Y-111090234D02*
X180699580Y-111137853D01*
X140906666Y-69304819D02*
X140906666Y-70019104D01*
X140906666Y-70019104D02*
X140859047Y-70161961D01*
X140859047Y-70161961D02*
X140763809Y-70257200D01*
X140763809Y-70257200D02*
X140620952Y-70304819D01*
X140620952Y-70304819D02*
X140525714Y-70304819D01*
X141382857Y-70304819D02*
X141382857Y-69304819D01*
X141382857Y-69781009D02*
X141954285Y-69781009D01*
X141954285Y-70304819D02*
X141954285Y-69304819D01*
X142954285Y-70304819D02*
X142382857Y-70304819D01*
X142668571Y-70304819D02*
X142668571Y-69304819D01*
X142668571Y-69304819D02*
X142573333Y-69447676D01*
X142573333Y-69447676D02*
X142478095Y-69542914D01*
X142478095Y-69542914D02*
X142382857Y-69590533D01*
X143906666Y-70304819D02*
X143335238Y-70304819D01*
X143620952Y-70304819D02*
X143620952Y-69304819D01*
X143620952Y-69304819D02*
X143525714Y-69447676D01*
X143525714Y-69447676D02*
X143430476Y-69542914D01*
X143430476Y-69542914D02*
X143335238Y-69590533D01*
X166306666Y-69304819D02*
X166306666Y-70019104D01*
X166306666Y-70019104D02*
X166259047Y-70161961D01*
X166259047Y-70161961D02*
X166163809Y-70257200D01*
X166163809Y-70257200D02*
X166020952Y-70304819D01*
X166020952Y-70304819D02*
X165925714Y-70304819D01*
X166782857Y-70304819D02*
X166782857Y-69304819D01*
X166782857Y-69781009D02*
X167354285Y-69781009D01*
X167354285Y-70304819D02*
X167354285Y-69304819D01*
X168354285Y-70304819D02*
X167782857Y-70304819D01*
X168068571Y-70304819D02*
X168068571Y-69304819D01*
X168068571Y-69304819D02*
X167973333Y-69447676D01*
X167973333Y-69447676D02*
X167878095Y-69542914D01*
X167878095Y-69542914D02*
X167782857Y-69590533D01*
X168687619Y-69304819D02*
X169306666Y-69304819D01*
X169306666Y-69304819D02*
X168973333Y-69685771D01*
X168973333Y-69685771D02*
X169116190Y-69685771D01*
X169116190Y-69685771D02*
X169211428Y-69733390D01*
X169211428Y-69733390D02*
X169259047Y-69781009D01*
X169259047Y-69781009D02*
X169306666Y-69876247D01*
X169306666Y-69876247D02*
X169306666Y-70114342D01*
X169306666Y-70114342D02*
X169259047Y-70209580D01*
X169259047Y-70209580D02*
X169211428Y-70257200D01*
X169211428Y-70257200D02*
X169116190Y-70304819D01*
X169116190Y-70304819D02*
X168830476Y-70304819D01*
X168830476Y-70304819D02*
X168735238Y-70257200D01*
X168735238Y-70257200D02*
X168687619Y-70209580D01*
X187534819Y-120205237D02*
X187534819Y-120109999D01*
X187534819Y-120109999D02*
X187582438Y-120014761D01*
X187582438Y-120014761D02*
X187630057Y-119967142D01*
X187630057Y-119967142D02*
X187725295Y-119919523D01*
X187725295Y-119919523D02*
X187915771Y-119871904D01*
X187915771Y-119871904D02*
X188153866Y-119871904D01*
X188153866Y-119871904D02*
X188344342Y-119919523D01*
X188344342Y-119919523D02*
X188439580Y-119967142D01*
X188439580Y-119967142D02*
X188487200Y-120014761D01*
X188487200Y-120014761D02*
X188534819Y-120109999D01*
X188534819Y-120109999D02*
X188534819Y-120205237D01*
X188534819Y-120205237D02*
X188487200Y-120300475D01*
X188487200Y-120300475D02*
X188439580Y-120348094D01*
X188439580Y-120348094D02*
X188344342Y-120395713D01*
X188344342Y-120395713D02*
X188153866Y-120443332D01*
X188153866Y-120443332D02*
X187915771Y-120443332D01*
X187915771Y-120443332D02*
X187725295Y-120395713D01*
X187725295Y-120395713D02*
X187630057Y-120348094D01*
X187630057Y-120348094D02*
X187582438Y-120300475D01*
X187582438Y-120300475D02*
X187534819Y-120205237D01*
X188439580Y-119443332D02*
X188487200Y-119395713D01*
X188487200Y-119395713D02*
X188534819Y-119443332D01*
X188534819Y-119443332D02*
X188487200Y-119490951D01*
X188487200Y-119490951D02*
X188439580Y-119443332D01*
X188439580Y-119443332D02*
X188534819Y-119443332D01*
X188534819Y-118443333D02*
X188534819Y-119014761D01*
X188534819Y-118729047D02*
X187534819Y-118729047D01*
X187534819Y-118729047D02*
X187677676Y-118824285D01*
X187677676Y-118824285D02*
X187772914Y-118919523D01*
X187772914Y-118919523D02*
X187820533Y-119014761D01*
X187868152Y-117252856D02*
X188868152Y-117252856D01*
X188391961Y-116776666D02*
X188487200Y-116729047D01*
X188487200Y-116729047D02*
X188534819Y-116633809D01*
X188391961Y-117252856D02*
X188487200Y-117205237D01*
X188487200Y-117205237D02*
X188534819Y-117109999D01*
X188534819Y-117109999D02*
X188534819Y-116919523D01*
X188534819Y-116919523D02*
X188487200Y-116824285D01*
X188487200Y-116824285D02*
X188391961Y-116776666D01*
X188391961Y-116776666D02*
X187868152Y-116776666D01*
X188011009Y-115871904D02*
X188011009Y-116205237D01*
X188534819Y-116205237D02*
X187534819Y-116205237D01*
X187534819Y-116205237D02*
X187534819Y-115729047D01*
D11*
X190773281Y-118236666D02*
X190809472Y-118272857D01*
X190809472Y-118272857D02*
X190845662Y-118381428D01*
X190845662Y-118381428D02*
X190845662Y-118453809D01*
X190845662Y-118453809D02*
X190809472Y-118562381D01*
X190809472Y-118562381D02*
X190737091Y-118634762D01*
X190737091Y-118634762D02*
X190664710Y-118670952D01*
X190664710Y-118670952D02*
X190519948Y-118707143D01*
X190519948Y-118707143D02*
X190411376Y-118707143D01*
X190411376Y-118707143D02*
X190266614Y-118670952D01*
X190266614Y-118670952D02*
X190194233Y-118634762D01*
X190194233Y-118634762D02*
X190121852Y-118562381D01*
X190121852Y-118562381D02*
X190085662Y-118453809D01*
X190085662Y-118453809D02*
X190085662Y-118381428D01*
X190085662Y-118381428D02*
X190121852Y-118272857D01*
X190121852Y-118272857D02*
X190158043Y-118236666D01*
X190845662Y-117512857D02*
X190845662Y-117947143D01*
X190845662Y-117730000D02*
X190085662Y-117730000D01*
X190085662Y-117730000D02*
X190194233Y-117802381D01*
X190194233Y-117802381D02*
X190266614Y-117874762D01*
X190266614Y-117874762D02*
X190302805Y-117947143D01*
D10*
X179794819Y-121504044D02*
X180509104Y-121504044D01*
X180509104Y-121504044D02*
X180651961Y-121551663D01*
X180651961Y-121551663D02*
X180747200Y-121646901D01*
X180747200Y-121646901D02*
X180794819Y-121789758D01*
X180794819Y-121789758D02*
X180794819Y-121884996D01*
X180794819Y-121027853D02*
X179794819Y-121027853D01*
X180271009Y-121027853D02*
X180271009Y-120456425D01*
X180794819Y-120456425D02*
X179794819Y-120456425D01*
X180128152Y-119551663D02*
X180794819Y-119551663D01*
X179747200Y-119789758D02*
X180461485Y-120027853D01*
X180461485Y-120027853D02*
X180461485Y-119408806D01*
X140906666Y-145504819D02*
X140906666Y-146219104D01*
X140906666Y-146219104D02*
X140859047Y-146361961D01*
X140859047Y-146361961D02*
X140763809Y-146457200D01*
X140763809Y-146457200D02*
X140620952Y-146504819D01*
X140620952Y-146504819D02*
X140525714Y-146504819D01*
X141382857Y-146504819D02*
X141382857Y-145504819D01*
X141382857Y-145981009D02*
X141954285Y-145981009D01*
X141954285Y-146504819D02*
X141954285Y-145504819D01*
X142382857Y-145600057D02*
X142430476Y-145552438D01*
X142430476Y-145552438D02*
X142525714Y-145504819D01*
X142525714Y-145504819D02*
X142763809Y-145504819D01*
X142763809Y-145504819D02*
X142859047Y-145552438D01*
X142859047Y-145552438D02*
X142906666Y-145600057D01*
X142906666Y-145600057D02*
X142954285Y-145695295D01*
X142954285Y-145695295D02*
X142954285Y-145790533D01*
X142954285Y-145790533D02*
X142906666Y-145933390D01*
X142906666Y-145933390D02*
X142335238Y-146504819D01*
X142335238Y-146504819D02*
X142954285Y-146504819D01*
X143906666Y-146504819D02*
X143335238Y-146504819D01*
X143620952Y-146504819D02*
X143620952Y-145504819D01*
X143620952Y-145504819D02*
X143525714Y-145647676D01*
X143525714Y-145647676D02*
X143430476Y-145742914D01*
X143430476Y-145742914D02*
X143335238Y-145790533D01*
X137884819Y-116903333D02*
X138599104Y-116903333D01*
X138599104Y-116903333D02*
X138741961Y-116950952D01*
X138741961Y-116950952D02*
X138837200Y-117046190D01*
X138837200Y-117046190D02*
X138884819Y-117189047D01*
X138884819Y-117189047D02*
X138884819Y-117284285D01*
X138884819Y-116427142D02*
X137884819Y-116427142D01*
X138361009Y-116427142D02*
X138361009Y-115855714D01*
X138884819Y-115855714D02*
X137884819Y-115855714D01*
X137884819Y-115474761D02*
X137884819Y-114855714D01*
X137884819Y-114855714D02*
X138265771Y-115189047D01*
X138265771Y-115189047D02*
X138265771Y-115046190D01*
X138265771Y-115046190D02*
X138313390Y-114950952D01*
X138313390Y-114950952D02*
X138361009Y-114903333D01*
X138361009Y-114903333D02*
X138456247Y-114855714D01*
X138456247Y-114855714D02*
X138694342Y-114855714D01*
X138694342Y-114855714D02*
X138789580Y-114903333D01*
X138789580Y-114903333D02*
X138837200Y-114950952D01*
X138837200Y-114950952D02*
X138884819Y-115046190D01*
X138884819Y-115046190D02*
X138884819Y-115331904D01*
X138884819Y-115331904D02*
X138837200Y-115427142D01*
X138837200Y-115427142D02*
X138789580Y-115474761D01*
X137884819Y-114522380D02*
X137884819Y-113903333D01*
X137884819Y-113903333D02*
X138265771Y-114236666D01*
X138265771Y-114236666D02*
X138265771Y-114093809D01*
X138265771Y-114093809D02*
X138313390Y-113998571D01*
X138313390Y-113998571D02*
X138361009Y-113950952D01*
X138361009Y-113950952D02*
X138456247Y-113903333D01*
X138456247Y-113903333D02*
X138694342Y-113903333D01*
X138694342Y-113903333D02*
X138789580Y-113950952D01*
X138789580Y-113950952D02*
X138837200Y-113998571D01*
X138837200Y-113998571D02*
X138884819Y-114093809D01*
X138884819Y-114093809D02*
X138884819Y-114379523D01*
X138884819Y-114379523D02*
X138837200Y-114474761D01*
X138837200Y-114474761D02*
X138789580Y-114522380D01*
X191706666Y-69304819D02*
X191706666Y-70019104D01*
X191706666Y-70019104D02*
X191659047Y-70161961D01*
X191659047Y-70161961D02*
X191563809Y-70257200D01*
X191563809Y-70257200D02*
X191420952Y-70304819D01*
X191420952Y-70304819D02*
X191325714Y-70304819D01*
X192182857Y-70304819D02*
X192182857Y-69304819D01*
X192182857Y-69781009D02*
X192754285Y-69781009D01*
X192754285Y-70304819D02*
X192754285Y-69304819D01*
X193754285Y-70304819D02*
X193182857Y-70304819D01*
X193468571Y-70304819D02*
X193468571Y-69304819D01*
X193468571Y-69304819D02*
X193373333Y-69447676D01*
X193373333Y-69447676D02*
X193278095Y-69542914D01*
X193278095Y-69542914D02*
X193182857Y-69590533D01*
X194659047Y-69304819D02*
X194182857Y-69304819D01*
X194182857Y-69304819D02*
X194135238Y-69781009D01*
X194135238Y-69781009D02*
X194182857Y-69733390D01*
X194182857Y-69733390D02*
X194278095Y-69685771D01*
X194278095Y-69685771D02*
X194516190Y-69685771D01*
X194516190Y-69685771D02*
X194611428Y-69733390D01*
X194611428Y-69733390D02*
X194659047Y-69781009D01*
X194659047Y-69781009D02*
X194706666Y-69876247D01*
X194706666Y-69876247D02*
X194706666Y-70114342D01*
X194706666Y-70114342D02*
X194659047Y-70209580D01*
X194659047Y-70209580D02*
X194611428Y-70257200D01*
X194611428Y-70257200D02*
X194516190Y-70304819D01*
X194516190Y-70304819D02*
X194278095Y-70304819D01*
X194278095Y-70304819D02*
X194182857Y-70257200D01*
X194182857Y-70257200D02*
X194135238Y-70209580D01*
X179794819Y-132934044D02*
X180509104Y-132934044D01*
X180509104Y-132934044D02*
X180651961Y-132981663D01*
X180651961Y-132981663D02*
X180747200Y-133076901D01*
X180747200Y-133076901D02*
X180794819Y-133219758D01*
X180794819Y-133219758D02*
X180794819Y-133314996D01*
X180794819Y-132457853D02*
X179794819Y-132457853D01*
X180271009Y-132457853D02*
X180271009Y-131886425D01*
X180794819Y-131886425D02*
X179794819Y-131886425D01*
X179794819Y-131505472D02*
X179794819Y-130886425D01*
X179794819Y-130886425D02*
X180175771Y-131219758D01*
X180175771Y-131219758D02*
X180175771Y-131076901D01*
X180175771Y-131076901D02*
X180223390Y-130981663D01*
X180223390Y-130981663D02*
X180271009Y-130934044D01*
X180271009Y-130934044D02*
X180366247Y-130886425D01*
X180366247Y-130886425D02*
X180604342Y-130886425D01*
X180604342Y-130886425D02*
X180699580Y-130934044D01*
X180699580Y-130934044D02*
X180747200Y-130981663D01*
X180747200Y-130981663D02*
X180794819Y-131076901D01*
X180794819Y-131076901D02*
X180794819Y-131362615D01*
X180794819Y-131362615D02*
X180747200Y-131457853D01*
X180747200Y-131457853D02*
X180699580Y-131505472D01*
X196304819Y-132140235D02*
X197019104Y-132140235D01*
X197019104Y-132140235D02*
X197161961Y-132187854D01*
X197161961Y-132187854D02*
X197257200Y-132283092D01*
X197257200Y-132283092D02*
X197304819Y-132425949D01*
X197304819Y-132425949D02*
X197304819Y-132521187D01*
X197304819Y-131664044D02*
X196304819Y-131664044D01*
X196781009Y-131664044D02*
X196781009Y-131092616D01*
X197304819Y-131092616D02*
X196304819Y-131092616D01*
X196638152Y-130187854D02*
X197304819Y-130187854D01*
X196257200Y-130425949D02*
X196971485Y-130664044D01*
X196971485Y-130664044D02*
X196971485Y-130044997D01*
X196638152Y-129235473D02*
X197304819Y-129235473D01*
X196257200Y-129473568D02*
X196971485Y-129711663D01*
X196971485Y-129711663D02*
X196971485Y-129092616D01*
X156934819Y-108783333D02*
X157649104Y-108783333D01*
X157649104Y-108783333D02*
X157791961Y-108830952D01*
X157791961Y-108830952D02*
X157887200Y-108926190D01*
X157887200Y-108926190D02*
X157934819Y-109069047D01*
X157934819Y-109069047D02*
X157934819Y-109164285D01*
X157934819Y-107735714D02*
X157458628Y-108069047D01*
X157934819Y-108307142D02*
X156934819Y-108307142D01*
X156934819Y-108307142D02*
X156934819Y-107926190D01*
X156934819Y-107926190D02*
X156982438Y-107830952D01*
X156982438Y-107830952D02*
X157030057Y-107783333D01*
X157030057Y-107783333D02*
X157125295Y-107735714D01*
X157125295Y-107735714D02*
X157268152Y-107735714D01*
X157268152Y-107735714D02*
X157363390Y-107783333D01*
X157363390Y-107783333D02*
X157411009Y-107830952D01*
X157411009Y-107830952D02*
X157458628Y-107926190D01*
X157458628Y-107926190D02*
X157458628Y-108307142D01*
X157030057Y-107354761D02*
X156982438Y-107307142D01*
X156982438Y-107307142D02*
X156934819Y-107211904D01*
X156934819Y-107211904D02*
X156934819Y-106973809D01*
X156934819Y-106973809D02*
X156982438Y-106878571D01*
X156982438Y-106878571D02*
X157030057Y-106830952D01*
X157030057Y-106830952D02*
X157125295Y-106783333D01*
X157125295Y-106783333D02*
X157220533Y-106783333D01*
X157220533Y-106783333D02*
X157363390Y-106830952D01*
X157363390Y-106830952D02*
X157934819Y-107402380D01*
X157934819Y-107402380D02*
X157934819Y-106783333D01*
X153606666Y-69304819D02*
X153606666Y-70019104D01*
X153606666Y-70019104D02*
X153559047Y-70161961D01*
X153559047Y-70161961D02*
X153463809Y-70257200D01*
X153463809Y-70257200D02*
X153320952Y-70304819D01*
X153320952Y-70304819D02*
X153225714Y-70304819D01*
X154082857Y-70304819D02*
X154082857Y-69304819D01*
X154082857Y-69781009D02*
X154654285Y-69781009D01*
X154654285Y-70304819D02*
X154654285Y-69304819D01*
X155654285Y-70304819D02*
X155082857Y-70304819D01*
X155368571Y-70304819D02*
X155368571Y-69304819D01*
X155368571Y-69304819D02*
X155273333Y-69447676D01*
X155273333Y-69447676D02*
X155178095Y-69542914D01*
X155178095Y-69542914D02*
X155082857Y-69590533D01*
X156035238Y-69400057D02*
X156082857Y-69352438D01*
X156082857Y-69352438D02*
X156178095Y-69304819D01*
X156178095Y-69304819D02*
X156416190Y-69304819D01*
X156416190Y-69304819D02*
X156511428Y-69352438D01*
X156511428Y-69352438D02*
X156559047Y-69400057D01*
X156559047Y-69400057D02*
X156606666Y-69495295D01*
X156606666Y-69495295D02*
X156606666Y-69590533D01*
X156606666Y-69590533D02*
X156559047Y-69733390D01*
X156559047Y-69733390D02*
X155987619Y-70304819D01*
X155987619Y-70304819D02*
X156606666Y-70304819D01*
D12*
%TO.C,JH41*%
X195580000Y-80641902D02*
X196215000Y-80006902D01*
X195580000Y-90166902D02*
X195580000Y-80641902D01*
X196215000Y-80006902D02*
X198120000Y-80006902D01*
X198120000Y-80006902D02*
X198120000Y-90166902D01*
X198120000Y-90166902D02*
X195580000Y-90166902D01*
%TO.C,JH32*%
X137160000Y-95885000D02*
X137795000Y-95250000D01*
X137160000Y-105410000D02*
X137160000Y-95885000D01*
X137795000Y-95250000D02*
X139700000Y-95250000D01*
X139700000Y-95250000D02*
X139700000Y-105410000D01*
X139700000Y-105410000D02*
X137160000Y-105410000D01*
%TO.C,JH42*%
X195580000Y-95881902D02*
X196215000Y-95246902D01*
X195580000Y-105406902D02*
X195580000Y-95881902D01*
X196215000Y-95246902D02*
X198120000Y-95246902D01*
X198120000Y-95246902D02*
X198120000Y-105406902D01*
X198120000Y-105406902D02*
X195580000Y-105406902D01*
%TO.C,JH1*%
X116840000Y-52070000D02*
X179070000Y-52070000D01*
X116840000Y-57150000D02*
X116840000Y-52070000D01*
X179070000Y-52070000D02*
X180340000Y-53340000D01*
X180340000Y-53340000D02*
X180340000Y-57150000D01*
X180340000Y-57150000D02*
X116840000Y-57150000D01*
%TO.C,JR3*%
X176530000Y-77466902D02*
X179070000Y-77466902D01*
X176530000Y-138426902D02*
X176530000Y-77466902D01*
X178435000Y-138426902D02*
X176530000Y-138426902D01*
X179070000Y-77466902D02*
X179070000Y-137791902D01*
X179070000Y-137791902D02*
X178435000Y-138426902D01*
%TO.C,JH2*%
X153670000Y-106045000D02*
X154305000Y-105410000D01*
X153670000Y-138430000D02*
X153670000Y-106045000D01*
X154305000Y-105410000D02*
X156210000Y-105410000D01*
X156210000Y-105410000D02*
X156210000Y-138430000D01*
X156210000Y-138430000D02*
X153670000Y-138430000D01*
%TO.C,JH14*%
X175260000Y-68580000D02*
X185420000Y-68580000D01*
X175260000Y-70485000D02*
X175260000Y-68580000D01*
X175895000Y-71120000D02*
X175260000Y-70485000D01*
X185420000Y-68580000D02*
X185420000Y-71120000D01*
X185420000Y-71120000D02*
X175895000Y-71120000D01*
%TO.C,JR1*%
X100659000Y-56010000D02*
X100659000Y-59610000D01*
X100659000Y-56010000D02*
X101959000Y-54610000D01*
X100659000Y-59610000D02*
X102159000Y-61610000D01*
X100659000Y-59610000D02*
X105259000Y-59610000D01*
X101829000Y-68070000D02*
X101829000Y-141810000D01*
X101829000Y-68070000D02*
X102809000Y-66910000D01*
X101959000Y-54610000D02*
X103959000Y-54610000D01*
X102159000Y-61610000D02*
X103759000Y-61610000D01*
X102159000Y-67720000D02*
X102159000Y-61610000D01*
X102809000Y-66910000D02*
X124729000Y-66910000D01*
X103759000Y-61610000D02*
X103759000Y-66910000D01*
X103959000Y-54610000D02*
X105259000Y-56010000D01*
X105259000Y-56010000D02*
X100659000Y-56010000D01*
X105259000Y-59610000D02*
X103759000Y-61610000D01*
X105259000Y-59610000D02*
X105259000Y-56010000D01*
X124729000Y-66910000D02*
X124729000Y-141810000D01*
X124729000Y-141810000D02*
X101829000Y-141810000D01*
%TO.C,JH6*%
X179070000Y-103501902D02*
X179705000Y-102866902D01*
X179070000Y-105406902D02*
X179070000Y-103501902D01*
X179705000Y-102866902D02*
X181610000Y-102866902D01*
X181610000Y-102866902D02*
X181610000Y-105406902D01*
X181610000Y-105406902D02*
X179070000Y-105406902D01*
%TO.C,JH43*%
X195580000Y-111121902D02*
X196215000Y-110486902D01*
X195580000Y-120646902D02*
X195580000Y-111121902D01*
X196215000Y-110486902D02*
X198120000Y-110486902D01*
X198120000Y-110486902D02*
X198120000Y-120646902D01*
X198120000Y-120646902D02*
X195580000Y-120646902D01*
%TO.C,JH23*%
X167640000Y-144780000D02*
X177800000Y-144780000D01*
X167640000Y-146685000D02*
X167640000Y-144780000D01*
X168275000Y-147320000D02*
X167640000Y-146685000D01*
X177800000Y-144780000D02*
X177800000Y-147320000D01*
X177800000Y-147320000D02*
X168275000Y-147320000D01*
%TO.C,JH22*%
X152400000Y-144780000D02*
X162560000Y-144780000D01*
X152400000Y-146685000D02*
X152400000Y-144780000D01*
X153035000Y-147320000D02*
X152400000Y-146685000D01*
X162560000Y-144780000D02*
X162560000Y-147320000D01*
X162560000Y-147320000D02*
X153035000Y-147320000D01*
%TO.C,JH24*%
X182880000Y-144780000D02*
X193040000Y-144780000D01*
X182880000Y-146685000D02*
X182880000Y-144780000D01*
X183515000Y-147320000D02*
X182880000Y-146685000D01*
X193040000Y-144780000D02*
X193040000Y-147320000D01*
X193040000Y-147320000D02*
X183515000Y-147320000D01*
%TO.C,JH31*%
X137160000Y-80645000D02*
X137795000Y-80010000D01*
X137160000Y-90170000D02*
X137160000Y-80645000D01*
X137795000Y-80010000D02*
X139700000Y-80010000D01*
X139700000Y-80010000D02*
X139700000Y-90170000D01*
X139700000Y-90170000D02*
X137160000Y-90170000D01*
%TO.C,JH34*%
X137160000Y-126365000D02*
X137795000Y-125730000D01*
X137160000Y-135890000D02*
X137160000Y-126365000D01*
X137795000Y-125730000D02*
X139700000Y-125730000D01*
X139700000Y-125730000D02*
X139700000Y-135890000D01*
X139700000Y-135890000D02*
X137160000Y-135890000D01*
%TO.C,JH5*%
X179070000Y-107946902D02*
X181610000Y-107946902D01*
X179070000Y-115566902D02*
X179070000Y-107946902D01*
X180975000Y-115566902D02*
X179070000Y-115566902D01*
X181610000Y-107946902D02*
X181610000Y-114931902D01*
X181610000Y-114931902D02*
X180975000Y-115566902D01*
%TO.C,JH11*%
X137160000Y-68580000D02*
X147320000Y-68580000D01*
X137160000Y-70485000D02*
X137160000Y-68580000D01*
X137795000Y-71120000D02*
X137160000Y-70485000D01*
X147320000Y-68580000D02*
X147320000Y-71120000D01*
X147320000Y-71120000D02*
X137795000Y-71120000D01*
%TO.C,JH13*%
X162560000Y-68580000D02*
X172720000Y-68580000D01*
X162560000Y-70485000D02*
X162560000Y-68580000D01*
X163195000Y-71120000D02*
X162560000Y-70485000D01*
X172720000Y-68580000D02*
X172720000Y-71120000D01*
X172720000Y-71120000D02*
X163195000Y-71120000D01*
%TO.C,C1*%
X190500000Y-113110000D02*
X190500000Y-116210000D01*
X190500000Y-123110000D02*
X190500000Y-120010000D01*
X191800000Y-116210000D02*
X189200000Y-116210000D01*
X189200000Y-120010000D01*
X191800000Y-120010000D01*
X191800000Y-116210000D01*
%TO.C,JH4*%
X179070000Y-118106902D02*
X181610000Y-118106902D01*
X179070000Y-123186902D02*
X179070000Y-118106902D01*
X180975000Y-123186902D02*
X179070000Y-123186902D01*
X181610000Y-118106902D02*
X181610000Y-122551902D01*
X181610000Y-122551902D02*
X180975000Y-123186902D01*
%TO.C,JH21*%
X137160000Y-144780000D02*
X147320000Y-144780000D01*
X137160000Y-146685000D02*
X137160000Y-144780000D01*
X137795000Y-147320000D02*
X137160000Y-146685000D01*
X147320000Y-144780000D02*
X147320000Y-147320000D01*
X147320000Y-147320000D02*
X137795000Y-147320000D01*
%TO.C,JH33*%
X137160000Y-111125000D02*
X137795000Y-110490000D01*
X137160000Y-120650000D02*
X137160000Y-111125000D01*
X137795000Y-110490000D02*
X139700000Y-110490000D01*
X139700000Y-110490000D02*
X139700000Y-120650000D01*
X139700000Y-120650000D02*
X137160000Y-120650000D01*
%TO.C,JH15*%
X187960000Y-68580000D02*
X198120000Y-68580000D01*
X187960000Y-70485000D02*
X187960000Y-68580000D01*
X188595000Y-71120000D02*
X187960000Y-70485000D01*
X198120000Y-68580000D02*
X198120000Y-71120000D01*
X198120000Y-71120000D02*
X188595000Y-71120000D01*
%TO.C,JH3*%
X179070000Y-125726902D02*
X181610000Y-125726902D01*
X179070000Y-138426902D02*
X179070000Y-125726902D01*
X180975000Y-138426902D02*
X179070000Y-138426902D01*
X181610000Y-125726902D02*
X181610000Y-137791902D01*
X181610000Y-137791902D02*
X180975000Y-138426902D01*
%TO.C,JH44*%
X195580000Y-126361902D02*
X196215000Y-125726902D01*
X195580000Y-135886902D02*
X195580000Y-126361902D01*
X196215000Y-125726902D02*
X198120000Y-125726902D01*
X198120000Y-125726902D02*
X198120000Y-135886902D01*
X198120000Y-135886902D02*
X195580000Y-135886902D01*
%TO.C,JR2*%
X156210000Y-78105000D02*
X156845000Y-77470000D01*
X156210000Y-138430000D02*
X156210000Y-78105000D01*
X156845000Y-77470000D02*
X158750000Y-77470000D01*
X158750000Y-77470000D02*
X158750000Y-138430000D01*
X158750000Y-138430000D02*
X156210000Y-138430000D01*
%TO.C,JH12*%
X149860000Y-68580000D02*
X160020000Y-68580000D01*
X149860000Y-70485000D02*
X149860000Y-68580000D01*
X150495000Y-71120000D02*
X149860000Y-70485000D01*
X160020000Y-68580000D02*
X160020000Y-71120000D01*
X160020000Y-71120000D02*
X150495000Y-71120000D01*
%TD*%
M02*
