%TF.GenerationSoftware,KiCad,Pcbnew,9.0.3+1*%
%TF.CreationDate,2025-09-17T15:15:53+09:00*%
%TF.ProjectId,romread-adapter,726f6d72-6561-4642-9d61-646170746572,0-0*%
%TF.SameCoordinates,Original*%
%TF.FileFunction,Copper,L1,Top*%
%TF.FilePolarity,Positive*%
%FSLAX46Y46*%
G04 Gerber Fmt 4.6, Leading zero omitted, Abs format (unit mm)*
G04 Created by KiCad (PCBNEW 9.0.3+1) date 2025-09-17 15:15:53*
%MOMM*%
%LPD*%
G01*
G04 APERTURE LIST*
%TA.AperFunction,ComponentPad*%
%ADD10R,1.700000X1.700000*%
%TD*%
%TA.AperFunction,ComponentPad*%
%ADD11C,1.700000*%
%TD*%
%TA.AperFunction,ComponentPad*%
%ADD12R,2.000000X1.440000*%
%TD*%
%TA.AperFunction,ComponentPad*%
%ADD13O,2.000000X1.440000*%
%TD*%
%TA.AperFunction,ComponentPad*%
%ADD14C,1.600000*%
%TD*%
%TA.AperFunction,ViaPad*%
%ADD15C,0.600000*%
%TD*%
%TA.AperFunction,Conductor*%
%ADD16C,0.400000*%
%TD*%
%TA.AperFunction,Conductor*%
%ADD17C,0.200000*%
%TD*%
G04 APERTURE END LIST*
D10*
%TO.P,JH41,1,VCC*%
%TO.N,VCC*%
X196850000Y-81276902D03*
D11*
%TO.P,JH41,2,VCC*%
X196850000Y-83816902D03*
%TO.P,JH41,3,VCC*%
X196850000Y-86356902D03*
%TO.P,JH41,4,VCC*%
X196850000Y-88896902D03*
%TD*%
D10*
%TO.P,JH32,1,CS*%
%TO.N,CS*%
X138430000Y-96520000D03*
D11*
%TO.P,JH32,2,CS*%
X138430000Y-99060000D03*
%TO.P,JH32,3,CS*%
X138430000Y-101600000D03*
%TO.P,JH32,4,CS*%
X138430000Y-104140000D03*
%TD*%
D10*
%TO.P,JH42,1,CS*%
%TO.N,CS*%
X196850000Y-96516902D03*
D11*
%TO.P,JH42,2,CS*%
X196850000Y-99056902D03*
%TO.P,JH42,3,CS*%
X196850000Y-101596902D03*
%TO.P,JH42,4,CS*%
X196850000Y-104136902D03*
%TD*%
D10*
%TO.P,JH1,1,Vcc*%
%TO.N,VCC*%
X179070000Y-53340000D03*
D11*
%TO.P,JH1,2,GND*%
%TO.N,GND*%
X179070000Y-55880000D03*
%TO.P,JH1,3,A14*%
%TO.N,A14*%
X176530000Y-53340000D03*
%TO.P,JH1,4,A15*%
%TO.N,A15*%
X176530000Y-55880000D03*
%TO.P,JH1,5,A12*%
%TO.N,A12*%
X173990000Y-53340000D03*
%TO.P,JH1,6,A13*%
%TO.N,A13*%
X173990000Y-55880000D03*
%TO.P,JH1,7,A10*%
%TO.N,A10*%
X171450000Y-53340000D03*
%TO.P,JH1,8,A11*%
%TO.N,A11*%
X171450000Y-55880000D03*
%TO.P,JH1,9,A8*%
%TO.N,A8*%
X168910000Y-53340000D03*
%TO.P,JH1,10,A9*%
%TO.N,A9*%
X168910000Y-55880000D03*
%TO.P,JH1,11,D14*%
%TO.N,D14*%
X166370000Y-53340000D03*
%TO.P,JH1,12,D15*%
%TO.N,D15*%
X166370000Y-55880000D03*
%TO.P,JH1,13,D12*%
%TO.N,D12*%
X163830000Y-53340000D03*
%TO.P,JH1,14,D13*%
%TO.N,D13*%
X163830000Y-55880000D03*
%TO.P,JH1,15,D10*%
%TO.N,D10*%
X161290000Y-53340000D03*
%TO.P,JH1,16,D11*%
%TO.N,D11*%
X161290000Y-55880000D03*
%TO.P,JH1,17,D8*%
%TO.N,D8*%
X158750000Y-53340000D03*
%TO.P,JH1,18,D9*%
%TO.N,D9*%
X158750000Y-55880000D03*
%TO.P,JH1,19,P19*%
%TO.N,unconnected-(JH1-P19-Pad19)*%
X156210000Y-53340000D03*
%TO.P,JH1,20,P20*%
%TO.N,unconnected-(JH1-P20-Pad20)*%
X156210000Y-55880000D03*
%TO.P,JH1,21,P21*%
%TO.N,unconnected-(JH1-P21-Pad21)*%
X153670000Y-53340000D03*
%TO.P,JH1,22,P22*%
%TO.N,unconnected-(JH1-P22-Pad22)*%
X153670000Y-55880000D03*
%TO.P,JH1,23,P23*%
%TO.N,unconnected-(JH1-P23-Pad23)*%
X151130000Y-53340000D03*
%TO.P,JH1,24,P24*%
%TO.N,unconnected-(JH1-P24-Pad24)*%
X151130000Y-55880000D03*
%TO.P,JH1,25,P25*%
%TO.N,unconnected-(JH1-P25-Pad25)*%
X148590000Y-53340000D03*
%TO.P,JH1,26,P26*%
%TO.N,unconnected-(JH1-P26-Pad26)*%
X148590000Y-55880000D03*
%TO.P,JH1,27,D1*%
%TO.N,D1*%
X146050000Y-53340000D03*
%TO.P,JH1,28,D0*%
%TO.N,D0*%
X146050000Y-55880000D03*
%TO.P,JH1,29,D3*%
%TO.N,D3*%
X143510000Y-53340000D03*
%TO.P,JH1,30,D2*%
%TO.N,D2*%
X143510000Y-55880000D03*
%TO.P,JH1,31,D5*%
%TO.N,D5*%
X140970000Y-53340000D03*
%TO.P,JH1,32,D4*%
%TO.N,D4*%
X140970000Y-55880000D03*
%TO.P,JH1,33,D7*%
%TO.N,D7*%
X138430000Y-53340000D03*
%TO.P,JH1,34,D6*%
%TO.N,D6*%
X138430000Y-55880000D03*
%TO.P,JH1,35,A18*%
%TO.N,A18*%
X135890000Y-53340000D03*
%TO.P,JH1,36,A19*%
%TO.N,A19*%
X135890000Y-55880000D03*
%TO.P,JH1,37,A16*%
%TO.N,A16*%
X133350000Y-53340000D03*
%TO.P,JH1,38,A17*%
%TO.N,A17*%
X133350000Y-55880000D03*
%TO.P,JH1,39,P39*%
%TO.N,unconnected-(JH1-P39-Pad39)*%
X130810000Y-53340000D03*
%TO.P,JH1,40,P40*%
%TO.N,unconnected-(JH1-P40-Pad40)*%
X130810000Y-55880000D03*
%TO.P,JH1,41,CS*%
%TO.N,CS*%
X128270000Y-53340000D03*
%TO.P,JH1,42,~{CS}*%
%TO.N,~{CS}*%
X128270000Y-55880000D03*
%TO.P,JH1,43,A1*%
%TO.N,A1*%
X125730000Y-53340000D03*
%TO.P,JH1,44,A0*%
%TO.N,A0*%
X125730000Y-55880000D03*
%TO.P,JH1,45,A3*%
%TO.N,A3*%
X123190000Y-53340000D03*
%TO.P,JH1,46,A2*%
%TO.N,A2*%
X123190000Y-55880000D03*
%TO.P,JH1,47,A5*%
%TO.N,A5*%
X120650000Y-53340000D03*
%TO.P,JH1,48,A4*%
%TO.N,A4*%
X120650000Y-55880000D03*
%TO.P,JH1,49,A7*%
%TO.N,A7*%
X118110000Y-53340000D03*
%TO.P,JH1,50,A6*%
%TO.N,A6*%
X118110000Y-55880000D03*
%TD*%
D10*
%TO.P,JR3,1,Pin_25*%
%TO.N,Net-(JR1-Pin_25)*%
X177800000Y-137156902D03*
D11*
%TO.P,JR3,2,Pin_26*%
%TO.N,Net-(JR1-Pin_26)*%
X177800000Y-134616902D03*
%TO.P,JR3,3,Pin_27*%
%TO.N,Net-(JR1-Pin_27)*%
X177800000Y-132076902D03*
%TO.P,JR3,4,Pin_28*%
%TO.N,Net-(JR1-Pin_28)*%
X177800000Y-129536902D03*
%TO.P,JR3,5,Pin_29*%
%TO.N,Net-(JR1-Pin_29)*%
X177800000Y-126996902D03*
%TO.P,JR3,6,Pin_30*%
%TO.N,Net-(JR1-Pin_30)*%
X177800000Y-124456902D03*
%TO.P,JR3,7,Pin_31*%
%TO.N,Net-(JR1-Pin_31)*%
X177800000Y-121916902D03*
%TO.P,JR3,8,Pin_32*%
%TO.N,Net-(JR1-Pin_32)*%
X177800000Y-119376902D03*
%TO.P,JR3,9,Pin_33*%
%TO.N,Net-(JR1-Pin_33)*%
X177800000Y-116836902D03*
%TO.P,JR3,10,Pin_34*%
%TO.N,Net-(JR1-Pin_34)*%
X177800000Y-114296902D03*
%TO.P,JR3,11,Pin_35*%
%TO.N,Net-(JR1-Pin_35)*%
X177800000Y-111756902D03*
%TO.P,JR3,12,Pin_36*%
%TO.N,Net-(JR1-Pin_36)*%
X177800000Y-109216902D03*
%TO.P,JR3,13,Pin_37*%
%TO.N,Net-(JR1-Pin_37)*%
X177800000Y-106676902D03*
%TO.P,JR3,14,Pin_38*%
%TO.N,Net-(JR1-Pin_38)*%
X177800000Y-104136902D03*
%TO.P,JR3,15,Pin_39*%
%TO.N,Net-(JR1-Pin_39)*%
X177800000Y-101596902D03*
%TO.P,JR3,16,Pin_40*%
%TO.N,Net-(JR1-Pin_40)*%
X177800000Y-99056902D03*
%TO.P,JR3,17,Pin_41*%
%TO.N,Net-(JR1-Pin_41)*%
X177800000Y-96516902D03*
%TO.P,JR3,18,Pin_42*%
%TO.N,Net-(JR1-Pin_42)*%
X177800000Y-93976902D03*
%TO.P,JR3,19,Pin_43*%
%TO.N,Net-(JR1-Pin_43)*%
X177800000Y-91436902D03*
%TO.P,JR3,20,Pin_44*%
%TO.N,Net-(JR1-Pin_44)*%
X177800000Y-88896902D03*
%TO.P,JR3,21,Pin_45*%
%TO.N,Net-(JR1-Pin_45)*%
X177800000Y-86356902D03*
%TO.P,JR3,22,Pin_46*%
%TO.N,Net-(JR1-Pin_46)*%
X177800000Y-83816902D03*
%TO.P,JR3,23,Pin_47*%
%TO.N,Net-(JR1-Pin_47)*%
X177800000Y-81276902D03*
%TO.P,JR3,24,Pin_48*%
%TO.N,Net-(JR1-Pin_48)*%
X177800000Y-78736902D03*
%TD*%
D10*
%TO.P,JH2,1,A12*%
%TO.N,A12*%
X154940000Y-106680000D03*
D11*
%TO.P,JH2,2,A7*%
%TO.N,A7*%
X154940000Y-109220000D03*
%TO.P,JH2,3,A6*%
%TO.N,A6*%
X154940000Y-111760000D03*
%TO.P,JH2,4,A5*%
%TO.N,A5*%
X154940000Y-114300000D03*
%TO.P,JH2,5,A4*%
%TO.N,A4*%
X154940000Y-116840000D03*
%TO.P,JH2,6,A3*%
%TO.N,A3*%
X154940000Y-119380000D03*
%TO.P,JH2,7,A2*%
%TO.N,A2*%
X154940000Y-121920000D03*
%TO.P,JH2,8,A1*%
%TO.N,A1*%
X154940000Y-124460000D03*
%TO.P,JH2,9,A0*%
%TO.N,A0*%
X154940000Y-127000000D03*
%TO.P,JH2,10,D0*%
%TO.N,D0*%
X154940000Y-129540000D03*
%TO.P,JH2,11,D1*%
%TO.N,D1*%
X154940000Y-132080000D03*
%TO.P,JH2,12,D2*%
%TO.N,D2*%
X154940000Y-134620000D03*
%TO.P,JH2,13,GND*%
%TO.N,GND*%
X154940000Y-137160000D03*
%TD*%
D10*
%TO.P,JH14,1,A12*%
%TO.N,A12*%
X176530000Y-69850000D03*
D11*
%TO.P,JH14,2,A13*%
%TO.N,A13*%
X179070000Y-69850000D03*
%TO.P,JH14,3,A14*%
%TO.N,A14*%
X181610000Y-69850000D03*
%TO.P,JH14,4,A15*%
%TO.N,A15*%
X184150000Y-69850000D03*
%TD*%
D12*
%TO.P,JR1,1,Pin_1*%
%TO.N,Net-(JR1-Pin_1)*%
X105659000Y-77470000D03*
D13*
%TO.P,JR1,2,Pin_2*%
%TO.N,Net-(JR1-Pin_2)*%
X105659000Y-80010000D03*
%TO.P,JR1,3,Pin_3*%
%TO.N,Net-(JR1-Pin_3)*%
X105659000Y-82550000D03*
%TO.P,JR1,4,Pin_4*%
%TO.N,Net-(JR1-Pin_4)*%
X105659000Y-85090000D03*
%TO.P,JR1,5,Pin_5*%
%TO.N,Net-(JR1-Pin_5)*%
X105659000Y-87630000D03*
%TO.P,JR1,6,Pin_6*%
%TO.N,Net-(JR1-Pin_6)*%
X105659000Y-90170000D03*
%TO.P,JR1,7,Pin_7*%
%TO.N,Net-(JR1-Pin_7)*%
X105659000Y-92710000D03*
%TO.P,JR1,8,Pin_8*%
%TO.N,Net-(JR1-Pin_8)*%
X105659000Y-95250000D03*
%TO.P,JR1,9,Pin_9*%
%TO.N,Net-(JR1-Pin_9)*%
X105659000Y-97790000D03*
%TO.P,JR1,10,Pin_10*%
%TO.N,Net-(JR1-Pin_10)*%
X105659000Y-100330000D03*
%TO.P,JR1,11,Pin_11*%
%TO.N,Net-(JR1-Pin_11)*%
X105659000Y-102870000D03*
%TO.P,JR1,12,Pin_12*%
%TO.N,Net-(JR1-Pin_12)*%
X105659000Y-105410000D03*
%TO.P,JR1,13,Pin_13*%
%TO.N,Net-(JR1-Pin_13)*%
X105659000Y-107950000D03*
%TO.P,JR1,14,Pin_14*%
%TO.N,Net-(JR1-Pin_14)*%
X105659000Y-110490000D03*
%TO.P,JR1,15,Pin_15*%
%TO.N,Net-(JR1-Pin_15)*%
X105659000Y-113030000D03*
%TO.P,JR1,16,Pin_16*%
%TO.N,Net-(JR1-Pin_16)*%
X105659000Y-115570000D03*
%TO.P,JR1,17,Pin_17*%
%TO.N,Net-(JR1-Pin_17)*%
X105659000Y-118110000D03*
%TO.P,JR1,18,Pin_18*%
%TO.N,Net-(JR1-Pin_18)*%
X105659000Y-120650000D03*
%TO.P,JR1,19,Pin_19*%
%TO.N,Net-(JR1-Pin_19)*%
X105659000Y-123190000D03*
%TO.P,JR1,20,Pin_20*%
%TO.N,Net-(JR1-Pin_20)*%
X105659000Y-125730000D03*
%TO.P,JR1,21,Pin_21*%
%TO.N,Net-(JR1-Pin_21)*%
X105659000Y-128270000D03*
%TO.P,JR1,22,Pin_22*%
%TO.N,Net-(JR1-Pin_22)*%
X105659000Y-130810000D03*
%TO.P,JR1,23,Pin_23*%
%TO.N,Net-(JR1-Pin_23)*%
X105659000Y-133350000D03*
%TO.P,JR1,24,Pin_24*%
%TO.N,Net-(JR1-Pin_24)*%
X105659000Y-135890000D03*
%TO.P,JR1,25,Pin_25*%
%TO.N,Net-(JR1-Pin_25)*%
X120899000Y-135890000D03*
%TO.P,JR1,26,Pin_26*%
%TO.N,Net-(JR1-Pin_26)*%
X120899000Y-133350000D03*
%TO.P,JR1,27,Pin_27*%
%TO.N,Net-(JR1-Pin_27)*%
X120899000Y-130810000D03*
%TO.P,JR1,28,Pin_28*%
%TO.N,Net-(JR1-Pin_28)*%
X120899000Y-128270000D03*
%TO.P,JR1,29,Pin_29*%
%TO.N,Net-(JR1-Pin_29)*%
X120899000Y-125730000D03*
%TO.P,JR1,30,Pin_30*%
%TO.N,Net-(JR1-Pin_30)*%
X120899000Y-123190000D03*
%TO.P,JR1,31,Pin_31*%
%TO.N,Net-(JR1-Pin_31)*%
X120899000Y-120650000D03*
%TO.P,JR1,32,Pin_32*%
%TO.N,Net-(JR1-Pin_32)*%
X120899000Y-118110000D03*
%TO.P,JR1,33,Pin_33*%
%TO.N,Net-(JR1-Pin_33)*%
X120899000Y-115570000D03*
%TO.P,JR1,34,Pin_34*%
%TO.N,Net-(JR1-Pin_34)*%
X120899000Y-113030000D03*
%TO.P,JR1,35,Pin_35*%
%TO.N,Net-(JR1-Pin_35)*%
X120899000Y-110490000D03*
%TO.P,JR1,36,Pin_36*%
%TO.N,Net-(JR1-Pin_36)*%
X120899000Y-107950000D03*
%TO.P,JR1,37,Pin_37*%
%TO.N,Net-(JR1-Pin_37)*%
X120899000Y-105410000D03*
%TO.P,JR1,38,Pin_38*%
%TO.N,Net-(JR1-Pin_38)*%
X120899000Y-102870000D03*
%TO.P,JR1,39,Pin_39*%
%TO.N,Net-(JR1-Pin_39)*%
X120899000Y-100330000D03*
%TO.P,JR1,40,Pin_40*%
%TO.N,Net-(JR1-Pin_40)*%
X120899000Y-97790000D03*
%TO.P,JR1,41,Pin_41*%
%TO.N,Net-(JR1-Pin_41)*%
X120899000Y-95250000D03*
%TO.P,JR1,42,Pin_42*%
%TO.N,Net-(JR1-Pin_42)*%
X120899000Y-92710000D03*
%TO.P,JR1,43,Pin_43*%
%TO.N,Net-(JR1-Pin_43)*%
X120899000Y-90170000D03*
%TO.P,JR1,44,Pin_44*%
%TO.N,Net-(JR1-Pin_44)*%
X120899000Y-87630000D03*
%TO.P,JR1,45,Pin_45*%
%TO.N,Net-(JR1-Pin_45)*%
X120899000Y-85090000D03*
%TO.P,JR1,46,Pin_46*%
%TO.N,Net-(JR1-Pin_46)*%
X120899000Y-82550000D03*
%TO.P,JR1,47,Pin_47*%
%TO.N,Net-(JR1-Pin_47)*%
X120899000Y-80010000D03*
%TO.P,JR1,48,Pin_48*%
%TO.N,Net-(JR1-Pin_48)*%
X120899000Y-77470000D03*
%TD*%
D10*
%TO.P,JH6,1,VCC*%
%TO.N,VCC*%
X180340000Y-104136902D03*
%TD*%
%TO.P,JH43,1,~{CS}*%
%TO.N,~{CS}*%
X196850000Y-111756902D03*
D11*
%TO.P,JH43,2,~{CS}*%
X196850000Y-114296902D03*
%TO.P,JH43,3,~{CS}*%
X196850000Y-116836902D03*
%TO.P,JH43,4,~{CS}*%
X196850000Y-119376902D03*
%TD*%
D10*
%TO.P,JH23,1,D8*%
%TO.N,D8*%
X168910000Y-146050000D03*
D11*
%TO.P,JH23,2,D9*%
%TO.N,D9*%
X171450000Y-146050000D03*
%TO.P,JH23,3,D10*%
%TO.N,D10*%
X173990000Y-146050000D03*
%TO.P,JH23,4,D11*%
%TO.N,D11*%
X176530000Y-146050000D03*
%TD*%
D10*
%TO.P,JH22,1,D4*%
%TO.N,D4*%
X153670000Y-146050000D03*
D11*
%TO.P,JH22,2,D5*%
%TO.N,D5*%
X156210000Y-146050000D03*
%TO.P,JH22,3,D6*%
%TO.N,D6*%
X158750000Y-146050000D03*
%TO.P,JH22,4,D7*%
%TO.N,D7*%
X161290000Y-146050000D03*
%TD*%
D10*
%TO.P,JH24,1,D12*%
%TO.N,D12*%
X184150000Y-146050000D03*
D11*
%TO.P,JH24,2,D13*%
%TO.N,D13*%
X186690000Y-146050000D03*
%TO.P,JH24,3,D14*%
%TO.N,D14*%
X189230000Y-146050000D03*
%TO.P,JH24,4,D15*%
%TO.N,D15*%
X191770000Y-146050000D03*
%TD*%
D10*
%TO.P,JH31,1,VCC*%
%TO.N,VCC*%
X138430000Y-81280000D03*
D11*
%TO.P,JH31,2,VCC*%
X138430000Y-83820000D03*
%TO.P,JH31,3,VCC*%
X138430000Y-86360000D03*
%TO.P,JH31,4,VCC*%
X138430000Y-88900000D03*
%TD*%
D10*
%TO.P,JH34,1,GND*%
%TO.N,GND*%
X138430000Y-127000000D03*
D11*
%TO.P,JH34,2,GND*%
X138430000Y-129540000D03*
%TO.P,JH34,3,GND*%
X138430000Y-132080000D03*
%TO.P,JH34,4,GND*%
X138430000Y-134620000D03*
%TD*%
D10*
%TO.P,JH5,1,A9*%
%TO.N,A9*%
X180340000Y-114296902D03*
D11*
%TO.P,JH5,2,A8*%
%TO.N,A8*%
X180340000Y-111756902D03*
%TO.P,JH5,3,VCC*%
%TO.N,VCC*%
X180340000Y-109216902D03*
%TD*%
D10*
%TO.P,JH11,1,A0*%
%TO.N,A0*%
X138430000Y-69850000D03*
D11*
%TO.P,JH11,2,A1*%
%TO.N,A1*%
X140970000Y-69850000D03*
%TO.P,JH11,3,A2*%
%TO.N,A2*%
X143510000Y-69850000D03*
%TO.P,JH11,4,A3*%
%TO.N,A3*%
X146050000Y-69850000D03*
%TD*%
D10*
%TO.P,JH13,1,A8*%
%TO.N,A8*%
X163830000Y-69850000D03*
D11*
%TO.P,JH13,2,A9*%
%TO.N,A9*%
X166370000Y-69850000D03*
%TO.P,JH13,3,A10*%
%TO.N,A10*%
X168910000Y-69850000D03*
%TO.P,JH13,4,A11*%
%TO.N,A11*%
X171450000Y-69850000D03*
%TD*%
D14*
%TO.P,C1,1*%
%TO.N,VCC*%
X190500000Y-113110000D03*
%TO.P,C1,2*%
%TO.N,GND*%
X190500000Y-123110000D03*
%TD*%
D10*
%TO.P,JH4,1,A10*%
%TO.N,A10*%
X180340000Y-121916902D03*
D11*
%TO.P,JH4,2,~{CS}*%
%TO.N,~{CS}*%
X180340000Y-119376902D03*
%TD*%
D10*
%TO.P,JH21,1,D0*%
%TO.N,D0*%
X138430000Y-146050000D03*
D11*
%TO.P,JH21,2,D1*%
%TO.N,D1*%
X140970000Y-146050000D03*
%TO.P,JH21,3,D2*%
%TO.N,D2*%
X143510000Y-146050000D03*
%TO.P,JH21,4,D3*%
%TO.N,D3*%
X146050000Y-146050000D03*
%TD*%
D10*
%TO.P,JH33,1,~{CS}*%
%TO.N,~{CS}*%
X138430000Y-111760000D03*
D11*
%TO.P,JH33,2,~{CS}*%
X138430000Y-114300000D03*
%TO.P,JH33,3,~{CS}*%
X138430000Y-116840000D03*
%TO.P,JH33,4,~{CS}*%
X138430000Y-119380000D03*
%TD*%
D10*
%TO.P,JH15,1,A16*%
%TO.N,A16*%
X189230000Y-69850000D03*
D11*
%TO.P,JH15,2,A17*%
%TO.N,A17*%
X191770000Y-69850000D03*
%TO.P,JH15,3,A18*%
%TO.N,A18*%
X194310000Y-69850000D03*
%TO.P,JH15,4,A19*%
%TO.N,A19*%
X196850000Y-69850000D03*
%TD*%
D10*
%TO.P,JH3,1,D3*%
%TO.N,D3*%
X180340000Y-137156902D03*
D11*
%TO.P,JH3,2,D4*%
%TO.N,D4*%
X180340000Y-134616902D03*
%TO.P,JH3,3,D5*%
%TO.N,D5*%
X180340000Y-132076902D03*
%TO.P,JH3,4,D6*%
%TO.N,D6*%
X180340000Y-129536902D03*
%TO.P,JH3,5,D7*%
%TO.N,D7*%
X180340000Y-126996902D03*
%TD*%
D10*
%TO.P,JH44,1,GND*%
%TO.N,GND*%
X196850000Y-126996902D03*
D11*
%TO.P,JH44,2,GND*%
X196850000Y-129536902D03*
%TO.P,JH44,3,GND*%
X196850000Y-132076902D03*
%TO.P,JH44,4,GND*%
X196850000Y-134616902D03*
%TD*%
D10*
%TO.P,JR2,1,Pin_1*%
%TO.N,Net-(JR1-Pin_1)*%
X157480000Y-78740000D03*
D11*
%TO.P,JR2,2,Pin_2*%
%TO.N,Net-(JR1-Pin_2)*%
X157480000Y-81280000D03*
%TO.P,JR2,3,Pin_3*%
%TO.N,Net-(JR1-Pin_3)*%
X157480000Y-83820000D03*
%TO.P,JR2,4,Pin_4*%
%TO.N,Net-(JR1-Pin_4)*%
X157480000Y-86360000D03*
%TO.P,JR2,5,Pin_5*%
%TO.N,Net-(JR1-Pin_5)*%
X157480000Y-88900000D03*
%TO.P,JR2,6,Pin_6*%
%TO.N,Net-(JR1-Pin_6)*%
X157480000Y-91440000D03*
%TO.P,JR2,7,Pin_7*%
%TO.N,Net-(JR1-Pin_7)*%
X157480000Y-93980000D03*
%TO.P,JR2,8,Pin_8*%
%TO.N,Net-(JR1-Pin_8)*%
X157480000Y-96520000D03*
%TO.P,JR2,9,Pin_9*%
%TO.N,Net-(JR1-Pin_9)*%
X157480000Y-99060000D03*
%TO.P,JR2,10,Pin_10*%
%TO.N,Net-(JR1-Pin_10)*%
X157480000Y-101600000D03*
%TO.P,JR2,11,Pin_11*%
%TO.N,Net-(JR1-Pin_11)*%
X157480000Y-104140000D03*
%TO.P,JR2,12,Pin_12*%
%TO.N,Net-(JR1-Pin_12)*%
X157480000Y-106680000D03*
%TO.P,JR2,13,Pin_13*%
%TO.N,Net-(JR1-Pin_13)*%
X157480000Y-109220000D03*
%TO.P,JR2,14,Pin_14*%
%TO.N,Net-(JR1-Pin_14)*%
X157480000Y-111760000D03*
%TO.P,JR2,15,Pin_15*%
%TO.N,Net-(JR1-Pin_15)*%
X157480000Y-114300000D03*
%TO.P,JR2,16,Pin_16*%
%TO.N,Net-(JR1-Pin_16)*%
X157480000Y-116840000D03*
%TO.P,JR2,17,Pin_17*%
%TO.N,Net-(JR1-Pin_17)*%
X157480000Y-119380000D03*
%TO.P,JR2,18,Pin_18*%
%TO.N,Net-(JR1-Pin_18)*%
X157480000Y-121920000D03*
%TO.P,JR2,19,Pin_19*%
%TO.N,Net-(JR1-Pin_19)*%
X157480000Y-124460000D03*
%TO.P,JR2,20,Pin_20*%
%TO.N,Net-(JR1-Pin_20)*%
X157480000Y-127000000D03*
%TO.P,JR2,21,Pin_21*%
%TO.N,Net-(JR1-Pin_21)*%
X157480000Y-129540000D03*
%TO.P,JR2,22,Pin_22*%
%TO.N,Net-(JR1-Pin_22)*%
X157480000Y-132080000D03*
%TO.P,JR2,23,Pin_23*%
%TO.N,Net-(JR1-Pin_23)*%
X157480000Y-134620000D03*
%TO.P,JR2,24,Pin_24*%
%TO.N,Net-(JR1-Pin_24)*%
X157480000Y-137160000D03*
%TD*%
D10*
%TO.P,JH12,1,A4*%
%TO.N,A4*%
X151130000Y-69850000D03*
D11*
%TO.P,JH12,2,A5*%
%TO.N,A5*%
X153670000Y-69850000D03*
%TO.P,JH12,3,A6*%
%TO.N,A6*%
X156210000Y-69850000D03*
%TO.P,JH12,4,A7*%
%TO.N,A7*%
X158750000Y-69850000D03*
%TD*%
D15*
%TO.N,GND*%
X138430000Y-139700000D03*
%TO.N,VCC*%
X138430000Y-73660000D03*
%TO.N,A10*%
X187325000Y-121920000D03*
%TO.N,A1*%
X124460000Y-64135000D03*
%TO.N,A9*%
X187325000Y-114296902D03*
%TO.N,A6*%
X118110000Y-60960000D03*
%TO.N,A5*%
X119380000Y-61595000D03*
%TO.N,A3*%
X121920000Y-62865000D03*
%TO.N,A8*%
X187321902Y-111756902D03*
%TO.N,A4*%
X120650000Y-62230000D03*
%TO.N,CS*%
X129540000Y-96520000D03*
X139700000Y-74930000D03*
%TO.N,A7*%
X116840000Y-60325000D03*
%TO.N,A0*%
X125730000Y-64770000D03*
%TO.N,D15*%
X163195000Y-71755000D03*
X163195000Y-67310000D03*
%TO.N,~{CS}*%
X128270000Y-111760000D03*
X140970000Y-76200000D03*
%TO.N,A2*%
X123190000Y-63500000D03*
%TO.N,A12*%
X158750000Y-72390000D03*
%TO.N,Net-(JR1-Pin_18)*%
X152400000Y-121920000D03*
%TO.N,Net-(JR1-Pin_12)*%
X152400000Y-106680000D03*
%TO.N,Net-(JR1-Pin_24)*%
X149860000Y-138430000D03*
%TO.N,Net-(JR1-Pin_20)*%
X152400000Y-127000000D03*
%TO.N,Net-(JR1-Pin_22)*%
X152400000Y-134620000D03*
%TO.N,Net-(JR1-Pin_17)*%
X152400000Y-119380000D03*
%TO.N,Net-(JR1-Pin_15)*%
X152400000Y-114300000D03*
%TO.N,Net-(JR1-Pin_19)*%
X152400000Y-124460000D03*
%TO.N,Net-(JR1-Pin_13)*%
X152400000Y-109220000D03*
%TO.N,Net-(JR1-Pin_16)*%
X152400000Y-116840000D03*
%TO.N,Net-(JR1-Pin_21)*%
X152400000Y-129540000D03*
%TO.N,Net-(JR1-Pin_14)*%
X152400000Y-111760000D03*
%TO.N,Net-(JR1-Pin_23)*%
X149225000Y-136525000D03*
%TD*%
D16*
%TO.N,GND*%
X138430000Y-139700000D02*
X191766902Y-139700000D01*
X154940000Y-137160000D02*
X154940000Y-139700000D01*
X191766902Y-139700000D02*
X196850000Y-134616902D01*
%TO.N,VCC*%
X196850000Y-73660000D02*
X196850000Y-76201902D01*
X196850000Y-73661902D02*
X196850000Y-76201902D01*
X190500000Y-113030000D02*
X190500000Y-111760000D01*
X198120000Y-64770000D02*
X198120000Y-72390000D01*
X186690000Y-53340000D02*
X198120000Y-64770000D01*
X198120000Y-72390000D02*
X196850000Y-73660000D01*
X179070000Y-53340000D02*
X186690000Y-53340000D01*
X196850000Y-88896902D02*
X199390000Y-91436902D01*
X199390000Y-91436902D02*
X199390000Y-113030000D01*
X199390000Y-113030000D02*
X190500000Y-113030000D01*
X138430000Y-73660000D02*
X196850000Y-73660000D01*
X187956902Y-109216902D02*
X180340000Y-109216902D01*
X190500000Y-113110000D02*
X190500000Y-113030000D01*
X190500000Y-111760000D02*
X187956902Y-109216902D01*
X180340000Y-109216902D02*
X180340000Y-104136902D01*
X196850000Y-76201902D02*
X196850000Y-81276902D01*
D17*
%TO.N,A10*%
X187321902Y-121916902D02*
X180340000Y-121916902D01*
X187325000Y-121920000D02*
X187321902Y-121916902D01*
%TO.N,A1*%
X140970000Y-69850000D02*
X135255000Y-64135000D01*
X135255000Y-64135000D02*
X124460000Y-64135000D01*
%TO.N,A9*%
X180340000Y-114296902D02*
X187325000Y-114296902D01*
%TO.N,A17*%
X191770000Y-69850000D02*
X180975000Y-59055000D01*
X136525000Y-59055000D02*
X133350000Y-55880000D01*
X180975000Y-59055000D02*
X136525000Y-59055000D01*
%TO.N,A6*%
X147320000Y-60960000D02*
X118110000Y-60960000D01*
X156210000Y-69850000D02*
X147320000Y-60960000D01*
%TO.N,A18*%
X134739000Y-56356760D02*
X134739000Y-54491000D01*
X134739000Y-54491000D02*
X135890000Y-53340000D01*
X136802240Y-58420000D02*
X134739000Y-56356760D01*
X194310000Y-69850000D02*
X182880000Y-58420000D01*
X182880000Y-58420000D02*
X136802240Y-58420000D01*
%TO.N,A5*%
X145415000Y-61595000D02*
X119380000Y-61595000D01*
X153670000Y-69850000D02*
X145415000Y-61595000D01*
%TO.N,A3*%
X139065000Y-62865000D02*
X121920000Y-62865000D01*
X146050000Y-69850000D02*
X139065000Y-62865000D01*
%TO.N,A8*%
X187321902Y-111756902D02*
X180340000Y-111756902D01*
%TO.N,A4*%
X143510000Y-62230000D02*
X120650000Y-62230000D01*
X151130000Y-69850000D02*
X143510000Y-62230000D01*
%TO.N,CS*%
X194310000Y-93976902D02*
X194310000Y-77470000D01*
X194310000Y-77470000D02*
X191770000Y-74930000D01*
X194310000Y-93976902D02*
X196850000Y-96516902D01*
X138430000Y-96520000D02*
X129540000Y-96520000D01*
X139700000Y-74930000D02*
X191770000Y-74930000D01*
%TO.N,A7*%
X149225000Y-60325000D02*
X116840000Y-60325000D01*
X158750000Y-69850000D02*
X149225000Y-60325000D01*
%TO.N,A0*%
X133350000Y-64770000D02*
X138430000Y-69850000D01*
X125730000Y-64770000D02*
X133350000Y-64770000D01*
%TO.N,A19*%
X137862000Y-57852000D02*
X184852000Y-57852000D01*
X135890000Y-55880000D02*
X137862000Y-57852000D01*
X184852000Y-57852000D02*
X196850000Y-69850000D01*
%TO.N,D15*%
X163195000Y-68064000D02*
X162679000Y-68580000D01*
X162679000Y-68580000D02*
X162679000Y-71239000D01*
X162679000Y-71239000D02*
X163195000Y-71755000D01*
X163195000Y-67310000D02*
X163195000Y-68064000D01*
%TO.N,~{CS}*%
X190500000Y-76200000D02*
X193040000Y-78740000D01*
X193040000Y-78740000D02*
X193040000Y-107946902D01*
X128270000Y-111760000D02*
X138430000Y-111760000D01*
X140970000Y-76200000D02*
X190500000Y-76200000D01*
X193040000Y-107946902D02*
X196850000Y-111756902D01*
X180340000Y-119376902D02*
X196850000Y-119376902D01*
%TO.N,A2*%
X123190000Y-63500000D02*
X137160000Y-63500000D01*
X137160000Y-63500000D02*
X143510000Y-69850000D01*
%TO.N,A12*%
X173990000Y-72390000D02*
X176530000Y-69850000D01*
X158750000Y-72390000D02*
X173990000Y-72390000D01*
%TO.N,A16*%
X179070000Y-59690000D02*
X135532240Y-59690000D01*
X132199000Y-54491000D02*
X133350000Y-53340000D01*
X135532240Y-59690000D02*
X132199000Y-56356760D01*
X189230000Y-69850000D02*
X179070000Y-59690000D01*
X132199000Y-56356760D02*
X132199000Y-54491000D01*
%TO.N,Net-(JR1-Pin_26)*%
X139700000Y-135890000D02*
X126966052Y-135890000D01*
X176533098Y-133350000D02*
X142240000Y-133350000D01*
X126966052Y-135890000D02*
X124426052Y-133350000D01*
X177800000Y-134616902D02*
X176533098Y-133350000D01*
X124426052Y-133350000D02*
X120899000Y-133350000D01*
X142240000Y-133350000D02*
X139700000Y-135890000D01*
%TO.N,Net-(JR1-Pin_27)*%
X177800000Y-132076902D02*
X176533098Y-130810000D01*
X126966052Y-133350000D02*
X124426052Y-130810000D01*
X143016380Y-130810000D02*
X140476380Y-133350000D01*
X140476380Y-133350000D02*
X126966052Y-133350000D01*
X124426052Y-130810000D02*
X120899000Y-130810000D01*
X176533098Y-130810000D02*
X143016380Y-130810000D01*
%TO.N,Net-(JR1-Pin_18)*%
X125730000Y-123190000D02*
X124460000Y-121920000D01*
X146685000Y-121920000D02*
X145415000Y-123190000D01*
X124460000Y-121920000D02*
X106929000Y-121920000D01*
X152400000Y-121920000D02*
X146685000Y-121920000D01*
X106929000Y-121920000D02*
X105659000Y-120650000D01*
X145415000Y-123190000D02*
X125730000Y-123190000D01*
%TO.N,Net-(JR1-Pin_33)*%
X176533098Y-115570000D02*
X146752900Y-115570000D01*
X126832100Y-118110000D02*
X124292100Y-115570000D01*
X146752900Y-115570000D02*
X144212900Y-118110000D01*
X124292100Y-115570000D02*
X120899000Y-115570000D01*
X144212900Y-118110000D02*
X126832100Y-118110000D01*
X177800000Y-116836902D02*
X176533098Y-115570000D01*
%TO.N,Net-(JR1-Pin_1)*%
X145181000Y-77871000D02*
X146050000Y-78740000D01*
X105659000Y-77470000D02*
X106929000Y-78740000D01*
X146050000Y-78740000D02*
X157480000Y-78740000D01*
X130810000Y-78740000D02*
X131679000Y-77871000D01*
X131679000Y-77871000D02*
X145181000Y-77871000D01*
X106929000Y-78740000D02*
X130810000Y-78740000D01*
%TO.N,Net-(JR1-Pin_3)*%
X135155000Y-79475000D02*
X142407900Y-79475000D01*
X142407900Y-79475000D02*
X146752900Y-83820000D01*
X146752900Y-83820000D02*
X157480000Y-83820000D01*
X105659000Y-82550000D02*
X106929000Y-83820000D01*
X106929000Y-83820000D02*
X130810000Y-83820000D01*
X130810000Y-83820000D02*
X135155000Y-79475000D01*
%TO.N,Net-(JR1-Pin_12)*%
X106929000Y-106680000D02*
X105659000Y-105410000D01*
X152400000Y-106680000D02*
X106929000Y-106680000D01*
%TO.N,Net-(JR1-Pin_4)*%
X142240000Y-82550000D02*
X146050000Y-86360000D01*
X134620000Y-82550000D02*
X142240000Y-82550000D01*
X106929000Y-86360000D02*
X130810000Y-86360000D01*
X130810000Y-86360000D02*
X134620000Y-82550000D01*
X146050000Y-86360000D02*
X157480000Y-86360000D01*
X105659000Y-85090000D02*
X106929000Y-86360000D01*
%TO.N,Net-(JR1-Pin_24)*%
X108199000Y-138430000D02*
X105659000Y-135890000D01*
X149860000Y-138430000D02*
X108199000Y-138430000D01*
%TO.N,Net-(JR1-Pin_11)*%
X144780000Y-102870000D02*
X146050000Y-104140000D01*
X146050000Y-104140000D02*
X157480000Y-104140000D01*
X106929000Y-104140000D02*
X124460000Y-104140000D01*
X124460000Y-104140000D02*
X125730000Y-102870000D01*
X125730000Y-102870000D02*
X144780000Y-102870000D01*
X105659000Y-102870000D02*
X106929000Y-104140000D01*
%TO.N,Net-(JR1-Pin_42)*%
X176533098Y-92710000D02*
X177800000Y-93976902D01*
X146050000Y-92710000D02*
X176533098Y-92710000D01*
X124460000Y-92710000D02*
X125730000Y-91440000D01*
X144780000Y-91440000D02*
X146050000Y-92710000D01*
X125730000Y-91440000D02*
X144780000Y-91440000D01*
X120899000Y-92710000D02*
X124460000Y-92710000D01*
%TO.N,Net-(JR1-Pin_48)*%
X175850098Y-77470000D02*
X177117000Y-78736902D01*
X120899000Y-77470000D02*
X175850098Y-77470000D01*
%TO.N,Net-(JR1-Pin_37)*%
X176533098Y-105410000D02*
X177800000Y-106676902D01*
X120899000Y-105410000D02*
X176533098Y-105410000D01*
%TO.N,Net-(JR1-Pin_10)*%
X106929000Y-101600000D02*
X124460000Y-101600000D01*
X142240000Y-97790000D02*
X146050000Y-101600000D01*
X105659000Y-100330000D02*
X106929000Y-101600000D01*
X124460000Y-101600000D02*
X128270000Y-97790000D01*
X128270000Y-97790000D02*
X142240000Y-97790000D01*
X146050000Y-101600000D02*
X157480000Y-101600000D01*
%TO.N,Net-(JR1-Pin_20)*%
X125730000Y-125730000D02*
X124460000Y-127000000D01*
X152400000Y-127000000D02*
X143510000Y-127000000D01*
X142240000Y-125730000D02*
X125730000Y-125730000D01*
X124460000Y-127000000D02*
X106929000Y-127000000D01*
X106929000Y-127000000D02*
X105659000Y-125730000D01*
X143510000Y-127000000D02*
X142240000Y-125730000D01*
%TO.N,Net-(JR1-Pin_22)*%
X140335000Y-136525000D02*
X126331052Y-136525000D01*
X142240000Y-134620000D02*
X140335000Y-136525000D01*
X152400000Y-134620000D02*
X142240000Y-134620000D01*
X109469000Y-134620000D02*
X105659000Y-130810000D01*
X126331052Y-136525000D02*
X124426052Y-134620000D01*
X124426052Y-134620000D02*
X109469000Y-134620000D01*
%TO.N,Net-(JR1-Pin_2)*%
X130810000Y-81280000D02*
X133417000Y-78673000D01*
X143443000Y-78673000D02*
X146050000Y-81280000D01*
X105659000Y-80010000D02*
X106929000Y-81280000D01*
X146050000Y-81280000D02*
X157480000Y-81280000D01*
X106929000Y-81280000D02*
X130810000Y-81280000D01*
X133417000Y-78673000D02*
X143443000Y-78673000D01*
%TO.N,Net-(JR1-Pin_44)*%
X143510000Y-85090000D02*
X146050000Y-87630000D01*
X176533098Y-87630000D02*
X177800000Y-88896902D01*
X120899000Y-87630000D02*
X130810000Y-87630000D01*
X130810000Y-87630000D02*
X133350000Y-85090000D01*
X133350000Y-85090000D02*
X143510000Y-85090000D01*
X146050000Y-87630000D02*
X176533098Y-87630000D01*
%TO.N,Net-(JR1-Pin_25)*%
X146050000Y-137160000D02*
X122169000Y-137160000D01*
X152400000Y-135890000D02*
X151765000Y-135255000D01*
X122169000Y-137160000D02*
X120899000Y-135890000D01*
X151765000Y-135255000D02*
X147955000Y-135255000D01*
X176533098Y-135890000D02*
X152400000Y-135890000D01*
X177800000Y-137156902D02*
X176533098Y-135890000D01*
X147955000Y-135255000D02*
X146050000Y-137160000D01*
%TO.N,Net-(JR1-Pin_17)*%
X127000000Y-121920000D02*
X124460000Y-119380000D01*
X146718950Y-119380000D02*
X144178950Y-121920000D01*
X144178950Y-121920000D02*
X127000000Y-121920000D01*
X124460000Y-119380000D02*
X106929000Y-119380000D01*
X106929000Y-119380000D02*
X105659000Y-118110000D01*
X152400000Y-119380000D02*
X146718950Y-119380000D01*
%TO.N,Net-(JR1-Pin_32)*%
X146685000Y-118110000D02*
X143510000Y-121285000D01*
X177800000Y-119376902D02*
X176533098Y-118110000D01*
X143510000Y-121285000D02*
X127534998Y-121285000D01*
X127534998Y-121285000D02*
X124359998Y-118110000D01*
X124359998Y-118110000D02*
X120899000Y-118110000D01*
X176533098Y-118110000D02*
X146685000Y-118110000D01*
%TO.N,Net-(JR1-Pin_15)*%
X146050000Y-114300000D02*
X144780000Y-115570000D01*
X144780000Y-115570000D02*
X129540000Y-115570000D01*
X106929000Y-114300000D02*
X105659000Y-113030000D01*
X128270000Y-114300000D02*
X106929000Y-114300000D01*
X152400000Y-114300000D02*
X146050000Y-114300000D01*
X129540000Y-115570000D02*
X128270000Y-114300000D01*
%TO.N,Net-(JR1-Pin_43)*%
X176533098Y-90170000D02*
X177800000Y-91436902D01*
X120899000Y-90170000D02*
X176533098Y-90170000D01*
%TO.N,Net-(JR1-Pin_6)*%
X145415000Y-90805000D02*
X146050000Y-91440000D01*
X105659000Y-90170000D02*
X106929000Y-91440000D01*
X124460000Y-91440000D02*
X125095000Y-90805000D01*
X106929000Y-91440000D02*
X124460000Y-91440000D01*
X146050000Y-91440000D02*
X157480000Y-91440000D01*
X125095000Y-90805000D02*
X145415000Y-90805000D01*
%TO.N,Net-(JR1-Pin_39)*%
X124460000Y-100330000D02*
X129540000Y-95250000D01*
X129540000Y-95250000D02*
X140970000Y-95250000D01*
X120899000Y-100330000D02*
X124460000Y-100330000D01*
X176533098Y-100330000D02*
X177800000Y-101596902D01*
X140970000Y-95250000D02*
X146050000Y-100330000D01*
X146050000Y-100330000D02*
X176533098Y-100330000D01*
%TO.N,Net-(JR1-Pin_5)*%
X132080000Y-87630000D02*
X144780000Y-87630000D01*
X144780000Y-87630000D02*
X146050000Y-88900000D01*
X105659000Y-87630000D02*
X106929000Y-88900000D01*
X106929000Y-88900000D02*
X130810000Y-88900000D01*
X130810000Y-88900000D02*
X132080000Y-87630000D01*
X146050000Y-88900000D02*
X157480000Y-88900000D01*
%TO.N,Net-(JR1-Pin_31)*%
X176533098Y-120650000D02*
X146685000Y-120650000D01*
X146685000Y-120650000D02*
X144780000Y-122555000D01*
X177800000Y-121916902D02*
X176533098Y-120650000D01*
X144780000Y-122555000D02*
X126365000Y-122555000D01*
X126365000Y-122555000D02*
X124460000Y-120650000D01*
X124460000Y-120650000D02*
X120899000Y-120650000D01*
%TO.N,Net-(JR1-Pin_19)*%
X105659000Y-123190000D02*
X106929000Y-124460000D01*
X106929000Y-124460000D02*
X152400000Y-124460000D01*
%TO.N,Net-(JR1-Pin_13)*%
X152400000Y-109220000D02*
X106929000Y-109220000D01*
X106929000Y-109220000D02*
X105659000Y-107950000D01*
%TO.N,Net-(JR1-Pin_16)*%
X124292098Y-116840000D02*
X106929000Y-116840000D01*
X142875000Y-120650000D02*
X128102098Y-120650000D01*
X152400000Y-116840000D02*
X146685000Y-116840000D01*
X128102098Y-120650000D02*
X124292098Y-116840000D01*
X106929000Y-116840000D02*
X105659000Y-115570000D01*
X146685000Y-116840000D02*
X142875000Y-120650000D01*
%TO.N,Net-(JR1-Pin_9)*%
X124460000Y-99060000D02*
X128905000Y-94615000D01*
X128905000Y-94615000D02*
X143577900Y-94615000D01*
X105659000Y-97790000D02*
X106929000Y-99060000D01*
X106929000Y-99060000D02*
X124460000Y-99060000D01*
X148022900Y-99060000D02*
X157480000Y-99060000D01*
X143577900Y-94615000D02*
X148022900Y-99060000D01*
%TO.N,Net-(JR1-Pin_47)*%
X175850098Y-80010000D02*
X177117000Y-81276902D01*
X132548000Y-78272000D02*
X144312000Y-78272000D01*
X130810000Y-80010000D02*
X132548000Y-78272000D01*
X120899000Y-80010000D02*
X130810000Y-80010000D01*
X146050000Y-80010000D02*
X175850098Y-80010000D01*
X144312000Y-78272000D02*
X146050000Y-80010000D01*
%TO.N,Net-(JR1-Pin_21)*%
X141672900Y-130810000D02*
X142942900Y-129540000D01*
X105659000Y-128270000D02*
X106929000Y-129540000D01*
X106929000Y-129540000D02*
X124460000Y-129540000D01*
X124460000Y-129540000D02*
X125730000Y-130810000D01*
X142942900Y-129540000D02*
X152400000Y-129540000D01*
X125730000Y-130810000D02*
X141672900Y-130810000D01*
%TO.N,Net-(JR1-Pin_29)*%
X176533098Y-125730000D02*
X144780000Y-125730000D01*
X144780000Y-125730000D02*
X144145000Y-125095000D01*
X177800000Y-126996902D02*
X176533098Y-125730000D01*
X124460000Y-125730000D02*
X120899000Y-125730000D01*
X125095000Y-125095000D02*
X124460000Y-125730000D01*
X144145000Y-125095000D02*
X125095000Y-125095000D01*
%TO.N,Net-(JR1-Pin_14)*%
X106929000Y-111760000D02*
X105659000Y-110490000D01*
X125730000Y-110490000D02*
X124460000Y-111760000D01*
X124460000Y-111760000D02*
X106929000Y-111760000D01*
X144780000Y-111760000D02*
X143510000Y-110490000D01*
X143510000Y-110490000D02*
X125730000Y-110490000D01*
X152400000Y-111760000D02*
X144780000Y-111760000D01*
%TO.N,Net-(JR1-Pin_46)*%
X176533098Y-82550000D02*
X177800000Y-83816902D01*
X130810000Y-82550000D02*
X134286000Y-79074000D01*
X120899000Y-82550000D02*
X130810000Y-82550000D01*
X134286000Y-79074000D02*
X142574000Y-79074000D01*
X142574000Y-79074000D02*
X146050000Y-82550000D01*
X146050000Y-82550000D02*
X176533098Y-82550000D01*
%TO.N,Net-(JR1-Pin_36)*%
X176533098Y-107950000D02*
X120899000Y-107950000D01*
X177800000Y-109216902D02*
X176533098Y-107950000D01*
%TO.N,Net-(JR1-Pin_45)*%
X140970000Y-79876000D02*
X146303000Y-85209000D01*
X176652098Y-85209000D02*
X177800000Y-86356902D01*
X130810000Y-85090000D02*
X136024000Y-79876000D01*
X146303000Y-85209000D02*
X176652098Y-85209000D01*
X120899000Y-85090000D02*
X130810000Y-85090000D01*
X136024000Y-79876000D02*
X140970000Y-79876000D01*
%TO.N,Net-(JR1-Pin_35)*%
X144145000Y-109855000D02*
X125095000Y-109855000D01*
X177800000Y-111756902D02*
X176533098Y-110490000D01*
X125095000Y-109855000D02*
X124460000Y-110490000D01*
X124460000Y-110490000D02*
X120899000Y-110490000D01*
X176533098Y-110490000D02*
X144780000Y-110490000D01*
X144780000Y-110490000D02*
X144145000Y-109855000D01*
%TO.N,Net-(JR1-Pin_40)*%
X128270000Y-93980000D02*
X143510000Y-93980000D01*
X143510000Y-93980000D02*
X147201000Y-97671000D01*
X176414098Y-97671000D02*
X177800000Y-99056902D01*
X120899000Y-97790000D02*
X124460000Y-97790000D01*
X147201000Y-97671000D02*
X176414098Y-97671000D01*
X124460000Y-97790000D02*
X128270000Y-93980000D01*
%TO.N,Net-(JR1-Pin_34)*%
X177800000Y-114296902D02*
X176533098Y-113030000D01*
X176533098Y-113030000D02*
X120899000Y-113030000D01*
%TO.N,Net-(JR1-Pin_41)*%
X127000000Y-92710000D02*
X143510000Y-92710000D01*
X143510000Y-92710000D02*
X145931000Y-95131000D01*
X176414098Y-95131000D02*
X177800000Y-96516902D01*
X120899000Y-95250000D02*
X124460000Y-95250000D01*
X145931000Y-95131000D02*
X176414098Y-95131000D01*
X124460000Y-95250000D02*
X127000000Y-92710000D01*
%TO.N,Net-(JR1-Pin_30)*%
X146050000Y-123825000D02*
X125095000Y-123825000D01*
X124460000Y-123190000D02*
X120899000Y-123190000D01*
X146685000Y-123190000D02*
X146050000Y-123825000D01*
X176533098Y-123190000D02*
X146685000Y-123190000D01*
X177800000Y-124456902D02*
X176533098Y-123190000D01*
X125095000Y-123825000D02*
X124460000Y-123190000D01*
%TO.N,Net-(JR1-Pin_23)*%
X149225000Y-136525000D02*
X147955000Y-137795000D01*
X147955000Y-137795000D02*
X110104000Y-137795000D01*
X110104000Y-137795000D02*
X105659000Y-133350000D01*
%TO.N,Net-(JR1-Pin_28)*%
X176533098Y-128270000D02*
X120899000Y-128270000D01*
X177800000Y-129536902D02*
X176533098Y-128270000D01*
%TO.N,Net-(JR1-Pin_8)*%
X105659000Y-95250000D02*
X106929000Y-96520000D01*
X143577900Y-93345000D02*
X146752900Y-96520000D01*
X106929000Y-96520000D02*
X124460000Y-96520000D01*
X127635000Y-93345000D02*
X143577900Y-93345000D01*
X146752900Y-96520000D02*
X157480000Y-96520000D01*
X124460000Y-96520000D02*
X127635000Y-93345000D01*
%TO.N,Net-(JR1-Pin_38)*%
X120899000Y-102870000D02*
X124460000Y-102870000D01*
X127000000Y-100330000D02*
X143510000Y-100330000D01*
X146050000Y-102870000D02*
X176533098Y-102870000D01*
X124460000Y-102870000D02*
X127000000Y-100330000D01*
X143510000Y-100330000D02*
X146050000Y-102870000D01*
X176533098Y-102870000D02*
X177800000Y-104136902D01*
%TO.N,Net-(JR1-Pin_7)*%
X105659000Y-92710000D02*
X106929000Y-93980000D01*
X146050000Y-93980000D02*
X157480000Y-93980000D01*
X106929000Y-93980000D02*
X124460000Y-93980000D01*
X144145000Y-92075000D02*
X146050000Y-93980000D01*
X124460000Y-93980000D02*
X126365000Y-92075000D01*
X126365000Y-92075000D02*
X144145000Y-92075000D01*
%TD*%
M02*
