M48
; DRILL file {KiCad 9.0.4-9.0.4-0~ubuntu24.04.1} date 2025-09-18T23:07:20+0900
; FORMAT={-:-/ absolute / metric / decimal}
; #@! TF.CreationDate,2025-09-18T23:07:20+09:00
; #@! TF.GenerationSoftware,Kicad,Pcbnew,9.0.4-9.0.4-0~ubuntu24.04.1
; #@! TF.FileFunction,MixedPlating,1,2
FMAT,2
METRIC
; #@! TA.AperFunction,Plated,PTH,ViaDrill
T1C0.300
; #@! TA.AperFunction,Plated,PTH,ComponentDrill
T2C0.800
; #@! TA.AperFunction,Plated,PTH,ComponentDrill
T3C1.000
%
G90
G05
T1
X116.84Y-60.325
X118.11Y-60.96
X119.38Y-61.595
X120.65Y-62.23
X121.92Y-62.865
X123.19Y-63.5
X124.46Y-64.135
X125.73Y-64.77
X128.27Y-111.76
X129.54Y-96.52
X138.43Y-73.66
X138.43Y-139.7
X139.7Y-74.93
X140.97Y-76.2
X149.225Y-136.525
X149.86Y-138.43
X152.4Y-106.68
X152.4Y-109.22
X152.4Y-111.76
X152.4Y-114.3
X152.4Y-116.84
X152.4Y-119.38
X152.4Y-121.92
X152.4Y-124.46
X152.4Y-127.0
X152.4Y-129.54
X152.4Y-134.62
X158.75Y-72.39
X163.195Y-67.31
X163.195Y-71.755
X187.322Y-111.757
X187.325Y-114.297
X187.325Y-121.92
T2
X190.5Y-113.11
X190.5Y-123.11
T3
X105.659Y-77.47
X105.659Y-80.01
X105.659Y-82.55
X105.659Y-85.09
X105.659Y-87.63
X105.659Y-90.17
X105.659Y-92.71
X105.659Y-95.25
X105.659Y-97.79
X105.659Y-100.33
X105.659Y-102.87
X105.659Y-105.41
X105.659Y-107.95
X105.659Y-110.49
X105.659Y-113.03
X105.659Y-115.57
X105.659Y-118.11
X105.659Y-120.65
X105.659Y-123.19
X105.659Y-125.73
X105.659Y-128.27
X105.659Y-130.81
X105.659Y-133.35
X105.659Y-135.89
X118.11Y-53.34
X118.11Y-55.88
X120.65Y-53.34
X120.65Y-55.88
X120.899Y-77.47
X120.899Y-80.01
X120.899Y-82.55
X120.899Y-85.09
X120.899Y-87.63
X120.899Y-90.17
X120.899Y-92.71
X120.899Y-95.25
X120.899Y-97.79
X120.899Y-100.33
X120.899Y-102.87
X120.899Y-105.41
X120.899Y-107.95
X120.899Y-110.49
X120.899Y-113.03
X120.899Y-115.57
X120.899Y-118.11
X120.899Y-120.65
X120.899Y-123.19
X120.899Y-125.73
X120.899Y-128.27
X120.899Y-130.81
X120.899Y-133.35
X120.899Y-135.89
X123.19Y-53.34
X123.19Y-55.88
X125.73Y-53.34
X125.73Y-55.88
X128.27Y-53.34
X128.27Y-55.88
X130.81Y-53.34
X130.81Y-55.88
X133.35Y-53.34
X133.35Y-55.88
X135.89Y-53.34
X135.89Y-55.88
X138.43Y-53.34
X138.43Y-55.88
X138.43Y-69.85
X138.43Y-81.28
X138.43Y-83.82
X138.43Y-86.36
X138.43Y-88.9
X138.43Y-96.52
X138.43Y-99.06
X138.43Y-101.6
X138.43Y-104.14
X138.43Y-111.76
X138.43Y-114.3
X138.43Y-116.84
X138.43Y-119.38
X138.43Y-127.0
X138.43Y-129.54
X138.43Y-132.08
X138.43Y-134.62
X138.43Y-146.05
X140.97Y-53.34
X140.97Y-55.88
X140.97Y-69.85
X140.97Y-146.05
X143.51Y-53.34
X143.51Y-55.88
X143.51Y-69.85
X143.51Y-146.05
X146.05Y-53.34
X146.05Y-55.88
X146.05Y-69.85
X146.05Y-146.05
X148.59Y-53.34
X148.59Y-55.88
X151.13Y-53.34
X151.13Y-55.88
X151.13Y-69.85
X153.67Y-53.34
X153.67Y-55.88
X153.67Y-69.85
X153.67Y-146.05
X154.94Y-106.68
X154.94Y-109.22
X154.94Y-111.76
X154.94Y-114.3
X154.94Y-116.84
X154.94Y-119.38
X154.94Y-121.92
X154.94Y-124.46
X154.94Y-127.0
X154.94Y-129.54
X154.94Y-132.08
X154.94Y-134.62
X154.94Y-137.16
X156.21Y-53.34
X156.21Y-55.88
X156.21Y-69.85
X156.21Y-146.05
X157.48Y-78.74
X157.48Y-81.28
X157.48Y-83.82
X157.48Y-86.36
X157.48Y-88.9
X157.48Y-91.44
X157.48Y-93.98
X157.48Y-96.52
X157.48Y-99.06
X157.48Y-101.6
X157.48Y-104.14
X157.48Y-106.68
X157.48Y-109.22
X157.48Y-111.76
X157.48Y-114.3
X157.48Y-116.84
X157.48Y-119.38
X157.48Y-121.92
X157.48Y-124.46
X157.48Y-127.0
X157.48Y-129.54
X157.48Y-132.08
X157.48Y-134.62
X157.48Y-137.16
X158.75Y-53.34
X158.75Y-55.88
X158.75Y-69.85
X158.75Y-146.05
X161.29Y-53.34
X161.29Y-55.88
X161.29Y-146.05
X163.83Y-53.34
X163.83Y-55.88
X163.83Y-69.85
X166.37Y-53.34
X166.37Y-55.88
X166.37Y-69.85
X168.91Y-53.34
X168.91Y-55.88
X168.91Y-69.85
X168.91Y-146.05
X171.45Y-53.34
X171.45Y-55.88
X171.45Y-69.85
X171.45Y-146.05
X173.99Y-53.34
X173.99Y-55.88
X173.99Y-146.05
X176.53Y-53.34
X176.53Y-55.88
X176.53Y-69.85
X176.53Y-146.05
X177.8Y-78.737
X177.8Y-81.277
X177.8Y-83.817
X177.8Y-86.357
X177.8Y-88.897
X177.8Y-91.437
X177.8Y-93.977
X177.8Y-96.517
X177.8Y-99.057
X177.8Y-101.597
X177.8Y-104.137
X177.8Y-106.677
X177.8Y-109.217
X177.8Y-111.757
X177.8Y-114.297
X177.8Y-116.837
X177.8Y-119.377
X177.8Y-121.917
X177.8Y-124.457
X177.8Y-126.997
X177.8Y-129.537
X177.8Y-132.077
X177.8Y-134.617
X177.8Y-137.157
X179.07Y-53.34
X179.07Y-55.88
X179.07Y-69.85
X180.34Y-104.137
X180.34Y-109.217
X180.34Y-111.757
X180.34Y-114.297
X180.34Y-119.377
X180.34Y-121.917
X180.34Y-126.997
X180.34Y-129.537
X180.34Y-132.077
X180.34Y-134.617
X180.34Y-137.157
X181.61Y-69.85
X184.15Y-69.85
X184.15Y-146.05
X186.69Y-146.05
X189.23Y-69.85
X189.23Y-146.05
X191.77Y-69.85
X191.77Y-146.05
X194.31Y-69.85
X196.85Y-69.85
X196.85Y-81.277
X196.85Y-83.817
X196.85Y-86.357
X196.85Y-88.897
X196.85Y-96.517
X196.85Y-99.057
X196.85Y-101.597
X196.85Y-104.137
X196.85Y-111.757
X196.85Y-114.297
X196.85Y-116.837
X196.85Y-119.377
X196.85Y-126.997
X196.85Y-129.537
X196.85Y-132.077
X196.85Y-134.617
M30
