%TF.GenerationSoftware,KiCad,Pcbnew,9.0.4-9.0.4-0~ubuntu24.04.1*%
%TF.CreationDate,2025-09-18T23:07:20+09:00*%
%TF.ProjectId,romread-adapter,726f6d72-6561-4642-9d61-646170746572,0-0*%
%TF.SameCoordinates,Original*%
%TF.FileFunction,Soldermask,Bot*%
%TF.FilePolarity,Negative*%
%FSLAX46Y46*%
G04 Gerber Fmt 4.6, Leading zero omitted, Abs format (unit mm)*
G04 Created by KiCad (PCBNEW 9.0.4-9.0.4-0~ubuntu24.04.1) date 2025-09-18 23:07:20*
%MOMM*%
%LPD*%
G01*
G04 APERTURE LIST*
%ADD10R,1.700000X1.700000*%
%ADD11C,1.700000*%
%ADD12R,2.000000X1.440000*%
%ADD13O,2.000000X1.440000*%
%ADD14C,1.600000*%
G04 APERTURE END LIST*
D10*
%TO.C,JH41*%
X196850000Y-81276902D03*
D11*
X196850000Y-83816902D03*
X196850000Y-86356902D03*
X196850000Y-88896902D03*
%TD*%
D10*
%TO.C,JH32*%
X138430000Y-96520000D03*
D11*
X138430000Y-99060000D03*
X138430000Y-101600000D03*
X138430000Y-104140000D03*
%TD*%
D10*
%TO.C,JH42*%
X196850000Y-96516902D03*
D11*
X196850000Y-99056902D03*
X196850000Y-101596902D03*
X196850000Y-104136902D03*
%TD*%
D10*
%TO.C,JH1*%
X179070000Y-53340000D03*
D11*
X179070000Y-55880000D03*
X176530000Y-53340000D03*
X176530000Y-55880000D03*
X173990000Y-53340000D03*
X173990000Y-55880000D03*
X171450000Y-53340000D03*
X171450000Y-55880000D03*
X168910000Y-53340000D03*
X168910000Y-55880000D03*
X166370000Y-53340000D03*
X166370000Y-55880000D03*
X163830000Y-53340000D03*
X163830000Y-55880000D03*
X161290000Y-53340000D03*
X161290000Y-55880000D03*
X158750000Y-53340000D03*
X158750000Y-55880000D03*
X156210000Y-53340000D03*
X156210000Y-55880000D03*
X153670000Y-53340000D03*
X153670000Y-55880000D03*
X151130000Y-53340000D03*
X151130000Y-55880000D03*
X148590000Y-53340000D03*
X148590000Y-55880000D03*
X146050000Y-53340000D03*
X146050000Y-55880000D03*
X143510000Y-53340000D03*
X143510000Y-55880000D03*
X140970000Y-53340000D03*
X140970000Y-55880000D03*
X138430000Y-53340000D03*
X138430000Y-55880000D03*
X135890000Y-53340000D03*
X135890000Y-55880000D03*
X133350000Y-53340000D03*
X133350000Y-55880000D03*
X130810000Y-53340000D03*
X130810000Y-55880000D03*
X128270000Y-53340000D03*
X128270000Y-55880000D03*
X125730000Y-53340000D03*
X125730000Y-55880000D03*
X123190000Y-53340000D03*
X123190000Y-55880000D03*
X120650000Y-53340000D03*
X120650000Y-55880000D03*
X118110000Y-53340000D03*
X118110000Y-55880000D03*
%TD*%
D10*
%TO.C,JR3*%
X177800000Y-137156902D03*
D11*
X177800000Y-134616902D03*
X177800000Y-132076902D03*
X177800000Y-129536902D03*
X177800000Y-126996902D03*
X177800000Y-124456902D03*
X177800000Y-121916902D03*
X177800000Y-119376902D03*
X177800000Y-116836902D03*
X177800000Y-114296902D03*
X177800000Y-111756902D03*
X177800000Y-109216902D03*
X177800000Y-106676902D03*
X177800000Y-104136902D03*
X177800000Y-101596902D03*
X177800000Y-99056902D03*
X177800000Y-96516902D03*
X177800000Y-93976902D03*
X177800000Y-91436902D03*
X177800000Y-88896902D03*
X177800000Y-86356902D03*
X177800000Y-83816902D03*
X177800000Y-81276902D03*
X177800000Y-78736902D03*
%TD*%
D10*
%TO.C,JH2*%
X154940000Y-106680000D03*
D11*
X154940000Y-109220000D03*
X154940000Y-111760000D03*
X154940000Y-114300000D03*
X154940000Y-116840000D03*
X154940000Y-119380000D03*
X154940000Y-121920000D03*
X154940000Y-124460000D03*
X154940000Y-127000000D03*
X154940000Y-129540000D03*
X154940000Y-132080000D03*
X154940000Y-134620000D03*
X154940000Y-137160000D03*
%TD*%
D10*
%TO.C,JH14*%
X176530000Y-69850000D03*
D11*
X179070000Y-69850000D03*
X181610000Y-69850000D03*
X184150000Y-69850000D03*
%TD*%
D12*
%TO.C,JR1*%
X105659000Y-77470000D03*
D13*
X105659000Y-80010000D03*
X105659000Y-82550000D03*
X105659000Y-85090000D03*
X105659000Y-87630000D03*
X105659000Y-90170000D03*
X105659000Y-92710000D03*
X105659000Y-95250000D03*
X105659000Y-97790000D03*
X105659000Y-100330000D03*
X105659000Y-102870000D03*
X105659000Y-105410000D03*
X105659000Y-107950000D03*
X105659000Y-110490000D03*
X105659000Y-113030000D03*
X105659000Y-115570000D03*
X105659000Y-118110000D03*
X105659000Y-120650000D03*
X105659000Y-123190000D03*
X105659000Y-125730000D03*
X105659000Y-128270000D03*
X105659000Y-130810000D03*
X105659000Y-133350000D03*
X105659000Y-135890000D03*
X120899000Y-135890000D03*
X120899000Y-133350000D03*
X120899000Y-130810000D03*
X120899000Y-128270000D03*
X120899000Y-125730000D03*
X120899000Y-123190000D03*
X120899000Y-120650000D03*
X120899000Y-118110000D03*
X120899000Y-115570000D03*
X120899000Y-113030000D03*
X120899000Y-110490000D03*
X120899000Y-107950000D03*
X120899000Y-105410000D03*
X120899000Y-102870000D03*
X120899000Y-100330000D03*
X120899000Y-97790000D03*
X120899000Y-95250000D03*
X120899000Y-92710000D03*
X120899000Y-90170000D03*
X120899000Y-87630000D03*
X120899000Y-85090000D03*
X120899000Y-82550000D03*
X120899000Y-80010000D03*
X120899000Y-77470000D03*
%TD*%
D10*
%TO.C,JH6*%
X180340000Y-104136902D03*
%TD*%
%TO.C,JH43*%
X196850000Y-111756902D03*
D11*
X196850000Y-114296902D03*
X196850000Y-116836902D03*
X196850000Y-119376902D03*
%TD*%
D10*
%TO.C,JH23*%
X168910000Y-146050000D03*
D11*
X171450000Y-146050000D03*
X173990000Y-146050000D03*
X176530000Y-146050000D03*
%TD*%
D10*
%TO.C,JH22*%
X153670000Y-146050000D03*
D11*
X156210000Y-146050000D03*
X158750000Y-146050000D03*
X161290000Y-146050000D03*
%TD*%
D10*
%TO.C,JH24*%
X184150000Y-146050000D03*
D11*
X186690000Y-146050000D03*
X189230000Y-146050000D03*
X191770000Y-146050000D03*
%TD*%
D10*
%TO.C,JH31*%
X138430000Y-81280000D03*
D11*
X138430000Y-83820000D03*
X138430000Y-86360000D03*
X138430000Y-88900000D03*
%TD*%
D10*
%TO.C,JH34*%
X138430000Y-127000000D03*
D11*
X138430000Y-129540000D03*
X138430000Y-132080000D03*
X138430000Y-134620000D03*
%TD*%
D10*
%TO.C,JH5*%
X180340000Y-114296902D03*
D11*
X180340000Y-111756902D03*
X180340000Y-109216902D03*
%TD*%
D10*
%TO.C,JH11*%
X138430000Y-69850000D03*
D11*
X140970000Y-69850000D03*
X143510000Y-69850000D03*
X146050000Y-69850000D03*
%TD*%
D10*
%TO.C,JH13*%
X163830000Y-69850000D03*
D11*
X166370000Y-69850000D03*
X168910000Y-69850000D03*
X171450000Y-69850000D03*
%TD*%
D14*
%TO.C,C1*%
X190500000Y-113110000D03*
X190500000Y-123110000D03*
%TD*%
D10*
%TO.C,JH4*%
X180340000Y-121916902D03*
D11*
X180340000Y-119376902D03*
%TD*%
D10*
%TO.C,JH21*%
X138430000Y-146050000D03*
D11*
X140970000Y-146050000D03*
X143510000Y-146050000D03*
X146050000Y-146050000D03*
%TD*%
D10*
%TO.C,JH33*%
X138430000Y-111760000D03*
D11*
X138430000Y-114300000D03*
X138430000Y-116840000D03*
X138430000Y-119380000D03*
%TD*%
D10*
%TO.C,JH15*%
X189230000Y-69850000D03*
D11*
X191770000Y-69850000D03*
X194310000Y-69850000D03*
X196850000Y-69850000D03*
%TD*%
D10*
%TO.C,JH3*%
X180340000Y-137156902D03*
D11*
X180340000Y-134616902D03*
X180340000Y-132076902D03*
X180340000Y-129536902D03*
X180340000Y-126996902D03*
%TD*%
D10*
%TO.C,JH44*%
X196850000Y-126996902D03*
D11*
X196850000Y-129536902D03*
X196850000Y-132076902D03*
X196850000Y-134616902D03*
%TD*%
D10*
%TO.C,JR2*%
X157480000Y-78740000D03*
D11*
X157480000Y-81280000D03*
X157480000Y-83820000D03*
X157480000Y-86360000D03*
X157480000Y-88900000D03*
X157480000Y-91440000D03*
X157480000Y-93980000D03*
X157480000Y-96520000D03*
X157480000Y-99060000D03*
X157480000Y-101600000D03*
X157480000Y-104140000D03*
X157480000Y-106680000D03*
X157480000Y-109220000D03*
X157480000Y-111760000D03*
X157480000Y-114300000D03*
X157480000Y-116840000D03*
X157480000Y-119380000D03*
X157480000Y-121920000D03*
X157480000Y-124460000D03*
X157480000Y-127000000D03*
X157480000Y-129540000D03*
X157480000Y-132080000D03*
X157480000Y-134620000D03*
X157480000Y-137160000D03*
%TD*%
D10*
%TO.C,JH12*%
X151130000Y-69850000D03*
D11*
X153670000Y-69850000D03*
X156210000Y-69850000D03*
X158750000Y-69850000D03*
%TD*%
M02*
