%TF.GenerationSoftware,KiCad,Pcbnew,9.0.3+1*%
%TF.CreationDate,2025-09-17T15:15:53+09:00*%
%TF.ProjectId,romread-adapter,726f6d72-6561-4642-9d61-646170746572,0-0*%
%TF.SameCoordinates,Original*%
%TF.FileFunction,Other,User*%
%FSLAX46Y46*%
G04 Gerber Fmt 4.6, Leading zero omitted, Abs format (unit mm)*
G04 Created by KiCad (PCBNEW 9.0.3+1) date 2025-09-17 15:15:53*
%MOMM*%
%LPD*%
G01*
G04 APERTURE LIST*
%ADD10C,0.050000*%
G04 APERTURE END LIST*
D10*
%TO.C,JH41*%
X195080000Y-79506902D02*
X195080000Y-90666902D01*
X195080000Y-90666902D02*
X198620000Y-90666902D01*
X198620000Y-79506902D02*
X195080000Y-79506902D01*
X198620000Y-90666902D02*
X198620000Y-79506902D01*
%TO.C,JH32*%
X136660000Y-94750000D02*
X136660000Y-105910000D01*
X136660000Y-105910000D02*
X140200000Y-105910000D01*
X140200000Y-94750000D02*
X136660000Y-94750000D01*
X140200000Y-105910000D02*
X140200000Y-94750000D01*
%TO.C,JH42*%
X195080000Y-94746902D02*
X195080000Y-105906902D01*
X195080000Y-105906902D02*
X198620000Y-105906902D01*
X198620000Y-94746902D02*
X195080000Y-94746902D01*
X198620000Y-105906902D02*
X198620000Y-94746902D01*
%TO.C,JH1*%
X116340000Y-51570000D02*
X116340000Y-57660000D01*
X116340000Y-57660000D02*
X180840000Y-57660000D01*
X180840000Y-51570000D02*
X116340000Y-51570000D01*
X180840000Y-57660000D02*
X180840000Y-51570000D01*
%TO.C,JR3*%
X176030000Y-76966902D02*
X176030000Y-138936902D01*
X176030000Y-138936902D02*
X179570000Y-138936902D01*
X179570000Y-76966902D02*
X176030000Y-76966902D01*
X179570000Y-138936902D02*
X179570000Y-76966902D01*
%TO.C,JH2*%
X153170000Y-104900000D02*
X153170000Y-138930000D01*
X153170000Y-138930000D02*
X156710000Y-138930000D01*
X156710000Y-104900000D02*
X153170000Y-104900000D01*
X156710000Y-138930000D02*
X156710000Y-104900000D01*
%TO.C,JH14*%
X174760000Y-68080000D02*
X174760000Y-71620000D01*
X174760000Y-71620000D02*
X185920000Y-71620000D01*
X185920000Y-68080000D02*
X174760000Y-68080000D01*
X185920000Y-71620000D02*
X185920000Y-68080000D01*
%TO.C,JR1*%
X100159000Y-54110000D02*
X105759000Y-54110000D01*
X100159000Y-74070000D02*
X100159000Y-54110000D01*
X101329000Y-74070000D02*
X100159000Y-74070000D01*
X101329000Y-142310000D02*
X101329000Y-74070000D01*
X105759000Y-54110000D02*
X105759000Y-66410000D01*
X105759000Y-66410000D02*
X125229000Y-66410000D01*
X125229000Y-66410000D02*
X125229000Y-142310000D01*
X125229000Y-142310000D02*
X101329000Y-142310000D01*
%TO.C,JH6*%
X178570000Y-102366902D02*
X178570000Y-105906902D01*
X178570000Y-105906902D02*
X182110000Y-105906902D01*
X182110000Y-102366902D02*
X178570000Y-102366902D01*
X182110000Y-105906902D02*
X182110000Y-102366902D01*
%TO.C,JH43*%
X195080000Y-109986902D02*
X195080000Y-121146902D01*
X195080000Y-121146902D02*
X198620000Y-121146902D01*
X198620000Y-109986902D02*
X195080000Y-109986902D01*
X198620000Y-121146902D02*
X198620000Y-109986902D01*
%TO.C,JH23*%
X167140000Y-144280000D02*
X167140000Y-147820000D01*
X167140000Y-147820000D02*
X178300000Y-147820000D01*
X178300000Y-144280000D02*
X167140000Y-144280000D01*
X178300000Y-147820000D02*
X178300000Y-144280000D01*
%TO.C,JH22*%
X151900000Y-144280000D02*
X151900000Y-147820000D01*
X151900000Y-147820000D02*
X163060000Y-147820000D01*
X163060000Y-144280000D02*
X151900000Y-144280000D01*
X163060000Y-147820000D02*
X163060000Y-144280000D01*
%TO.C,JH24*%
X182380000Y-144280000D02*
X182380000Y-147820000D01*
X182380000Y-147820000D02*
X193540000Y-147820000D01*
X193540000Y-144280000D02*
X182380000Y-144280000D01*
X193540000Y-147820000D02*
X193540000Y-144280000D01*
%TO.C,JH31*%
X136660000Y-79510000D02*
X136660000Y-90670000D01*
X136660000Y-90670000D02*
X140200000Y-90670000D01*
X140200000Y-79510000D02*
X136660000Y-79510000D01*
X140200000Y-90670000D02*
X140200000Y-79510000D01*
%TO.C,JH34*%
X136660000Y-125230000D02*
X136660000Y-136390000D01*
X136660000Y-136390000D02*
X140200000Y-136390000D01*
X140200000Y-125230000D02*
X136660000Y-125230000D01*
X140200000Y-136390000D02*
X140200000Y-125230000D01*
%TO.C,JH5*%
X178570000Y-107446902D02*
X178570000Y-116066902D01*
X178570000Y-116066902D02*
X182110000Y-116066902D01*
X182110000Y-107446902D02*
X178570000Y-107446902D01*
X182110000Y-116066902D02*
X182110000Y-107446902D01*
%TO.C,JH11*%
X136660000Y-68080000D02*
X136660000Y-71620000D01*
X136660000Y-71620000D02*
X147820000Y-71620000D01*
X147820000Y-68080000D02*
X136660000Y-68080000D01*
X147820000Y-71620000D02*
X147820000Y-68080000D01*
%TO.C,JH13*%
X162060000Y-68080000D02*
X162060000Y-71620000D01*
X162060000Y-71620000D02*
X173220000Y-71620000D01*
X173220000Y-68080000D02*
X162060000Y-68080000D01*
X173220000Y-71620000D02*
X173220000Y-68080000D01*
%TO.C,C1*%
X192050000Y-112060000D02*
X188950000Y-112060000D01*
X188950000Y-124160000D01*
X192050000Y-124160000D01*
X192050000Y-112060000D01*
%TO.C,JH4*%
X178570000Y-117596902D02*
X178570000Y-123686902D01*
X178570000Y-123686902D02*
X182110000Y-123686902D01*
X182110000Y-117596902D02*
X178570000Y-117596902D01*
X182110000Y-123686902D02*
X182110000Y-117596902D01*
%TO.C,JH21*%
X136660000Y-144280000D02*
X136660000Y-147820000D01*
X136660000Y-147820000D02*
X147820000Y-147820000D01*
X147820000Y-144280000D02*
X136660000Y-144280000D01*
X147820000Y-147820000D02*
X147820000Y-144280000D01*
%TO.C,JH33*%
X136660000Y-109990000D02*
X136660000Y-121150000D01*
X136660000Y-121150000D02*
X140200000Y-121150000D01*
X140200000Y-109990000D02*
X136660000Y-109990000D01*
X140200000Y-121150000D02*
X140200000Y-109990000D01*
%TO.C,JH15*%
X187460000Y-68080000D02*
X187460000Y-71620000D01*
X187460000Y-71620000D02*
X198620000Y-71620000D01*
X198620000Y-68080000D02*
X187460000Y-68080000D01*
X198620000Y-71620000D02*
X198620000Y-68080000D01*
%TO.C,JH3*%
X178570000Y-125226902D02*
X178570000Y-138926902D01*
X178570000Y-138926902D02*
X182110000Y-138926902D01*
X182110000Y-125226902D02*
X178570000Y-125226902D01*
X182110000Y-138926902D02*
X182110000Y-125226902D01*
%TO.C,JH44*%
X195080000Y-125226902D02*
X195080000Y-136386902D01*
X195080000Y-136386902D02*
X198620000Y-136386902D01*
X198620000Y-125226902D02*
X195080000Y-125226902D01*
X198620000Y-136386902D02*
X198620000Y-125226902D01*
%TO.C,JR2*%
X155710000Y-76960000D02*
X155710000Y-138930000D01*
X155710000Y-138930000D02*
X159250000Y-138930000D01*
X159250000Y-76960000D02*
X155710000Y-76960000D01*
X159250000Y-138930000D02*
X159250000Y-76960000D01*
%TO.C,JH12*%
X149360000Y-68080000D02*
X149360000Y-71620000D01*
X149360000Y-71620000D02*
X160520000Y-71620000D01*
X160520000Y-68080000D02*
X149360000Y-68080000D01*
X160520000Y-71620000D02*
X160520000Y-68080000D01*
%TD*%
M02*
